<?xml version="1.0" encoding="utf-8"?>
<!-- Generator: Adobe Illustrator 16.0.4, SVG Export Plug-In . SVG Version: 6.00 Build 0)  -->
<!DOCTYPE svg PUBLIC "-//W3C//DTD SVG 1.1//EN" "http://www.w3.org/Graphics/SVG/1.1/DTD/svg11.dtd">
<svg version="1.1" id="Model::Bottom_Half::Core::Sensor_FR1::Engravings"
	 xmlns="http://www.w3.org/2000/svg" xmlns:xlink="http://www.w3.org/1999/xlink" x="0px" y="0px" width="298.667px"
	 height="239.333px" viewBox="0 0 298.667 239.333" enable-background="new 0 0 298.667 239.333" xml:space="preserve">
<path fill="#0E9F00" d="M161.337,170.138c-4.683,0-8.622-0.417-12.399-1.312c-5.699-1.349-10.22-4.048-14.66-8.75
	c-0.705-0.746-1.341-1.428-1.933-2.06c-3.529-3.775-5.473-5.854-10.496-9.592c-4.196-3.123-8.813-5.972-14.531-8.965
	c-8.763-4.591-18.46-8.716-31.441-13.373c-1.728-0.028-3.157-0.621-4.087-1.706c-0.911-1.062-1.271-2.525-1.043-4.228
	c0.413-3.083,1.885-5.354,3.768-8.002c0.742-1.044,1.474-2.094,2.205-3.144c2.784-3.994,5.663-8.124,9.048-11.817
	c1.261-1.376,3.885-4.238,6.82-4.238c0.42,0,0.838,0.059,1.243,0.175c3.129,0.897,4.611,4.766,4.033,7.815
	c-0.486,2.563-1.973,4.118-3.547,5.764c-0.337,0.353-0.677,0.708-1.01,1.077c-1.714,1.9-3.186,4.084-4.496,6.673
	c0.673,0.383,1.351,0.755,2.029,1.128c1.912,1.051,3.889,2.138,5.712,3.443c2.32,1.662,4.43,3.614,6.47,5.502
	c0,0,0.909,0.846,1.188,1.108c2.723,2.571,9.1,8.592,13.285,8.592c0.358-0.001,0.695-0.046,1.003-0.135
	c1.97-0.567,3.372-3.083,4.166-7.476c0.588-3.247,0.702-6.401,0.736-9.059c0.085-6.636-0.473-13.206-0.968-18.188
	c-1.113-7.028-3.708-23.42-12.748-28c0.737,4.488,1.415,8.742,1.065,13.292c-0.4,5.188-2.656,8.045-6.353,8.045
	c-0.746,0-1.56-0.115-2.421-0.342c-9.892-2.607-14.072-15.667-15.41-21.16c0.401-1.022,0.78-1.96,1.145-2.905l0.049-0.128
	l0.13,0.043c0.498,0.165,0.743,0.442,0.846,0.956c0.802,3.99,4.119,17.262,13.15,20.511c0.925,0.333,1.756,0.501,2.472,0.501
	c0.969,0,1.732-0.295,2.332-0.902c1.469-1.485,1.624-4.565,1.595-7.083c-0.05-4.411-0.808-8.771-1.477-12.619
	c-0.492-2.827-0.975-5.431-1.433-7.905c-1.821-9.821-3.259-17.579-3.4-29.103l-0.002-0.146l0.146-0.016l2.392,0.003l0.002,0.142
	c0.132,10.673,2.029,21.192,3.862,31.365c0.269,1.49,0.538,2.981,0.802,4.475c11.585,4.168,14.409,22.03,15.768,30.625
	c0.486,3.074,0.9,6.209,1.3,9.242c0.408,3.09,0.829,6.285,1.327,9.416c0.47,2.949,1.012,6.086,2.008,9.173
	c0.603,1.87,2.016,6.251,5.365,6.251c0.132,0,0.269-0.007,0.407-0.021c3.136-0.342,3.416-1.791,3.676-4.539
	c0.185-1.951,0.203-3.938,0.22-5.859l0.009-0.893c0.058-5.201-0.057-9.495-0.361-13.511c-0.702-9.234-2.309-17.913-4.915-26.533
	c-2.733-9.04-6.614-17.045-11.864-24.474c-0.529-0.749-1.071-1.499-1.617-2.254c-4.719-6.529-9.598-13.281-8.696-22.465l0.013-0.13
	l2.538,0.003l-0.013,0.265c-0.867,8.396,4.059,15.158,8.405,21.124c0.701,0.962,1.388,1.906,2.037,2.835
	c5.037,7.218,8.825,15.135,11.581,24.204l2.333,8.913c0.645,2.9,1.194,5.834,1.635,8.728c0.038-0.003,0.077-0.005,0.115-0.005
	c0.293,0,0.555,0.099,0.777,0.293c0.175,0.153,0.644,1.022,1.394,2.585c0.844,1.755,1.693,3.6,2.21,5.639
	c0.557,2.197,0.528,9.733,0.506,11.991l-0.019,1.453c-0.052,3.582-0.102,6.967,0.696,10.464c0.198,0.87,0.793,3.476,2.546,4.184
	c0.247-0.919-0.471-4.275-0.714-5.415c-0.05-0.234-0.088-0.41-0.105-0.505c-0.507-2.712-0.809-4.987-0.95-7.161
	c-0.208-3.211-0.172-6.468-0.137-9.618c0.015-1.282,0.029-2.565,0.027-3.848c-0.006-4.88-0.449-9.24-1.356-13.328
	c-0.854-3.853-2.017-7.83-3.771-12.897c-2.747-7.938-6.223-16.014-10.627-24.687c-0.461-0.909-0.988-1.906-1.552-2.97
	c-3.379-6.387-8.006-15.134-7.574-22.098l0.008-0.135l2.541,0.003l-0.01,0.152c-0.316,4.815,1.215,8.483,3.413,13.146
	c1.229,2.61,2.577,5.214,3.879,7.732c0.779,1.505,1.558,3.01,2.317,4.524c4.381,8.74,7.857,17.025,10.625,25.33
	c3.345,10.038,4.729,16.003,4.638,26.962c-0.006,0.743-0.015,1.486-0.024,2.229c-0.047,3.759-0.096,7.647,0.321,11.477
	c0.218,2.016,0.588,4.009,0.979,6.042l0.046,0.24c0.184,0.948,0.373,1.93,0.494,2.911c0.052,0.405,0.1,0.804,0.119,1.207
	c3.425-1.342,5.075-4.951,5.044-11.024c-0.025-4.617-0.878-9.055-1.796-13.163c-1.888-8.453-4.585-16.798-7.193-24.869l-0.236-0.731
	c-0.447-1.386-0.912-2.802-1.385-4.245c-4.917-15.003-10.492-32.009-8.839-47.774l0.013-0.129l2.53,0.003v0.144
	c0,0.045-0.003,0.088-0.007,0.133c-1.657,15.451,4.341,33.635,9.16,48.247c0.663,2.01,1.306,3.959,1.905,5.831
	c2.797,8.718,5.669,17.672,7.349,26.85c0.792,4.327,1.503,8.963,0.763,13.884c-0.559,3.709-2.009,6.431-4.312,8.09
	c-0.228,0.321-0.602,0.675-1.109,1.05c-0.863,0.64-1.76,0.994-2.82,1.115c-0.232,0.026-0.459,0.039-0.682,0.039
	c-1.844,0-3.453-0.924-4.532-2.603c-1.437-2.235-2.165-6.07-2.225-11.725c-0.018-1.646-0.011-3.291-0.004-4.936
	c0.01-2.31,0.021-4.699-0.043-7.048c-0.047-1.744-0.205-3.811-1.012-5.918c-0.199-0.517-0.42-1.051-0.672-1.619
	c0.343,3.157,0.57,6.314,0.678,9.398c0.124,3.593,0.129,7.38,0.019,11.917l-0.016,0.8c-0.058,3.488-0.13,7.821-4.501,9.165
	c3.036,7.639,7.655,13.118,13.365,15.851c2.795,1.337,5.811,2.016,8.961,2.016c3.907,0,7.906-1.062,11.563-3.072
	c6.539-3.595,11.215-9.765,12.508-16.505c1.375-7.155-1.899-14.942-4.29-20.627c-2.527-6.006-5.645-12.303-8.945-18.968
	c-9.348-18.876-19.942-40.271-19.612-61.352l0.002-0.143l2.538,0.023l-0.003,0.145c-0.324,20.45,10.049,41.388,19.202,59.861
	c4.088,8.251,7.949,16.045,10.758,23.439c2.825,7.436,4.752,13.763,1.817,21.809c-2.488,6.817-8.159,12.697-15.171,15.728
	c-3.382,1.462-6.868,2.203-10.362,2.203c-4.018,0-7.821-0.979-11.306-2.907c-5.853-3.239-10.557-9.165-13.607-17.14
	c-2.852-0.119-5.027-2.014-6.647-5.787c-1.113-2.588-1.732-5.253-2.226-7.809c-0.415,5.92-1.528,9.946-3.394,12.291
	c-1.311,1.646-2.946,2.481-4.858,2.481c-2.875,0-5.835-1.86-7.811-3.261c-2.875-2.036-5.47-4.441-7.98-6.769
	c-0.866-0.802-1.731-1.604-2.61-2.394c-3.84-3.452-5.407-4.317-8.84-6.213c-0.761-0.42-1.61-0.889-2.594-1.448
	c-1.783,3.521-3.346,6.535-7.199,8.333c12.379,4.582,21.664,8.671,30.064,13.24c5.411,2.944,9.986,5.879,13.989,8.971
	c4.531,3.498,6.082,5.166,8.897,8.193c0.871,0.937,1.858,1.998,3.091,3.281c4.094,4.262,8.411,6.677,13.996,7.83
	c3.364,0.694,6.935,1.033,10.915,1.033c1.772-0.001,3.66-0.065,5.771-0.2c5.218-0.332,22.852-2.074,30.678-10.544
	c8.064-8.727,1.633-24.548-1.114-31.303c-3.06-7.528-6.688-14.926-10.197-22.08c-1.303-2.656-2.605-5.312-3.884-7.981
	c-9.186-19.177-19.118-41.425-20.697-62.769l-0.012-0.155l0.151-0.084l2.388,0.003l0.01,0.133
	c1.592,21.204,11.601,43.447,21.717,64.413c1.055,2.186,2.125,4.363,3.195,6.539c3.892,7.914,7.916,16.097,11.058,24.563
	c7.461,20.1,2.643,27.67-2.389,32.02c-9.486,8.203-27.106,9.619-32.281,9.857C164.193,170.102,162.726,170.138,161.337,170.138z
	 M92.629,95.481c-0.367,0-0.757,0.088-1.158,0.261c-2.068,0.893-4.75,4.181-5.631,5.262c-2.658,3.259-5.114,6.746-7.489,10.119
	c-0.588,0.835-1.176,1.67-1.768,2.503c-1.426,2.009-2.434,3.656-3.046,5.653c-0.469,1.529-0.442,2.663,0.081,3.37
	c0.449,0.606,1.281,0.914,2.476,0.914c5.453-0.034,8.035-5.314,9.92-9.17c0.19-0.39,0.375-0.767,0.556-1.126
	c1.334-2.651,2.703-4.738,4.307-6.567c0.226-0.257,0.503-0.555,0.809-0.884c1.336-1.434,3.355-3.602,3.686-5.343
	c0.275-1.441-0.093-3.077-0.915-4.07C93.957,95.8,93.325,95.481,92.629,95.481z"/>
<path fill="#0E9F00" d="M200.357,128.2c-3.988-10.747-9.292-20.819-14.248-31.09c-9.158-18.981-20.082-42.5-21.73-64.465
	l-2.254-0.003l0.004,0.084c1.588,21.459,11.76,44.087,20.684,62.718c4.781,9.982,9.906,19.787,14.085,30.068
	c3.267,8.035,8.954,22.941,1.086,31.455c-6.948,7.52-21.845,10.021-30.774,10.59c-5.642,0.359-11.129,0.32-16.725-0.836
	c-5.742-1.186-10.032-3.667-14.071-7.871c-5.154-5.364-6.028-6.871-11.972-11.46c-4.411-3.407-9.085-6.3-13.97-8.958
	c-9.784-5.322-19.962-9.51-30.375-13.354c4.108-1.787,5.697-4.95,7.519-8.546c5.477,3.115,6.836,3.479,11.591,7.753
	c3.469,3.118,6.737,6.432,10.577,9.152c3.623,2.566,8.843,5.367,12.474,0.807c2.644-3.322,3.234-9.593,3.434-13.367
	c0.562,3.052,1.191,6.033,2.431,8.918c1.175,2.736,3.121,5.606,6.615,5.703c2.593,6.818,6.856,13.435,13.577,17.154
	c6.776,3.751,14.586,3.704,21.542,0.698c6.785-2.933,12.523-8.606,15.092-15.646c2.928-8.024,0.959-14.402-1.816-21.708
	c-9.274-24.421-30.436-53.984-29.969-83.354l-2.25-0.02c-0.443,28.34,18.723,56.91,28.547,80.262
	c2.527,6.01,5.66,13.625,4.299,20.71c-1.373,7.156-6.354,13.181-12.58,16.604c-6.334,3.48-13.93,4.278-20.656,1.061
	c-6.706-3.209-10.935-9.568-13.494-16.074c4.761-1.357,4.476-6.234,4.565-9.875c0.097-3.971,0.118-7.937-0.019-11.908
	c-0.12-3.46-0.384-6.883-0.777-10.287c0.375,0.804,0.73,1.618,1.05,2.451c0.749,1.956,0.965,3.908,1.021,5.965
	c0.108,3.996,0.003,7.991,0.047,11.986c0.034,3.199,0.287,8.67,2.202,11.648c1.151,1.791,2.917,2.746,5.076,2.498
	c1.046-0.119,1.905-0.461,2.751-1.088c0.309-0.228,0.783-0.605,1.111-1.051c2.457-1.77,3.748-4.633,4.254-7.994
	c0.716-4.756,0.083-9.222-0.762-13.837c-1.682-9.189-4.506-17.985-7.344-26.832c-5.003-15.604-12.958-36.546-11.072-54.136
	c0.004-0.04,0.007-0.079,0.007-0.119l-2.256-0.003c-1.812,17.286,5.232,36.526,10.218,51.959c2.735,8.467,5.487,16.903,7.433,25.613
	c0.975,4.362,1.774,8.68,1.799,13.193c0.021,3.991-0.602,9.523-5.324,11.23c-0.012-0.482-0.07-0.963-0.125-1.395
	c-0.131-1.058-0.338-2.098-0.539-3.142c-0.387-2.009-0.76-4.015-0.981-6.054c-0.499-4.583-0.334-9.143-0.297-13.722
	c0.089-10.769-1.255-16.786-4.631-26.916c-2.909-8.729-6.498-17.095-10.617-25.311c-2.052-4.093-4.245-8.113-6.198-12.259
	c-1.995-4.235-3.757-8.176-3.428-13.145c0-0.024,0.001-0.048,0.002-0.072c-0.751-0.001-1.501-0.002-2.252-0.003
	c-0.501,8.088,5.903,18.675,9.111,24.994c4.075,8.026,7.688,16.188,10.635,24.706c1.47,4.248,2.8,8.516,3.775,12.913
	c0.982,4.429,1.354,8.838,1.359,13.359c0.005,4.486-0.182,8.966,0.109,13.457c0.156,2.408,0.505,4.777,0.948,7.145
	c0.123,0.658,1.214,5.262,0.762,6.131c-1.753-0.594-2.434-2.859-2.771-4.336c-0.911-3.998-0.72-7.943-0.68-11.951
	c0.021-2.155,0.048-9.783-0.502-11.954c-0.498-1.963-1.312-3.765-2.181-5.572c-0.129-0.268-1.127-2.36-1.378-2.58
	c-0.281-0.246-0.611-0.295-0.919-0.234c-0.447-2.958-0.998-5.905-1.653-8.854l-2.332-8.907c-2.655-8.736-6.317-16.648-11.561-24.163
	c-4.715-6.756-11.479-14.259-10.468-24.049l0.006-0.114l-2.256-0.003c-1.001,10.197,5.229,17.464,10.288,24.622
	c5.38,7.613,9.191,15.607,11.884,24.515c2.638,8.725,4.231,17.481,4.921,26.564c0.342,4.508,0.412,9.009,0.362,13.523
	c-0.025,2.258-0.016,4.51-0.229,6.764c-0.265,2.792-0.553,4.314-3.758,4.664l-0.048,0.005c-3.59,0.354-5.121-3.843-5.923-6.33
	c-0.973-3.015-1.518-6.086-2.013-9.195c-0.988-6.204-1.646-12.452-2.627-18.657c-1.417-8.962-4.309-26.498-15.753-30.54
	c-2.105-11.923-4.529-23.698-4.681-35.945l-2.25-0.003v0.016c0.176,14.417,2.388,22.949,4.831,36.985
	c0.729,4.193,1.43,8.353,1.479,12.642c0.055,4.834-0.68,9.748-6.592,7.621c-7.961-2.864-11.865-13.764-13.242-20.618
	c-0.093-0.463-0.301-0.698-0.75-0.847c-0.365,0.946-0.745,1.885-1.139,2.819c1.8,7.39,6.31,18.684,15.307,21.055
	c5.79,1.526,8.188-2.326,8.593-7.575c0.356-4.625-0.37-9.038-1.109-13.533c9.213,4.389,11.86,20.543,13.078,28.238
	c0.603,6.06,1.047,12.102,0.969,18.204c-0.039,3.051-0.192,6.064-0.738,9.082c-0.392,2.167-1.417,6.768-4.268,7.589
	c-4.547,1.312-12.796-6.995-15.145-9.165c-2.234-2.064-4.437-4.143-6.924-5.924c-2.489-1.782-5.21-3.125-7.848-4.632
	c1.248-2.487,2.706-4.75,4.579-6.826c1.855-2.058,3.94-3.697,4.522-6.771c0.542-2.859-0.821-6.758-3.931-7.65
	c-3.212-0.922-6.185,2.133-7.917,4.022c-4.252,4.639-7.629,9.861-11.242,14.947c-1.747,2.458-3.319,4.773-3.743,7.938
	c-0.464,3.461,1.584,5.709,5.037,5.779c10.761,3.861,21.299,8.059,31.459,13.381c5.073,2.656,9.943,5.549,14.55,8.978
	c5.864,4.362,7.475,6.401,12.447,11.668c4.177,4.424,8.579,7.286,14.589,8.709c5.62,1.331,11.145,1.458,16.843,1.196
	c9.72-0.448,24.123-2.844,32.194-9.823C207.919,151.493,203.925,137.813,200.357,128.2z M73.399,119.236
	c0.657-2.14,1.8-3.91,3.067-5.694c3.024-4.257,5.954-8.573,9.262-12.629c1.249-1.531,3.704-4.447,5.686-5.303
	c2.973-1.283,4.603,2.236,4.098,4.889c-0.413,2.173-3.278,4.87-4.528,6.295c-1.751,1.997-3.1,4.18-4.287,6.537
	c-2.021,4.016-4.521,10.337-10.567,10.375h-0.009C73.099,123.717,72.601,121.836,73.399,119.236z"/>
</svg>
