<?xml version="1.0" encoding="utf-8"?>
<!-- Generator: Adobe Illustrator 16.0.4, SVG Export Plug-In . SVG Version: 6.00 Build 0)  -->
<!DOCTYPE svg PUBLIC "-//W3C//DTD SVG 1.1//EN" "http://www.w3.org/Graphics/SVG/1.1/DTD/svg11.dtd">
<svg version="1.1" id="Layer_1" xmlns="http://www.w3.org/2000/svg" xmlns:xlink="http://www.w3.org/1999/xlink" x="0px" y="0px"
	 width="492.222px" height="362.575px" viewBox="0 0 492.222 362.575" enable-background="new 0 0 492.222 362.575"
	 xml:space="preserve">
<g id="Engrave">
	<g id="Model::Bottom_Half::Sensor_FR1::Engravings">
		<path fill="#CC0099" d="M347.05,192.524c-0.004-0.085-0.02-0.169-0.043-0.249"/>
		<path fill="#CC0099" d="M347.05,192.524c-0.004-0.085-0.02-0.169-0.043-0.249"/>
		<path fill="#CC0099" d="M344.847,192.904c-0.018-0.062-0.035-0.122-0.053-0.184"/>
		<path fill="#CC0099" d="M344.847,192.904c-0.018-0.062-0.035-0.122-0.053-0.184"/>
		<path fill="#CC0099" d="M347.05,192.524c-0.004-0.085-0.02-0.169-0.043-0.249"/>
		<path fill="#CC0099" d="M347.05,192.524c-0.004-0.085-0.02-0.169-0.043-0.249"/>
		<path fill="#CC0099" d="M347.05,192.524c-0.002,0.064-0.004,0.13-0.006,0.196"/>
		<path fill="#CC0099" d="M347.05,192.524c-0.002,0.064-0.004,0.13-0.006,0.196"/>
		<path fill="#CC0099" d="M344.847,192.904c-0.018-0.062-0.035-0.122-0.053-0.184"/>
		<path fill="#CC0099" d="M344.847,192.904c-0.018-0.062-0.035-0.122-0.053-0.184"/>
		<path fill="#CC0099" d="M314.998,147.617c-0.061-0.128-0.144-0.242-0.244-0.335"/>
		<path fill="#CC0099" d="M314.998,147.617c-0.061-0.128-0.144-0.242-0.244-0.335"/>
		<path fill="#CC0099" d="M313.208,148.917c-0.055-0.053-0.111-0.106-0.168-0.159"/>
		<path fill="#CC0099" d="M313.208,148.917c-0.055-0.053-0.111-0.106-0.168-0.159"/>
		<path fill="#CC0099" d="M314.998,147.617c-0.061-0.128-0.144-0.242-0.244-0.335"/>
		<path fill="#CC0099" d="M314.998,147.617c-0.061-0.128-0.144-0.242-0.244-0.335"/>
		<path fill="#CC0099" d="M314.998,147.617c0.01,0.022,0.02,0.044,0.029,0.066"/>
		<path fill="#CC0099" d="M314.998,147.617c0.01,0.022,0.02,0.044,0.029,0.066"/>
		<path fill="#CC0099" d="M347.044,192.72c0.002-0.009,0.002-0.017,0.002-0.025c0.006-0.058,0.006-0.114,0.004-0.171"/>
		<path fill="#CC0099" d="M347.044,192.72c0.002-0.009,0.002-0.017,0.002-0.025c0.006-0.058,0.006-0.114,0.004-0.171"/>
		<path fill="#CC0099" d="M347.05,192.524c-0.002,0.064-0.004,0.13-0.006,0.196"/>
		<path fill="#CC0099" d="M347.05,192.524c-0.002,0.064-0.004,0.13-0.006,0.196"/>
		<path fill="#CC0099" d="M313.208,148.917c-0.055-0.053-0.111-0.106-0.168-0.159"/>
		<path fill="#CC0099" d="M313.208,148.917c-0.055-0.053-0.111-0.106-0.168-0.159"/>
		<path fill="#CC0099" d="M392.218,240.431c-0.478,0-0.842-0.205-1.195-0.404c-0.131-0.073-0.262-0.147-0.399-0.211
			c-1.085-0.507-2.141-1.029-3.139-1.555c-2.061-1.082-4.061-2.258-5.944-3.495c-3.973-2.61-7.361-5.406-10.361-8.55
			c-6.524-6.837-10.23-14.202-12.019-23.882c-3.146-17.041,1.011-35.992,11.405-51.992c1.271-1.955,3.267-4.729,5.38-7.665
			c3.828-5.321,8.168-11.352,10.09-15.091c4.843-9.424,3.555-15.943-4.753-24.054c-5.772-5.637-15.623-11.769-23.606-11.911
			l-0.321-0.003c-5.978,0-7.693,3.146-8.522,8.223c-0.196,1.204-0.318,2.467-0.384,3.976c0.107,2.147,0.124,4.485,0.053,7.352
			c-0.082,3.344-0.29,6.735-0.491,10.015c-0.208,3.378-0.423,6.872-0.498,10.315c-0.102,4.589-0.076,9.255-0.052,13.768
			c0.012,2.189,0.023,4.377,0.021,6.566l-0.003,4.558c-0.005,11.842-0.01,24.088-0.356,36.132l-0.006,0.195
			c-0.106,3.662-0.257,7.319-0.407,10.976c-0.476,11.582-0.968,23.558,0.021,35.417l0.007,0.078l-0.074,0.094l-2.254-0.002
			c-1.062-11.987-0.568-24.021-0.092-35.658c0.149-3.634,0.298-7.269,0.404-10.908c-3.774-13.083-3.733-23.213-3.683-36.039
			l0.009-2.431c0.017-6.173-0.4-12.497-1.276-19.334c-1.577-12.305-2.959-17.091-3.84-18.939
			c-3.294-6.907-10.828-8.239-16.209-8.641c-1.103-0.082-2.201-0.124-3.267-0.124c-4.495,0-10.772,0.758-15.151,4.372
			c-2.596,2.142-4.055,4.597-4.879,8.208c-0.87,3.814-0.779,5.566,1.485,9.092c3.312,5.158,7.464,9.208,11.859,13.497l0.741,0.724
			l-0.029-0.069c-1.121-2.667-2.18-5.187-2.39-8.15c-0.264-3.735,1.734-6.243,5.777-7.252c1.258-0.314,2.655-0.474,4.154-0.474
			c4.62,0,10.074,1.518,14.235,3.96c6.467,3.796,7.796,8.627,7.987,16.214c0.052,2.086,0.031,4.205,0.012,6.254
			c-0.011,1.102-0.021,2.203-0.021,3.305c0.001,2.074,0.047,4.147,0.092,6.22c0.024,1.096,0.049,2.191,0.066,3.288
			c0.219,13.871-2.617,23.715-7.929,37.027c-0.947,2.377-2.05,4.979-3.217,7.733c-3.878,9.149-8.272,19.52-9.776,28.028l-2.41,0.058
			v-0.072c0-0.069,0.005-0.136,0.017-0.203c1.533-8.858,5.918-19.19,9.786-28.307c1.025-2.418,2.01-4.738,2.887-6.904
			c2.053-5.077,4.377-11.152,6.052-17.713c1.546-6.055,2.269-12.116,2.208-18.529c-0.034-3.722-0.059-7.443-0.083-11.165
			l-0.054-7.58c-0.025-3.077-0.053-6.258-1.202-9.438c-1.146-3.168-3.192-4.811-6.124-6.434c-2.937-1.627-8.156-3.378-12.674-3.378
			c-2.116,0-3.891,0.377-5.274,1.123c-2.978,1.603-2.302,4.64-1.354,7.613c0.821,2.577,1.93,5.073,3.001,7.488
			c0.272,0.613,0.545,1.227,0.813,1.843c3.604,8.271,5.491,15.459,5.973,22.688c0.476,7.172-0.188,14.592-2.086,23.351
			c-0.938,4.329-2.586,9.963-4.329,15.927c-2.985,10.212-6.369,21.786-6.972,29.612l-2.398,0.064v-0.072
			c0.635-8.433,3.979-19.757,6.93-29.748c1.66-5.624,3.229-10.937,4.215-15.32c1.954-8.686,2.682-15.991,2.291-22.993
			c-0.399-7.179-2.215-14.269-5.713-22.312c-4.892-4.62-9.649-9.214-13.911-14.364l-0.155-0.188
			c-2.082-2.513-4.048-4.886-5.009-8.176c-0.896-3.07,0.229-7.649,1.202-9.978c2.487-5.95,7.944-9.71,15.783-10.874
			c1.724-0.255,3.677-0.391,5.648-0.391c5.401,0,10.519,0.973,14.039,2.668c7.724,3.722,8.8,9.876,9.94,16.393
			c1.308,7.492,2.124,13.803,2.567,19.861c0.495,6.777,0.42,11.728,0.348,16.515c-0.105,6.952-0.196,12.978,1.515,22.698
			c0.144-8.967,0.146-18.069,0.149-26.877c0.001-3.811,0.002-7.622,0.014-11.433c0.005-1.387,0.005-2.774,0.004-4.16
			c-0.003-5.056-0.006-10.283,0.283-15.427c0.073-1.311,0.154-2.621,0.235-3.93c0.22-3.546,0.447-7.212,0.507-10.829l0.041-0.125
			l-0.072,0.003c-0.119-2.531-0.201-4.64-0.096-6.822c-0.474-7.684-2.423-12.764-5.96-15.523c-2.839-2.214-6.813-3.337-11.814-3.337
			c-2.186,0-4.521,0.217-6.94,0.644c-11.693,2.063-24.804,8.824-34.215,17.646c-3.199,2.999-8.954,9.061-11.552,15.958
			c-2.582,6.854-1.455,11.544,4.158,17.303c3.165,3.249,6.562,5.838,9.846,8.342c6.671,5.085,12.972,9.888,16.812,19.532
			c8.388,21.055-1.218,53.702-11.991,75.26l-1.408,0.039v-0.072c0-0.819-0.008-1.64-0.029-2.458
			c11.646-23.918,20.741-58.647,8.074-77.919c-3.477-5.292-8.087-8.84-12.968-12.596l-1.751-1.352
			c-4.756-3.677-11.268-8.713-13.515-14.833c-2.545-6.938,1.022-14.422,4.464-19.479c3.582-5.266,8.005-9.799,13.922-14.267
			c9.05-6.837,23.533-14.143,37.042-14.143l0.463,0.003c10.503,0.135,16.465,4.507,18.741,13.755
			c1.616-4.396,4.988-6.625,10.025-6.625l0.142,0.001c8.005,0.066,17.85,5.737,24.055,11.328
			c17.127,15.433,7.767,28.024-2.143,41.356c-1.369,1.842-2.785,3.747-4.122,5.651c-6.074,8.653-9.806,16.143-12.101,24.283
			c-2.639,9.367-3.344,17.904-2.219,26.868c1.261,10.036,4.543,17.591,10.643,24.495c2.844,3.218,6.129,6.092,10.044,8.786
			c1.841,1.267,3.809,2.474,5.847,3.589c1.023,0.559,2.067,1.097,3.104,1.599c0.092,0.044,0.226,0.1,0.387,0.167
			c0.824,0.345,2.36,0.985,2.383,1.853c0.022,0.832-0.323,1.199-1.155,1.229L392.218,240.431z"/>
		<path fill="#CC0099" d="M390.628,237.247c-1.049-0.508-2.084-1.041-3.107-1.6c-2.014-1.102-3.962-2.292-5.854-3.593
			c-3.719-2.56-7.06-5.406-10.057-8.798c-6.466-7.319-9.461-14.988-10.66-24.534c-1.168-9.304-0.308-17.921,2.221-26.896
			c2.541-9.015,6.795-16.731,12.111-24.305c10.864-15.478,25.75-29.364,6.275-46.912c-5.75-5.181-15.611-11.241-24.008-11.31
			c-4.973-0.041-8.535,2.08-10.18,6.803c-1.906-8.031-6.824-13.781-18.729-13.934c-12.941-0.166-27.62,6.691-37.461,14.126
			c-5.416,4.09-10.059,8.594-13.905,14.25c-3.577,5.257-6.967,12.57-4.456,19.414c2.311,6.294,9.178,11.462,13.934,15.144
			c5.26,4.071,10.494,7.84,14.293,13.622c14.102,21.456,0.918,59.526-8.062,77.957c0.021,0.819,0.029,1.64,0.029,2.46l1.271,0.001
			c9.328-18.666,20.926-52.767,11.989-75.201c-5.751-14.437-17.134-18.09-26.644-27.851c-5.246-5.383-6.936-10.048-4.174-17.379
			c2.264-6.012,7.029-11.729,11.57-15.986c9.018-8.453,21.928-15.49,34.251-17.664c5.673-1.001,13.653-1.317,18.812,2.708
			c4.539,3.54,5.66,10.257,5.988,15.583c-0.109,2.252-0.013,4.511,0.096,6.815c0.002,0.048,0.023,0.081,0.031,0.126
			c-0.082,4.931-0.467,9.839-0.742,14.762c-0.367,6.529-0.264,13.054-0.287,19.583c-0.041,13.018,0.045,26.035-0.176,39.053
			c-3.082-16.949-0.758-23.043-1.994-39.95c-0.488-6.676-1.416-13.267-2.566-19.854c-1.242-7.101-2.456-12.753-9.9-16.34
			c-5.494-2.646-13.832-3.133-19.646-2.271c-6.712,0.996-12.894,4.049-15.728,10.83c-1.082,2.588-2.043,7.036-1.199,9.93
			c0.98,3.358,3.027,5.774,5.15,8.338c4.279,5.171,9.066,9.787,13.922,14.381c3.143,7.226,5.275,14.375,5.719,22.337
			c0.439,7.88-0.576,15.38-2.293,23.012c-2.771,12.325-10.16,32.027-11.139,44.969c-0.002,0.028-0.004,0.057-0.004,0.084
			l2.254,0.002c0.952-12.365,8.742-33.742,11.303-45.549c1.68-7.748,2.613-15.354,2.084-23.331
			c-0.535-8.05-2.754-15.29-5.938-22.598l-0.029-0.066c-1.344-3.084-2.789-6.113-3.816-9.337c-0.824-2.586-1.773-5.997,1.389-7.699
			c4.965-2.672,13.814-0.072,18.018,2.256c2.84,1.572,4.98,3.22,6.156,6.472c1.133,3.133,1.18,6.238,1.207,9.462
			c0.049,6.249,0.079,12.497,0.137,18.745c0.06,6.327-0.644,12.411-2.211,18.547c-1.553,6.086-3.707,11.917-6.055,17.723
			c-4.152,10.262-10.727,23.978-12.668,35.196c-0.012,0.063-0.016,0.126-0.016,0.19l2.267,0.002
			c1.964-11.107,8.937-25.592,12.998-35.775c5.114-12.82,8.146-22.898,7.923-37c-0.051-3.17-0.156-6.338-0.158-9.509
			c0-3.186,0.09-6.37,0.01-9.557c-0.178-7.052-1.209-12.196-7.951-16.154c-4.857-2.852-12.564-4.922-18.336-3.479
			c-3.658,0.914-6.006,3.171-5.723,7.178c0.219,3.1,1.391,5.758,2.551,8.524c-4.639-4.538-9.293-8.919-12.865-14.482
			c-2.221-3.458-2.396-5.196-1.495-9.147c0.778-3.412,2.153-5.979,4.903-8.248c5.011-4.135,12.592-4.703,18.469-4.264
			c6.209,0.463,13.152,2.146,16.27,8.682c1.852,3.885,3.326,14.908,3.846,18.961c0.824,6.434,1.295,12.851,1.277,19.343
			c-0.041,14.129-0.334,24.568,3.674,38.472c-0.453,15.498-1.678,30.918-0.385,46.492l2.254,0.002c0-0.031,0-0.062-0.004-0.094
			c-1.297-15.543-0.064-30.933,0.385-46.4l0.006-0.195c0.391-13.563,0.348-27.125,0.359-40.688
			c0.006-6.778-0.119-13.556,0.03-20.335c0.149-6.788,0.824-13.543,0.989-20.331c0.062-2.501,0.066-4.97-0.053-7.353
			c0.058-1.33,0.168-2.657,0.385-3.985c0.9-5.508,2.91-8.388,8.916-8.28c8.246,0.147,18.24,6.643,23.656,11.931
			c7.752,7.569,9.959,14.033,4.767,24.138c-3.005,5.847-11.942,17.329-15.474,22.763c-9.803,15.089-14.738,33.83-11.395,51.94
			c1.742,9.435,5.334,16.86,11.999,23.845c3.132,3.281,6.567,6.055,10.349,8.539c1.924,1.264,3.9,2.422,5.938,3.492
			c1.032,0.543,2.077,1.059,3.136,1.553c0.525,0.244,0.957,0.629,1.617,0.607c0.791-0.027,1.107-0.363,1.086-1.154
			C393.332,238.22,391.185,237.517,390.628,237.247z"/>
		<path fill="#CC0099" d="M186.921,297.502c-0.755,0-1.511,0-2.266-0.006c-0.335-2.123-0.702-4.127-2.186-5.94
			c0.055,1.896-0.188,3.823-0.742,5.887l-2.5,0.054l0.026-0.092c0.782-2.749,0.98-5.356,0.623-8.204
			c-2.437-1.9-4.19-3.907-4.743-7.366c-0.441-2.765,0.413-4.97,1.317-7.306c0.181-0.466,0.362-0.935,0.535-1.412
			c-1.9-0.782-2.854-2.133-3.718-4.025c-0.823,3.339-2.413,9.956-1.387,14.422c0.353,1.539,1.133,2.853,1.888,4.121
			c0.477,0.802,0.969,1.63,1.35,2.508c1.138,2.619,0.673,4.856,0,7.302l-2.501,0.053l0.026-0.092
			c1.333-4.702,0.731-5.687-0.588-7.844c-0.528-0.863-1.185-1.938-1.859-3.516c-1.627-3.815-1.023-8.751-0.427-12.132
			c-1.87-1.043-2.752-2.228-3.049-4.108c-0.649,1.553-1.112,3.185-1.415,4.978l-0.09,0.104l0.071,0.011
			c-0.783,4.982,0.032,6.914,2.561,11.163c2.553,4.29,2.525,6.713,1.164,11.385l-2.515,0.052l0.028-0.094
			c1.582-5.188,1.42-6.538-1.332-11.109c-2.237-3.714-2.936-7.105-2.337-11.338c-0.929-1.192-1.623-2.489-2.101-3.912
			c-0.078,1.396-0.252,2.794-0.42,4.149c0,0-0.066,0.55-0.073,0.588c-0.559,4.828-0.126,5.674,1.484,8.819
			c0.277,0.542,0.59,1.152,0.938,1.863c1.916,3.903,1.454,7.214,0.17,10.984l-2.556,0.049l0.035-0.097
			c1.542-4.245,1.98-6.553-0.282-10.831c-2.329-4.399-2.773-5.824-2.18-10.924c-0.123-0.345-1.244-1.781-1.846-2.554
			c-0.187-0.239-0.332-0.425-0.397-0.516c-0.849-1.162-1.415-2.146-1.812-3.158c-0.83,3.513,0.811,9.307,1.799,12.797l0.301,1.072
			c1.346,4.877,2.503,9.067,0.618,14.163l-2.584,0.047l0.039-0.099c1.449-3.635,1.441-5.564,0.695-9.178
			c-0.385-1.864-0.904-3.725-1.407-5.523c-0.334-1.196-0.668-2.393-0.967-3.599l-0.056-0.226c-0.751-3.028-1.46-5.889-0.947-9.118
			c0.237-1.49,0.767-2.892,1.668-4.41c0.085-0.143,0.158-0.295,0.229-0.444c0.253-0.531,0.516-1.081,1.31-1.081
			c0.064,0,0.133,0.004,0.206,0.012c0.419,0.043,0.776,0.295,0.955,0.673c0.182,0.386,0.148,0.831-0.09,1.191
			c-0.24,2.724,1.066,4.365,2.578,6.266l0.121,0.152c0.126-1.367,0.141-2.749,0.156-4.087c0.002-0.197-0.016-0.392-0.034-0.585
			c-0.046-0.502-0.094-1.021,0.216-1.561c0.216-0.376,0.604-0.601,1.04-0.601c0.344,0,0.671,0.148,0.898,0.407
			c0.114-0.173,0.367-0.259,0.633-0.259c0.451,0,0.858,0.248,1.065,0.646c0.229,0.443,0.226,0.886,0.222,1.313
			c-0.002,0.219-0.004,0.438,0.026,0.655c0.177,1.292,0.524,2.458,1.062,3.559c0.335-1.188,0.743-2.302,1.244-3.4
			c0.047-0.104,0.101-0.234,0.16-0.381c0.346-0.85,0.926-2.272,1.942-2.272c0.108,0,0.219,0.017,0.331,0.049
			c0.089-0.428,0.53-0.733,1.037-0.733c0.328,0,0.634,0.132,0.862,0.37c0.572,0.6,0.37,1.139,0.174,1.66
			c-0.068,0.182-0.137,0.365-0.173,0.554c-0.327,1.694-0.243,2.837,1.124,3.961c0.224-1.031,0.471-2.057,0.724-3.08l0.054-0.233
			c0.267-1.185,0.627-2.577,1.045-2.832c-0.038-0.262,0.083-0.564,0.306-0.79c0.228-0.229,0.542-0.361,0.863-0.361
			c0.28,0,0.545,0.099,0.766,0.285c0.239,0.201,0.538,1.167,0.798,2.056c0.048,0.164,0.085,0.29,0.106,0.353
			c0.573,1.661,1.067,3.097,2.741,4.05c0.237-0.967,0.424-1.951,0.596-2.879c0.025-0.137,0.044-0.293,0.064-0.459
			c0.1-0.827,0.237-1.96,1.373-1.96c0.211-0.103,0.406-0.155,0.582-0.155c0.276,0,0.521,0.124,0.792,0.403
			c0.351,0.361,0.35,0.739,0.348,1.139l0.002,0.239c0.031,0.942,0.112,1.887,0.24,2.806c0.256,1.815,0.696,3.549,1.344,5.294
			c1.286-2.438,3.054-4.237,5.88-5.992c0.584-1.604,1.366-3.138,2.359-4.649c0.221-0.368,0.592-0.58,1.019-0.58
			c0.52,0,1.096,0.354,1.191,1.029c0.051,0.354-0.046,0.661-0.14,0.957c-0.044,0.138-0.088,0.275-0.116,0.418
			c-0.095,0.477-0.145,0.921-0.152,1.36c-0.032,2.235,0.937,3.42,2.51,4.607c1.469-1.716,4.211-2.294,6.631-2.804
			c0.878-0.185,1.707-0.359,2.384-0.574c3.225-1.026,5.588-2.857,8.144-5.291c0.58-0.553,1.138-1.128,1.695-1.704
			c0.583-0.602,1.167-1.203,1.776-1.78c0.224-0.212,0.514-0.328,0.816-0.328c0.602,0,1.102,0.43,1.19,1.022
			c0.099,0.674-0.664,1.398-1.12,1.832c-0.08,0.075-0.15,0.143-0.207,0.2c-2.223,2.271-4.521,4.621-7.442,6.418
			c-2.739,1.685-4.161,1.987-6.312,2.443c-0.837,0.178-1.787,0.38-2.962,0.698c-1.789,0.484-3.007,0.938-3.63,2.745
			c-0.619,1.797-0.499,3.177,0.415,4.764c0.518,0.9,1.216,1.658,1.891,2.392c0.371,0.402,0.741,0.805,1.085,1.231
			c1.034,1.278,1.931,2.699,2.742,4.345c1.385,2.809,2.343,5.874,2.929,9.374l0.014,0.084h-2.368
			c-0.961-5.052-2.366-8.554-4.769-11.77c-0.451-0.603-0.963-1.168-1.458-1.715c-0.9-0.993-1.831-2.021-2.443-3.323
			c-1.019-2.164-1.094-3.983-0.263-6.278c-1.745-1.193-2.71-2.405-3.263-4.069c-1.682,4.649-1.303,9.546,1.1,14.175
			c0.85,1.639,1.942,3.147,2.998,4.606c1.782,2.463,3.625,5.009,4.399,8.285l0.021,0.089h-2.418
			c-0.667-2.062-2.699-5.065-4.493-7.715c-0.997-1.473-1.939-2.864-2.474-3.86c-2.397-4.469-3.095-8.334-2.318-12.885
			c-4.09,3.623-4.652,6.968-2.091,12.269c0.919,1.904,2.085,3.693,3.214,5.424c1.368,2.099,2.782,4.268,3.774,6.668l0.042,0.1
			h-2.576c-0.677-1.296-1.651-2.819-2.682-4.432c-2.762-4.319-6.2-9.694-5.636-14.34c-0.992-2.001-1.714-4.044-2.199-6.201
			l-0.064,0.217c-0.012,0.049-0.028,0.1-0.047,0.15c-0.242,0.784-0.555,1.558-0.857,2.306c-0.556,1.374-1.131,2.796-1.292,4.362
			c-0.229,2.244,0.646,4.684,2.285,6.367c0.625,0.642,1.334,1.207,2.021,1.755c1.107,0.882,2.252,1.794,3.096,3.064
			c1.469,2.217,1.903,4.517,2.154,6.672l0.01,0.081H186.921z"/>
		<path fill="#CC0099" d="M186.921,297.43c-0.279-2.398-0.764-4.561-2.143-6.641c-1.36-2.049-3.475-3.131-5.108-4.81
			c-1.601-1.644-2.541-4.114-2.305-6.425c0.249-2.43,1.463-4.448,2.153-6.686c0.018-0.048,0.034-0.096,0.046-0.146
			c0.049-0.162,0.097-0.324,0.143-0.486c0.488,2.277,1.237,4.41,2.26,6.5c-0.772,6.371,6.014,14.11,8.247,18.69
			c0.823,0,1.645,0,2.468,0c-1.809-4.375-4.953-7.873-6.987-12.088c-2.478-5.129-2.182-8.627,2.263-12.489
			c-0.872,4.854-0.017,8.769,2.275,13.04c1.475,2.748,5.962,8.371,6.903,11.537c0.776,0,1.551,0,2.327,0
			c-1.232-5.206-5.108-8.475-7.392-12.875c-2.368-4.562-2.86-9.549-1.031-14.43c0.598,1.951,1.731,3.168,3.326,4.315
			c-0.81,2.233-0.757,4.062,0.26,6.224c0.945,2.008,2.625,3.328,3.894,5.025c2.691,3.602,3.94,7.417,4.711,11.74
			c0.761,0,1.522,0,2.283,0c-0.55-3.281-1.443-6.354-2.923-9.354c-0.764-1.549-1.646-2.986-2.734-4.332
			c-0.984-1.219-2.181-2.238-2.983-3.632c-0.948-1.647-1.032-3.046-0.42-4.823c0.656-1.906,1.985-2.332,3.679-2.791
			c4.134-1.121,5.441-0.787,9.256-3.134c2.856-1.757,5.125-4.053,7.428-6.407c0.379-0.387,1.417-1.222,1.307-1.971
			c-0.134-0.9-1.225-1.277-1.886-0.652c-1.191,1.127-2.283,2.353-3.47,3.483c-2.431,2.315-4.859,4.254-8.171,5.308
			c-2.499,0.793-6.95,1.02-9.081,3.367c-1.654-1.248-2.57-2.469-2.538-4.666c0.007-0.465,0.062-0.918,0.153-1.373
			c0.09-0.449,0.328-0.851,0.256-1.352c-0.148-1.051-1.534-1.328-2.079-0.419c-0.971,1.478-1.761,3.013-2.381,4.671
			c-2.552,1.584-4.521,3.37-5.929,6.107c-0.673-1.779-1.139-3.578-1.404-5.461c-0.131-0.936-0.21-1.871-0.241-2.813
			c-0.015-0.478,0.069-0.919-0.33-1.33c-0.413-0.425-0.77-0.487-1.302-0.226c-1.309-0.016-1.233,1.541-1.386,2.359
			c-0.184,0.996-0.374,1.99-0.619,2.975c-1.766-0.967-2.271-2.436-2.856-4.135c-0.105-0.305-0.577-2.119-0.883-2.377
			c-0.736-0.621-1.861-0.091-1.851,0.873c-0.51,0.311-0.964,2.604-1.067,3.021c-0.262,1.061-0.517,2.123-0.748,3.191
			c-1.489-1.176-1.569-2.396-1.24-4.104c0.14-0.727,0.753-1.38,0.018-2.15c-0.573-0.6-1.577-0.394-1.867,0.383
			c-1.344-0.388-1.996,1.793-2.348,2.565c-0.528,1.159-0.953,2.343-1.29,3.569c-0.61-1.199-0.971-2.42-1.152-3.748
			c-0.088-0.646,0.096-1.295-0.241-1.945c-0.323-0.624-1.132-0.802-1.688-0.373c-0.508-0.58-1.437-0.488-1.821,0.182
			c-0.416,0.723-0.165,1.4-0.173,2.11c-0.016,1.427-0.032,2.849-0.173,4.271c-1.599-2.019-3.08-3.715-2.813-6.643
			c0.47-0.71,0.041-1.664-0.812-1.753c-1.144-0.12-1.259,0.78-1.675,1.479c-0.822,1.385-1.404,2.779-1.659,4.385
			c-0.524,3.295,0.237,6.229,1.002,9.314c0.756,3.051,1.737,6.039,2.374,9.125c0.769,3.721,0.725,5.647-0.698,9.219
			c0.804,0,1.607,0,2.411,0c1.88-5.082,0.696-9.35-0.62-14.118c-0.938-3.397-3.107-10.247-2.045-14.127
			c0.454,1.233,1.116,2.304,1.883,3.354c0.287,0.393,2.089,2.617,2.257,3.12c-0.584,5.027-0.167,6.462,2.172,10.882
			c2.27,4.291,1.854,6.57,0.287,10.889c0.795,0,1.59,0,2.385,0c1.308-3.84,1.732-7.062-0.166-10.93
			c-2.39-4.873-3.086-5.045-2.428-10.727c0.006-0.036,0.01-0.072,0.013-0.107c0.206-1.668,0.428-3.332,0.499-5.017
			c0.488,1.599,1.217,2.993,2.225,4.321c-0.6,4.238,0.126,7.636,2.327,11.291c2.804,4.658,2.917,5.992,1.339,11.168
			c0.783,0,1.565,0,2.348,0c1.347-4.625,1.385-7.057-1.157-11.327c-2.508-4.214-3.362-6.171-2.57-11.211
			c0.007-0.038,0.014-0.076,0.019-0.115c0.306-1.815,0.789-3.539,1.521-5.231c0.273,2.162,1.277,3.328,3.085,4.387
			c-0.641,3.635-1.146,8.414,0.423,12.091c2.312,5.416,4.341,4.737,2.45,11.407c0.779,0,1.558,0,2.337,0
			c0.687-2.495,1.119-4.684,0.003-7.254c-0.982-2.264-2.664-4.117-3.243-6.641c-1.003-4.369,0.442-10.625,1.437-14.658
			c0.848,1.902,1.775,3.358,3.806,4.27c-1.023,2.834-2.376,5.38-1.849,8.682c0.535,3.35,2.211,5.366,4.743,7.369
			c0.356,2.84,0.159,5.479-0.625,8.232c0.778,0,1.557,0,2.335,0c0.539-2.01,0.817-3.985,0.732-6.074
			c1.578,1.834,1.975,3.82,2.266,6.074C185.41,297.43,186.166,297.43,186.921,297.43z"/>
		<rect x="121.455" y="297.358" fill="#CC0099" width="2.261" height="0.145"/>
		<path fill="#CC0099" d="M121.455,297.43c0.753,0,1.507,0,2.261,0"/>
		<rect x="127.602" y="297.358" fill="#CC0099" width="2.256" height="0.145"/>
		<path fill="#CC0099" d="M127.602,297.43c0.752,0,1.504,0,2.256,0"/>
		<path fill="#CC0099" d="M133.933,297.502c-0.386-8.615-2.449-16.84-4.444-24.793c-0.384-1.532-0.769-3.066-1.143-4.605
			c-1.435,2.152-2.116,4.004-2.27,6.163c1.568,6.793,3.253,14.876,3.853,23.157l0.006,0.077h-2.333
			c-0.864-10.68-3.249-20.776-5.263-28.438c-1.363,5.521,0.001,16.494,0.91,23.795c0.221,1.775,0.416,3.34,0.539,4.563l0.008,0.079
			h-2.34c-0.293-2.227-0.555-4.383-0.816-6.538c-0.546-4.504-1.111-9.162-1.281-13.794c-0.112-3.027-0.13-6.554,1.075-10.097
			c0.343-1.01,0.667-1.765,1.051-2.447c0.215-0.383,0.605-0.611,1.043-0.611c0.457,0,0.867,0.253,1.071,0.661
			c0.277,0.554,0.405,1.142,0.529,1.711c0.055,0.251,0.109,0.503,0.177,0.752c0.203,0.752,0.4,1.506,0.594,2.261
			c0.69-1.553,1.607-2.996,2.874-4.526l0.175-0.221c0.406-0.521,1.02-1.31,1.759-1.31c0.101,0,0.202,0.015,0.3,0.044
			c0.587,0.176,0.826,0.482,0.852,1.096c0.023,0.511-0.239,0.79-0.516,1.085l-0.139,0.151c0.504,1.989,1.018,4.033,1.53,6.075
			c2.069,8.241,4.208,16.764,4.523,25.634l0.003,0.075H133.933z"/>
		<path fill="#CC0099" d="M133.933,297.43c0.75,0,1.501,0,2.251,0c-0.391-11.018-3.538-21.254-6.035-31.76
			c0.315-0.354,0.662-0.621,0.637-1.186c-0.024-0.581-0.244-0.863-0.801-1.029c-0.94-0.283-1.736,0.953-2.157,1.463
			c-1.199,1.449-2.199,2.963-2.947,4.701c-0.21-0.822-0.425-1.644-0.646-2.463c-0.222-0.82-0.309-1.664-0.701-2.449
			c-0.403-0.807-1.546-0.834-1.987-0.047c-0.438,0.779-0.76,1.594-1.046,2.436c-1.14,3.351-1.198,6.628-1.071,10.07
			c0.25,6.81,1.334,13.51,2.025,20.263h2.261c-0.64-6.36-3.21-21.913-1.377-28.65c2.489,9.443,4.531,18.856,5.263,28.65h2.256
			c-0.571-7.875-2.09-15.511-3.853-23.167c0.174-2.43,1.039-4.364,2.373-6.334C130.74,277.679,133.557,287.208,133.933,297.43z"/>
		<path fill="#CC0099" d="M147.355,297.503l1.245-7.241c-2.252-2.854-4.407-6.209-4.827-11.012
			c-0.119-1.364-0.177-2.426-0.226-3.315c-0.167-3.051-0.222-4.078-2.289-8.486c-1.605-3.424-3.127-7.154-2.573-11.797
			c0.485-4.072,2.054-7.455,5.087-10.97c1.376-1.597,2.873-2.951,4.576-4.142c1.228-0.859,2.579-1.489,3.886-2.099
			c0.495-0.23,0.991-0.462,1.481-0.705c3.51-1.74,4.258-7.133,4.705-10.355l0.043-0.311c0.641-4.579,1.805-19.197-0.208-24.042
			c-0.175,1.135-0.126,3.831-0.1,5.328c0.006,0.358,0.012,0.656,0.013,0.862c0.014,2.242,0.021,4.486-0.005,6.729l-0.004,0.396
			c-0.035,3.347-0.1,9.576-1.726,12.588c-1.324,2.451-3.403,3.255-5.604,4.106l-0.699,0.269c-1.631,0.626-3.317,1.272-4.878,2.164
			c-4.356,2.49-6.264,5.878-7.788,10.199c-1.48,4.194-2.052,8.305-1.797,12.937c0.22,3.997,0.776,5.68,1.547,8.008
			c0.417,1.263,0.891,2.693,1.396,4.771c0.715,2.938,1.07,5.962,1.413,8.887c0.162,1.383,0.324,2.765,0.523,4.144
			c0.237,1.646,0.554,3.307,0.86,4.912c0.502,2.631,1.021,5.352,1.207,8.096l0.005,0.077h-2.333c-0.27-2.78-0.785-5.48-1.282-8.091
			c-0.344-1.806-0.7-3.673-0.948-5.528c-0.144-1.074-0.269-2.149-0.395-3.224c-0.397-3.397-0.808-6.91-1.804-10.305
			c-0.301-1.026-0.579-1.924-0.833-2.741c-1.147-3.704-1.779-5.744-1.801-10.688c-0.022-4.925,0.776-9.195,2.512-13.441
			c2.078-5.079,4.602-8.064,8.713-10.304c1.373-0.748,2.837-1.316,4.254-1.865c0.867-0.336,1.735-0.672,2.586-1.049
			c2.192-0.973,3.25-2.253,3.772-4.569c0.744-3.295,0.732-9.794,0.725-13.285l0-0.394c-0.003-1.918-0.016-3.836-0.031-5.754
			l-0.008-0.607c-0.012-0.786-0.025-1.6,0.058-2.405c0.054-0.518,0.144-1.129,0.397-1.736c0.199-0.479,0.422-0.796,0.745-1.06
			c0.389-0.318,0.73-0.461,1.107-0.461c0.236,0,0.493,0.059,0.784,0.179l0.199-0.013c0.368-0.011,0.808-0.024,1.287-0.024
			c2.517,0,4.156,0.401,5.01,1.228c1.328,1.282,0.845,3.676,0.492,5.424c-0.095,0.47-0.18,0.892-0.216,1.229
			c-0.371,3.437-0.335,6.923-0.301,10.294c0.011,1.094,0.022,2.188,0.02,3.282c-0.007,4.182-0.015,8.92-0.733,13.571
			c-0.839,5.433-2.662,8.817-6.289,11.683c-0.657,0.519-1.295,0.993-1.91,1.449c-3.048,2.265-5.456,4.054-6.642,8.608
			c-0.988,3.795-0.728,7.38-0.452,11.176c0.057,0.776,0.113,1.556,0.159,2.339c0.315,5.439,0.67,9.613,1.15,13.532
			c0.685,5.582,0.552,7.853-0.79,13.497l-0.013,0.056H147.355z M160.625,202.546c1.909,5.591,0.93,18.885,0.432,23.127
			c-0.44,3.745-1.174,8.406-2.946,11.226c-1.26,2.006-3.014,2.873-5.009,3.724c-1.599,0.682-3.082,1.579-4.532,2.743
			c-6.89,5.529-9.292,13.423-6.268,20.599c0.33,0.784,0.691,1.554,1.053,2.323c0.433,0.923,0.881,1.877,1.266,2.843
			c0.729,1.83,1.157,3.74,1.306,5.84c0.055,0.768,0.092,1.464,0.125,2.11c0.172,3.264,0.278,5.266,2.37,8.759
			c-0.104-1.049-0.21-2.098-0.317-3.146c-0.646-6.368-1.315-12.952-1.367-19.497c-0.035-4.308,0.368-7.671,2.478-11.122
			c1.762-2.884,3.373-4.019,5.237-5.332c0.932-0.656,1.988-1.4,3.169-2.44c3.127-2.756,4.117-5.925,4.7-10.144
			c0.526-3.815,0.588-7.606,0.608-11.478c0.007-1.248,0.001-2.495-0.003-3.743c-0.01-2.547-0.02-5.181,0.075-7.772
			c0.078-2.123,0.379-4.248,0.671-6.304l0.061-0.426c0.017-0.116,0.042-0.232,0.066-0.347c0.111-0.517,0.199-0.924-0.433-1.183
			c-0.836-0.341-1.657-0.349-2.525-0.357L160.625,202.546z"/>
		<path fill="#CC0099" d="M148.671,290.274c-2.616-3.359-4.441-6.623-4.826-11.029c-0.53-6.06,0.153-6.121-2.521-11.826
			c-1.787-3.811-3.093-7.348-2.567-11.758c0.521-4.373,2.249-7.662,5.07-10.932c1.36-1.577,2.855-2.936,4.563-4.13
			c1.678-1.175,3.552-1.901,5.358-2.798c3.663-1.816,4.353-7.618,4.787-10.721c0.622-4.442,1.848-19.648-0.307-24.293
			c-0.276,1.17-0.138,5.277-0.131,6.432c0.014,2.242,0.021,4.486-0.005,6.729c-0.036,3.195-0.037,9.83-1.722,12.95
			c-1.294,2.396-3.278,3.188-5.566,4.073c-1.897,0.734-3.802,1.418-5.587,2.438c-4.292,2.453-6.256,5.803-7.82,10.237
			c-1.51,4.278-2.049,8.449-1.801,12.965c0.34,6.2,1.519,6.929,2.945,12.791c1.047,4.3,1.308,8.681,1.935,13.024
			c0.626,4.345,1.767,8.589,2.066,13.002c-0.752,0-1.504,0-2.256,0c-0.336-4.596-1.552-9.02-2.159-13.557
			c-0.606-4.537-0.893-9.084-2.201-13.539c-1.654-5.635-2.604-7.377-2.631-13.408c-0.021-4.709,0.715-9.031,2.507-13.414
			c1.858-4.543,4.23-7.844,8.681-10.268c2.195-1.197,4.571-1.908,6.835-2.912c2.189-0.971,3.285-2.275,3.813-4.619
			c0.774-3.43,0.731-10.267,0.726-13.694c-0.003-1.918-0.016-3.836-0.031-5.755c-0.008-1.002-0.053-2,0.05-3.004
			c0.062-0.592,0.16-1.16,0.392-1.717c0.169-0.406,0.375-0.746,0.724-1.031c0.599-0.49,1.104-0.565,1.819-0.271
			c1.596-0.045,5.032-0.217,6.473,1.176c1.655,1.598,0.425,5.014,0.254,6.594c-0.489,4.537-0.273,9.053-0.281,13.584
			c-0.008,4.539-0.035,9.043-0.733,13.561c-0.748,4.838-2.259,8.475-6.262,11.637c-3.901,3.08-7.144,4.59-8.577,10.096
			c-1.198,4.601-0.558,9.002-0.295,13.537c0.262,4.523,0.599,9.035,1.151,13.537c0.691,5.637,0.522,7.957-0.788,13.472
			c-0.771,0-1.542,0-2.313,0L148.671,290.274z M160.985,225.665c-0.378,3.215-1.093,8.265-2.936,11.196
			c-1.244,1.979-2.973,2.841-4.977,3.695c-1.663,0.709-3.143,1.625-4.548,2.754c-6.277,5.037-9.63,12.754-6.29,20.683
			c0.732,1.739,1.619,3.408,2.318,5.164c0.754,1.893,1.157,3.793,1.301,5.818c0.342,4.798-0.021,6.794,2.67,11.173
			c-0.753-7.64-1.654-15.246-1.715-22.952c-0.032-3.977,0.287-7.517,2.467-11.084c2.638-4.316,4.857-4.642,8.393-7.756
			c3.263-2.875,4.168-6.162,4.724-10.188c0.528-3.826,0.589-7.645,0.609-11.487c0.021-3.837-0.069-7.675,0.071-11.513
			c0.083-2.264,0.415-4.487,0.731-6.723c0.089-0.626,0.431-1.262-0.411-1.605c-0.953-0.389-1.895-0.352-2.872-0.367
			C162.389,207.754,161.59,220.508,160.985,225.665z"/>
		<path fill="#CC0099" d="M168.299,183.672l-0.02-0.042c-3.141-6.641-6.027-12.615-9.54-18.497
			c-3.244-5.432-7.178-11.021-13.941-15.104c-4.238-2.558-8.781-4.633-13.174-6.64c-1.807-0.825-3.676-1.679-5.499-2.555
			c-7.337-3.527-13.214-6.569-18.498-9.575l0.071-0.125c5.28,3.004,11.155,6.045,18.489,9.57c1.822,0.875,3.689,1.729,5.496,2.554
			c4.397,2.008,8.943,4.085,13.188,6.647c6.79,4.099,10.737,9.705,13.991,15.153c3.509,5.875,6.392,11.841,9.526,18.467
			c4.657-0.119,8.395-3.158,10.004-8.137c1.6-4.956,0.866-9.05-0.728-13.673c-2.447-7.095-7.727-14.76-15.69-22.782
			c-0.866,0.015-1.739,0.019-2.596,0.009c0.104,0.535,1.277,1.681,1.732,2.125c0.089,0.087,0.16,0.156,0.204,0.201
			c0.752,0.773,1.489,1.556,2.191,2.324c1.527,1.674,2.883,3.271,4.145,4.882c3.007,3.836,5.163,7.281,6.784,10.841
			c1.62,3.556,3.051,7.523,2.565,12.432c-0.408,4.126-2.853,8.889-7.258,9.593l-0.053,0.008l-0.023-0.049
			c-2.858-6.018-5.957-12.396-9.646-18.396c-4.346-7.068-8.582-11.514-14.165-14.865c-4.251-2.551-8.802-4.634-13.204-6.648
			c-1.785-0.817-3.631-1.662-5.433-2.526c-7.316-3.514-13.184-6.549-18.465-9.552l0.071-0.125
			c5.278,3.001,11.143,6.035,18.457,9.547c1.8,0.864,3.646,1.709,5.43,2.525c4.405,2.016,8.959,4.101,13.218,6.656
			c5.604,3.364,9.854,7.824,14.213,14.913c3.682,5.99,6.776,12.353,9.629,18.361c4.296-0.722,6.683-5.399,7.084-9.456
			c0.483-4.875-0.941-8.821-2.552-12.358c-1.617-3.549-3.767-6.985-6.767-10.812c-1.259-1.608-2.613-3.202-4.138-4.874
			c-0.701-0.767-1.437-1.548-2.188-2.32c-0.043-0.044-0.113-0.113-0.201-0.199c-0.883-0.862-1.785-1.81-1.783-2.301v-0.072
			l0.073,0.001c0.891,0.009,1.8,0.007,2.703-0.008l0.03-0.001l0.022,0.022c7.992,8.045,13.29,15.736,15.746,22.858
			c1.604,4.65,2.341,8.771,0.729,13.764c-1.634,5.057-5.441,8.136-10.184,8.238L168.299,183.672z"/>
		<path fill="#CC0099" d="M107.663,131.197c6.042,3.438,12.231,6.562,18.493,9.573c6.256,3.006,12.694,5.585,18.679,9.198
			c6.331,3.822,10.298,8.987,13.966,15.128c3.572,5.981,6.572,12.223,9.543,18.503c5.136-0.11,8.625-3.571,10.117-8.188
			c1.587-4.914,0.878-9.061-0.728-13.718c-2.954-8.564-9.583-16.644-15.729-22.831c-0.901,0.015-1.803,0.018-2.705,0.008
			c-0.003,0.613,1.655,2.131,1.964,2.449c0.742,0.763,1.473,1.537,2.189,2.322c1.44,1.578,2.824,3.196,4.142,4.878
			c2.656,3.388,4.98,6.885,6.775,10.826c1.835,4.029,3.012,7.825,2.559,12.395c-0.387,3.913-2.68,8.807-7.198,9.529
			c-2.976-6.267-6.005-12.475-9.649-18.403c-3.747-6.094-7.896-11.111-14.189-14.889c-5.979-3.588-12.397-6.18-18.642-9.178
			c-6.251-3.002-12.429-6.12-18.461-9.55"/>
		<path fill="#CC0099" d="M89.218,236.758c-0.135,0-0.271-0.023-0.405-0.07c-0.669-0.237-0.902-1.213-1.056-1.858
			c-0.026-0.111-0.05-0.212-0.073-0.294c-0.857-3.063-1.743-6.232-1.844-9.643c-0.097-3.229,0.357-4.631,1.045-6.752
			c0.259-0.799,0.553-1.705,0.859-2.846c0.427-1.602,0.796-2.984-0.521-4.527c-1.231-1.442-2.48-2.038-4.312-2.057
			c-0.022-0.001-0.045-0.001-0.068-0.001c-1.031,0-2.025,0.224-2.987,0.44c-0.506,0.114-1.029,0.231-1.553,0.316
			c-1.627,0.261-3.308,0.333-5.133,0.218c-3.124-0.198-6.257-0.894-9.577-2.127l-0.08-0.029l0.042-0.074
			c0.248-0.43,0.495-0.858,0.743-1.288l0.429-0.742l0.057,0.021c4.76,1.71,8.486,2.235,12.454,1.755
			c0.736-0.09,1.472-0.248,2.183-0.401c1.314-0.283,2.672-0.576,4.112-0.451c2.326,0.201,3.978,1.06,5.513,2.868
			c1.961-0.878,3.486-1.1,5.191-0.75c-3.178-3.771-7.595-5.892-12.786-6.133c-1.856-0.093-3.725,0.104-5.531,0.288
			c-3,0.307-6.101,0.624-9.296-0.307l-0.088-0.026l1.24-2.145l0.052,0.012c2.005,0.462,5.584,0.206,8.742-0.017
			c1.805-0.129,3.508-0.25,4.648-0.212c5.051,0.165,8.736,1.492,12.277,4.433c-1.091-5.343-3.695-7.502-9.538-7.942
			c-2.124-0.162-4.274-0.046-6.352,0.066c-2.472,0.133-5.027,0.271-7.571-0.053l-0.107-0.014l1.313-2.274l0.045,0.003
			c1.367,0.091,3.135,0.008,5.006-0.076c5.12-0.234,11.492-0.524,15.238,2.275c2.258,0.155,4.383,0.551,6.486,1.207
			c-0.614-0.653-1.174-1.361-1.716-2.049c-0.854-1.081-1.738-2.198-2.841-3.112c-1.781-1.473-4.351-2.084-6.706-1.599
			c-1.014,0.21-1.983,0.594-2.921,0.964c-1.24,0.491-2.523,0.998-3.94,1.122c-2.691,0.236-4.959-0.544-7.008-1.421l-0.075-0.032
			l1.206-2.089l0.058,0.024c1.919,0.793,3.837,1.472,6.192,1.057c1.093-0.191,2.121-0.605,3.115-1.005
			c0.944-0.38,1.921-0.772,2.957-0.978c4.291-0.853,7.829,0.66,11.135,4.751c2.395-1.325,4.277-1.379,6.605-0.168
			c-3.434-4.548-8.386-7.303-13.308-7.385c-0.079-0.002-0.157-0.002-0.234-0.002c-2.819,0-5.29,0.845-7.544,1.763l-0.17,0.069
			c-2.699,1.099-4.832,1.967-7.41-0.433l-0.042-0.039l0.416-0.722l0.824-1.427l0.066,0.069c1.808,1.909,3.354,1.21,5.145,0.4
			c0.315-0.142,0.641-0.289,0.972-0.423c2.384-0.966,4.478-1.479,6.588-1.617c4.733-0.305,8.5,0.944,12.58,4.178
			c0.724-0.907,1.507-1.553,2.453-2.019c-0.729-0.506-1.389-1.105-2.028-1.687c-0.997-0.906-2.028-1.843-3.339-2.438
			c-2.327-1.056-4.531-0.866-6.773-0.557c-1.523,0.21-3.035,0.578-4.497,0.933c-0.74,0.179-1.505,0.366-2.264,0.529
			c-3.193,0.688-4.96,0.027-6.631-1.174L78.825,181l1.204-2.086l0.065,0.049c2.273,1.698,4.283,1.149,6.41,0.566
			c0.383-0.105,0.778-0.213,1.179-0.31c2.47-0.595,5.119-1.166,7.958-1.054c2.872,0.114,5.063,0.995,7.327,2.945
			c0.361,0.311,0.706,0.635,1.04,0.948c1.523,1.43,2.963,2.782,5.538,2.53c-1.196-0.469-2.23-1.021-2.879-2.379
			c-0.237-0.498-0.342-1.032-0.444-1.549c-0.148-0.754-0.302-1.535-0.873-2.203c-1.657-1.94-4.818-2.805-7.133-2.805
			c-0.059,0-0.118,0-0.176,0.001c-1.283,0.025-2.77,0.283-4.345,0.556c-3.839,0.663-8.191,1.417-11.562-0.805l-0.057-0.037
			l0.034-0.059l1.167-2.021l0.064,0.043c2.709,1.851,7.047,1.058,10.213,0.479c0.605-0.111,1.176-0.215,1.676-0.29
			c2.777-0.412,7.95-0.58,11.479,2.889c0.995-0.497,1.996-0.812,3.054-0.96c-0.191-0.289-0.374-0.582-0.55-0.866
			c-0.974-1.566-1.895-3.045-4.1-3.577c-2.402-0.577-4.668-0.254-6.782,0.126c-0.924,0.167-1.775,0.365-2.598,0.556
			c-3.599,0.837-6.439,1.498-10.397-1.847l-0.046-0.039l1.221-2.113l0.066,0.059c1.768,1.563,3.375,2.466,5.92,2.154
			c1.163-0.144,2.316-0.415,3.433-0.676c0.991-0.232,2.016-0.473,3.045-0.624c1.692-0.25,4.208-0.518,6.503,0.029
			c2.295,0.546,4.015,1.784,5.252,3.784c1.183-1.009,2.347-1.68,4.034-1.68c0.056,0,0.111,0,0.168,0.002
			c-4.049-2.928-8.874-4.77-12.949-4.938c-1.695-0.069-3.343,0.248-4.935,0.555c-0.695,0.134-1.414,0.273-2.129,0.378
			c-2.708,0.398-4.646-0.153-6.687-1.905l-0.045-0.039l0.03-0.052c0.312-0.542,0.625-1.083,0.938-1.625l0.255-0.442l0.066,0.061
			c1.199,1.102,2.205,1.743,3.772,1.743c0.022,0,0.044,0,0.066,0c1.101-0.013,2.169-0.249,3.202-0.477
			c0.363-0.08,0.738-0.163,1.11-0.235c2.938-0.571,5.713-0.482,8.734,0.283c2.745,0.694,5.379,1.83,8.053,3.47
			c1.277,0.783,2.445,1.622,3.572,2.564c0.577,0.484,1.137,0.992,1.665,1.51c0.41,0.403,0.684,0.75,0.685,1.137
			c0,0.268-0.131,0.532-0.402,0.807c-0.044,0.416-0.29,0.772-0.662,0.958c-0.373,0.186-0.809,0.165-1.167-0.059
			c-0.088-0.055-0.175-0.11-0.262-0.166c-0.571-0.363-1.111-0.706-1.753-0.917c-1.78-0.584-2.851-0.031-4.083,1.131
			c0.355,0.487,0.725,0.854,1.157,1.15l-0.081,0.119c-0.462-0.317-0.853-0.71-1.23-1.236l-0.037-0.051l0.045-0.043
			c1.29-1.229,2.403-1.822,4.272-1.207c0.66,0.216,1.232,0.58,1.786,0.932c0.087,0.055,0.174,0.11,0.261,0.165
			c0.314,0.197,0.698,0.217,1.026,0.052c0.334-0.167,0.553-0.492,0.585-0.868l0.002-0.026l0.019-0.019
			c0.255-0.252,0.379-0.489,0.378-0.723c-0.001-0.336-0.257-0.657-0.641-1.035c-0.525-0.515-1.083-1.021-1.657-1.502
			c-1.121-0.938-2.283-1.772-3.554-2.551c-2.662-1.633-5.283-2.763-8.013-3.454c-3-0.76-5.755-0.85-8.672-0.281
			c-0.37,0.072-0.745,0.154-1.106,0.234c-1.04,0.229-2.116,0.467-3.231,0.479c-0.022,0-0.044,0-0.065,0
			c-1.58,0-2.638-0.657-3.806-1.72l-0.166,0.286c-0.303,0.524-0.605,1.048-0.907,1.573c1.988,1.691,3.884,2.222,6.527,1.833
			c0.712-0.104,1.429-0.243,2.123-0.377c1.6-0.309,3.254-0.631,4.968-0.558c4.167,0.171,9.11,2.08,13.22,5.105l0.197,0.145
			l-0.244-0.015c-1.897-0.115-3.131,0.591-4.403,1.688l-0.064,0.055l-0.044-0.072c-2.736-4.501-7.667-4.404-11.656-3.817
			c-1.023,0.15-2.044,0.39-3.033,0.622c-1.12,0.263-2.277,0.534-3.448,0.679c-2.564,0.319-4.195-0.577-5.967-2.13l-1.073,1.856
			c3.878,3.252,6.68,2.602,10.226,1.778c0.825-0.192,1.677-0.39,2.605-0.558c2.129-0.383,4.41-0.709,6.842-0.124
			c2.262,0.544,3.197,2.048,4.188,3.64c0.196,0.315,0.398,0.64,0.611,0.958l0.065,0.097l-0.115,0.015
			c-1.101,0.142-2.137,0.463-3.168,0.984l-0.046,0.023l-0.037-0.037c-3.485-3.463-8.632-3.292-11.393-2.885
			c-0.498,0.074-1.068,0.178-1.672,0.289c-3.165,0.58-7.493,1.372-10.255-0.458l-1.056,1.828c3.315,2.146,7.61,1.402,11.401,0.746
			c1.58-0.273,3.073-0.532,4.366-0.557c0.059-0.001,0.118-0.002,0.178-0.002c2.349,0,5.557,0.879,7.244,2.855
			c0.596,0.698,0.752,1.497,0.904,2.269c0.1,0.508,0.203,1.034,0.433,1.515c0.676,1.415,1.745,1.91,3.072,2.411l-0.016,0.139
			c-2.821,0.389-4.339-1.027-5.944-2.533c-0.333-0.312-0.677-0.635-1.035-0.944c-2.237-1.928-4.402-2.799-7.239-2.911
			c-2.818-0.11-5.458,0.458-7.917,1.05c-0.399,0.096-0.793,0.204-1.175,0.309c-2.144,0.586-4.168,1.14-6.469-0.542l-1.058,1.833
			c2.247,1.593,4.211,1.598,6.464,1.112c0.756-0.163,1.521-0.349,2.26-0.528c1.465-0.356,2.98-0.724,4.511-0.935
			c2.263-0.313,4.491-0.504,6.852,0.568c1.331,0.604,2.371,1.548,3.376,2.462c0.665,0.604,1.353,1.229,2.115,1.744l0.104,0.07
			l-0.114,0.055c-0.995,0.47-1.808,1.133-2.558,2.089l-0.045,0.057l-0.057-0.045c-4.125-3.285-7.753-4.505-12.538-4.191
			c-2.094,0.136-4.173,0.646-6.543,1.605c-0.329,0.133-0.653,0.28-0.966,0.422c-1.743,0.787-3.392,1.533-5.242-0.363l-1.086,1.883
			c2.491,2.287,4.578,1.438,7.215,0.366l0.17-0.069c2.332-0.949,4.891-1.813,7.835-1.772c5.059,0.085,10.148,2.965,13.614,7.703
			l-0.093,0.105c-2.429-1.349-4.336-1.336-6.804,0.044l-0.053,0.03l-0.038-0.048c-3.324-4.137-6.727-5.597-11.032-4.748
			c-1.022,0.203-1.993,0.593-2.931,0.971c-1.001,0.402-2.036,0.818-3.144,1.014c-2.368,0.414-4.293-0.251-6.214-1.042l-1.062,1.839
			c2.012,0.855,4.237,1.606,6.864,1.379c1.397-0.123,2.669-0.626,3.9-1.113c0.943-0.373,1.918-0.759,2.944-0.971
			c2.398-0.498,5.013,0.127,6.827,1.628c1.115,0.924,2.003,2.048,2.862,3.135c0.598,0.756,1.215,1.538,1.902,2.242l-0.074,0.118
			c-2.187-0.706-4.392-1.127-6.743-1.287l-0.021-0.002l-0.017-0.013c-3.703-2.783-10.057-2.492-15.162-2.26
			c-1.854,0.084-3.607,0.167-4.977,0.079l-1.16,2.01c2.496,0.304,5.008,0.168,7.438,0.038c2.083-0.112,4.237-0.228,6.37-0.067
			c5.996,0.453,8.626,2.691,9.708,8.26l0.039,0.2l-0.156-0.132c-3.563-3.009-7.255-4.364-12.346-4.529
			c-1.129-0.036-2.833,0.082-4.633,0.211c-3.141,0.222-6.698,0.476-8.732,0.025l-1.094,1.894c3.137,0.893,6.195,0.58,9.153,0.277
			c1.811-0.186,3.684-0.377,5.552-0.29c5.306,0.247,9.81,2.441,13.024,6.347l0.134,0.163l-0.206-0.047
			c-1.769-0.406-3.322-0.199-5.355,0.718l-0.05,0.022l-0.035-0.042c-1.539-1.829-3.118-2.657-5.45-2.859
			c-1.417-0.118-2.765,0.169-4.069,0.449c-0.714,0.154-1.453,0.313-2.196,0.403c-3.978,0.481-7.708-0.04-12.464-1.742l-0.369,0.639
			c-0.233,0.404-0.467,0.809-0.7,1.214c3.277,1.21,6.372,1.894,9.456,2.088c1.816,0.114,3.484,0.044,5.102-0.216
			c0.519-0.083,1.04-0.2,1.544-0.314c0.97-0.218,1.972-0.443,3.019-0.443c0.023,0,0.046,0,0.07,0c1.878,0.02,3.159,0.63,4.42,2.107
			c1.367,1.601,0.971,3.086,0.551,4.658c-0.306,1.145-0.601,2.053-0.86,2.854c-0.684,2.106-1.135,3.498-1.039,6.703
			c0.101,3.393,0.985,6.552,1.839,9.607c0.023,0.084,0.048,0.186,0.075,0.299c0.147,0.615,0.369,1.546,0.964,1.756
			c0.378,0.135,0.775,0.05,1.067-0.222c0.292-0.271,0.403-0.662,0.299-1.047c-0.14-0.517-0.284-1.033-0.428-1.549
			c-0.291-1.041-0.592-2.117-0.85-3.187c-0.833-3.443-1.237-6.419-0.505-9.752c0.154-0.701,0.418-1.51,0.698-2.365
			c0.76-2.327,1.622-4.964,0.926-7.136l-0.021-0.063l0.061-0.025c2.927-1.239,4.852-0.821,7.1,1.544
			c0.225,0.27,0.55,0.403,0.895,0.379c0.343-0.026,0.643-0.212,0.82-0.507c0.387-0.643,0.115-1.057-0.201-1.535
			c-0.079-0.12-0.16-0.243-0.232-0.373c-0.709-1.282-1.493-2.438-2.396-3.534l-0.016-0.02l0-0.024
			c-0.108-3.363-0.8-5.801-2.313-8.15l-0.088-0.136l0.16,0.025c1.902,0.311,3.684,0.808,5.447,1.521
			c0.869,0.351,1.732,0.755,2.564,1.2c0.071,0.038,0.14,0.079,0.208,0.118c0.335,0.195,0.625,0.364,1.056,0.255
			c0.547-0.138,0.755-0.387,0.793-0.95l0.01-0.032c0.589-0.992-0.749-1.958-1.635-2.597c-0.208-0.151-0.389-0.281-0.514-0.39
			c-1.245-1.085-2.148-1.977-2.928-2.891l-0.06-0.07l0.083-0.041c1.755-0.861,3.132-0.734,4.914,0.449
			c0.356,0.237,0.69,0.499,1.019,0.8c0.085,0.077,0.163,0.16,0.238,0.241c0.208,0.223,0.405,0.433,0.732,0.52
			c0.4,0.105,0.817-0.026,1.083-0.348c0.266-0.322,0.317-0.756,0.134-1.132l-0.03-0.062l0.06-0.033
			c0.34-0.188,0.534-0.417,0.59-0.701c0.136-0.676-0.55-1.538-1.05-2.168c-0.125-0.158-0.244-0.307-0.338-0.438
			c-0.789-1.102-1.64-2.093-2.601-3.031l-0.045-0.045l0.038-0.05c0.673-0.894,1.395-1.442,2.339-1.778
			c0.458-0.163,0.932-0.267,1.451-0.317c0.204-0.021,0.406-0.012,0.603-0.005c0.294,0.011,0.569,0.023,0.853-0.051l0.021-0.003
			c1.117,0.04,2.126-0.148,3.165-0.594l0.086-0.036c0.65-0.277,1.541-0.657,1.721-1.259c0.08-0.269,0.015-0.558-0.201-0.882
			l-0.015-0.022l0.004-0.027c0.053-0.384-0.099-0.752-0.408-0.985c-0.307-0.231-0.702-0.278-1.058-0.124l-0.021,0.006
			c-0.81,0.099-2.607-0.702-3.174-1.289c-0.384-0.397-0.425-0.846-0.466-1.28c-0.011-0.12-0.022-0.241-0.041-0.362
			c-0.085-0.569-0.246-1.096-0.492-1.61l-0.032-0.066l0.067-0.03c1.339-0.605,2.615-0.799,4.125-0.631l0.03,0.011
			c0.677,0.419,1.438,0.76,2.47,1.104c0.17,0.057,0.341,0.129,0.506,0.199c0.726,0.308,1.354,0.572,1.849-0.375
			c0.19-0.363,0.235-0.653,0.139-0.886c-0.172-0.415-0.788-0.607-1.383-0.792l-0.103-0.032c-0.782-0.246-1.686-0.554-2.509-1.1
			l0.079-0.12c0.809,0.536,1.701,0.839,2.473,1.082l0.102,0.032c0.627,0.195,1.275,0.397,1.473,0.875
			c0.114,0.275,0.067,0.604-0.144,1.007c-0.558,1.066-1.308,0.747-2.033,0.441c-0.163-0.069-0.331-0.14-0.496-0.195
			c-1.035-0.346-1.803-0.688-2.486-1.11c-1.457-0.158-2.682,0.023-3.967,0.591c0.234,0.507,0.39,1.026,0.473,1.584
			c0.019,0.124,0.03,0.248,0.042,0.37c0.04,0.428,0.077,0.833,0.426,1.194c0.507,0.525,2.119,1.251,2.93,1.251
			c0.04,0,0.078-0.001,0.113-0.005c0.399-0.173,0.845-0.118,1.192,0.146c0.344,0.26,0.517,0.666,0.467,1.092
			c0.226,0.35,0.294,0.679,0.204,0.98c-0.199,0.666-1.125,1.062-1.802,1.35l-0.086,0.037c-1.055,0.452-2.075,0.65-3.216,0.605
			c-0.3,0.076-0.597,0.066-0.884,0.053c-0.192-0.008-0.39-0.014-0.583,0.004c-0.507,0.051-0.971,0.151-1.417,0.31
			c-0.898,0.321-1.59,0.84-2.234,1.68c0.948,0.931,1.79,1.915,2.572,3.006c0.091,0.128,0.209,0.275,0.333,0.432
			c0.519,0.651,1.228,1.544,1.08,2.286c-0.062,0.307-0.265,0.564-0.604,0.767c0.174,0.412,0.107,0.875-0.181,1.224
			c-0.302,0.366-0.774,0.519-1.23,0.396c-0.367-0.097-0.587-0.332-0.8-0.56c-0.074-0.079-0.149-0.16-0.23-0.234
			c-0.323-0.295-0.651-0.553-1.001-0.786c-1.724-1.146-3.003-1.279-4.686-0.479c0.762,0.884,1.646,1.753,2.853,2.804
			c0.12,0.105,0.298,0.233,0.503,0.382c0.924,0.667,2.318,1.673,1.683,2.772c-0.046,0.613-0.299,0.912-0.9,1.063
			c-0.492,0.121-0.833-0.077-1.164-0.27c-0.066-0.039-0.134-0.079-0.204-0.116c-0.828-0.443-1.686-0.845-2.55-1.194
			c-1.704-0.688-3.425-1.174-5.257-1.484c1.465,2.325,2.139,4.749,2.249,8.063c0.902,1.097,1.687,2.254,2.396,3.536
			c0.069,0.125,0.149,0.247,0.227,0.364c0.313,0.476,0.637,0.968,0.203,1.688c-0.202,0.336-0.542,0.546-0.932,0.576
			c-0.386,0.036-0.761-0.124-1.013-0.427c-2.18-2.292-4.05-2.714-6.876-1.532c0.674,2.204-0.186,4.837-0.946,7.161
			c-0.279,0.853-0.542,1.658-0.694,2.353c-0.726,3.306-0.324,6.263,0.504,9.688c0.258,1.066,0.559,2.142,0.849,3.181
			c0.144,0.517,0.289,1.033,0.428,1.551c0.119,0.437-0.009,0.882-0.34,1.189C89.798,236.647,89.513,236.758,89.218,236.758z"/>
		<path fill="#CC0099" d="M113.122,175.693c-0.489-0.336-0.87-0.742-1.212-1.219c1.282-1.222,2.385-1.787,4.2-1.191
			c0.752,0.247,1.377,0.68,2.031,1.09c0.723,0.453,1.65-0.026,1.721-0.871c0.73-0.724,0.349-1.259-0.263-1.86
			c-0.534-0.524-1.087-1.025-1.661-1.506c-1.127-0.943-2.31-1.79-3.563-2.558c-2.536-1.556-5.136-2.729-8.033-3.462
			c-2.943-0.745-5.713-0.864-8.703-0.282c-1.436,0.279-2.831,0.696-4.325,0.713c-1.677,0.019-2.738-0.704-3.888-1.762
			c-0.383,0.663-0.766,1.326-1.147,1.989c2.049,1.759,3.973,2.279,6.63,1.888c2.354-0.346,4.63-1.035,7.077-0.934
			c4.628,0.19,9.566,2.431,13.181,5.092c-1.858-0.113-3.112,0.548-4.454,1.705c-2.69-4.425-7.406-4.487-11.728-3.851
			c-2.185,0.321-4.28,1.028-6.479,1.3c-2.538,0.314-4.175-0.578-5.977-2.171c-0.382,0.662-0.765,1.323-1.146,1.984
			c4.813,4.068,7.894,2.185,12.936,1.275c2.292-0.413,4.464-0.69,6.812-0.125c2.682,0.646,3.477,2.66,4.757,4.569
			c-1.138,0.146-2.17,0.475-3.191,0.991c-3.069-3.049-7.548-3.484-11.454-2.905c-3.081,0.458-8.678,2.027-11.94-0.201
			c-0.376,0.651-0.752,1.302-1.128,1.954c4.731,3.12,11.465,0.324,15.865,0.237c2.416-0.047,5.678,0.852,7.365,2.828
			c0.977,1.144,0.747,2.554,1.327,3.768c0.681,1.425,1.766,1.939,3.112,2.447c-3.375,0.472-4.85-1.676-6.922-3.46
			c-2.189-1.886-4.373-2.813-7.283-2.928c-2.744-0.108-5.313,0.42-7.938,1.052c-2.659,0.641-4.941,1.755-7.648-0.269
			c-0.377,0.653-0.754,1.306-1.131,1.959c2.146,1.543,4.089,1.697,6.574,1.162c2.256-0.486,4.467-1.145,6.766-1.462
			c2.364-0.327,4.502-0.487,6.812,0.562c2.203,1,3.566,2.908,5.48,4.201c-1.063,0.502-1.865,1.193-2.584,2.109
			c-3.867-3.079-7.543-4.532-12.587-4.207c-2.318,0.15-4.435,0.748-6.566,1.611c-2.183,0.883-4.026,2.299-6.196,0.006
			c-0.388,0.672-0.775,1.344-1.163,2.016c2.599,2.418,4.776,1.458,7.504,0.35c2.537-1.033,4.989-1.813,7.807-1.767
			c5.516,0.093,10.457,3.435,13.557,7.674c-2.486-1.381-4.409-1.335-6.874,0.044c-2.864-3.564-6.245-5.736-11.103-4.773
			c-2.119,0.42-3.934,1.607-6.074,1.983c-2.31,0.405-4.189-0.218-6.232-1.062c-0.378,0.654-0.756,1.31-1.134,1.964
			c2.271,0.972,4.421,1.639,6.974,1.416c2.48-0.218,4.496-1.597,6.853-2.085c2.31-0.479,4.926,0.092,6.766,1.613
			c1.886,1.562,3.084,3.655,4.759,5.371c-2.216-0.716-4.438-1.133-6.76-1.291c-5.107-3.838-15.158-1.867-20.223-2.197
			c-0.412,0.714-0.824,1.428-1.236,2.142c4.677,0.595,9.266-0.366,13.919-0.015c5.666,0.428,8.525,2.445,9.643,8.201
			c-3.755-3.172-7.56-4.39-12.39-4.547c-3.093-0.103-10.221,0.959-13.404,0.227c-0.389,0.673-0.778,1.347-1.167,2.02
			c5.108,1.489,9.868-0.216,14.81,0.016c5.12,0.238,9.668,2.307,12.972,6.32c-1.989-0.457-3.609-0.086-5.401,0.723
			c-1.523-1.811-3.129-2.68-5.499-2.885c-2.207-0.191-4.183,0.599-6.28,0.853c-4.45,0.538-8.367-0.278-12.487-1.759
			c-0.381,0.66-0.762,1.318-1.142,1.979c3.116,1.157,6.222,1.911,9.557,2.122c1.722,0.108,3.408,0.058,5.117-0.217
			c1.541-0.248,3.014-0.772,4.621-0.757c1.898,0.02,3.146,0.652,4.366,2.082c1.311,1.535,0.988,2.9,0.536,4.593
			c-1.102,4.116-2.035,5.124-1.902,9.577c0.1,3.347,0.956,6.458,1.842,9.625c0.151,0.54,0.337,1.839,1.084,2.104
			c0.855,0.301,1.697-0.479,1.46-1.355c-0.427-1.578-0.894-3.145-1.278-4.733c-0.788-3.261-1.249-6.329-0.504-9.72
			c0.562-2.561,2.589-6.521,1.622-9.539c2.939-1.245,4.849-0.755,7.02,1.527c0.497,0.594,1.43,0.522,1.829-0.141
			c0.512-0.852-0.077-1.341-0.431-1.98c-0.697-1.26-1.488-2.434-2.404-3.545c-0.096-3.002-0.658-5.6-2.325-8.188
			c1.878,0.307,3.667,0.803,5.432,1.516c0.875,0.354,1.725,0.752,2.557,1.197c0.42,0.227,0.761,0.52,1.316,0.379
			c0.575-0.145,0.807-0.424,0.847-1.015c0.766-1.292-1.509-2.508-2.163-3.078c-1.035-0.901-2.026-1.834-2.921-2.883
			c1.85-0.907,3.188-0.655,4.842,0.444c0.358,0.238,0.692,0.502,1.01,0.793c0.314,0.287,0.529,0.652,1,0.777
			c0.931,0.248,1.722-0.714,1.3-1.58c1.574-0.867-0.148-2.539-0.774-3.412c-0.784-1.094-1.646-2.101-2.609-3.041
			c0.624-0.828,1.312-1.399,2.306-1.754c0.468-0.166,0.94-0.265,1.434-0.313c0.488-0.05,0.971,0.071,1.466-0.058
			c1.135,0.041,2.152-0.151,3.196-0.6c0.949-0.406,2.483-1.011,1.637-2.283c0.121-0.871-0.76-1.539-1.566-1.185
			c-0.797,0.09-2.587-0.722-3.114-1.267c-0.468-0.485-0.402-1.039-0.487-1.603c-0.086-0.574-0.248-1.107-0.498-1.631
			c1.347-0.609,2.625-0.788,4.087-0.625c0.785,0.487,1.616,0.822,2.485,1.112c0.897,0.3,1.794,1.027,2.442-0.211
			c0.643-1.229-0.422-1.509-1.389-1.812c-0.875-0.275-1.713-0.575-2.491-1.091"/>
		<path fill="#CC0099" d="M129.553,158.352c-0.782,0-1.735-0.304-2.365-0.505c-0.208-0.067-0.384-0.123-0.509-0.154
			c-1.4-0.345-2.793-0.71-4.184-1.093c-2.807-0.773-5.592-1.616-8.278-2.504c-6.549-2.166-11.49-4.168-16.021-6.491l-0.067-0.034
			l1.164-2.017c7.463,3.734,15.643,6.667,26.586,9.47c-1.48-1.519-2.666-3.196-3.619-5.122c-6.286-1.934-13.717-4.413-20.85-7.86
			l-0.07-0.034l1.167-2.021c9.633,4.557,19.519,7.529,27.123,9.61c-4.567-4.322-14.039-8.26-20.982-11.148
			c-1.55-0.645-2.962-1.231-4.147-1.752l-0.074-0.032l1.172-2.03c1.78,0.708,3.479,1.422,5.177,2.136
			c4.467,1.877,9.085,3.818,13.438,6.2c3.272,1.79,5.912,3.498,8.16,6.018c0.517,0.579,1.111,1.283,1.597,2.114
			c0.475,0.811,0.083,1.325-0.297,1.822c-0.116,0.152-0.234,0.306-0.329,0.471l-2.544,4.399
			C130.584,158.164,130.165,158.352,129.553,158.352z"/>
		<path fill="#CC0099" d="M129.882,149.74c-9.376-2.559-18.506-5.485-27.313-9.718c-0.376,0.651-0.752,1.303-1.128,1.954
			c6.753,3.264,13.752,5.673,20.883,7.893c0.987,1.993,2.215,3.713,3.788,5.287c-9.259-2.36-18.183-5.189-26.757-9.567
			c-0.375,0.65-0.751,1.3-1.126,1.951c5.165,2.648,10.521,4.671,16.011,6.487c2.738,0.905,5.495,1.737,8.274,2.503
			c1.39,0.383,2.782,0.748,4.182,1.093c0.763,0.189,3.37,1.293,4.041,0.134c0.848-1.467,1.696-2.933,2.544-4.399
			c0.409-0.707,1.218-1.213,0.627-2.221c-0.45-0.769-1-1.442-1.589-2.102c-2.339-2.623-5.129-4.356-8.141-6.003
			c-5.976-3.27-12.312-5.648-18.518-8.362c-0.377,0.653-0.754,1.307-1.132,1.96C111.037,139.49,124.388,144.351,129.882,149.74z"/>
		<path fill="#CC0099" d="M212.639,192.796c-0.5,0-0.811-0.294-0.976-0.925c-0.342-0.213-0.536-0.626-0.49-1.063
			c0.047-0.45,0.332-0.826,0.761-1.003c2.727-1.215,3.503-2.651,2.863-5.303c-1.833,0.221-2.919,1.266-4.176,2.475l-0.104,0.099
			c-0.235,0.237-0.518,0.364-0.816,0.364c-0.492,0-0.968-0.341-1.159-0.829c-0.177-0.451-0.062-0.908,0.313-1.255
			c1.03-0.999,1.944-1.786,3.054-2.38c0.849-1.164,1.307-2.321,1.459-3.723c-0.556-0.053-1.083-0.179-1.609-0.386
			c-0.116-0.045-0.229-0.097-0.34-0.148c-0.301-0.138-0.585-0.269-0.919-0.269c-0.109,0-0.216,0.013-0.327,0.041
			c-0.746,0.187-2.301,1.323-2.607,2.022c-0.062,0.587-0.575,1.046-1.188,1.046c-0.265,0-0.518-0.087-0.731-0.254l-0.081,0.02
			c-0.377,0-0.669-0.114-0.868-0.338c-0.453-0.511-0.334-1.494-0.248-2.211c0.148-1.239,0.495-2.223,1.101-3.192
			c0.074-0.282,0.222-0.549,0.364-0.807c0.125-0.227,0.254-0.461,0.335-0.713c0.162-0.507,0.266-1.045,0.317-1.646
			c0.09-1.044,0.017-2.11-0.233-3.353c-1.904,0.192-3.68,0.711-5.514,1.69c-0.195,0.111-0.397,0.167-0.598,0.167
			c-0.599,0-1.031-0.494-1.147-0.981c-0.102-0.423,0.006-0.986,0.613-1.294c0.282-0.151,0.568-0.296,0.858-0.434
			c0.482-0.479,0.971-0.985,1.459-1.49c0.698-0.722,1.419-1.468,2.171-2.164c-2.882-3.174-5.753-4.488-9.894-4.534
			c-1.008-0.011-1.451-0.585-1.92-1.193c-0.102-0.132-0.205-0.265-0.315-0.395l-3.68-4.321c-0.473-0.555-0.893-1.141-0.767-1.664
			c0.075-0.312,0.343-0.565,0.798-0.755c4.167-1.869,6.495-5.083,7.118-9.825c0.132-1.008,0.15-2.037,0.167-3.032
			c0.02-1.101,0.039-2.24,0.213-3.36c0.129-0.828,1.202-5.375,2.854-5.582c0.1-0.013,0.192-0.019,0.279-0.019
			c0.583,0,0.895,0.285,1.041,0.952c0.119,0.544-0.12,0.903-0.351,1.25c-0.068,0.103-0.138,0.207-0.199,0.317
			c-0.585,1.057-0.937,1.93-1.141,2.831c-0.293,1.292-0.307,2.607-0.321,3.88c-0.009,0.818-0.019,1.665-0.102,2.498
			c-0.464,4.651-2.487,8.357-5.856,10.736c0.154-0.005,0.307-0.008,0.458-0.008c1.499,0,2.793,0.277,4.073,0.872
			c2.509-1.124,4.316-2.583,5.799-4.732c1.194-1.731,1.014-3.367,0.823-5.098c-0.083-0.755-0.169-1.536-0.127-2.315
			c0.191-3.519,3.25-7.5,9.09-11.834l0.065-0.048l1.174,2.032c-2.146,1.697-3.912,3.288-5.418,4.958
			c-1.643,1.822-2.695,3.627-2.487,6.517l0.041,0.541c0.171,2.241,0.332,4.357-1.136,6.528c-1.316,1.946-2.996,3.477-5.281,4.808
			c0.801,0.431,1.603,0.824,2.532,1.001l0.129,0.021c0.27,0.039,0.539,0.059,0.803,0.059c2.219,0,3.879-1.371,4.229-3.492
			c0.193-1.175,0.238-2.378,0.282-3.541c0.042-1.111,0.084-2.259,0.256-3.385c0.793-5.195,2.978-8.241,7.791-10.861l0.062-0.034
			l1.197,2.074l-0.065,0.035c-2.375,1.286-4.084,2.53-5.269,4.755c-1.246,2.341-1.479,4.731-1.61,6.979
			c-0.031,0.534-0.035,1.063-0.038,1.59c-0.014,1.893-0.026,3.68-1.232,5.489c-1.124,1.687-3.371,2.776-5.726,2.776
			c-0.242,0-0.48-0.012-0.714-0.037c-0.477,0.293-1.006,0.574-1.542,0.827c2.17,0.922,3.995,2.251,5.727,4.169
			c4.833-4.06,4.912-5.172,5.285-10.441l0.104-1.418c0.401-5.264,2.373-8.403,7.03-11.199l0.063-0.038l1.197,2.074l-0.061,0.036
			c-5.391,3.249-5.569,5.725-5.961,11.151l-0.048,0.667c-0.463,6.282-2.343,8.033-6.929,11.73l-0.077,0.066
			c-0.451,0.39-0.892,0.794-1.321,1.21c0.586-0.063,1.176-0.072,1.749-0.081c1.76-0.026,3.423-0.05,4.988-1.531
			c1.563-1.479,2.228-4.234,2.713-6.245l0.262-1.08c1.163-4.859,2.167-9.055,6.633-12.393l0.065-0.048l1.174,2.034
			c-2.145,1.747-3.484,3.778-4.453,6.83c1.832-2.185,3.634-3.417,5.97-4.093l1.293,2.129l-0.092,0.024
			c-3.278,0.852-4.557,2.464-6.038,4.331c-0.716,0.903-1.456,1.836-2.486,2.771c-1.222,5.033-2.625,8.957-8.287,9.511
			c0.229,1.289,0.295,2.472,0.2,3.607c1.673-0.828,3.136-1.197,4.43-1.523c2.42-0.61,4.511-1.137,7.021-4.35
			c1.391-1.78,2.147-3.75,2.947-5.836c0.98-2.559,2.228-3.964,4.326-4.906l1.264,2.06l-0.075,0.032
			c-2.305,0.984-2.956,2.756-3.645,4.633c-0.171,0.465-0.344,0.936-0.544,1.402c-1.15,2.678-2.521,4.605-4.445,6.248
			c-2.004,1.712-4.217,2.548-6.923,3.277l-0.101,0.027c-2.244,0.603-4.777,1.284-5.916,3.716c0.92-0.735,1.831-1.314,3.172-1.314
			l0.123,0.002c0.62,0.016,1.184,0.218,1.73,0.413c0.561,0.201,1.141,0.408,1.774,0.408c0.073,0,0.147-0.002,0.223-0.008
			l0.331-0.037c2.57-0.363,8.058-3.908,9.469-6.116c0.576-0.902,1.051-1.873,1.51-2.811c1.163-2.375,2.364-4.833,5.303-6.297
			l1.261,2.05l-0.07,0.034c-2.254,1.077-3.611,3.739-4.809,6.087c-0.611,1.198-1.188,2.33-1.83,3.152
			c-1.644,2.106-7.017,5.486-9.745,6.13c-0.012,1.051-0.24,2.081-0.646,3.083l0.372-0.012c0.069-0.015,0.148-0.023,0.228-0.023
			c0.08,0,0.159,0.009,0.241,0.025c0.322,0.004,0.654,0.015,0.985,0.026c0.452,0.016,0.901,0.03,1.348,0.03
			c1.158,0,2.53-0.093,3.93-0.78c1.913-0.939,3.159-2.263,4.303-4.567c0.56-1.127,0.954-2.174,1.302-3.099
			c1.086-2.886,1.871-4.97,6.348-6.577l1.277,2.092l-0.083,0.028c-3.968,1.324-4.786,3.58-5.733,6.192
			c-0.417,1.152-0.849,2.342-1.582,3.551c-2.303,3.799-5.463,5.569-9.945,5.569c-0.27,0-0.543-0.007-0.821-0.02
			c0.272,1.573,0.244,2.947-0.709,4.454c2.634-1.069,10.016-4.37,12.142-6.254c1.573-1.394,2.232-3.062,2.869-4.674
			c0.946-2.393,1.839-4.653,5.482-5.927l1.28,2.1l-0.086,0.027c-3.03,0.942-3.591,2.426-4.439,4.672
			c-0.144,0.379-0.295,0.78-0.467,1.204c-1.061,2.597-2.645,4.402-5.298,6.035c-2.898,1.782-11.398,5.581-14.905,6.504
			C212.942,192.773,212.783,192.796,212.639,192.796z"/>
		<path fill="#CC0099" d="M215.464,182.208c0.153-0.031,0.298-0.031,0.452,0c2.152,0.035,4.195,0.309,6.308-0.729
			c2.124-1.043,3.32-2.552,4.336-4.599c2.272-4.574,1.704-7.521,7.61-9.64l1.146,1.984c-5.748,1.918-4.956,5.817-7.354,9.775
			c-2.521,4.159-6.038,5.75-10.791,5.51c0.312,1.742,0.233,3.15-0.81,4.683c2.564-1.022,10.201-4.425,12.376-6.353
			c3.878-3.436,2.216-8.45,8.328-10.587l1.149,1.99c-3.579,1.113-3.755,2.985-4.952,5.917c-1.114,2.727-2.805,4.484-5.269,6
			c-2.963,1.822-11.508,5.607-14.886,6.496c-0.77,0.202-1.172-0.031-1.374-0.802c-0.76-0.521-0.613-1.634,0.229-1.981
			c2.559-1.14,3.598-2.518,2.905-5.386c-1.988,0.173-3.108,1.298-4.399,2.538c-1.055,1.066-2.666-0.598-1.563-1.615
			c0.933-0.904,1.874-1.746,3.039-2.369c0.873-1.186,1.356-2.38,1.504-3.852c-0.579-0.048-1.121-0.175-1.662-0.387
			c-0.53-0.208-0.977-0.542-1.631-0.379c-0.737,0.184-2.334,1.328-2.655,2.063c-0.097,0.875-1.115,1.305-1.809,0.764
			c-1.525,0.096-1.281-1.534-1.159-2.56c0.135-1.127,0.477-2.104,1.079-3.067c0.153-0.557,0.532-0.991,0.707-1.536
			c0.174-0.545,0.272-1.094,0.321-1.662c0.1-1.15-0.009-2.25-0.234-3.373c-2.036,0.138-3.825,0.683-5.618,1.641
			c-1.305,0.738-2.403-1.301-1.066-1.98c0.282-0.151,0.567-0.296,0.856-0.433c1.248-1.225,2.413-2.529,3.701-3.715
			c-2.838-3.146-5.712-4.563-9.994-4.61c-1.189-0.013-1.568-0.843-2.182-1.563c-0.613-0.72-1.227-1.44-1.84-2.16
			c-0.613-0.72-1.227-1.44-1.84-2.161c-0.708-0.832-1.31-1.759,0.004-2.306c4.332-1.943,6.554-5.257,7.161-9.882
			c0.279-2.126,0.05-4.263,0.381-6.39c0.156-1.005,1.235-5.327,2.791-5.522c0.731-0.092,1.083,0.157,1.24,0.877
			c0.146,0.671-0.275,1.035-0.542,1.517c-0.503,0.909-0.916,1.826-1.148,2.85c-0.483,2.131-0.212,4.261-0.424,6.386
			c-0.435,4.358-2.271,8.273-6.031,10.827c1.688-0.09,3.194,0.124,4.747,0.846c2.473-1.082,4.34-2.513,5.888-4.757
			c1.753-2.541,0.574-4.955,0.709-7.45c0.262-4.811,5.913-9.444,9.062-11.781l1.133,1.962c-1.952,1.472-3.766,3.052-5.409,4.873
			c-1.775,1.968-2.704,3.816-2.506,6.571c0.178,2.48,0.486,4.703-1.083,7.023c-1.428,2.112-3.184,3.594-5.369,4.85
			c0.853,0.462,1.691,0.884,2.666,1.07c0.043,0.006,0.086,0.013,0.129,0.021c2.479,0.358,4.69-0.907,5.117-3.492
			c0.379-2.302,0.187-4.625,0.538-6.927c0.807-5.286,3.124-8.288,7.754-10.809l1.125,1.949c-2.209,1.196-4.05,2.441-5.298,4.785
			c-1.202,2.258-1.475,4.547-1.619,7.008c-0.14,2.414,0.276,4.742-1.258,7.043c-1.333,2.001-4.101,2.948-6.372,2.708
			c-0.562,0.328-1.137,0.629-1.728,0.902c2.363,0.977,4.205,2.379,5.898,4.266c5.319-4.461,4.968-5.412,5.467-11.954
			c0.406-5.321,2.466-8.424,6.996-11.143l1.125,1.949c-5.64,3.399-5.61,5.975-6.044,11.874c-0.462,6.269-2.312,7.979-6.903,11.679
			c-0.025,0.023-0.051,0.045-0.077,0.066c-0.507,0.439-1,0.893-1.478,1.363c2.397-0.317,4.812,0.403,6.988-1.656
			c1.687-1.595,2.342-4.681,2.829-6.674c0.009-0.042,0.02-0.084,0.032-0.126c1.202-4.999,2.122-9.46,6.74-12.912l1.134,1.964
			c-2.47,1.924-3.693,4.217-4.566,7.121c1.7-2.099,3.492-3.577,6.166-4.351l1.163,2.014c-4.881,1.269-5.386,4.243-8.554,7.118
			c-1.156,4.714-2.445,8.961-8.323,9.5c0.231,1.266,0.324,2.506,0.202,3.794c4.828-2.437,7.675-0.939,11.591-5.951
			c1.41-1.804,2.18-3.828,2.978-5.908c0.862-2.249,1.981-3.786,4.267-4.812l1.132,1.96c-2.907,1.241-3.213,3.716-4.227,6.073
			c-1.049,2.442-2.376,4.471-4.426,6.222c-2.066,1.765-4.362,2.58-6.895,3.262c-2.353,0.633-5.079,1.33-6.182,4.054
			c1.051-0.861,2-1.521,3.477-1.482c1.318,0.034,2.36,0.918,3.734,0.813l0.333-0.037c2.631-0.372,8.095-3.916,9.521-6.149
			c2.045-3.201,2.716-7.055,6.784-9.082l1.128,1.954c-3.424,1.636-4.764,6.825-6.664,9.259c-1.695,2.172-7.048,5.477-9.705,6.104
			c-0.066,1.132-0.3,2.18-0.739,3.228L215.464,182.208z"/>
		<path fill="#CC0099" d="M224.042,215.273c-0.826,0-1.072-0.542-1.311-1.066c-0.066-0.146-0.133-0.293-0.213-0.432l-1.129-1.957
			c-0.071-0.125-0.189-0.297-0.33-0.502c-0.691-1.012-1.848-2.705-0.997-3.584c7.149-7.722,18.476-14.408,26.718-18.658l1.26,2.044
			l-0.067,0.035c-7.2,3.706-15.547,8.393-22.969,15.082c1.542-0.37,3.055-0.55,4.617-0.55c0.564,0,1.145,0.024,1.726,0.072
			c5.943-4.741,12.692-8.314,18.547-11.291l1.26,2.047l-0.068,0.034c-7.997,4.061-16.386,8.786-23.609,15.808
			c5.956-1.517,18.518-8.438,25.541-12.468l0.062-0.036l1.197,2.073l-0.062,0.036c-5.508,3.161-10.133,5.665-14.556,7.88
			l-0.41,0.205c-4.458,2.235-10.005,5.017-15.127,5.227L224.042,215.273z"/>
		<path fill="#CC0099" d="M220.115,207.782c-0.983,1.016,0.927,3.287,1.337,4c0.376,0.652,0.752,1.305,1.129,1.957
			c0.381,0.662,0.468,1.504,1.538,1.461c5.268-0.216,11.093-3.213,15.508-5.424c4.938-2.473,9.766-5.131,14.552-7.878l-1.125-1.948
			c-5.371,3.082-19.528,11.057-25.816,12.538c7.058-6.92,15.162-11.61,23.816-16.005l-1.127-1.952
			c-6.5,3.304-12.818,6.722-18.585,11.298c-2.258-0.186-4.4-0.014-6.597,0.545c7.016-6.375,14.868-10.998,23.196-15.285l-1.126-1.95
			C238.031,193.667,227.009,200.336,220.115,207.782z"/>
		<path fill="#CC0099" d="M216.894,198.88c-0.786,0-1.596-0.03-2.408-0.091c-0.557-0.042-0.983-0.423-1.087-0.972
			c-0.103-0.55,0.156-1.061,0.661-1.303c1.93-1.047,3.685-2.383,5.382-3.676c0.422-0.322,0.844-0.644,1.271-0.962
			c2.396-1.791,4.983-2.909,7.197-3.766l0.829-0.316c2.274-0.863,4.422-1.68,6.26-3.47c0.761-0.741,1.474-1.549,2.164-2.331
			c1.069-1.212,2.175-2.466,3.492-3.507l0.065-0.052l1.181,2.044c-1.185,1.054-2.183,2.195-3.148,3.3
			c-0.578,0.661-1.175,1.344-1.802,1.982c-1.899,1.933-4.135,2.988-6.072,3.766c-0.515,0.207-1.033,0.406-1.55,0.604
			c-1.679,0.646-3.416,1.314-5.025,2.231c-1.338,0.761-2.56,1.712-3.742,2.631c-0.614,0.479-1.229,0.956-1.862,1.411
			c8.737-0.622,14.707-4.938,21.023-9.507c1.333-0.963,2.71-1.96,4.11-2.915l0.064-0.044l1.167,2.022
			c-1.365,1.017-2.701,1.991-3.992,2.935c-3.182,2.322-6.473,4.724-10.144,6.519C226.091,197.78,221.632,198.88,216.894,198.88z"/>
		<path fill="#CC0099" d="M243.872,184.043l1.128,1.955c-4.653,3.191-8.951,6.832-14.105,9.353
			c-5.328,2.604-10.421,3.813-16.404,3.366c-1.15-0.086-1.44-1.639-0.4-2.137c2.41-1.308,4.492-3.022,6.664-4.646
			c2.218-1.658,4.628-2.769,7.18-3.756c2.544-0.984,5.039-1.781,7.113-3.802c1.941-1.891,3.49-4.125,5.65-5.833l1.139,1.972
			c-1.872,1.542-3.264,3.492-4.939,5.195c-1.756,1.787-3.781,2.84-6.048,3.75c-2.22,0.89-4.482,1.643-6.584,2.84
			c-2.101,1.195-3.864,2.814-5.817,4.193C229.244,195.819,235.917,189.471,243.872,184.043z"/>
		<path fill="#CC0099" d="M199.702,247.776c-1.818,0-3.612-0.089-5.333-0.265c-5.875-0.599-10.789-2.072-15.462-4.636l-0.479-0.259
			c-1.85-0.989-5.293-2.83-5.206-5.439c0.073-2.188,2-5.046,3.15-6.754l0.178-0.264c6.44,2.865,11.959,4.212,17.458,4.212
			c7.918,0,15.151-2.813,24.254-7.354c6.581-3.282,13.029-7.053,19.07-10.634c1.145-0.68,2.286-1.364,3.426-2.049
			c5.011-3.008,10.192-6.118,15.629-8.628l1.261,2.056l-0.071,0.033c-5.463,2.52-10.671,5.645-15.708,8.666
			c-1.126,0.676-2.252,1.352-3.383,2.021c-6.035,3.578-12.483,7.349-19.127,10.665c-9.17,4.575-17.038,7.622-25.626,7.622
			c-5.338,0-10.681-1.199-16.333-3.667l-0.023,0.148c-0.72,1.127-1.4,2.191-1.694,3.534c-0.256,1.166,0.405,1.562,1.17,2.02
			c0.162,0.097,0.326,0.195,0.485,0.303c2.431,1.655,4.999,2.949,7.85,3.956c4.474,1.582,9.048,2.319,14.396,2.319
			c0.513,0,1.028-0.007,1.546-0.021c5.055-0.13,10.287-0.907,15.995-2.377c2.54-0.656,5.141-1.446,7.73-2.35
			c0.132-0.046,0.313-0.126,0.525-0.22c0.653-0.29,1.548-0.688,2.292-0.688c0.455,0,0.795,0.154,1.009,0.457
			c0.21,0.298,0.273,0.669,0.174,1.019c-0.1,0.351-0.351,0.634-0.687,0.775c-0.482,0.204-0.975,0.375-1.468,0.546l-0.472,0.164
			C216.724,246.065,207.799,247.776,199.702,247.776z"/>
		<path fill="#CC0099" d="M257.546,207.731c-6.666,3.075-12.818,6.969-19.098,10.691c-6.282,3.725-12.579,7.396-19.123,10.662
			c-14.183,7.076-26.024,10.885-41.897,3.953c-0.754,1.183-1.504,2.308-1.816,3.733c-0.323,1.472,0.775,1.78,1.685,2.397
			c2.469,1.681,5.053,2.971,7.866,3.965c5.264,1.861,10.44,2.443,15.969,2.303c5.474-0.141,10.729-1.02,16.011-2.38
			c2.614-0.675,5.187-1.462,7.736-2.351c0.738-0.258,2.973-1.565,3.743-0.477c0.415,0.587,0.18,1.406-0.482,1.686
			c-0.635,0.269-1.289,0.479-1.937,0.709c-9.859,3.5-21.155,5.903-31.825,4.816c-5.534-0.564-10.52-1.932-15.435-4.628
			c-1.725-0.946-5.742-2.832-5.648-5.633c0.076-2.283,2.193-5.308,3.316-6.979c16.297,7.418,26.81,4.301,41.685-3.117
			c6.528-3.256,12.808-6.922,19.074-10.637c6.264-3.714,12.4-7.604,19.048-10.673L257.546,207.731z"/>
		
			<rect x="126.692" y="170.607" transform="matrix(0.9546 0.2979 -0.2979 0.9546 57.4253 -29.8869)" fill="none" width="0.144" height="5.695"/>
		<line fill="none" x1="127.612" y1="170.736" x2="125.916" y2="176.173"/>
		<rect x="115.294" y="297.358" fill="#CC0099" width="2.25" height="0.145"/>
		<path fill="#CC0099" d="M115.294,297.43c0.75,0,1.5,0,2.25,0"/>
		<path fill="#CC0099" d="M115.223,297.502l0-0.072c0.003-7.405-0.686-14.865-1.353-22.079c-0.369-3.991-0.75-8.118-1.01-12.189
			c-0.402-6.319-0.43-11.65,0.742-17.131c1.127-5.271,3.469-9.794,7.83-15.125c1.468-1.795,2.864-3.423,4.214-4.997
			c6.085-7.097,10.891-12.702,13.547-23.884c1.545-6.505,1.771-11.751,0.733-17.013c-1.246-6.321-4.106-10.117-9.866-13.083
			l-5.556,16.539c-2.23,6.638-6.867,13.367-11.352,19.876c-2.393,3.473-4.653,6.752-6.434,9.86
			c-3.113,5.431-4.926,10.591-5.704,16.238c-0.354,2.562-0.552,5.31-0.623,8.647c-0.031,1.442-0.035,2.883-0.027,4.326
			c0,0.097,0.009,0.25,0.02,0.441c0.059,1.079,0.181,3.324-0.625,3.751l-0.064,0.034l-0.034-0.064
			c-0.54-1.032-1.097-2.056-1.671-3.068c-0.119-12.458,0.316-20.845,7.259-32.532c1.563-2.63,3.553-5.518,5.66-8.574
			c4.446-6.449,9.484-13.759,11.546-20.369l5.09-16.319c-0.807-0.253-1.686-0.565-2.645-0.866l-2.501-0.896
			c-1.986-1.172-14.711-6.465-14.839-6.518c-2.938-1.221-5.326-1.911-7.742-2.238l-0.883-0.117
			c-2.333-0.307-4.744-0.625-7.047-1.536l-0.078-0.031l1.18-2.044c2.048,0.698,4.099,0.962,6.083,1.216l1.065,0.14
			c2.292,0.311,4.579,0.918,6.99,1.856c1.417,0.551,2.831,1.169,4.199,1.766c0.818,0.357,1.636,0.714,2.458,1.06
			c0.842,0.354,1.69,0.69,2.539,1.027c1.285,0.51,2.61,1.037,3.896,1.618c-3.088-4.123-7.067-5.482-11.662-7.052l-2.077-0.705
			c-3.791-1.281-7.71-2.606-11.421-4.358l-0.071-0.033l1.168-2.023c3.337,1.486,6.761,2.649,10.072,3.773
			c1.848,0.627,3.758,1.276,5.616,1.979c6.271,2.372,9.868,5.401,12.417,10.456c13.965,3.889,19.682,12.414,18.491,27.606
			c-1.089,13.894-6.43,22.522-15.287,32.731c-10.508,12.112-13.093,16.953-12.348,33.18c0.233,5.075,0.71,10.215,1.171,15.186
			c0.653,7.037,1.328,14.314,1.324,21.54v0.072H115.223z"/>
		<path fill="#CC0099" d="M99.725,251.545c0.906-0.479,0.571-3.5,0.568-4.129c-0.008-1.443-0.004-2.885,0.027-4.328
			c0.062-2.899,0.226-5.777,0.623-8.655c0.815-5.919,2.761-11.115,5.713-16.265c5.11-8.914,14.36-19.543,17.78-29.723l5.583-16.619
			c5.83,2.982,8.708,6.729,9.978,13.171c1.161,5.887,0.627,11.312-0.734,17.043c-3.238,13.631-9.551,18.854-17.775,28.91
			c-3.74,4.571-6.548,9.168-7.815,15.094c-1.227,5.738-1.107,11.35-0.74,17.111c0.729,11.43,2.369,22.768,2.363,34.273h2.25
			c0.006-12.326-1.932-24.46-2.495-36.723c-0.752-16.365,1.91-21.179,12.365-33.229c8.807-10.151,14.172-18.692,15.269-32.69
			c1.146-14.626-3.977-23.503-18.484-27.568c-2.804-5.56-6.778-8.302-12.378-10.42c-5.188-1.962-10.541-3.42-15.6-5.783
			c-0.376,0.651-0.753,1.304-1.129,1.955c4.337,2.047,8.868,3.48,13.38,5.022c4.642,1.586,8.821,2.988,11.971,7.338
			c-2.194-1.008-4.462-1.825-6.686-2.759c-2.222-0.933-4.408-1.95-6.656-2.825c-2.269-0.883-4.553-1.524-6.974-1.852
			c-2.391-0.324-4.765-0.531-7.076-1.391c-0.379,0.657-0.759,1.315-1.139,1.972c2.578,1.02,5.23,1.285,7.914,1.649
			c2.725,0.369,5.242,1.197,7.76,2.243c1.922,0.798,13.019,5.443,14.836,6.517l2.498,0.896c0.91,0.286,1.807,0.601,2.692,0.957
			l-1.696,5.438l-3.394,10.881c-3.024,9.696-12.29,20.672-17.213,28.959c-6.78,11.413-7.37,19.733-7.258,32.46
			C98.627,249.488,99.185,250.512,99.725,251.545z"/>
	</g>
</g>
</svg>
