<?xml version="1.0" encoding="utf-8"?>
<!-- Generator: Adobe Illustrator 16.0.4, SVG Export Plug-In . SVG Version: 6.00 Build 0)  -->
<!DOCTYPE svg PUBLIC "-//W3C//DTD SVG 1.1//EN" "http://www.w3.org/Graphics/SVG/1.1/DTD/svg11.dtd">
<svg version="1.1" id="Layer_1" xmlns="http://www.w3.org/2000/svg" xmlns:xlink="http://www.w3.org/1999/xlink" x="0px" y="0px"
	 width="5184px" height="576px" viewBox="0 0 5184 576" enable-background="new 0 0 5184 576" xml:space="preserve">
<path fill="#4E66B0" d="M584.852,216.076c-1.061-11.974-0.568-23.996-0.092-35.622c0.149-3.646,0.299-7.292,0.405-10.943
	c-3.776-13.088-3.736-23.223-3.685-36.054l0.009-2.415c0.019-6.16-0.397-12.485-1.274-19.336
	c-1.582-12.312-2.962-17.095-3.842-18.938c-3.292-6.907-10.828-8.239-16.209-8.64c-1.101-0.082-2.199-0.124-3.263-0.124
	c-4.496,0-10.775,0.758-15.155,4.372c-2.597,2.143-4.056,4.598-4.878,8.208c-0.871,3.815-0.779,5.567,1.485,9.092
	c3.314,5.16,7.467,9.212,11.863,13.501l0.737,0.72l-0.033-0.079c-1.119-2.664-2.176-5.18-2.386-8.14
	c-0.261-3.734,1.738-6.243,5.781-7.252c1.257-0.314,2.654-0.474,4.153-0.474c4.621,0,10.076,1.518,14.236,3.961
	c6.466,3.797,7.795,8.627,7.986,16.213c0.053,2.085,0.032,4.205,0.012,6.254c-0.011,1.102-0.021,2.203-0.021,3.304
	c0,2.1,0.046,4.234,0.091,6.298c0.023,1.069,0.046,2.139,0.063,3.208c0.221,13.872-2.615,23.716-7.927,37.03
	c-0.948,2.378-2.052,4.983-3.221,7.74c-3.876,9.147-8.27,19.515-9.773,28.021l-2.41,0.056v-0.072c0-0.068,0.006-0.135,0.018-0.202
	c1.53-8.846,5.908-19.166,9.771-28.27c1.031-2.431,2.021-4.764,2.901-6.941c1.928-4.762,4.359-11.079,6.055-17.714
	c1.545-6.062,2.268-12.123,2.209-18.529c-0.035-3.6-0.059-7.2-0.083-10.8c-0.018-2.647-0.035-5.295-0.057-7.943
	c-0.023-3.074-0.047-6.252-1.201-9.439c-1.145-3.168-3.19-4.811-6.12-6.435c-2.939-1.627-8.161-3.378-12.678-3.378
	c-2.116,0-3.891,0.378-5.275,1.123c-2.977,1.603-2.301,4.64-1.354,7.613c0.823,2.583,1.934,5.086,3.008,7.507
	c0.27,0.607,0.539,1.214,0.804,1.823c3.605,8.278,5.495,15.466,5.974,22.689c0.475,7.183-0.188,14.602-2.085,23.35
	c-0.939,4.328-2.586,9.96-4.329,15.923c-2.986,10.214-6.372,21.791-6.974,29.618l-1.162,0.065l-1.236-0.002v-0.072
	c0.637-8.43,3.981-19.754,6.931-29.746c1.662-5.625,3.23-10.939,4.217-15.323c1.952-8.68,2.679-15.985,2.29-22.99
	c-0.402-7.187-2.218-14.276-5.715-22.312c-4.892-4.62-9.65-9.214-13.912-14.364l-0.152-0.184c-2.083-2.514-4.049-4.888-5.01-8.18
	c-0.896-3.069,0.227-7.648,1.2-9.978c2.486-5.949,7.945-9.709,15.784-10.872c1.725-0.256,3.68-0.391,5.652-0.391
	c5.4,0,10.516,0.972,14.036,2.667c7.723,3.723,8.799,9.878,9.939,16.396c1.309,7.485,2.125,13.796,2.568,19.859
	c0.495,6.777,0.419,11.727,0.347,16.514c-0.106,6.952-0.198,12.978,1.512,22.698c0.146-8.968,0.149-18.069,0.152-26.879
	c0.001-3.806,0.002-7.611,0.015-11.416c0.003-1.331,0.002-2.661,0.001-3.991c-0.005-5.113-0.009-10.401,0.282-15.604
	c0.072-1.282,0.152-2.563,0.232-3.845c0.317-5.092,0.645-10.357,0.489-15.569c-0.19-6.243-1.05-13.91-6.062-17.819
	c-2.839-2.214-6.814-3.337-11.814-3.337c-2.185,0-4.521,0.217-6.941,0.644c-11.694,2.063-24.805,8.825-34.216,17.646
	c-3.198,2.997-8.951,9.056-11.55,15.959c-2.582,6.853-1.455,11.543,4.16,17.306c3.164,3.247,6.559,5.835,9.842,8.337
	c6.672,5.086,12.973,9.89,16.815,19.534c8.388,21.054-1.217,53.7-11.992,75.26l-0.701,0.039l-0.706,0v-0.072
	c0-0.819-0.009-1.639-0.03-2.458c11.645-23.917,20.741-58.646,8.074-77.919c-3.476-5.289-8.084-8.836-12.964-12.592l-1.758-1.357
	c-4.754-3.676-11.266-8.711-13.514-14.831c-2.545-6.937,1.022-14.422,4.463-19.48c3.577-5.259,8.001-9.793,13.922-14.267
	c9.049-6.837,23.533-14.144,37.042-14.144l0.463,0.003c6.407,0.082,11.09,1.751,14.318,5.102c5.253,5.453,5.768,14.745,5.541,23.973
	c-0.082,3.343-0.29,6.734-0.491,10.014c-0.208,3.379-0.422,6.873-0.499,10.317c-0.1,4.579-0.074,9.234-0.05,13.736
	c0.012,2.199,0.023,4.398,0.021,6.598l-0.002,4.566c-0.005,11.839-0.01,24.082-0.356,36.124c0.003,0.053,0.002,0.113-0.001,0.17
	c-0.108,3.692-0.259,7.357-0.41,11.021c-0.476,11.574-0.969,23.543,0.021,35.394l0.004,0.173L584.852,216.076z"/>
<path fill="#4E66B0" d="M587.491,169.32c0.39-13.563,0.347-27.124,0.358-40.688c0.006-6.778-0.119-13.556,0.028-20.335
	c0.15-6.788,0.824-13.544,0.99-20.331c0.366-14.907-1.212-28.763-19.788-29.001c-12.94-0.166-27.621,6.691-37.461,14.126
	c-5.415,4.091-10.061,8.595-13.906,14.25c-3.577,5.258-6.967,12.57-4.455,19.415c2.312,6.294,9.18,11.461,13.936,15.143
	c5.259,4.071,10.494,7.841,14.293,13.622c14.102,21.456,0.918,59.527-8.062,77.957c0.021,0.82,0.03,1.64,0.03,2.46
	c0.423,0,0.846,0.001,1.271,0.001c9.328-18.666,20.928-52.766,11.989-75.201c-5.75-14.435-17.132-18.09-26.642-27.848
	c-5.245-5.383-6.938-10.048-4.176-17.381c2.264-6.012,7.026-11.73,11.568-15.987c9.02-8.453,21.932-15.49,34.253-17.664
	c5.675-1.001,13.652-1.317,18.812,2.708c5.219,4.071,5.921,12.347,6.089,17.874c0.195,6.504-0.354,12.95-0.721,19.42
	c-0.365,6.532-0.265,13.06-0.283,19.591c-0.042,13.012,0.044,26.024-0.18,39.037c-3.08-16.949-0.756-23.043-1.99-39.949
	c-0.488-6.675-1.416-13.266-2.567-19.852c-1.242-7.102-2.455-12.755-9.899-16.343c-5.494-2.646-13.832-3.132-19.646-2.27
	c-6.711,0.996-12.895,4.048-15.729,10.829c-1.082,2.588-2.043,7.036-1.197,9.93c0.979,3.358,3.025,5.774,5.148,8.338
	c4.279,5.171,9.066,9.787,13.922,14.381c3.145,7.226,5.275,14.375,5.721,22.337c0.438,7.879-0.575,15.379-2.291,23.01
	c-2.772,12.325-10.161,32.03-11.143,44.97c-0.003,0.028-0.004,0.056-0.004,0.083c0.751,0.001,1.502,0.002,2.254,0.003
	c0.952-12.364,8.743-33.744,11.305-45.55c1.681-7.748,2.611-15.353,2.084-23.33c-0.534-8.05-2.756-15.291-5.938-22.599
	c-0.01-0.022-0.019-0.044-0.029-0.066c-1.344-3.083-2.788-6.113-3.814-9.337c-0.824-2.586-1.772-5.997,1.388-7.698
	c4.967-2.673,13.816-0.072,18.021,2.256c2.839,1.573,4.979,3.221,6.153,6.473c1.134,3.133,1.181,6.239,1.205,9.463
	c0.052,6.248,0.079,12.496,0.14,18.743c0.059,6.327-0.646,12.411-2.211,18.547c-1.556,6.087-3.707,11.918-6.058,17.723
	c-4.149,10.263-10.728,23.978-12.668,35.197c-0.011,0.063-0.017,0.126-0.017,0.19c0.756,0.001,1.512,0.002,2.268,0.003
	c1.964-11.108,8.938-25.593,12.998-35.776c5.115-12.822,8.146-22.899,7.922-37.002c-0.051-3.169-0.154-6.337-0.154-9.508
	c0-3.185,0.09-6.37,0.01-9.556c-0.178-7.052-1.211-12.195-7.951-16.153c-4.857-2.853-12.564-4.922-18.335-3.48
	c-3.659,0.914-6.007,3.172-5.727,7.178c0.22,3.1,1.393,5.758,2.552,8.524c-4.638-4.538-9.291-8.919-12.864-14.482
	c-2.222-3.458-2.396-5.196-1.495-9.147c0.777-3.413,2.154-5.98,4.902-8.248c5.012-4.135,12.592-4.703,18.47-4.265
	c6.209,0.463,13.153,2.146,16.269,8.681c1.854,3.885,3.328,14.907,3.849,18.96c0.823,6.434,1.295,12.853,1.274,19.345
	c-0.041,14.128-0.332,24.567,3.676,38.471c-0.451,15.498-1.678,30.919-0.385,46.492c0.75,0.001,1.502,0.002,2.254,0.003
	c0-0.032-0.002-0.063-0.004-0.095c-1.299-15.542-0.062-30.932,0.387-46.399c0-0.008,0.002-0.017,0.002-0.025
	C587.493,169.433,587.494,169.376,587.491,169.32z"/>
</svg>
