<?xml version="1.0" encoding="utf-8"?>
<!-- Generator: Adobe Illustrator 16.0.4, SVG Export Plug-In . SVG Version: 6.00 Build 0)  -->
<!DOCTYPE svg PUBLIC "-//W3C//DTD SVG 1.1//EN" "http://www.w3.org/Graphics/SVG/1.1/DTD/svg11.dtd">
<svg version="1.1" id="Layer_1" xmlns="http://www.w3.org/2000/svg" xmlns:xlink="http://www.w3.org/1999/xlink" x="0px" y="0px"
	 width="5184px" height="576px" viewBox="0 0 5184 576" enable-background="new 0 0 5184 576" xml:space="preserve">
<path d="M269.659,98.264c0-0.795-0.329-1.125-1.125-1.125c-0.795-0.001-1.125,0.328-1.125,1.124
	c-0.001,0.795,0.329,1.125,1.124,1.126C269.328,99.389,269.658,99.06,269.659,98.264z"/>
<path d="M264.326,142.817c0-0.796-0.329-1.125-1.124-1.126s-1.125,0.329-1.126,1.124c0,0.796,0.329,1.125,1.124,1.126
	C263.996,143.942,264.326,143.613,264.326,142.817z"/>
<path d="M271.739,126.352c0-0.795-0.329-1.125-1.124-1.125c-0.795-0.001-1.125,0.328-1.126,1.124c0,0.795,0.329,1.125,1.124,1.126
	C271.408,127.477,271.738,127.147,271.739,126.352z"/>
<path d="M359.567,213.401c0.001-0.795-0.329-1.125-1.124-1.126c-0.795,0-1.125,0.329-1.126,1.125c0,0.795,0.329,1.125,1.125,1.125
	C359.237,214.526,359.566,214.197,359.567,213.401z"/>
<path d="M352.752,227.425c0-0.795-0.329-1.125-1.124-1.126c-0.795,0-1.125,0.329-1.126,1.124c-0.001,0.796,0.329,1.126,1.124,1.126
	C352.421,228.55,352.751,228.221,352.752,227.425z"/>
<path d="M280.624,209.351c0.001-0.796-0.329-1.125-1.124-1.126s-1.125,0.329-1.126,1.124c0,0.796,0.329,1.125,1.125,1.126
	C280.293,210.476,280.623,210.146,280.624,209.351z"/>
<path d="M287.587,199.938c0.001-0.796-0.329-1.125-1.124-1.126s-1.125,0.329-1.126,1.124c0,0.796,0.329,1.125,1.124,1.126
	C287.257,201.062,287.587,200.733,287.587,199.938z"/>
<path d="M330.884,186.513c0.001-0.795-0.329-1.125-1.124-1.125c-0.795-0.001-1.125,0.328-1.126,1.124
	c0,0.795,0.329,1.125,1.125,1.126C330.554,187.638,330.883,187.309,330.884,186.513z"/>
<path d="M304.989,191.16c0-0.796-0.329-1.125-1.124-1.126s-1.125,0.328-1.126,1.124c-0.001,0.796,0.329,1.125,1.124,1.126
	C304.659,192.285,304.988,191.955,304.989,191.16z"/>
<path d="M272.481,178.397c0-0.796-0.329-1.125-1.124-1.126s-1.125,0.328-1.126,1.124s0.329,1.125,1.124,1.126
	C272.151,179.522,272.481,179.192,272.481,178.397z"/>
<path d="M260.826,167.984c0-0.796-0.329-1.126-1.125-1.126c-0.795-0.001-1.125,0.328-1.125,1.124
	c-0.001,0.795,0.329,1.125,1.124,1.126C260.496,169.108,260.825,168.779,260.826,167.984z"/>
<path d="M279.415,112.714c0-0.796-0.329-1.126-1.124-1.126c-0.795-0.001-1.125,0.328-1.126,1.124c0,0.795,0.329,1.125,1.124,1.126
	C279.084,113.838,279.415,113.509,279.415,112.714z"/>
<path d="M383.974,152.588c0.001-0.796-0.329-1.125-1.124-1.126c-0.795-0.001-1.125,0.328-1.126,1.124
	c0,0.796,0.329,1.125,1.124,1.126C383.643,153.713,383.974,153.384,383.974,152.588z"/>
<path d="M370.934,116.801c0.001-0.795-0.329-1.125-1.124-1.126c-0.795,0-1.125,0.329-1.126,1.125c0,0.795,0.329,1.125,1.125,1.125
	C370.604,117.926,370.934,117.597,370.934,116.801z"/>
<path d="M118.241,71.312c-0.688-0.398-1.139-0.279-1.537,0.409c-0.399,0.688-0.279,1.139,0.41,1.538
	c0.688,0.398,1.139,0.278,1.537-0.41C119.05,72.161,118.929,71.711,118.241,71.312z"/>
<path d="M93.672,97.761c-0.688-0.399-1.139-0.279-1.538,0.41c-0.396,0.688-0.278,1.139,0.41,1.537
	c0.688,0.399,1.139,0.279,1.538-0.409C94.48,98.61,94.36,98.16,93.672,97.761z"/>
<path d="M193.446,139.013c-0.688-0.398-1.141-0.278-1.538,0.41c-0.398,0.688-0.279,1.138,0.41,1.537
	c0.688,0.398,1.139,0.278,1.538-0.41C194.254,139.861,194.135,139.411,193.446,139.013z"/>
<path d="M181.834,157.22c-0.688-0.398-1.139-0.279-1.537,0.41c-0.399,0.688-0.279,1.139,0.41,1.538
	c0.688,0.398,1.139,0.278,1.537-0.41C182.643,158.068,182.523,157.618,181.834,157.22z"/>
</svg>
