<?xml version="1.0" encoding="utf-8"?>
<!-- Generator: Adobe Illustrator 16.0.4, SVG Export Plug-In . SVG Version: 6.00 Build 0)  -->
<!DOCTYPE svg PUBLIC "-//W3C//DTD SVG 1.1//EN" "http://www.w3.org/Graphics/SVG/1.1/DTD/svg11.dtd">
<svg version="1.1" id="Layer_1" xmlns="http://www.w3.org/2000/svg" xmlns:xlink="http://www.w3.org/1999/xlink" x="0px" y="0px"
	 width="5184px" height="576px" viewBox="0 0 5184 576" enable-background="new 0 0 5184 576" xml:space="preserve">
<path fill="#4E66B0" d="M751.157,420.584c-0.652,0-0.976-0.275-1.12-0.949c-0.356-0.658-3.83-1.785-5.138-2.209
	c-0.247-0.08-0.431-0.141-0.527-0.175c-2.606-0.918-4.726-1.793-6.669-2.754c-2.879-1.421-5.679-3.079-8.385-4.683
	c-1.106-0.655-2.212-1.311-3.326-1.952c-4.235-2.438-8.237-4.236-12.235-5.497c-3.763-1.187-7.792-2.168-13.062-3.185
	c-8.256-1.593-16.991-2.621-26.704-3.145c-1.013-0.055-2.134-0.096-3.333-0.14c-7.217-0.265-17.101-0.628-22.904-4.477l0.524-1.04
	l0.62-1.069l0.063,0.04c5.356,3.581,15.76,3.955,22.645,4.203c1.275,0.046,2.44,0.088,3.445,0.144
	c9.577,0.544,18.25,1.596,26.516,3.214c7.567,1.476,16.475,3.653,25.169,8.615c1.272,0.726,2.532,1.472,3.792,2.219
	c2.526,1.496,5.138,3.043,7.809,4.391c1.845,0.931,3.799,1.765,5.977,2.552c0.608,0.22,1.221,0.419,1.833,0.617
	c1.495,0.485,3.04,0.987,4.471,1.803c0.627-3.721-1.679-7.018-7.045-10.076c-4.027-2.293-8.296-3.774-12.31-5.034
	c-8.258-2.589-16.828-4.425-25.116-6.2l-0.775-0.166c-1.427-0.306-2.889-0.612-4.378-0.925
	c-15.443-3.242-32.946-6.916-45.755-16.219l0.826-1.554l0.321-0.555c0,0,0.135,0.079,0.168,0.104
	c12.557,9.164,31.306,13.066,46.37,16.202c2.081,0.434,4.098,0.854,6.026,1.271c8.968,1.941,18.144,3.929,26.916,7.059
	c4.134,1.475,8.496,3.173,12.384,6.269c4.475,3.568,5.879,7.703,4.173,12.289c-0.214,0.558-0.437,0.985-1.167,1.009L751.157,420.584
	z"/>
<path fill="#4E66B0" d="M656.508,376.541c-0.031-0.023-0.064-0.045-0.099-0.064c-0.377,0.651-0.754,1.305-1.131,1.952
	c14.062,10.213,34.249,13.732,50.105,17.132c8.7,1.864,17.384,3.698,25.897,6.368c4.265,1.338,8.402,2.807,12.324,5.04
	c3.475,1.98,7.967,5.294,7.062,10.252c-2.021-1.175-4.232-1.688-6.381-2.466c-2.046-0.739-4.04-1.574-5.984-2.555
	c-3.984-2.01-7.738-4.405-11.604-6.611c-7.966-4.546-16.29-6.88-25.147-8.607c-8.779-1.719-17.583-2.705-26.506-3.212
	c-6.518-0.366-19.785-0.119-26.062-4.319c-0.021-0.016-0.041-0.025-0.062-0.039c-0.376,0.647-0.752,1.3-1.129,1.949
	c6.754,4.479,19.124,4.226,26.201,4.604c8.989,0.484,17.862,1.438,26.714,3.146c4.414,0.851,8.775,1.832,13.07,3.187
	c4.328,1.364,8.332,3.247,12.25,5.503c3.887,2.238,7.674,4.643,11.707,6.633c2.164,1.069,4.39,1.95,6.662,2.751
	c0.637,0.228,5.269,1.61,5.711,2.437c0.143,0.667,0.459,0.915,1.142,0.89c0.681-0.021,0.889-0.406,1.103-0.962
	c1.883-5.062-0.252-9.099-4.15-12.207c-3.764-2.997-7.944-4.682-12.363-6.258c-8.798-3.139-17.828-5.09-26.906-7.056
	C692.91,390.553,670.798,386.97,656.508,376.541z"/>
<path fill="#4E66B0" d="M563.432,449.551l0.001-0.073c0.001-0.129,0.02-0.25,0.059-0.369c3.173-9.738-1.123-18.162-6.238-25.814
	c-2.797-4.187-5.903-8.246-8.906-12.172c-2.507-3.277-5.1-6.667-7.501-10.113c-7.809-11.203-19.941-32.829-13.465-51.789
	c2.85-8.347,8.759-14.175,19.16-18.896c9.49-4.308,19.201-6.234,26.601-7.433c6.292-1.018,12.725-1.528,18.946-2.022
	c2.817-0.224,5.73-0.455,8.592-0.73c10.286-0.991,18.682-3.356,26.423-7.444l1.257,2.045l-0.065,0.035
	c-12.802,6.771-24.718,7.674-37.333,8.63c-5.225,0.396-10.628,0.805-16.167,1.656c-7.324,1.123-16.945,2.941-26.404,7.063
	c-7.074,3.082-15.621,7.968-18.941,18.47c-3.009,9.522-0.794,19.877,1.594,26.887c2.624,7.695,6.527,14.867,13.051,23.98
	c2.032,2.839,4.192,5.655,6.282,8.379c3.379,4.404,6.873,8.959,9.925,13.74c4.538,7.113,8.749,15.755,5.577,25.925l-0.016,0.051
	L563.432,449.551z"/>
<path fill="#4E66B0" d="M627.138,312.757c-8.456,4.465-17.045,6.546-26.45,7.452c-9.183,0.884-18.396,1.275-27.533,2.753
	c-9.196,1.488-18.012,3.536-26.583,7.427c-8.582,3.896-15.855,9.29-19.121,18.854c-6.124,17.93,4.146,38.366,13.456,51.725
	c5.275,7.573,11.273,14.602,16.408,22.286c5.074,7.592,9.468,15.988,6.246,25.877c-0.037,0.114-0.055,0.229-0.056,0.348
	c0.769,0,1.537,0.002,2.306,0.004c3.047-9.767-0.603-18.081-5.568-25.864c-4.938-7.735-10.887-14.687-16.205-22.116
	c-5.381-7.517-10.037-15.132-13.061-23.999c-2.811-8.251-4.36-18.178-1.595-26.932c3.045-9.629,10.461-14.802,18.981-18.515
	c8.543-3.723,17.304-5.67,26.422-7.068c18.695-2.874,35.314-0.672,53.441-10.258c0.013-0.007,0.022-0.014,0.035-0.021
	C627.887,314.057,627.513,313.407,627.138,312.757z"/>
<path fill="#4E66B0" d="M605.373,449.581l0-0.072c0.011-7.44-5.994-19.841-9.574-26.569c-4.249-7.985-9.339-15.587-14.261-22.938
	l-1.317-1.965c-4.669-6.949-11.065-16.467-4.85-25.345c6.32-9.028,19.962-9.73,23.993-9.73c0.586,0,1.161,0.013,1.719,0.036
	c2.258,0.097,4.495,0.146,6.649,0.146c16.027,0,29.907-2.632,43.68-8.281l1.083,1.754l0.172,0.299l-0.167,0.088
	c-14.148,5.828-28.36,8.534-44.758,8.534c-0.001,0,0,0-0.001,0c-2.192,0-4.467-0.05-6.762-0.147
	c-0.518-0.022-1.053-0.034-1.603-0.034c-7.675,0-17.485,2.272-22.004,8.649c-5.403,7.627,0.698,16.612,4.735,22.558l0.775,1.146
	c8.166,12.173,20.506,30.57,24.138,46.157c-0.1,1.856-0.152,3.722-0.152,5.565v0.02l-0.021,0.081l-0.021,0.035l-0.049,0.015
	L605.373,449.581z"/>
<path fill="#4E66B0" d="M651.441,354.929c-16.543,6.786-32.682,8.897-50.359,8.142c-8.336-0.356-20.182,1.851-25.65,9.663
	c-6.418,9.168,0.709,19.075,5.361,26.024c5.283,7.896,10.592,15.731,15.07,24.147c3.283,6.171,9.594,18.959,9.582,26.604
	c0.443,0,0.889,0,1.334,0.001c0.006-0.012,0.013-0.021,0.02-0.035c0-0.015,0-0.026,0-0.043c0-1.852,0.051-3.697,0.153-5.549
	c-3.607-15.484-15.692-33.56-24.127-46.134c-4.031-6.009-11.296-15.617-5.509-23.786c5.004-7.062,16.171-8.968,23.668-8.646
	c18.07,0.772,34.554-1.405,51.453-8.363c0.045-0.021,0.09-0.041,0.133-0.065C652.193,356.233,651.818,355.581,651.441,354.929z"/>
<path fill="#4E66B0" d="M549.56,449.532v-0.072c0-0.062,0.005-0.124,0.016-0.186c1.418-9.077-2.091-17.889-5.711-25.311
	c-2.23-4.573-4.733-9.094-7.154-13.466c-1.771-3.198-3.603-6.506-5.313-9.809c-4.369-8.441-7.676-16.413-10.109-24.371
	c-0.58-1.898-1.128-3.692-3.175-3.692c-0.329,0-0.698,0.046-1.095,0.137c-3.156,0.712-3.126,1.507-3.026,4.14l0.022,0.615
	c0.136,4.305,0.914,8.566,1.666,12.688l0.069,0.382l1.799,2.148c13.604,16.336,26.453,31.766,21.969,56.731l-2.377,0.058
	l-0.036-0.072c0-0.069,0.007-0.142,0.023-0.216c4.399-23.976-7.958-38.81-21.041-54.514c-0.793-0.952-1.588-1.906-2.383-2.867
	c-4.497-5.435-9.033-11.504-11.745-19.042c-2.627-7.301-3.354-15.584-1.945-22.155c2.023-9.425,7.231-12.729,14.979-15.009
	c3.866-1.136,6.339-1.691,8.522-2.181c3.803-0.854,6.315-1.418,12.91-4.382c1.846-0.831,3.701-1.717,5.494-2.573
	c4.834-2.309,9.833-4.696,15.161-6.231c7.246-2.085,14.759-3,22.024-3.887l0.697-0.084c15.754-1.919,28.197-3.434,41.783-12.978
	l0.152-0.093l1.16,2.012c-12.99,9.177-24.935,11.229-40.396,13.136l-2.642,0.322c-6.102,0.739-12.412,1.504-18.539,2.938
	c-7.311,1.711-14.011,4.919-19.922,7.75c-8.337,3.99-11.355,5.056-20.183,7.125l-0.874,0.203
	c-6.353,1.478-13.552,3.151-16.69,10.313c-3.506,7.999-1.376,18.127-0.64,21.041c1.583,6.269,4.561,12.026,9.642,18.636
	c-0.497-3.065-1.633-10.334-0.639-13.298c0.743-2.221,3.908-3.042,5.661-3.178c0.226-0.017,0.441-0.025,0.648-0.025
	c2.628,0,3.729,1.403,4.654,3.669c0.524,1.287,0.925,2.634,1.312,3.936c0.261,0.876,0.521,1.752,0.82,2.616
	c0.702,2.033,1.506,4.157,2.392,6.315c1.574,3.823,3.463,7.865,5.773,12.355c1.785,3.469,3.704,6.936,5.561,10.289
	c2.477,4.475,5.038,9.102,7.312,13.791c3.687,7.603,7.26,16.67,5.818,26.283l-0.009,0.062L549.56,449.532z"/>
<path fill="#4E66B0" d="M621.711,303.339c-0.029,0.017-0.057,0.035-0.084,0.054c-13.777,9.679-26.686,11.146-42.419,13.063
	c-7.449,0.908-14.836,1.804-22.106,3.896c-7.297,2.102-13.817,5.729-20.646,8.801c-10.331,4.644-10.739,3.422-21.44,6.566
	c-8.312,2.444-13.017,6.042-14.93,14.954c-1.52,7.084-0.461,15.438,1.942,22.116c2.629,7.308,6.895,13.174,11.732,19.021
	c13.938,16.846,28.11,31.979,23.438,57.441c-0.014,0.066-0.021,0.134-0.021,0.201c0.756,0.001,1.514,0.002,2.271,0.002
	c4.675-26.03-9.394-41.531-23.769-58.854c-0.791-4.337-1.597-8.64-1.736-13.08c-0.099-3.104-0.394-4.048,3.06-4.827
	c2.993-0.681,3.638,1.259,4.354,3.604c2.595,8.485,6.035,16.497,10.104,24.359c4.048,7.816,8.604,15.354,12.468,23.276
	c3.709,7.604,7.125,16.345,5.717,25.354c-0.01,0.057-0.015,0.114-0.015,0.173c0.755,0,1.509,0.001,2.263,0.001
	c1.405-9.364-1.955-18.288-5.812-26.241c-3.978-8.201-8.706-15.981-12.872-24.078c-2.084-4.051-4.04-8.146-5.775-12.361
	c-0.855-2.084-1.658-4.188-2.394-6.319c-0.749-2.17-1.261-4.412-2.131-6.548c-1.04-2.549-2.286-3.826-5.229-3.599
	c-1.812,0.14-4.884,0.995-5.598,3.128c-1.018,3.034,0.229,10.722,0.688,13.545c-4.479-5.79-7.998-11.643-9.828-18.888
	c-1.598-6.321-2.131-14.758,0.644-21.088c3.298-7.527,11.063-9.021,17.613-10.558c8.87-2.079,11.954-3.188,20.168-7.12
	c6.469-3.098,12.854-6.098,19.937-7.755c7-1.639,14.09-2.386,21.188-3.262c15.127-1.866,27.243-3.855,40.342-13.028
	C622.461,304.643,622.086,303.99,621.711,303.339z"/>
<path fill="#4E66B0" d="M581.688,449.563l-0.038-0.06c-1.678-9.03-9.411-22.137-15.058-31.708c-1.569-2.659-3.051-5.171-4.2-7.249
	c-10.604-5.976-16.373-22.753-18.105-31.72c-1.013-5.232-3.699-23.274,4.145-36.371c-4.925,0.739-8.666,2.796-11.12,6.113
	c-3.074,4.156-4.091,10.271-2.94,17.683c1.36,8.758,5.512,18.479,12.34,28.896c3.42,5.218,7.195,10.3,10.845,15.215
	c2.539,3.419,5.165,6.954,7.649,10.505c6.236,8.914,12.607,19.285,12.581,28.623v0.072l-2.394-0.002l0-0.072
	c0.03-10.254-8.897-22.729-13.693-29.432c-2.007-2.807-4.101-5.62-6.126-8.342c-4.423-5.943-8.998-12.09-12.958-18.548
	c-4.721-7.697-10.471-19.283-11.051-30.765c-0.675-13.393,6.121-21.613,18.645-22.556c7.28-9.779,20.226-14.547,39.524-14.547h0.417
	c5.361,0.016,10.769,0.476,15.998,0.92c2.004,0.17,4.009,0.341,6.016,0.487c2.16,0.158,4.11,0.234,5.961,0.234
	c5.885,0,10.901-0.781,15.786-2.458l0.415,0.603l0.84,1.453l-0.063,0.036c-0.077,0.044-0.143,0.074-0.207,0.094
	c-5.22,1.82-10.541,2.669-16.74,2.669c0,0,0,0,0,0c-1.497,0-3.026-0.049-4.676-0.148c-2.726-0.166-5.49-0.404-8.163-0.635
	c-4.405-0.38-8.959-0.773-13.466-0.849c-0.713-0.012-1.438-0.019-2.177-0.019c-18.269,0-30.5,4.363-37.39,13.339
	c0.018,0.589-0.217,0.91-0.824,1.101c-9.976,14.42-7.689,48.267,8.278,63.445c-2.723-5.327-5.411-11.179-6.839-17.881
	c-1.069-5.016-0.896-10.041-0.728-14.901c0.053-1.545,0.106-3.092,0.123-4.645c0.02-1.957-0.035-3.958-0.088-5.894
	c-0.306-11.229-0.596-21.835,12.146-28.775c5.094-2.774,11.062-4.123,18.246-4.123c6.818,0,13.709,1.231,20.14,2.562
	c1.667,0.345,3.659,0.806,5.965,1.339c8.131,1.882,19.267,4.459,27.501,4.459c1.948,0,3.661-0.147,5.09-0.438l1.262,2.094
	l-0.059,0.037c-0.102,0.063-0.216,0.108-0.34,0.133c-1.833,0.406-3.962,0.613-6.328,0.613c-6.658,0-14.25-1.645-18.786-2.627
	c-2.054-0.444-4.102-0.909-6.151-1.373c-6.08-1.378-12.366-2.803-18.674-3.667c-3.678-0.504-6.88-0.748-9.79-0.748
	c-5.778,0-10.712,0.955-15.083,2.921c-8.601,3.869-12.402,9.846-12.711,19.985c-0.077,2.53-0.033,5.099,0.009,7.583
	c0.029,1.698,0.058,3.396,0.05,5.095c-0.008,1.793-0.079,3.612-0.147,5.372c-0.093,2.388-0.189,4.857-0.129,7.292
	c0.216,8.523,3.042,15.771,7.218,24.029c2.665,5.278,5.703,10.451,8.642,15.453c1.289,2.194,2.577,4.388,3.84,6.597l0.243,0.425
	c4.191,7.329,8.151,14.251,9.682,22.791c0.014,0.066,0.021,0.137,0.021,0.212v0.072L581.688,449.563z"/>
<path fill="#4E66B0" d="M633.936,324.552c-7.257,2.491-14.278,2.774-21.776,2.228c-7.332-0.537-14.631-1.386-22.009-1.407
	c-13.479-0.044-30.562,2.007-39.936,14.547c-13.14,0.988-19.214,9.87-18.578,22.479c0.54,10.688,5.666,21.968,11.041,30.73
	c5.771,9.411,12.688,17.948,19.081,26.886c5.124,7.161,13.735,19.423,13.706,29.474c0.75,0.001,1.5,0.002,2.25,0.002
	c0.027-9.987-7.464-21.285-12.568-28.582c-6.054-8.654-12.695-16.871-18.495-25.722c-5.539-8.449-10.755-18.646-12.352-28.924
	c-1.769-11.392,1.271-22.028,14.271-23.9c-6.329,10.449-6.373,25.301-4.214,36.451c1.941,10.046,7.908,25.944,18.098,31.698
	c5.302,9.591,17.121,27.436,19.266,38.979c0.756,0.001,1.515,0.002,2.271,0.002c0-0.067-0.006-0.133-0.02-0.199
	c-1.559-8.694-5.688-15.797-9.916-23.192c-4.191-7.333-8.668-14.497-12.483-22.054c-3.896-7.703-6.999-15.105-7.226-24.06
	c-0.104-4.231,0.258-8.441,0.276-12.666c0.019-4.229-0.188-8.448-0.06-12.68c0.293-9.604,3.705-15.979,12.754-20.049
	c7.962-3.581,16.726-3.3,24.912-2.179c8.4,1.15,16.576,3.253,24.83,5.041c7.106,1.539,17.504,3.694,25.084,2.014
	c0.111-0.022,0.218-0.062,0.316-0.124c-0.384-0.666-0.768-1.333-1.15-1.999c-9.961,2.024-29.582-3.5-38.586-5.36
	c-11.699-2.421-26.485-4.901-38.336,1.554c-14.973,8.155-11.89,21.681-12.021,34.606c-0.066,6.523-0.797,12.959,0.604,19.53
	c1.392,6.527,4.014,12.373,7.022,18.231c-13.243-12.408-20.062-47.245-8.553-63.85c0.573-0.181,0.791-0.477,0.788-1.076
	c9.271-12.076,26.703-13.563,39.625-13.349c7.244,0.122,14.416,1.046,21.632,1.483c7.39,0.448,14.293-0.042,21.391-2.518
	c0.067-0.021,0.131-0.052,0.192-0.087C634.691,325.863,634.314,325.208,633.936,324.552z"/>
<path fill="#4E66B0" d="M701.415,480.68c-1.11,0-2.266-0.438-3.341-1.268c-2.642-2.036-3.908-4.801-5.025-7.239
	c-0.538-1.177-1.087-2.347-1.635-3.517c-2.061-4.395-4.191-8.94-5.691-13.703c-0.663-2.106-2.042-6.491,0.496-8.938
	c0.945-0.913,2.235-1.396,3.73-1.396c1.758,0,3.657,0.695,4.957,1.813c1.962,1.689,2.561,3.744,3.195,5.919
	c0.137,0.47,0.275,0.943,0.429,1.417c0.802,2.479,1.984,4.888,3.614,7.36c0.605-0.432,1.299-0.852,1.993-1.271
	c1.872-1.134,3.807-2.305,5.852-3.232c2.61-1.185,5.368-2.038,8.036-2.863c0,0,1.143-0.351,1.509-0.46
	c4.036-1.206,13.487-4.032,14.52-8.198c0.5-2.019-0.986-4.515-4.415-7.418c-2.523-2.135-5.2-3.812-7.485-5.173
	c-5.696-3.387-11.672-6.193-16.241-8.26c-4.789-1.839-13.709-5.264-21.575-5.264c-3.766,0-6.872,0.803-9.236,2.387
	c4.311,1.627,8.367,3.17,12.158,5.766c2.781,1.903,4.356,4.025,4.557,6.137c0.167,1.758-0.6,3.508-2.28,5.202
	c-3.077,3.103-7.633,4.676-13.542,4.676c-4.82,0-9.414-1.049-12.419-1.928c-0.647-0.835-1.272-1.632-1.908-2.421
	c0.258-0.322,0.486-0.422,0.746-0.422c0.133,0,0.278,0.026,0.441,0.082c2.559,0.864,7.657,2.314,13.048,2.314
	c4.822,0,8.644-1.164,11.358-3.459c1.564-1.322,2.296-2.64,2.175-3.913c-0.216-2.264-3.035-4.122-5.466-5.489
	c-3.862-2.171-8.014-3.692-11.677-5.035c-2.707-0.992-5.213-1.88-7.594-2.724c-9.402-3.33-16.828-5.96-26.862-11.594l-0.063-0.035
	l0.022-0.07l1.163-2.009l0.062,0.035c9.317,5.226,19.381,8.845,29.114,12.345c1.448,0.521,2.897,1.042,4.346,1.569
	c2.904-2.533,6.936-3.824,11.91-3.824c8.227,0,17.457,3.547,22.416,5.453c2.898,1.114,5.812,2.32,8.631,3.487
	c2.887,1.194,5.872,2.431,8.84,3.566c2.795,1.069,5.79,2.171,8.958,2.851c1.13,0.243,2.461,0.492,3.771,0.492
	c2.322,0,3.868-0.813,4.593-2.416c1.295-2.938,0.165-3.92-2.117-5.543c-1.602-1.137-3.317-2.149-4.976-3.128l-0.759-0.449
	c-4.5-2.662-8.278-4.71-11.891-6.445c-8.351-4.012-16.676-6.96-25.451-9.015c-6.663-1.561-13.039-2.318-19.492-2.318
	c-2.52,0-5.095,0.119-7.655,0.354c-0.915,0.084-1.837,0.179-2.764,0.273c-2.892,0.297-5.881,0.604-8.842,0.604
	c-6.084,0-10.822-1.364-14.91-4.291l1.139-2.098l0.068,0.024c0.036,0.021,0.07,0.044,0.102,0.066
	c3.682,2.665,8.078,3.906,13.835,3.906c2.941-0.001,5.87-0.312,8.701-0.613c1.185-0.126,2.347-0.249,3.478-0.346
	c2.311-0.199,4.646-0.301,6.944-0.301c6.452,0,12.924,0.774,19.786,2.368c2.914,0.681,5.904,1.501,8.886,2.438
	c7.711,2.427,14.892,5.433,21.953,9.19c3.161,1.683,6.442,3.57,10.325,5.94l0.689,0.416c2.988,1.792,6.703,4.021,5.634,8.478
	c2.03,0.302,4.019,0.455,5.912,0.455c5.736,0,10.657-1.38,14.626-4.101c5.798-3.98,9.215-10.673,9.375-18.362
	c0.158-7.476-2.853-14.628-8.054-19.132c-5.542-4.801-13.932-5.854-20.057-6.622c-6.47-0.815-13.484-1.264-20.91-1.738
	c-21.012-1.343-44.827-2.864-62.901-13.68l-0.061-0.036l1.2-2.071l0.069,0.04c17.569,10.519,40.895,12.005,61.474,13.316
	c9.191,0.585,17.873,1.139,25.68,2.404c7.839,1.27,14.271,2.761,19.75,9.303c4.649,5.552,6.9,13.384,6.02,20.951
	c-0.913,7.854-5.071,14.546-11.409,18.359c-4.158,2.501-9.143,3.769-14.815,3.769c-2.201,0-4.515-0.193-6.877-0.575
	c-1.167,1.979-3.313,3-6.31,3c-0.601,0-1.251-0.041-1.934-0.122c-3.002-0.355-5.789-1.244-8.396-2.16
	c5.186,3.436,8.259,6.501,9.387,9.361c2.18,5.534-2.936,8.641-6.973,10.495c-3.195,1.469-6.572,2.513-9.838,3.521
	c-1.128,0.35-2.257,0.698-3.381,1.064c-4.918,1.601-6.453,2.525-9.816,4.553c-0.761,0.459-1.613,0.973-2.617,1.561
	c2.201,3.37,4.069,6.261,3.632,10.592c10.221-8.488,18.438-14.513,26.624-19.521c5.255-3.213,10.081-5.707,14.752-7.625
	c5.294-2.173,7.513-2.683,11.542-3.606c1.245-0.286,2.656-0.609,4.381-1.035c5.754-1.419,10.015-3.956,13.817-8.228
	c3.289-3.692,6.087-8.025,9.075-14.051c2.325-4.688,9.645-20.846,6.212-31.891c-3.541-11.394-20.488-13.736-27.725-14.736
	c-8.047-1.116-16.264-1.672-24.21-2.209c-2.957-0.2-5.913-0.399-8.869-0.628c-21.195-1.633-45.421-4.153-64.682-13.452l-0.07-0.033
	l-0.037-0.107l1.13-1.95c19.257,9.199,43.536,11.654,66.761,13.377c2.423,0.181,4.846,0.342,7.268,0.503
	c8.796,0.587,17.891,1.193,26.788,2.703c21.093,3.582,25.23,11.514,26.479,18.022c2.361,12.313-5.221,28.242-7.601,32.831
	c-3.19,6.161-6.021,10.35-9.469,14.005c-4.009,4.251-8.595,6.811-14.871,8.3c-1,0.237-1.909,0.448-2.753,0.644
	c-5.036,1.169-7.81,1.813-13.565,4.296c-4.804,2.074-9.583,4.65-15.041,8.106c-10.699,6.778-20.214,14.542-27.309,20.548
	C704.622,479.698,703.1,480.68,701.415,480.68C701.415,480.68,701.415,480.68,701.415,480.68z M689.917,446.948
	c-1.565,0-2.563,0.863-2.738,2.368c-0.262,2.251,1.25,6.231,1.746,7.54c1.494,3.935,3.286,7.804,5.02,11.546
	c0.43,0.928,0.859,1.855,1.285,2.784c0.846,1.842,1.804,3.782,3.381,5.481c1.02,1.099,1.965,1.655,2.809,1.655
	c0.863,0,1.639-0.589,2.307-1.751c2.708-4.765-0.588-9.661-2.996-13.237c-0.242-0.358-0.476-0.707-0.696-1.043
	c-1.626-2.475-2.747-4.698-3.527-6.996c-0.109-0.323-0.229-0.712-0.36-1.141c-0.611-1.994-1.447-4.726-2.807-5.896
	C692.404,447.45,691.093,446.948,689.917,446.948z"/>
<path fill="#4E66B0" d="M796.221,389.218c-2.467-12.866-16.311-16.248-26.42-17.965c-11.301-1.918-22.676-2.361-34.049-3.205
	c-21.018-1.56-46.846-3.855-66.693-13.413c-0.377,0.65-0.752,1.3-1.13,1.95c0.024,0.014,0.05,0.027,0.075,0.04
	c19.378,9.354,44.061,11.858,64.656,13.445c11.037,0.851,22.09,1.312,33.083,2.837c8.591,1.188,24.344,3.716,27.784,14.786
	c3.037,9.774-2.242,23.929-6.217,31.944c-2.512,5.065-5.287,9.802-9.086,14.066c-3.897,4.379-8.191,6.854-13.854,8.25
	c-7.225,1.781-8.965,1.786-15.912,4.638c-5.155,2.117-9.999,4.721-14.742,7.62c-9.501,5.812-18.215,12.532-26.752,19.628
	c0.51-4.451-1.438-7.408-3.643-10.784c5.437-3.185,6.432-4.18,12.512-6.158c4.436-1.445,8.938-2.618,13.212-4.583
	c4.037-1.854,9.073-4.979,6.937-10.403c-1.558-3.949-6.688-7.594-9.857-9.654c2.924,1.04,5.821,1.985,8.941,2.355
	c2.957,0.35,6.414,0.099,8.246-2.878c7.198,1.163,15.062,0.775,21.645-3.184c6.637-3.993,10.5-10.777,11.375-18.307
	c0.854-7.342-1.191-15.149-6.004-20.896c-5.484-6.548-11.994-8.028-19.707-9.277c-25.787-4.182-61.969-0.637-87.171-15.726
	c-0.005-0.002-0.009-0.005-0.015-0.008c-0.375,0.649-0.754,1.298-1.129,1.947c24.321,14.553,58.647,12.239,83.783,15.408
	c6.475,0.812,14.637,1.911,20.096,6.639c5.506,4.769,8.229,12.09,8.078,19.188c-0.15,7.226-3.26,14.2-9.406,18.42
	c-6.131,4.202-13.754,4.687-20.668,3.646c1.205-4.803-3.164-6.994-6.271-8.892c-3.391-2.069-6.812-4.07-10.321-5.938
	c-7.06-3.757-14.313-6.785-21.94-9.186c-2.934-0.922-5.887-1.737-8.881-2.437c-8.895-2.065-17.574-2.854-26.707-2.066
	c-8.209,0.704-18.088,2.812-26.062-2.96c-0.03-0.021-0.062-0.043-0.096-0.062c-0.377,0.65-0.754,1.301-1.13,1.952
	c8.33,5.965,17.74,4.202,26.467,3.401c9.283-0.854,18.111-0.156,27.171,1.965c8.875,2.078,17.255,5.076,25.466,9.021
	c4.075,1.957,8.008,4.147,11.896,6.448c1.939,1.149,3.896,2.271,5.74,3.58c2.284,1.625,3.461,2.637,2.16,5.587
	c-0.006,0.016-0.013,0.029-0.02,0.044c-1.487,3.287-5.889,2.516-8.444,1.965c-3.096-0.664-6.028-1.729-8.969-2.854
	c-5.867-2.246-11.606-4.8-17.472-7.054c-8.471-3.256-25.104-9.52-34.324-1.629c-11.379-4.138-22.788-7.927-33.471-13.919
	c-0.375,0.648-0.752,1.3-1.127,1.947c0.004,0.002,0.008,0.005,0.014,0.007c12.572,7.059,21.066,9.406,34.445,14.312
	c3.994,1.464,7.947,2.938,11.688,5.04c4.214,2.368,8.102,5.463,3.303,9.52c-6.461,5.462-17.852,3.396-24.476,1.158
	c-0.448-0.151-0.757-0.088-1.108,0.227c0.637,0.789,1.262,1.587,1.872,2.396c7.302,2.137,19.337,3.878,25.89-2.729
	c4.216-4.252,2.078-8.255-2.267-11.229c-3.827-2.621-8.011-4.198-12.272-5.807c8.407-5.783,23.723,0,30.996,2.793
	c5.547,2.509,11.002,5.145,16.248,8.264c2.622,1.56,5.154,3.198,7.495,5.18c1.681,1.423,5.151,4.609,4.438,7.49
	c-1.139,4.595-12.456,7.585-15.51,8.534c-2.904,0.9-5.808,1.771-8.595,3.035c-2.786,1.264-5.311,2.946-7.935,4.479
	c-1.531-2.324-2.762-4.719-3.622-7.378c-0.854-2.637-1.229-5.261-3.603-7.304c-2.205-1.897-6.265-2.667-8.591-0.421
	c-2.403,2.318-1.245,6.422-0.477,8.865c1.891,6.003,4.727,11.537,7.323,17.211c1.256,2.741,2.476,5.264,5.004,7.213
	c2.766,2.132,5.733,1.479,7.521-1.477c8.728-7.389,17.629-14.416,27.316-20.554c4.838-3.064,9.778-5.836,15.051-8.112
	c6.713-2.896,9.28-3.271,16.33-4.943c5.919-1.404,10.598-3.786,14.835-8.279c3.962-4.201,6.834-8.922,9.457-13.988
	C793.104,413.371,798.23,399.698,796.221,389.218z M703.797,476.591c-0.001,0.002-0.003,0.005-0.004,0.008
	c-0.001,0.002-0.002,0.005-0.004,0.01c-1.506,2.619-3.382,2.102-5.231,0.108c-1.521-1.638-2.48-3.512-3.394-5.5
	c-2.175-4.747-4.448-9.439-6.307-14.335c-0.701-1.847-2-5.431-1.75-7.574c0.373-3.218,4.235-2.869,6.28-1.104
	c1.677,1.443,2.579,5.271,3.188,7.068c0.854,2.517,2.068,4.773,3.519,6.98C702.562,466.012,706.786,471.336,703.797,476.591z"/>
<path fill="#4E66B0" d="M525.055,449.518v-0.072c0-0.134,0.02-0.257,0.06-0.377c2.514-7.655,2.631-13.729,0.392-20.308
	c-2.316-6.793-6.186-12.356-10.283-17.928c-2.424-3.297-4.98-6.571-7.452-9.738c-5.885-7.539-11.97-15.334-16.726-24.004
	c-7.588-13.832-9.571-26.565-6.241-40.072c3.625-14.702,12.395-26.503,24.061-32.376c7.788-3.898,16.32-4.709,22.119-4.709
	c2.019,0,4.056,0.099,6.055,0.293c4.705,0.456,9.297,1.096,13.759,3.871c2.083,1.296,3.704,3.021,5.317,4.825
	c1.923,2.146,3.667,3.164,6.02,3.514c0.571,0.085,1.17,0.128,1.78,0.128c8.503-0.001,18.494-8.256,21.353-10.786
	c5.8-5.132,12.872-13.317,15.323-20.9c0.834-0.43,1.626-0.83,2.414-1.24l0.064-0.033l0.033,0.064
	c0.149,0.291,0.175,0.548,0.086,0.86c-2.23,8.243-9.804,17.222-16.149,22.876c-3.898,3.474-13.958,11.552-23.146,11.552
	c0,0,0,0-0.001,0c-0.677,0-1.344-0.045-1.982-0.134c-3.15,0.254-6.528,0.501-9.96,0.501c-1.628,0-3.134-0.055-4.604-0.167
	c-2.075-0.16-4.174-0.411-6.203-0.653c-2.69-0.322-5.471-0.654-8.232-0.778c0.003,0.418,0.017,0.925,0.032,1.488
	c0.067,2.5,0.159,5.924-0.438,7.726c-0.679,2.054-2.223,3.185-4.348,3.185c-1.105,0-2.321-0.303-3.516-0.875
	c-6.667-3.187-10.198-11.886-11.122-14.476c-2.006-0.925-3.412-2.039-4.521-3.571c-11.011,5.976-19.396,18.104-22.339,32.463
	c-2.679,13.062-0.216,25.059,7.985,38.896c4.414,7.451,9.779,14.328,14.966,20.979c3.017,3.867,6.137,7.866,9.035,11.935
	c7.941,11.149,14.089,21.703,8.858,37.995l-0.016,0.05L525.055,449.518z M516.54,311.925c1.094,2.575,4.032,8.482,8.817,11.004
	c1.014,0.532,1.91,0.802,2.664,0.802c1.443,0,2.279-0.979,2.486-2.91c0.178-1.659,0.122-3.338,0.067-4.961
	c-0.026-0.769-0.052-1.537-0.054-2.307l-0.545,0.046C525.354,313.405,520.986,313.222,516.54,311.925z M511.226,306.164
	c0.923,1.123,2.05,1.922,3.748,2.66c4.505,1.971,11.416,2.247,16.97,2.469c1.413,0.057,2.735,0.109,3.902,0.186
	c2.118,0.141,4.251,0.416,6.314,0.684c1.401,0.182,2.802,0.362,4.209,0.505c1.699,0.171,3.477,0.254,5.438,0.254
	c1.475,0,3.043-0.047,4.918-0.145c-1.109-0.811-2.008-1.82-2.878-2.798c-0.44-0.495-0.88-0.989-1.348-1.461
	c-1.511-1.527-3.116-2.633-5.05-3.48c-4.035-1.771-8.182-2.273-12.062-2.551c-1.448-0.104-2.92-0.156-4.375-0.156
	C525.813,302.33,518.171,302.996,511.226,306.164z"/>
<path fill="#4E66B0" d="M603.039,279.702c-0.788,0.41-1.581,0.81-2.379,1.198c-2.477,7.661-9.608,15.858-15.344,20.932
	c-5.065,4.482-15.166,11.869-23.191,10.676c-2.633-0.392-4.354-1.63-6.062-3.537c-1.606-1.796-3.209-3.511-5.302-4.812
	c-4.349-2.705-8.849-3.388-13.728-3.861c-9.122-0.887-19.627,0.15-28.062,4.374c-0.017,0.01-0.033,0.018-0.051,0.025
	c-0.007,0.004-0.013,0.007-0.021,0.01c-12.681,6.384-20.771,19.135-24.023,32.329c-3.58,14.52-0.749,27.29,6.234,40.021
	c6.75,12.304,15.977,22.588,24.173,33.733c4.138,5.627,7.985,11.181,10.293,17.947c2.44,7.17,1.907,13.354-0.392,20.354
	c-0.039,0.115-0.057,0.229-0.057,0.354c0.77,0,1.538,0.001,2.309,0.002c5.017-15.626-0.229-25.828-8.849-37.931
	c-7.881-11.062-17.021-21.13-24.005-32.919c-7.198-12.146-10.953-24.514-7.993-38.947c2.657-12.965,10.258-25.942,22.468-32.49
	c1.213,1.675,2.7,2.724,4.531,3.589c1.852,5.193,5.609,11.818,11.085,14.436c2.976,1.425,6.562,1.368,7.765-2.268
	c0.738-2.229,0.412-7.075,0.401-9.267c4.871,0.212,9.663,1.062,14.513,1.435c4.894,0.375,9.711,0.056,14.569-0.333
	c8.875,1.229,19.413-6.359,25.071-11.4c6.115-5.449,13.854-14.434,16.128-22.842C603.204,280.214,603.179,279.975,603.039,279.702z
	 M530.579,320.828c-0.358,3.339-2.592,3.562-5.256,2.164c-4.152-2.188-7.232-7.177-8.909-11.18c4.689,1.394,9.39,1.537,14.178,1.74
	C530.6,315.979,530.841,318.392,530.579,320.828z M546.361,312.738c-3.512-0.354-6.989-0.954-10.521-1.188
	c-5.741-0.376-15.227-0.181-20.896-2.66c-1.506-0.655-2.776-1.439-3.834-2.753c7.369-3.386,16.389-4.288,24.279-3.724
	c4.185,0.3,8.157,0.832,12.086,2.557c1.947,0.854,3.578,1.986,5.072,3.496c1.453,1.465,2.643,3.154,4.385,4.37
	C553.402,313.027,549.896,313.094,546.361,312.738z"/>
<path fill="#4E66B0" d="M592.102,449.569c-1.628-12.727-7.962-22.476-14.087-31.904c-2.73-4.202-5.553-8.547-7.927-13.104
	c-7.462-4.533-13.486-14.134-14.296-22.799c-0.271-2.883-0.124-5.784,0.018-8.591c0.087-1.732,0.178-3.523,0.169-5.29l-0.01-1.498
	c-0.031-4.046-0.063-8.229,0.7-12.361c1.435-7.813,6.869-17.614,17.459-19.523c1.064-0.191,2.162-0.289,3.261-0.289
	c6.643,0,13.919,3.523,21.627,10.473c2.341,0.133,5.2,0.373,8.51,0.651c7.908,0.663,17.75,1.49,26.251,1.489
	c5.285,0,9.364-0.311,12.471-0.95l1.265,2.095l-0.062,0.036c-0.107,0.062-0.219,0.105-0.344,0.133
	c-3.358,0.729-7.747,1.083-13.417,1.083c0,0,0,0,0,0c-8.5,0-18.143-0.816-25.89-1.472c-2.917-0.246-5.671-0.479-7.931-0.63
	c-0.268,0.33-0.541,0.48-0.826,0.48c-0.262,0-0.535-0.135-0.833-0.412l-0.162-0.148l-0.118-0.044
	c-3.48-0.211-7.079-0.429-10.604-0.429c-4.125,0-7.6,0.289-10.937,0.909c-8.979,1.666-13.426,5.896-14.421,13.717
	c-1.567,12.34,3.867,29.831,9.948,41.69l0.131,0.061c0.573,0.317,0.741,0.706,0.58,1.341c2.299,4.281,4.981,8.443,7.575,12.469
	c6.225,9.659,12.661,19.647,14.222,32.604c0.006,0.048,0.009,0.096,0.009,0.145v0.072L592.102,449.569z M577.381,336.609
	c-1.394,0-2.769,0.18-4.087,0.532c-8.726,2.338-13.129,10.675-14.34,17.699c-0.672,3.898-0.632,7.857-0.592,11.686l0.003,0.341
	c0.021,1.994-0.072,4.017-0.162,5.973c-0.091,1.996-0.186,4.06-0.161,6.093c0.1,7.794,3.645,15.396,9.74,20.911
	c-4.198-9.199-10.445-27.764-7.919-40.624c1.433-7.291,6.136-11.785,14.379-13.738c3.741-0.886,7.743-1.299,12.594-1.299
	c2.68,0,5.322,0.119,8.235,0.265C588.707,339.246,582.756,336.609,577.381,336.609z"/>
<path fill="#4E66B0" d="M646.263,345.942c-11.821,2.434-35.821-0.479-47.295-1.207c-6.212-5.601-15.312-11.885-24.827-10.166
	c-9.725,1.753-15.756,10.506-17.401,19.465c-0.854,4.625-0.711,9.212-0.688,13.847c0.023,4.627-0.625,9.217-0.188,13.874
	c0.818,8.756,6.796,18.209,14.288,22.772c7.713,14.804,19.698,26.656,21.95,44.97c0.754,0,1.506,0.001,2.259,0.002
	c0-0.046-0.003-0.091-0.009-0.136c-2.207-18.319-13.939-30.334-21.795-45.099c0.154-0.606,0.004-0.956-0.545-1.261
	c-0.054-0.029-0.104-0.06-0.16-0.09c-5.605-10.934-11.603-28.758-9.955-41.732c1.102-8.659,6.52-12.302,14.479-13.778
	c7.285-1.354,14.403-0.915,21.661-0.476c0.073,0.068,0.146,0.14,0.222,0.205c0.583,0.541,1.048,0.524,1.591-0.059
	c0.011-0.009,0.019-0.021,0.024-0.029c11.7,0.781,35.16,3.637,47.218,1.021c0.115-0.025,0.221-0.065,0.323-0.125
	C647.031,347.275,646.646,346.608,646.263,345.942z M574.259,345.552c-7.423,1.759-12.764,5.734-14.325,13.682
	c-2.402,12.233,3.229,30.44,8.059,40.895c-6.033-5.339-9.917-13.012-10.021-21.194c-0.051-4.027,0.363-8.039,0.322-12.065
	c-0.041-4.032-0.104-8.021,0.59-12.04c1.344-7.794,6.098-15.534,14.393-17.756c8.211-2.2,16.361,2.807,22.01,7.458
	C588.206,344.175,581.314,343.881,574.259,345.552z"/>
</svg>
