<?xml version="1.0" encoding="utf-8"?>
<!-- Generator: Adobe Illustrator 16.0.4, SVG Export Plug-In . SVG Version: 6.00 Build 0)  -->
<!DOCTYPE svg PUBLIC "-//W3C//DTD SVG 1.1//EN" "http://www.w3.org/Graphics/SVG/1.1/DTD/svg11.dtd">
<svg version="1.1" id="Layer_1" xmlns="http://www.w3.org/2000/svg" xmlns:xlink="http://www.w3.org/1999/xlink" x="0px" y="0px"
	 width="5184px" height="576px" viewBox="0 0 5184 576" enable-background="new 0 0 5184 576" xml:space="preserve">
<path fill="#A8BF00" d="M507.698,277.698c30.7,17.758,68.545,17.776,99.264,0.05c16.484,28.641,32.968,57.282,49.452,85.923
	c-30.656,17.699-49.561,50.391-49.607,85.789c-0.024,0.045-0.052,0.09-0.078,0.134c-33.02-0.044-66.039-0.089-99.06-0.134
	c0.008-35.446-18.896-68.204-49.589-85.935c-0.012-0.009-0.025-0.016-0.037-0.021c-0.007-0.012-0.014-0.021-0.02-0.035
	C474.581,334.879,491.141,306.289,507.698,277.698z"/>
<path fill="#A8BF00" d="M683.785,329.363c30.701,17.758,68.546,17.775,99.264,0.05c16.484,28.642,32.969,57.282,49.453,85.923
	c-30.656,17.699-49.561,50.391-49.607,85.789c-0.025,0.045-0.053,0.09-0.078,0.135c-33.021-0.045-66.041-0.09-99.061-0.135
	c0.008-35.446-18.896-68.204-49.589-85.935c-0.013-0.009-0.024-0.016-0.038-0.021c-0.007-0.012-0.013-0.021-0.02-0.035
	C650.668,386.544,667.227,357.954,683.785,329.363z"/>
</svg>
