<?xml version="1.0" encoding="utf-8"?>
<!-- Generator: Adobe Illustrator 16.0.4, SVG Export Plug-In . SVG Version: 6.00 Build 0)  -->
<!DOCTYPE svg PUBLIC "-//W3C//DTD SVG 1.1//EN" "http://www.w3.org/Graphics/SVG/1.1/DTD/svg11.dtd">
<svg version="1.1" id="Layer_1" xmlns="http://www.w3.org/2000/svg" xmlns:xlink="http://www.w3.org/1999/xlink" x="0px" y="0px"
	 width="5184px" height="576px" viewBox="0 0 5184 576" enable-background="new 0 0 5184 576" xml:space="preserve">
<path d="M159.212,409.224c-0.689-0.396-1.139-0.275-1.537,0.412c-0.396,0.689-0.277,1.141,0.412,1.537
	c0.689,0.398,1.139,0.277,1.537-0.412C160.021,410.072,159.901,409.622,159.212,409.224z"/>
<path d="M155.987,450.522c-0.689-0.397-1.141-0.277-1.537,0.41c-0.398,0.689-0.277,1.141,0.412,1.537
	c0.688,0.398,1.139,0.277,1.537-0.412C156.797,451.37,156.676,450.92,155.987,450.522z"/>
<path d="M324.92,392.958c0.689-0.398,0.81-0.848,0.412-1.537c-0.398-0.688-0.848-0.81-1.537-0.412
	c-0.689,0.398-0.81,0.85-0.412,1.537C323.781,393.234,324.231,393.355,324.92,392.958z"/>
<path d="M285.581,379.649c0.688-0.398,0.81-0.85,0.412-1.537c-0.398-0.689-0.848-0.812-1.537-0.412
	c-0.689,0.396-0.81,0.848-0.412,1.537C284.442,379.926,284.892,380.046,285.581,379.649z"/>
</svg>
