<?xml version="1.0" encoding="utf-8"?>
<!-- Generator: Adobe Illustrator 16.0.4, SVG Export Plug-In . SVG Version: 6.00 Build 0)  -->
<!DOCTYPE svg PUBLIC "-//W3C//DTD SVG 1.1//EN" "http://www.w3.org/Graphics/SVG/1.1/DTD/svg11.dtd">
<svg version="1.1" xmlns="http://www.w3.org/2000/svg" xmlns:xlink="http://www.w3.org/1999/xlink" x="0px" y="0px"
	 width="298.667px" height="239.333px" viewBox="0 0 298.667 239.333" enable-background="new 0 0 298.667 239.333"
	 xml:space="preserve">
<g id="Model::Bottom_Half::Core::Sensor_FR1::Solid">
	<path fill="#FEFF94" d="M94.452,204.396c30.68-17.657,68.443-17.632,99.099,0.067l49.686-85.789
		c-30.711-17.74-49.617-50.524-49.589-85.99L94.53,32.549l-0.021,0.078c-0.008,35.446-18.925,68.196-49.626,85.913l49.414,85.855"/>
</g>
<g id="Model::Bottom_Half::Core::Sensor_FR1::Holes">
	<path fill="#00C0FF" d="M103.221,83.924c0.001-0.796-0.328-1.125-1.124-1.127c-0.795-0.001-1.125,0.328-1.126,1.124
		c-0.001,0.795,0.328,1.125,1.124,1.126C102.891,85.049,103.22,84.72,103.221,83.924z"/>
	<path fill="#00C0FF" d="M92.999,99.728c0.001-0.795-0.328-1.125-1.124-1.126s-1.125,0.328-1.126,1.124s0.328,1.125,1.124,1.126
		S92.998,100.523,92.999,99.728z"/>
</g>
<g id="Model::Bottom_Half::Core::Sensor_FR1::Engravings">
	<path fill="#0E9F00" d="M200.357,128.199c-3.989-10.746-9.292-20.818-14.248-31.089c-9.158-18.981-20.082-42.5-21.731-64.465
		l-2.253-0.003l0.003,0.084c1.588,21.459,11.76,44.087,20.684,62.718c4.782,9.982,9.906,19.787,14.085,30.068
		c3.266,8.035,8.954,22.941,1.086,31.455c-6.949,7.52-21.844,10.022-30.774,10.59c-5.642,0.359-11.13,0.32-16.725-0.836
		c-5.742-1.186-10.032-3.667-14.071-7.871c-5.154-5.364-6.028-6.871-11.972-11.46c-4.411-3.407-9.085-6.3-13.97-8.958
		c-9.784-5.322-19.962-9.509-30.375-13.354c4.108-1.787,5.697-4.949,7.518-8.546c5.477,3.115,6.836,3.48,11.591,7.754
		c3.469,3.118,6.737,6.432,10.577,9.152c3.623,2.567,8.843,5.367,12.474,0.806c2.644-3.322,3.234-9.592,3.434-13.367
		c0.562,3.052,1.191,6.033,2.431,8.919c1.175,2.736,3.121,5.606,6.615,5.703c2.593,6.818,6.857,13.434,13.577,17.154
		c6.776,3.751,14.586,3.704,21.542,0.698c6.785-2.932,12.523-8.607,15.092-15.646c2.928-8.024,0.958-14.402-1.816-21.707
		c-9.275-24.421-30.436-53.984-29.97-83.354l-2.25-0.02c-0.442,28.34,18.724,56.91,28.547,80.262c2.528,6.01,5.66,13.625,4.3,20.71
		c-1.373,7.156-6.354,13.181-12.58,16.603c-6.334,3.481-13.931,4.279-20.657,1.061c-6.706-3.208-10.935-9.568-13.494-16.074
		c4.761-1.358,4.476-6.235,4.565-9.875c0.097-3.971,0.118-7.937-0.019-11.908c-0.12-3.46-0.384-6.883-0.777-10.287
		c0.375,0.804,0.73,1.618,1.05,2.451c0.749,1.956,0.965,3.908,1.021,5.965c0.108,3.996,0.003,7.991,0.047,11.986
		c0.034,3.199,0.287,8.67,2.202,11.649c1.151,1.791,2.917,2.745,5.076,2.498c1.046-0.12,1.906-0.462,2.751-1.088
		c0.308-0.228,0.783-0.606,1.112-1.051c2.456-1.769,3.747-4.633,4.253-7.994c0.716-4.756,0.083-9.222-0.762-13.837
		c-1.681-9.189-4.506-17.985-7.343-26.832c-5.004-15.604-12.958-36.546-11.072-54.136c0.004-0.04,0.007-0.079,0.007-0.119
		l-2.256-0.003c-1.812,17.286,5.232,36.526,10.218,51.959c2.735,8.467,5.488,16.903,7.433,25.613
		c0.975,4.362,1.774,8.68,1.798,13.192c0.021,3.992-0.601,9.524-5.323,11.231c-0.012-0.482-0.071-0.963-0.125-1.395
		c-0.131-1.057-0.339-2.097-0.54-3.141c-0.387-2.009-0.76-4.015-0.981-6.053c-0.499-4.583-0.334-9.144-0.297-13.723
		c0.089-10.769-1.255-16.786-4.631-26.916c-2.909-8.729-6.498-17.095-10.617-25.311c-2.052-4.093-4.245-8.113-6.198-12.259
		c-1.995-4.235-3.757-8.176-3.428-13.145c0-0.024,0.001-0.048,0.002-0.072c-0.751-0.001-1.501-0.002-2.252-0.003
		c-0.501,8.088,5.903,18.675,9.111,24.994c4.075,8.026,7.687,16.188,10.635,24.706c1.47,4.248,2.8,8.516,3.775,12.913
		c0.982,4.429,1.354,8.838,1.359,13.359c0.005,4.486-0.181,8.966,0.11,13.457c0.156,2.408,0.505,4.776,0.948,7.144
		c0.123,0.658,1.214,5.262,0.762,6.13c-1.753-0.593-2.434-2.859-2.771-4.336c-0.911-3.998-0.72-7.943-0.68-11.95
		c0.021-2.155,0.048-9.783-0.502-11.954c-0.498-1.963-1.312-3.765-2.181-5.572c-0.129-0.268-1.127-2.36-1.378-2.58
		c-0.281-0.246-0.611-0.295-0.919-0.234c-0.447-2.958-0.998-5.905-1.653-8.854l-2.332-8.907
		c-2.655-8.736-6.317-16.648-11.561-24.163c-4.715-6.756-11.479-14.259-10.468-24.049l0.006-0.114l-2.256-0.003
		c-1.001,10.197,5.23,17.464,10.288,24.622c5.38,7.613,9.191,15.607,11.884,24.515c2.638,8.725,4.231,17.481,4.921,26.564
		c0.342,4.508,0.412,9.009,0.362,13.524c-0.025,2.257-0.016,4.509-0.229,6.763c-0.265,2.792-0.553,4.315-3.758,4.664l-0.048,0.005
		c-3.59,0.355-5.121-3.842-5.923-6.33c-0.973-3.014-1.518-6.086-2.013-9.195c-0.988-6.204-1.646-12.452-2.627-18.657
		c-1.417-8.962-4.309-26.498-15.753-30.54c-2.106-11.923-4.529-23.698-4.681-35.945l-2.25-0.003v0.016
		c0.176,14.417,2.388,22.949,4.831,36.985c0.729,4.193,1.43,8.353,1.479,12.642c0.055,4.834-0.68,9.748-6.592,7.621
		c-7.961-2.864-11.865-13.764-13.242-20.618c-0.093-0.463-0.301-0.698-0.75-0.847c-0.365,0.946-0.745,1.885-1.139,2.819
		c1.8,7.39,6.31,18.684,15.307,21.055c5.79,1.526,8.188-2.326,8.593-7.575c0.356-4.625-0.37-9.038-1.109-13.533
		c9.213,4.389,11.86,20.543,13.078,28.238c0.603,6.06,1.047,12.102,0.969,18.204c-0.039,3.051-0.192,6.064-0.738,9.082
		c-0.392,2.167-1.417,6.767-4.268,7.589c-4.547,1.312-12.796-6.995-15.145-9.165c-2.234-2.064-4.437-4.142-6.924-5.924
		c-2.489-1.782-5.21-3.125-7.848-4.632c1.248-2.487,2.706-4.75,4.579-6.826c1.856-2.058,3.94-3.697,4.523-6.771
		c0.542-2.859-0.822-6.758-3.931-7.65c-3.212-0.922-6.185,2.133-7.917,4.022c-4.252,4.639-7.629,9.861-11.242,14.947
		c-1.747,2.458-3.319,4.773-3.743,7.938c-0.464,3.46,1.584,5.708,5.037,5.778c10.761,3.862,21.299,8.06,31.459,13.381
		c5.073,2.657,9.943,5.55,14.55,8.978c5.864,4.363,7.475,6.401,12.447,11.668c4.177,4.424,8.579,7.286,14.589,8.709
		c5.619,1.331,11.144,1.458,16.843,1.196c9.72-0.448,24.123-2.844,32.194-9.823C207.919,151.493,203.926,137.813,200.357,128.199z
		 M73.399,119.236c0.657-2.14,1.8-3.91,3.067-5.694c3.024-4.257,5.954-8.573,9.262-12.629c1.249-1.531,3.704-4.447,5.686-5.303
		c2.973-1.283,4.603,2.236,4.098,4.889c-0.413,2.173-3.278,4.87-4.528,6.295c-1.751,1.997-3.1,4.18-4.287,6.537
		c-2.021,4.016-4.521,10.337-10.567,10.375h-0.009C73.099,123.717,72.601,121.836,73.399,119.236z"/>
</g>
</svg>
