<?xml version="1.0" encoding="utf-8"?>
<!-- Generator: Adobe Illustrator 16.0.4, SVG Export Plug-In . SVG Version: 6.00 Build 0)  -->
<!DOCTYPE svg PUBLIC "-//W3C//DTD SVG 1.1//EN" "http://www.w3.org/Graphics/SVG/1.1/DTD/svg11.dtd">
<svg version="1.1" id="Layer_1" xmlns="http://www.w3.org/2000/svg" xmlns:xlink="http://www.w3.org/1999/xlink" x="0px" y="0px"
	 width="5184px" height="576px" viewBox="0 0 5184 576" enable-background="new 0 0 5184 576" xml:space="preserve">
<path fill="#4E66B0" d="M135.324,85.242c-24.059,0-45-16.462-58.332-30.273l0.982-1.8l0.194-0.334l0.062,0.037
	c0.1,0.058,0.186,0.125,0.263,0.206c11.858,12.335,23.999,20.962,36.083,25.642c-0.008-0.017,0.038-0.03,0.084-0.041
	c2.665-0.622,5.264-1.256,7.771-2.172c2.087-0.765,3.375-1.508,3.448-1.989c0.07-0.465-1.48-1.57-2.951-2.399
	c-3.042-1.72-6.266-3.178-9.382-4.588c-1.707-0.772-3.471-1.57-5.186-2.402c-11.232-5.45-19.89-10.936-27.247-17.264l0.553-1.073
	l0.604-1.043l0.062,0.034c0.076,0.042,0.136,0.089,0.184,0.13c7.523,6.502,16.176,11.937,28.055,17.623
	c0.667,0.319,1.653,0.775,2.812,1.312c3.965,1.835,9.957,4.609,12.106,6.024c1.28,0.843,2.802,2.175,2.779,3.738
	c-0.015,1.019-0.698,1.952-2.03,2.773c-2.259,1.395-4.639,2.012-7.157,2.666l-0.411,0.107c5.694,1.789,11.332,2.696,16.763,2.696
	c9.642,0,18.457-2.815,26.199-8.366c6.069-4.351,11.257-9.735,16.274-14.943c5.257-5.456,10.693-11.098,17.158-15.57l0.064-0.044
	l0.118,0.017l1.125,1.953c-6.554,4.628-12.042,10.314-17.35,15.812c-2.751,2.85-5.596,5.797-8.553,8.549
	c-10.448,9.729-19.573,14.033-31.493,14.858C137.768,85.199,136.54,85.242,135.324,85.242
	C135.325,85.242,135.325,85.242,135.324,85.242z"/>
<path fill="#4E66B0" d="M195.184,43.98c-0.027,0.016-0.053,0.032-0.079,0.05c-12.631,8.738-20.999,21.601-33.431,30.513
	c-13.1,9.392-28.468,10.317-43.264,5.605c2.695-0.706,5.342-1.316,7.79-2.827c3.326-2.051,2.09-4.52-0.751-6.39
	c-2.771-1.824-11.962-5.92-14.909-7.331c-10.097-4.833-19.519-10.243-28.07-17.633c-0.054-0.046-0.107-0.087-0.172-0.122
	c-0.379,0.655-0.758,1.309-1.137,1.964c8.318,7.155,17.44,12.503,27.231,17.254c4.847,2.352,9.861,4.328,14.572,6.992
	c0.366,0.207,3.093,1.772,2.987,2.473c-0.124,0.813-2.997,1.863-3.494,2.045c-2.544,0.93-5.152,1.562-7.78,2.175
	c-0.043,0.01-0.085,0.022-0.126,0.038c-13.883-5.376-26.043-15.188-36.11-25.659c-0.074-0.077-0.155-0.14-0.247-0.194
	c-0.384,0.662-0.77,1.324-1.15,1.986c15.355,15.906,37.292,31.831,61.927,30.125c13.089-0.906,22.184-6.212,31.449-14.839
	c8.659-8.059,15.963-17.384,25.889-24.272C195.933,45.283,195.559,44.632,195.184,43.98z"/>
<path fill="#4E66B0" d="M152.973,121.318c-2.154,0-4.667-0.67-7.681-2.048c-2.653-1.213-17.346-9.396-20.294-11.058
	c-7.074-3.983-13.473-8.006-19.562-12.297c-12.821-9.037-24.042-19.123-34.303-30.835l0.894-1.64l0.293-0.507l0.062,0.036
	c0.115,0.065,0.214,0.147,0.303,0.249c10.092,11.562,21.119,21.521,33.711,30.446c6.028,4.271,12.321,8.249,19.238,12.16
	c2.003,1.133,17.658,9.85,19.964,10.949c3.012,1.435,5.414,2.133,7.342,2.133c4.373,0,6.472-3.368,9.267-10.443
	c2.299-5.823,5.417-13.457,9.146-20.858c5.818-11.551,14.432-25.827,29.516-33.75l0.598,0.9l0.66,1.148l-0.072,0.032
	c-14.986,7.857-23.615,22.593-29.462,34.555c-2.44,4.989-4.577,10.2-6.643,15.239c-0.819,1.997-1.638,3.994-2.477,5.983
	C160.633,118.444,157.493,121.318,152.973,121.318C152.973,121.318,152.974,121.318,152.973,121.318z"/>
<path fill="#4E66B0" d="M200.902,53.916c-14.062,7.387-22.77,20.386-29.485,33.719c-3.425,6.797-6.352,13.783-9.143,20.852
	c-3.728,9.438-6.433,13.245-16.707,8.349c-2.271-1.082-17.786-9.716-19.969-10.951c-6.622-3.744-13.035-7.764-19.244-12.164
	C93.825,84.842,82.73,74.836,72.63,63.264c-0.083-0.095-0.175-0.171-0.284-0.234c-0.386,0.667-0.771,1.334-1.159,2.001
	c10.271,11.724,21.553,21.847,34.29,30.824c6.311,4.448,12.831,8.507,19.556,12.294c2.562,1.444,17.6,9.825,20.289,11.055
	c9.451,4.321,14.166,1.769,18.085-7.522c2.993-7.096,5.729-14.291,9.121-21.226c6.582-13.466,15.217-27.102,29.458-34.568
	c0.013-0.007,0.023-0.014,0.039-0.021C201.651,55.216,201.276,54.566,200.902,53.916z"/>
<path fill="#4E66B0" d="M157.782,130.869c-0.16,0-0.338-0.04-0.545-0.123c-0.194-0.078-0.346-0.189-0.479-0.35
	c-4.13-0.079-8.076-1.103-13.141-3.397c-2.918-1.322-5.719-2.942-8.428-4.508c-1.193-0.69-2.385-1.379-3.591-2.047
	c-7.201-3.987-14.921-7-22.387-9.913l-2.672-1.045c-9.575-3.755-15.947-6.534-23.684-13.439
	c-7.645-6.818-13.381-14.787-17.524-20.968l1.226-2.197l0.062,0.036c0.165,0.095,0.291,0.213,0.397,0.373
	c5.258,7.895,9.838,13.616,14.85,18.549l3.835,0.965l4.245,1.08c9.522,2.654,26.855,11.589,35.596,16.451
	c0.746,0.415,1.489,0.833,2.232,1.25c2.072,1.166,4.214,2.371,6.37,3.467l1.571,0.792c2.357,1.184,4.795,2.407,7.076,3.852
	c3.632,2.301,4.898,2.792,9.029,3.509l0.883,0.147c1.074,0.175,2.184,0.357,3.258,0.674c2.37,0.702,3.438,1.939,3.356,3.89
	c6.304-0.812,10.142-6.931,12.948-11.403l0.471-0.75c4.146-6.565,6.259-9.514,12.062-14.476c5.908-5.05,23.506-18.71,29.89-23.2
	c0.029-0.021,0.154-0.094,0.154-0.094l1.161,2.015c-5.763,4.139-25.002,18.976-30.62,23.943c-5.237,4.629-7.089,7.544-10.157,12.373
	c-0.545,0.858-1.13,1.779-1.781,2.784c-3.673,5.673-7.574,10.804-14.863,11.283C158.366,130.712,158.104,130.869,157.782,130.869z
	 M85.578,95.242c8.01,6.805,17.356,10.392,26.398,13.862c2.875,1.104,5.849,2.245,8.751,3.476
	c6.553,2.784,12.622,6.119,17.695,9.014c5.13,2.928,11.875,6.305,18.545,6.437c0.161-1.383-1.34-1.686-2.436-1.908l-0.241-0.049
	c-0.801-0.169-1.608-0.306-2.415-0.443c-1.015-0.172-2.064-0.35-3.085-0.594c-2.979-0.712-5.391-2.186-7.944-3.746l-0.553-0.337
	c-1.739-1.059-3.589-1.97-5.378-2.852c-1.005-0.496-2.01-0.991-3.002-1.514c-1.87-0.985-3.742-2.037-5.552-3.055
	c-0.907-0.509-1.814-1.019-2.724-1.522c-8.469-4.688-25.218-13.292-34.278-15.809L85.578,95.242z"/>
<path fill="#4E66B0" d="M214.815,78.089c-0.03,0.017-0.058,0.035-0.086,0.055c-6.399,4.501-23.937,18.112-29.884,23.196
	c-5.876,5.024-7.965,7.993-12.048,14.46c-2.927,4.635-6.812,11.381-13.556,12.196c0.135-2.288-1.361-3.329-3.3-3.903
	c-1.358-0.401-2.748-0.58-4.133-0.819c-4.18-0.725-5.477-1.253-9.055-3.519c-2.776-1.758-5.725-3.159-8.642-4.641
	c-2.918-1.483-5.745-3.129-8.604-4.718c-8.57-4.766-25.943-13.758-35.578-16.444c-2.704-0.688-5.409-1.375-8.113-2.063
	c-5.727-5.637-10.433-11.914-14.86-18.56c-0.099-0.149-0.217-0.26-0.373-0.35c-0.397,0.687-0.794,1.372-1.192,2.059
	c5.125,7.645,10.574,14.766,17.513,20.954c7.73,6.899,14.237,9.729,23.663,13.426c8.502,3.336,17.019,6.506,25.067,10.962
	c3.991,2.21,7.836,4.66,12.014,6.553c4.25,1.926,8.4,3.298,13.167,3.417c0.125,0.152,0.267,0.256,0.45,0.329
	c0.575,0.23,0.938,0.13,1.312-0.362c7.401-0.486,11.36-5.926,14.808-11.25c4.37-6.748,5.789-9.725,11.951-15.172
	c5.467-4.834,24.647-19.657,30.605-23.853C215.564,79.392,215.19,78.74,214.815,78.089z M156.966,128.103
	c-6.599-0.13-13.17-3.359-18.579-6.446c-5.76-3.287-11.57-6.411-17.688-9.01c-12.166-5.164-24.805-8.434-35.402-17.551
	c1.36,0.346,2.72,0.691,4.081,1.038c9.146,2.541,26.154,11.31,34.294,15.815c2.758,1.526,5.485,3.106,8.275,4.577
	c2.788,1.469,5.681,2.722,8.384,4.367c2.704,1.646,5.29,3.313,8.476,4.075c1.818,0.434,3.673,0.649,5.499,1.036
	C155.396,126.234,157.229,126.477,156.966,128.103z"/>
<path fill="#4E66B0" d="M132.495,172.951c-8.226,0-16.246-2.975-25.239-9.363c-8.745-6.21-16.322-13.789-23.649-21.118
	c-2.16-2.161-4.394-4.395-6.626-6.563c-9.247-8.979-19.349-18.324-32.179-25.25l-0.065-0.035l0.008-0.081l1.164-2.008l0.062,0.033
	c13.003,7.026,23.493,16.721,32.304,25.258c2.338,2.265,4.672,4.603,6.931,6.863c7.236,7.244,14.719,14.735,23.344,20.88
	c8.613,6.135,16.225,8.992,23.956,8.992c4.721,0,9.49-1.046,14.579-3.199c6.5-2.75,11.898-6.739,17.313-10.928
	c4.632-3.585,10.976-8.496,18.165-9.064c0.28-4.681,1.644-8.819,4.226-12.956c1.029-1.649,2.226-3.209,3.383-4.718
	c1.592-2.075,3.239-4.221,4.472-6.63c-1.638-0.895-3.301-1.89-4.961-2.889l-0.391-0.234c-0.486-0.291-1.04-0.445-1.602-0.445
	c-1.215,0-2.296,0.68-2.82,1.775c-6.97,14.553-16.092,24.298-27.886,29.794c-6.456,3.008-13.377,4.533-20.57,4.533
	c-6.63,0-13.347-1.292-19.962-3.839c-13.798-5.314-24.434-14.128-34.719-22.652c-1.703-1.411-3.394-2.831-5.084-4.249
	c-8.747-7.342-17.792-14.935-28.039-20.834l-0.062-0.036l1.198-2.073l0.062,0.036c10.356,5.963,19.502,13.633,28.348,21.05
	c1.405,1.179,2.812,2.358,4.225,3.533c10.658,8.859,20.726,17.227,33.834,22.556c6.719,2.731,13.521,4.116,20.215,4.116
	c6.779,0,13.311-1.431,19.414-4.252c6.188-2.86,11.332-6.727,16.188-12.168c4.446-4.98,7.598-10.448,10.961-17.125
	c0.353-0.699,0.649-1.229,0.961-1.717c0.065-0.101,0.13-0.2,0.198-0.298c0.725-1.053,1.4-1.754,2.344-1.754
	c0.446,0,0.927,0.157,1.471,0.479l7.671,4.576l0.35-0.793c1.094-2.497,2.129-4.858,4.672-6.555
	c-3.048-0.682-6.572-1.365-9.769-1.365c-1.524,0-2.836,0.163-3.9,0.483c-4.046,1.22-6.555,5.939-8.387,9.386l-0.494,0.923
	c-6.101,11.249-11.435,19.212-24.584,19.212c-0.966,0-1.982-0.043-3.02-0.129c-11.748-0.973-24.895-7.192-33.856-12.237
	c-9.688-5.454-19.373-12.259-29.609-20.807c-2.132-1.78-4.242-3.583-6.351-5.385c-6.936-5.925-14.108-12.052-21.926-17.206
	l0.742-1.417l0.401-0.691l0.102,0.062c7.94,5.228,15.2,11.428,22.22,17.424c1.795,1.533,3.591,3.067,5.399,4.587
	c10.194,8.562,19.308,15.072,28.684,20.487c8.603,4.969,21.262,11.192,32.718,12.624c1.646,0.206,3.212,0.31,4.653,0.31
	c11.967,0,16.278-6.83,22.32-17.973l0.541-1.008c2.418-4.524,5.159-9.653,11.062-10.769c0.935-0.177,2.012-0.267,3.203-0.267
	c4.84,0,10.842,1.498,13.727,2.217c0.855-0.174,1.818-0.262,2.831-0.262c6.298,0,14.974,3.336,25.788,9.915
	c0.155,0.094,0.273,0.208,0.374,0.358l0.04,0.061l-0.061,0.04c-0.66,0.434-1.313,0.875-1.961,1.324
	c-7.044-4.245-16.877-9.307-24.158-9.307c-0.947,0-1.835,0.088-2.64,0.264c-4.211,0.917-5.4,3.772-6.66,6.794
	c-0.265,0.636-0.534,1.282-0.835,1.923c-1.328,2.826-3.192,5.288-4.996,7.669c-0.921,1.216-1.873,2.473-2.741,3.762
	c-2.806,4.165-4.23,8.093-4.614,12.727l23.432-1.346l-1.7,2.372l-23.545,1.38c-0.619,0.035-1.255,0.109-1.892,0.22
	c-5.951,1.043-11.61,5.458-16.157,9.005c-0.488,0.38-0.964,0.752-1.428,1.109c-4.384,3.379-10.355,7.607-17.675,10.322
	C141.289,172.113,136.892,172.951,132.495,172.951z"/>
<path fill="#4E66B0" d="M59.987,84.499c-0.021-0.012-0.036-0.023-0.058-0.034c-0.376,0.649-0.752,1.299-1.128,1.948
	c10.158,6.697,19.019,14.858,28.283,22.596c9.32,7.782,18.986,14.825,29.598,20.799c9.577,5.392,22.438,11.285,33.827,12.228
	c15.604,1.29,21.129-7.232,27.535-19.045c1.804-3.329,4.458-8.997,8.923-10.343c3.97-1.196,10.186,0.09,13.871,0.918
	c-2.927,1.883-3.891,4.625-5.171,7.485c-2.43-1.445-4.854-2.901-7.285-4.347c-0.152-0.091-0.304-0.181-0.456-0.271
	c-1.771-1.049-2.711-0.212-3.72,1.254c-0.067,0.097-0.132,0.196-0.196,0.296c-0.353,0.553-0.662,1.126-0.957,1.711
	c-3.084,6.122-6.34,11.952-10.972,17.14c-4.675,5.238-9.805,9.224-16.212,12.186c-12.885,5.956-26.863,5.349-39.686,0.137
	c-13.069-5.312-23.308-13.802-33.853-22.567c-10.48-8.712-20.598-17.687-32.563-24.576c-0.188,0.324-0.376,0.648-0.564,0.974
	c-0.187,0.325-0.374,0.649-0.562,0.975c12.195,7.021,22.445,16.234,33.133,25.09c10.771,8.926,21.249,17.46,34.699,22.64
	c13.152,5.065,27.425,5.389,40.476-0.692c13.25-6.174,21.808-17.141,27.852-29.76c0.813-1.698,2.91-2.328,4.524-1.36
	c0.13,0.078,0.26,0.156,0.391,0.234c1.66,0.999,3.323,1.994,4.988,2.983c-2.134,4.168-5.416,7.439-7.858,11.353
	c-2.55,4.086-3.93,8.175-4.281,12.99c-6.986,0.552-13.084,5.146-18.127,9.049c-5.452,4.218-10.874,8.206-17.33,10.938
	c-14.655,6.198-26.33,2.942-38.604-5.801c-11.318-8.063-20.442-18.215-30.283-27.75c-9.922-9.613-19.931-18.57-32.288-25.246
	c-0.376,0.649-0.752,1.298-1.128,1.947c0.01,0.006,0.021,0.011,0.029,0.017c12.349,6.666,22.3,15.653,32.195,25.261
	c9.814,9.532,18.953,19.639,30.267,27.674c12.027,8.542,23.953,12.231,38.613,6.792c6.58-2.441,12.17-6.083,17.656-10.312
	c4.84-3.731,11.015-8.971,17.616-10.128c0.63-0.11,1.265-0.185,1.9-0.221c7.831-0.45,15.661-0.9,23.491-1.35
	c0.537-0.75,1.075-1.5,1.612-2.249c-4.522,0.26-9.045,0.52-13.567,0.779c-3.021,0.174-6.042,0.347-9.062,0.521
	c-0.245,0.014-0.49,0.028-0.734,0.042c0.388-4.852,1.938-8.844,4.633-12.844c2.568-3.814,5.729-7.161,7.731-11.422
	c1.757-3.739,2.42-7.64,7.545-8.756c8.001-1.742,20.978,5.522,26.772,9.054c0.649-0.449,1.303-0.891,1.963-1.325
	c-0.095-0.142-0.207-0.249-0.352-0.337c-6.521-3.968-19.697-11.383-28.599-9.645c-4.556-1.137-11.96-2.885-16.898-1.95
	c-6.323,1.195-9.062,7.143-11.553,11.74c-6.547,12.074-11.262,19.672-27.045,17.7c-11.04-1.379-23.423-7.248-32.745-12.632
	c-10.272-5.934-19.639-12.89-28.694-20.495C78.571,98.921,69.892,91.021,59.987,84.499z"/>
<path fill="#4E66B0" d="M258.403,173.04c-0.967,0-2.039-0.129-3.583-0.431c-3.372-0.659-6.333-1.591-9.051-2.85
	c-5.973-0.089-11.629-1.588-18.375-4.885c-0.459-0.226-0.655-0.507-0.67-0.981c-0.659,0.415-1.321,0.826-1.988,1.231
	c-1.547,0.94-3.07,1.823-4.525,2.625l-0.062,0.034l-1.194-2.073l0.065-0.035c8.622-4.745,16.151-10.266,25.1-16.992
	c0.643-0.483,1.349-1.02,2.107-1.596c6.56-4.984,16.474-12.517,23.394-14.613c0.33-0.1,0.691-0.192,1.068-0.289
	c1.928-0.493,4.327-1.105,4.92-3.472c0.566-2.261,0.176-4.286-0.237-6.43c-0.068-0.355-0.137-0.711-0.202-1.071
	c-0.349-1.937-0.727-3.867-1.105-5.797c-0.583-2.979-1.188-6.059-1.667-9.111c-1.565-9.989-2.169-19.879-1.847-30.238l0.002-0.07
	l2.392,0.002v0.072c-0.11,3.484-0.113,6.959-0.008,10.366c0.103,3.407,0.32,6.847,0.647,10.226c0.165,1.703,0.361,3.428,0.583,5.128
	c0.132,1.008,0.273,2.015,0.424,3.022c0.13,0.863,0.266,1.727,0.408,2.59c0.143,0.86,0.291,1.723,0.446,2.582
	c0.155,0.858,0.315,1.718,0.479,2.577c0.227,1.185,0.462,2.37,0.697,3.554l0.496,2.515c0.18,0.922,0.355,1.838,0.514,2.764
	c0.083,0.485,0.163,0.972,0.234,1.46c0.071,0.479,0.135,0.958,0.189,1.438c0.052,0.457,0.094,0.911,0.121,1.369
	c0.016,0.265,0.027,0.53,0.031,0.796c0.011,0.598-0.011,1.139-0.067,1.654c-0.07,0.626-0.187,1.183-0.36,1.703
	c-0.103,0.31-0.225,0.603-0.362,0.872c-0.144,0.285-0.314,0.56-0.505,0.818c-0.184,0.246-0.391,0.481-0.616,0.7
	c-0.214,0.206-0.451,0.401-0.705,0.582c-0.244,0.174-0.501,0.33-0.771,0.473c-0.254,0.136-0.519,0.258-0.79,0.367
	c-0.316,0.129-0.633,0.238-0.963,0.343c-0.322,0.101-0.638,0.194-0.964,0.287l-0.127,0.036c0.03,4.589-1.081,8.521-3.611,12.695
	c-0.992,1.638-2.153,3.189-3.275,4.689c-1.486,1.986-3.023,4.04-4.188,6.321c0.575,0.315,1.156,0.615,1.74,0.916l0.532,0.271
	c2.142,1.083,6.128,3.099,6.775,5.515c0.84,3.139-3.528,5.43-5.627,6.531l-0.294,0.155
	C261.776,172.575,260.198,173.04,258.403,173.04z M250.917,169.18c2.219,0.695,4.273,1.155,6.272,1.405
	c0.354,0.044,0.695,0.065,1.026,0.065c1.882,0,3.418-0.654,5.288-1.709c0.853-0.482,1.853-1.074,2.803-1.815l0.131-0.102
	c0.589-0.458,1.146-0.889,1.194-1.43c0.028-0.316-0.121-0.649-0.455-1.019c-1.274-1.41-2.811-2.155-4.438-2.945
	c-0.398-0.193-0.798-0.387-1.195-0.592c-0.555-0.287-1.111-0.574-1.659-0.872C257.886,164.624,256.045,167.891,250.917,169.18z
	 M228.5,162.755c6.205,3.016,11.374,4.419,16.803,4.576c0.427,0.012,0.845,0.021,1.257,0.021c2.638,0,4.861-0.339,7.135-1.993
	c2.091-1.521,2.923-3.528,3.803-5.653c0.239-0.577,0.48-1.158,0.749-1.733c1.279-2.735,3.056-5.145,4.773-7.474
	c0.818-1.11,1.664-2.257,2.445-3.424c2.734-4.088,4.001-7.816,4.1-12.073l-0.179,0.061c-0.654,0.226-1.308,0.487-1.998,0.798
	c-0.789,0.354-1.599,0.759-2.476,1.237c-0.756,0.411-1.532,0.861-2.373,1.374c-0.788,0.479-1.564,0.976-2.332,1.48
	c-0.784,0.515-1.558,1.041-2.327,1.573c-0.942,0.652-1.877,1.317-2.804,1.986c-1.541,1.112-3.065,2.242-4.584,3.376
	c-1.215,0.907-2.425,1.818-3.636,2.729l-1.727,1.298c-2.108,1.583-4.614,3.457-7.22,5.346c-3.023,2.191-5.732,4.074-8.281,5.757
	C229.629,162.016,228.741,162.601,228.5,162.755z"/>
<path fill="#4E66B0" d="M220.177,167.686c1.531-0.843,3.038-1.721,4.522-2.623c0.704-0.428,1.403-0.862,2.098-1.301
	c-0.018,0.527,0.156,0.815,0.63,1.048c5.886,2.877,11.614,4.78,18.312,4.852c0.021,0.011,0.042,0.021,0.062,0.032
	c2.912,1.348,5.896,2.231,9.034,2.844c3.813,0.745,5.669,0.629,9.161-1.219c1.955-1.035,6.752-3.369,5.886-6.604
	c-0.699-2.609-5.438-4.793-7.271-5.74c-0.604-0.312-1.207-0.623-1.802-0.95c2.048-4.039,5.181-7.254,7.498-11.077
	c2.443-4.031,3.631-7.962,3.591-12.71c0.063-0.018,0.126-0.035,0.189-0.053c0.325-0.092,0.641-0.185,0.962-0.286
	c0.328-0.104,0.643-0.212,0.958-0.341c0.269-0.108,0.531-0.229,0.783-0.363c0.267-0.142,0.521-0.296,0.763-0.468
	c0.248-0.176,0.481-0.368,0.696-0.575c0.223-0.216,0.427-0.448,0.608-0.691c0.19-0.257,0.357-0.528,0.499-0.808
	c0.142-0.279,0.26-0.569,0.358-0.862c0.184-0.554,0.293-1.115,0.356-1.688c0.061-0.549,0.078-1.094,0.067-1.645
	c-0.004-0.265-0.015-0.529-0.031-0.793c-0.027-0.457-0.069-0.91-0.121-1.365c-0.054-0.48-0.118-0.958-0.189-1.437
	c-0.072-0.487-0.151-0.973-0.234-1.458c-0.159-0.925-0.334-1.84-0.514-2.762c-0.395-2.023-0.805-4.045-1.193-6.069
	c-0.164-0.859-0.324-1.719-0.479-2.578c-0.155-0.86-0.304-1.722-0.446-2.583c-0.143-0.863-0.279-1.727-0.409-2.591
	c-0.151-1.007-0.292-2.015-0.424-3.023c-0.223-1.708-0.417-3.418-0.583-5.131c-0.33-3.404-0.545-6.816-0.647-10.23
	c-0.106-3.444-0.103-6.891,0.008-10.334c0-0.012,0-0.022,0-0.034c-0.75-0.001-1.5-0.001-2.25-0.002
	c-0.316,10.174,0.27,20.163,1.847,30.224c0.784,4.997,1.876,9.933,2.771,14.907c0.451,2.511,1.103,4.875,0.438,7.532
	c-0.719,2.868-3.985,3.19-6.037,3.812c-7.729,2.341-19.422,11.645-25.479,16.197c-8.093,6.083-16.166,12.077-25.088,16.987
	c-0.007,0.004-0.015,0.008-0.021,0.011C219.428,166.386,219.803,167.035,220.177,167.686z M261.577,160.973
	c1.991,1.028,4.05,1.78,5.653,3.553c1.099,1.215,0.083,1.905-0.879,2.656c-0.888,0.692-1.837,1.27-2.812,1.821
	c-2.033,1.148-3.889,1.961-6.358,1.653c-2.237-0.279-4.389-0.801-6.531-1.485c5.351-1.252,7.208-4.652,9.201-9.106
	C260.421,160.376,260.999,160.675,261.577,160.973z M229.172,162.231c0.14-0.092,0.279-0.184,0.418-0.275
	c2.812-1.857,5.565-3.789,8.278-5.755c2.427-1.759,4.828-3.549,7.219-5.345c1.788-1.343,3.571-2.689,5.363-4.027
	c1.519-1.135,3.044-2.265,4.585-3.377c0.927-0.67,1.862-1.335,2.805-1.987c0.769-0.533,1.544-1.059,2.328-1.574
	c0.768-0.505,1.546-1.002,2.334-1.482c0.778-0.475,1.571-0.938,2.376-1.376c0.807-0.439,1.636-0.859,2.481-1.239
	c0.653-0.294,1.32-0.564,2.004-0.801c0.092-0.031,0.184-0.062,0.277-0.093c-0.088,4.686-1.562,8.398-4.114,12.214
	c-2.421,3.619-5.329,6.859-7.213,10.889c-1.246,2.666-1.889,5.46-4.575,7.414c-2.688,1.955-5.356,2.075-8.437,1.986
	c-6.158-0.178-11.464-1.962-16.891-4.614c-0.019-0.009-0.038-0.018-0.057-0.026C228.631,162.586,228.902,162.409,229.172,162.231z"
	/>
<path fill="#4E66B0" d="M240.896,203.787l0.062-0.036c0.111-0.063,0.225-0.107,0.351-0.134c2.626-0.555,5.444-1.049,8.868-1.554
	c1.583-0.233,3.17-0.451,4.756-0.663l6.223-0.822c1.853-0.248,3.706-0.506,5.552-0.787c1.348-0.206,2.692-0.423,4.032-0.66
	c1.995-0.355,3.784-0.714,5.469-1.099c1.927-0.439,3.692-0.905,5.398-1.423c1.551-0.471,3.052-0.989,4.461-1.539
	c0.061-0.029,0.125-0.054,0.192-0.075l0.582-0.233c1.757-0.718,3.429-1.515,4.97-2.368c1.56-0.864,3.047-1.818,4.421-2.836
	c1.364-1.013,2.686-2.141,3.928-3.353c1.234-1.202,2.401-2.497,3.468-3.85c1.071-1.357,2.056-2.787,2.926-4.25
	c0.896-1.504,1.683-3.065,2.34-4.639c0.677-1.626,1.223-3.281,1.622-4.917c0.101-0.412,0.193-0.825,0.275-1.24
	c0.082-0.411,0.157-0.824,0.221-1.239c0.121-0.77,0.221-1.593,0.295-2.447c0.047-0.534,0.083-1.069,0.111-1.606
	c0.053-1.042,0.079-2.151,0.079-3.389c0-1.458-0.035-2.937-0.069-4.401l-0.049-2.257c-0.042-2.083-0.086-4.238-0.197-6.334
	c-0.068-1.306-0.157-2.488-0.272-3.613c-0.127-1.254-0.293-2.463-0.494-3.592c-0.22-1.235-0.49-2.414-0.802-3.502
	c-0.188-0.661-0.406-1.337-0.649-2.011c-0.271-0.752-0.586-1.534-0.937-2.323c-0.612-1.387-1.362-2.875-2.292-4.549
	c-0.808-1.455-1.647-2.868-2.582-4.432l-0.142-0.239c-0.874-1.463-1.738-2.909-2.572-4.392c-0.993-1.765-1.763-3.26-2.424-4.705
	c-0.385-0.839-0.733-1.665-1.034-2.452c-0.214-0.559-0.415-1.125-0.601-1.692c-0.225-0.686-0.428-1.377-0.612-2.072
	c-0.359-1.346-0.661-2.781-0.897-4.265c-0.226-1.413-0.394-2.884-0.5-4.371c-0.102-1.396-0.156-2.871-0.161-4.382
	c-0.007-1.37,0.027-2.776,0.104-4.297c0.036-0.7,0.081-1.399,0.132-2.098c0.031-0.412,0.064-0.824,0.099-1.237
	c0.056-0.643,0.119-1.283,0.186-1.923c0.285-2.649,0.665-5.075,1.161-7.416l1.206-0.056l1.211,0v0.072
	c0,0.085-0.009,0.17-0.027,0.252c-0.502,2.327-0.885,4.748-1.169,7.401c-0.067,0.625-0.127,1.249-0.181,1.875
	c-0.034,0.401-0.067,0.805-0.096,1.208c-0.05,0.682-0.094,1.362-0.129,2.045c-0.073,1.437-0.108,2.839-0.104,4.167
	c0.004,1.454,0.056,2.872,0.155,4.216c0.105,1.438,0.266,2.841,0.478,4.168c0.222,1.394,0.507,2.749,0.846,4.027
	c0.173,0.651,0.363,1.299,0.574,1.942c0.173,0.53,0.361,1.058,0.561,1.581c0.285,0.744,0.604,1.5,0.974,2.311
	c0.629,1.374,1.393,2.854,2.334,4.528c0.806,1.431,1.656,2.854,2.501,4.27l0.183,0.306c0.823,1.379,1.755,2.943,2.618,4.497
	c0.964,1.736,1.746,3.287,2.389,4.742c0.388,0.879,0.714,1.69,0.999,2.478c0.255,0.706,0.491,1.436,0.701,2.167l0.154,0.558
	c3.116,2.167,3.965,5.822,4.415,9.443c0.357,2.879,0.407,5.807,0.454,8.638c0.012,0.703,0.023,1.405,0.04,2.109l0.042,1.744
	c0.157,6.456,0.319,13.131-0.634,19.735c-0.986,6.829-2.878,15.158-8.804,18.979c-2.95,1.901-7.631,2.992-12.843,2.992
	c-3.002,0-5.886-0.376-8.122-1.058c-1.325,0.527-2.793,1.03-4.316,1.492c-1.757,0.535-3.576,1.014-5.561,1.466
	c-1.748,0.399-3.574,0.765-5.584,1.121c-1.358,0.241-2.722,0.462-4.088,0.67c-1.862,0.284-3.726,0.543-5.594,0.794l-6.225,0.822
	c-1.576,0.21-3.152,0.427-4.723,0.659c-3.227,0.476-5.885,0.938-8.364,1.451l-0.051,0.011L240.896,203.787z M290.481,195.769
	c1.411,0.19,2.946,0.291,4.455,0.291c3.224,0,9.163-0.473,12.72-3.639c4.21-3.747,5.683-11.32,6.424-16.691
	c0.866-6.265,0.759-12.445,0.576-18.238c-0.023-0.727-0.035-1.609-0.048-2.594c-0.06-4.538-0.149-11.286-1.531-14.953
	c0.083,0.609,0.154,1.22,0.217,1.831c0.119,1.157,0.21,2.377,0.281,3.732c0.114,2.147,0.158,4.312,0.2,6.405l0.051,2.356
	c0.033,1.454,0.066,2.896,0.066,4.357c0,1.245-0.025,2.356-0.076,3.398c-0.03,0.604-0.07,1.205-0.123,1.808
	c-0.079,0.897-0.185,1.775-0.315,2.61c-0.07,0.446-0.15,0.893-0.238,1.337c-0.09,0.447-0.189,0.893-0.297,1.337
	c-0.429,1.762-1.014,3.535-1.738,5.271c-0.7,1.676-1.538,3.338-2.492,4.942c-0.923,1.552-1.967,3.069-3.104,4.51
	c-1.13,1.432-2.367,2.806-3.675,4.082c-1.32,1.287-2.724,2.484-4.172,3.559c-1.46,1.084-3.038,2.097-4.689,3.01
	C292.163,194.938,291.326,195.367,290.481,195.769z"/>
<path fill="#4E66B0" d="M242.151,205.814c2.768-0.574,5.563-1.038,8.368-1.452c1.572-0.232,3.148-0.449,4.724-0.659
	c2.074-0.277,4.15-0.544,6.225-0.822c1.868-0.251,3.731-0.51,5.593-0.794c1.366-0.208,2.728-0.429,4.086-0.67
	c1.873-0.331,3.733-0.698,5.581-1.12c1.874-0.427,3.728-0.909,5.556-1.465c1.476-0.448,2.93-0.942,4.358-1.492
	c5.678,1.733,15.608,1.489,20.905-1.926c6.177-3.982,7.888-12.808,8.772-18.928c1.036-7.181,0.756-14.293,0.591-21.468
	c-0.083-3.585-0.049-7.162-0.493-10.739c-0.423-3.404-1.215-7.188-4.413-9.434c-0.05-0.186-0.101-0.371-0.154-0.556
	c-0.208-0.726-0.441-1.448-0.699-2.163c-0.301-0.834-0.636-1.656-0.997-2.473c-0.713-1.613-1.522-3.181-2.386-4.736
	c-0.843-1.519-1.724-2.998-2.617-4.495c-0.906-1.517-1.821-3.043-2.685-4.578c-0.837-1.488-1.632-2.995-2.337-4.534
	c-0.35-0.764-0.678-1.535-0.976-2.315c-0.201-0.524-0.388-1.053-0.562-1.584c-0.211-0.645-0.402-1.294-0.575-1.946
	c-0.354-1.333-0.632-2.682-0.848-4.035c-0.221-1.385-0.376-2.779-0.478-4.174c-0.103-1.405-0.151-2.813-0.155-4.221
	c-0.005-1.391,0.033-2.782,0.104-4.171c0.035-0.683,0.079-1.364,0.129-2.046c0.029-0.403,0.062-0.807,0.096-1.209
	c0.054-0.626,0.114-1.251,0.181-1.876c0.266-2.481,0.642-4.96,1.171-7.409c0.017-0.078,0.025-0.157,0.025-0.237
	c-0.758,0-1.52-0.001-2.275-0.001c-0.52,2.451-0.893,4.927-1.159,7.408c-0.066,0.64-0.13,1.28-0.186,1.922
	c-0.035,0.412-0.068,0.824-0.099,1.236c-0.051,0.698-0.096,1.397-0.132,2.096c-0.073,1.431-0.112,2.862-0.104,4.294
	c0.005,1.46,0.055,2.92,0.161,4.377c0.104,1.459,0.269,2.916,0.5,4.365c0.228,1.429,0.521,2.852,0.896,4.258
	c0.184,0.693,0.387,1.384,0.611,2.068c0.186,0.566,0.386,1.131,0.6,1.689c0.315,0.825,0.662,1.641,1.032,2.448
	c0.732,1.599,1.552,3.153,2.422,4.7c0.879,1.562,1.791,3.084,2.713,4.628c0.877,1.468,1.755,2.944,2.583,4.434
	c0.829,1.493,1.611,3.007,2.295,4.555c0.34,0.768,0.655,1.544,0.938,2.328c0.241,0.667,0.458,1.337,0.651,2.015
	c0.331,1.157,0.593,2.332,0.803,3.51c0.212,1.192,0.373,2.396,0.495,3.597c0.123,1.203,0.209,2.411,0.272,3.617
	c0.135,2.561,0.17,5.168,0.226,7.73c0.039,1.746,0.088,3.521,0.088,5.267c0,1.129-0.021,2.263-0.079,3.393
	c-0.028,0.538-0.064,1.074-0.111,1.609c-0.072,0.819-0.168,1.639-0.296,2.452c-0.065,0.416-0.14,0.83-0.222,1.242
	c-0.083,0.416-0.175,0.83-0.276,1.243c-0.407,1.672-0.955,3.319-1.625,4.927c-0.664,1.591-1.45,3.146-2.345,4.648
	c-0.874,1.47-1.854,2.894-2.931,4.258c-1.063,1.347-2.223,2.638-3.474,3.857c-1.224,1.193-2.537,2.32-3.936,3.358
	c-1.398,1.037-2.878,1.983-4.429,2.842c-1.598,0.885-3.263,1.671-4.978,2.372c-0.195,0.079-0.391,0.158-0.587,0.235
	c-0.064,0.02-0.125,0.043-0.188,0.073c-1.461,0.57-2.953,1.081-4.467,1.541c-1.777,0.54-3.582,1.009-5.403,1.424
	c-1.811,0.413-3.638,0.773-5.472,1.099c-1.341,0.237-2.686,0.455-4.034,0.661c-1.847,0.281-3.7,0.539-5.553,0.787
	c-2.074,0.278-4.149,0.545-6.223,0.822c-1.586,0.212-3.172,0.43-4.755,0.663c-2.976,0.439-5.93,0.933-8.864,1.553
	c-0.118,0.025-0.225,0.066-0.329,0.126C241.382,204.481,241.767,205.148,242.151,205.814z M292.937,194.427
	c1.638-0.906,3.205-1.909,4.681-3.005c1.48-1.098,2.871-2.291,4.165-3.553c1.322-1.289,2.546-2.651,3.669-4.074
	c1.139-1.443,2.174-2.947,3.099-4.502c0.949-1.596,1.782-3.244,2.487-4.933c0.716-1.716,1.3-3.475,1.735-5.26
	c0.108-0.443,0.207-0.888,0.296-1.334c0.088-0.443,0.168-0.889,0.238-1.334c0.136-0.865,0.239-1.734,0.315-2.605
	c0.053-0.602,0.093-1.202,0.123-1.805c0.056-1.131,0.076-2.263,0.076-3.395c0-1.78-0.049-3.531-0.088-5.311
	c-0.057-2.615-0.091-5.19-0.229-7.804c-0.065-1.244-0.154-2.487-0.281-3.729c-0.082-0.799-0.179-1.597-0.296-2.393
	c1.924,4.253,1.666,13.848,1.801,18.099c0.194,6.107,0.267,12.153-0.576,18.25c-0.689,4.991-2.121,12.884-6.448,16.735
	c-4.309,3.836-12.474,4.051-17.472,3.333C291.151,195.376,292.053,194.916,292.937,194.427z"/>
<path fill="#4E66B0" d="M386.804,211.369c-0.158-0.092-0.278-0.202-0.38-0.348c-6.351-9.036-10.339-23.198-12.978-32.569
	c-0.696-2.473-1.3-4.636-1.844-6.589c-2.785-9.986-4.056-14.544-8.508-27.027l-0.306-0.857
	c-9.802-27.468-13.469-37.745-9.797-67.858l2.36-0.061l0.042,0.072c0,0.047-0.003,0.095-0.008,0.144
	c-3.645,29.632-0.048,39.709,9.565,66.64l0.361,1.011c4.522,12.672,5.761,17.116,8.755,27.854l1.475,5.279
	c2.613,9.314,6.563,23.39,12.545,32.157l-1.22,2.19L386.804,211.369z"/>
<path fill="#4E66B0" d="M386.483,210.98c0.097,0.139,0.211,0.242,0.357,0.327c0.396-0.684,0.791-1.367,1.186-2.051
	c-5.917-8.671-9.83-22.464-12.555-32.178c-4.171-14.869-5.032-18.566-10.229-33.128c-9.863-27.638-13.622-37.666-9.93-67.683
	c0.005-0.046,0.008-0.091,0.008-0.136c-0.753-0.001-1.505-0.002-2.258-0.002c-3.708,30.408,0.109,40.681,10.099,68.682
	c5.318,14.908,6.068,18.406,10.354,33.621C376.317,188.382,380.29,202.169,386.483,210.98z"/>
<path fill="#4E66B0" d="M393.441,199.896c-0.087-0.05-0.165-0.108-0.238-0.18c-7.021-6.857-11.966-19.606-15.238-28.043
	l-0.188-0.486c-0.753-1.942-1.513-3.882-2.273-5.821c-3.153-8.05-6.414-16.375-9.135-24.755
	c-6.604-20.336-8.839-40.824-7.031-64.479l2.396-0.064v0.072c-1.791,23.368,0.378,43.502,6.823,63.456
	c2.624,8.123,5.778,16.188,8.829,23.987c0.792,2.026,1.585,4.052,2.37,6.082l0.289,0.748c3.203,8.292,8.042,20.821,14.63,27.393
	l-0.558,1.071l-0.612,1.057L393.441,199.896z"/>
<path fill="#4E66B0" d="M393.254,199.664c0.067,0.066,0.141,0.122,0.223,0.169c0.382-0.66,0.764-1.319,1.146-1.979
	c-6.798-6.781-11.704-19.81-14.935-28.165c-3.858-9.979-7.906-19.874-11.2-30.073c-6.803-21.063-8.511-41.493-6.829-63.393
	c0.002-0.028,0.003-0.057,0.003-0.085c-0.751-0.001-1.502-0.002-2.253-0.002c-1.702,22.276,0.075,43.042,7.028,64.451
	c3.366,10.364,7.473,20.431,11.407,30.573C381.215,179.848,386.111,192.689,393.254,199.664z"/>
<path fill="#4E66B0" d="M399.645,189.168c-0.064-0.038-0.124-0.08-0.181-0.129c-6.727-5.786-11.708-12.596-16.149-22.083
	c-4.184-8.934-6.739-16.877-5.61-26.601c-4.541-5.761-8.803-11.619-10.887-19.333c-2.041-7.55-1.91-14.372,0.422-22.118
	c0.144-0.478,0.389-0.708,0.874-0.82l0.07-0.016l0.016,0.07c0.254,1.117,0.528,2.23,0.821,3.338
	c-1.785,6.756-1.69,12.797,0.305,19.625c1.993,6.814,5.903,12.203,9.737,17.139c0.011-0.017,0.036-0.022,0.065-0.022
	c0.02,0,0.043,0.002,0.065,0.005c0.831,0.116,1.136,0.521,1.021,1.351c5.001,6.474,9.379,12.49,13.351,18.486l0.53,0.799
	c3.931,5.935,7.996,12.072,13.021,17.428c-0.3,0.628-0.615,1.171-0.93,1.715l-0.245,0.423l-0.062-0.036
	c-0.098-0.056-0.186-0.125-0.269-0.212c-5.237-5.522-9.438-11.857-13.143-17.446c-4.826-7.276-8.718-12.717-12.599-17.609
	c-0.368,6.948,1.583,14.55,6.132,23.901c4.112,8.455,8.834,14.83,14.862,20.062l-1.157,2.118L399.645,189.168z"/>
<path fill="#4E66B0" d="M399.511,188.985c0.054,0.046,0.109,0.086,0.17,0.121c0.38-0.655,0.759-1.31,1.136-1.965
	c-6.586-5.717-11.111-12.337-14.879-20.084c-3.514-7.224-6.626-15.715-6.129-24.126c4.543,5.715,8.69,11.686,12.72,17.763
	c4.036,6.087,8.063,12.088,13.135,17.436c0.076,0.079,0.158,0.145,0.253,0.199c0.384-0.663,0.77-1.327,1.148-1.99
	c-5.25-5.597-9.36-11.904-13.559-18.237c-4.194-6.332-8.679-12.429-13.382-18.389c0.007-0.049,0.013-0.098,0.02-0.146
	c0.109-0.788-0.171-1.16-0.959-1.27c-0.059-0.008-0.118-0.012-0.178-0.011c-4.12-5.303-7.806-10.514-9.75-17.163
	c-1.965-6.723-2.109-12.836-0.306-19.626c-0.293-1.109-0.566-2.223-0.821-3.341c-0.458,0.106-0.686,0.321-0.821,0.771
	c-2.277,7.562-2.492,14.418-0.422,22.078c2.048,7.579,6.217,13.397,10.889,19.359c-1.149,9.898,1.568,17.943,5.604,26.562
	C387.386,175.482,392.25,182.74,399.511,188.985z"/>
<path fill="#4E66B0" d="M380.369,222.495c-0.088-0.051-0.161-0.105-0.223-0.167c-7.445-7.018-9.629-22.308-11.074-32.426
	c-0.162-1.13-0.312-2.186-0.459-3.148c-2.208-14.459-3.861-22.796-8.384-36.997c-1.716-5.388-3.643-10.803-5.506-16.039
	c-2.311-6.495-4.701-13.211-6.711-19.94c-1.95-6.525-2.889-12.651-2.871-18.729c0.007-2.9,0.193-6.002,0.57-9.483
	c0.104-0.957,0.231-1.91,0.359-2.863c0.287-2.143,0.584-4.358,0.586-6.578v-0.072l2.394,0.001l0,0.072
	c-0.003,2.261-0.3,4.513-0.588,6.69c-0.116,0.878-0.232,1.756-0.33,2.637c-0.383,3.436-0.578,6.491-0.597,9.339
	c-0.04,5.966,0.877,11.991,2.805,18.42c1.994,6.644,4.355,13.279,6.638,19.696c1.833,5.152,3.729,10.48,5.423,15.781
	c4.579,14.319,6.29,22.828,8.392,36.483c0.178,1.155,0.351,2.312,0.525,3.467c0.74,4.933,1.506,10.033,2.611,14.997
	c1.231,5.53,3.215,12.434,7.669,16.767l-1.167,2.126L380.369,222.495z"/>
<path fill="#4E66B0" d="M380.197,222.277c0.062,0.061,0.132,0.111,0.208,0.155c0.381-0.658,0.762-1.317,1.143-1.976
	c-4.454-4.334-6.443-11.206-7.689-16.803c-1.361-6.11-2.187-12.295-3.137-18.469c-2.206-14.327-3.967-22.643-8.389-36.472
	c-3.805-11.902-8.467-23.499-12.062-35.479c-1.821-6.072-2.851-12.07-2.808-18.441c0.021-3.132,0.251-6.236,0.597-9.346
	c0.345-3.104,0.914-6.169,0.918-9.32c-0.75,0-1.5-0.001-2.25-0.001c-0.003,3.196-0.605,6.302-0.946,9.449
	c-0.341,3.153-0.562,6.301-0.57,9.476c-0.019,6.459,1.027,12.548,2.868,18.708c3.63,12.151,8.372,23.904,12.217,35.977
	c4.506,14.145,6.151,22.365,8.387,37.008C370.116,196.114,371.919,214.474,380.197,222.277z"/>
<path fill="#4E66B0" d="M257.349,232.328l0.061-0.036c0.079-0.047,0.162-0.083,0.248-0.109c8.415-2.572,17.167-4.029,25.63-5.437
	c9.339-1.554,18.996-3.161,28.24-6.274c10.586-3.564,17.776-7.481,24.043-13.096c7.397-6.628,11.021-13.798,12.117-23.972
	c2.001-18.597-5.074-36.929-11.317-53.104l-0.114-0.294c-7.21-18.681-10.934-33.49-8.631-53.902l1.2-0.062l1.2,0.001
	c0,0-0.003,0.161-0.007,0.205c-2.312,20.287,1.23,34.225,9.04,54.365c7.068,18.231,13.219,36.092,10.877,54.167
	c-2.279,17.587-14.34,29.918-36.873,37.699c-8.394,2.898-16.923,4.634-27.147,6.348c-1.211,0.203-2.422,0.402-3.633,0.602
	c-7.814,1.285-15.894,2.614-23.677,4.97l-0.055,0.017L257.349,232.328z"/>
<path fill="#4E66B0" d="M258.583,234.327c8.972-2.715,18.142-4.035,27.319-5.573c9.199-1.542,18.263-3.281,27.136-6.345
	c17.629-6.087,34.105-16.65,36.825-37.64c2.431-18.763-4.493-37.676-10.873-54.132c-7.405-19.1-11.438-33.381-9.044-54.398
	c0.004-0.042,0.007-0.084,0.007-0.126c-0.752-0.001-1.505-0.001-2.257-0.002c-2.316,20.536,1.384,35.101,8.627,53.868
	c6.329,16.399,13.451,34.706,11.436,53.432c-1.08,10.031-4.576,17.24-12.141,24.018c-7.163,6.418-15.15,10.108-24.068,13.111
	c-17.629,5.936-36.179,6.303-53.873,11.712c-0.082,0.024-0.159,0.058-0.23,0.101C257.824,233.009,258.203,233.668,258.583,234.327z"
	/>
<path fill="#4E66B0" d="M262.54,241.34l0.063-0.036c0.046-0.025,0.091-0.047,0.139-0.067c8.605-3.569,17.669-6.039,26.436-8.427
	c8.989-2.449,18.283-4.981,27.087-8.701c10.019-4.231,17.341-8.782,23.744-14.754c7.676-7.161,11.63-14.378,13.221-24.134
	c3.048-18.673-4.494-40.062-10.433-54.525l-1.051-2.548c-3.162-7.646-6.431-15.552-7.977-24.039
	c-1.636-8.984-1.576-17.883,0.19-28.005l2.409-0.058v0.072c0,0.069-0.006,0.138-0.018,0.206
	c-1.816,10.276-1.835,19.245-0.062,28.228c1.58,8.003,4.687,15.497,7.69,22.744c0.554,1.335,1.108,2.673,1.655,4.016
	c9.242,22.715,12.445,40.793,9.792,55.268c-1.797,9.805-5.875,17.099-13.632,24.387c-6.398,6.011-14.006,10.8-23.943,15.072
	c-9.015,3.875-18.543,6.473-27.758,8.984c-8.721,2.377-17.738,4.835-26.296,8.371l-0.058,0.024L262.54,241.34z"/>
<path fill="#4E66B0" d="M263.769,243.326c17.604-7.273,36.51-9.813,54.053-17.354c8.865-3.811,16.804-8.371,23.922-15.058
	c7.395-6.947,11.76-14.25,13.611-24.348c3.353-18.294-3.266-39.198-9.788-55.227c-3.572-8.778-7.482-17.316-9.349-26.773
	c-1.894-9.594-1.625-18.705,0.062-28.254c0.011-0.064,0.017-0.129,0.017-0.194c-0.756,0-1.511-0.001-2.267-0.002
	c-1.646,9.438-1.919,18.487-0.19,27.98c1.712,9.4,5.457,17.886,9.023,26.573c6.504,15.841,13.404,36.39,10.438,54.564
	c-1.643,10.073-5.863,17.291-13.243,24.175c-7.075,6.6-14.965,11.051-23.765,14.768c-17.395,7.349-36.1,9.9-53.523,17.127
	c-0.045,0.019-0.088,0.04-0.131,0.064C263.017,242.021,263.393,242.673,263.769,243.326z"/>
<path fill="#4E66B0" d="M253.899,226.349l0.063-0.036c0.079-0.045,0.155-0.079,0.232-0.104c10.822-3.477,22.075-5.292,32.958-7.046
	c6.524-1.052,13.27-2.14,19.846-3.574c8.425-1.838,17.894-4.562,24.245-10.83c5.719-5.645,9.073-13.846,9.967-24.375
	c1.726-20.328-5.994-41.457-10.75-52.243c-0.472-1.072-0.949-2.139-1.426-3.206c-3.116-6.976-6.339-14.189-7.913-22.025
	c-1.766-8.791-1.719-17.312,0.146-26.817l1.207-0.057l1.208,0.001v0.072c0,0.08-0.008,0.159-0.024,0.235
	c-1.921,9.616-1.919,18.207,0.007,27.034c1.582,7.246,4.588,13.959,7.496,20.453c0.736,1.643,1.473,3.289,2.189,4.946
	c8.018,18.537,11.71,37.861,10.131,53.018c-1.094,10.503-4.627,18.784-10.5,24.612c-6.673,6.621-16.57,9.512-24.447,11.292
	c-6.956,1.572-14.1,2.72-21.008,3.83c-10.69,1.718-21.744,3.494-32.37,6.884l-0.055,0.018L253.899,226.349z"/>
<path fill="#4E66B0" d="M255.135,228.344c17.502-5.584,35.671-6.712,53.384-10.716c8.391-1.896,17.876-4.789,24.412-11.273
	c6.668-6.616,9.553-15.675,10.479-24.568c1.822-17.485-3.378-37.382-10.125-52.982c-3.605-8.337-7.713-16.359-9.689-25.412
	c-2.011-9.214-1.843-17.877-0.007-27.064c0.015-0.072,0.022-0.146,0.022-0.22c-0.757-0.001-1.518-0.001-2.272-0.002
	c-1.78,9.069-1.977,17.676-0.146,26.789c1.808,9,5.706,16.984,9.334,25.216c6.844,15.523,12.24,34.79,10.755,52.277
	c-0.742,8.738-3.375,17.894-9.988,24.421c-6.406,6.323-16.124,9.07-24.28,10.849c-17.544,3.826-35.492,5.059-52.798,10.619
	c-0.076,0.024-0.148,0.057-0.218,0.097C254.377,227.03,254.756,227.687,255.135,228.344z"/>
<path fill="#4E66B0" d="M244.262,209.615l0.062-0.036c0.097-0.057,0.199-0.098,0.312-0.126c10.287-2.528,20.894-3.684,31.152-4.802
	l2.991-0.326c6.131-0.667,12.471-1.357,18.656-2.505c4.559-0.847,14.046-2.609,17.985-8.103c3.497-4.875,3.384-13.761,3.316-19.071
	l-0.006-0.538c-0.034-2.801-0.086-5.603-0.138-8.403c-0.072-3.881-0.147-7.895-0.168-11.842c-0.036-6.331-0.401-13.124-2.818-19.902
	c-1.6-4.486-3.728-8.793-5.786-12.958c-0.892-1.805-1.784-3.61-2.638-5.435c-7.16-15.293-6.978-24.18-4.927-39.489l2.368-0.06
	l0.035,0.072c0,0.052-0.004,0.104-0.01,0.157c-2.291,17.024-1.828,24.768,5.526,40.039c0.607,1.261,1.226,2.515,1.845,3.768
	c2.379,4.82,4.84,9.804,6.512,15.093c2.069,6.545,2.26,12.86,2.294,20.436c0.015,3.281,0.086,6.617,0.156,9.842
	c0.076,3.537,0.154,7.195,0.158,10.794c0.008,5.751,0.021,14.442-4.453,19.77c-4.085,4.866-11.691,6.847-18.594,8.143
	c-6.32,1.188-12.796,1.892-19.06,2.573l-3.048,0.333c-10.031,1.093-20.404,2.223-30.462,4.663l-0.053,0.013L244.262,209.615z"/>
<path fill="#4E66B0" d="M245.504,211.633c10.604-2.573,21.339-3.666,32.121-4.845c6.841-0.747,13.674-1.451,20.453-2.725
	c5.783-1.086,14.241-2.984,18.552-8.118c4.425-5.27,4.444-13.766,4.436-19.724c-0.008-6.881-0.283-13.756-0.314-20.636
	c-0.031-6.927-0.15-13.643-2.291-20.415c-2.097-6.634-5.369-12.652-8.353-18.851c-7.45-15.471-7.776-23.409-5.533-40.079
	c0.006-0.05,0.01-0.099,0.01-0.148c-0.753-0.001-1.507-0.002-2.26-0.002c-2.113,15.778-2.022,24.618,4.921,39.449
	c2.86,6.11,6.144,11.997,8.427,18.398c2.343,6.572,2.784,13.096,2.822,19.926c0.037,6.749,0.226,13.496,0.307,20.245
	c0.064,5.386,0.306,14.593-3.323,19.652c-3.791,5.287-12.631,7.128-18.031,8.131c-6.652,1.235-13.356,1.926-20.067,2.659
	c-10.989,1.201-21.927,2.318-32.729,4.973c-0.104,0.026-0.2,0.064-0.293,0.118C244.739,210.306,245.122,210.969,245.504,211.633z"/>
<path fill="#4E66B0" d="M253.784,195.108c-4.923,0-9.833-0.371-14.166-0.699c-1.484-0.112-2.911-0.22-4.263-0.308l-0.278-0.419
	l-1.051-1.826l0.062-0.036c0.19-0.109,0.376-0.16,0.585-0.16c1.524,0.093,3.069,0.211,4.694,0.336
	c4.361,0.334,9.304,0.712,14.281,0.712c8.854,0,15.55-1.247,20.471-3.812c12.519-6.526,17.55-23.747,19.434-33.431
	c2.735-14.053,1.769-24.382-1.118-39.661c-3.121-16.524-4.173-22.09-2.859-39.73l1.198-0.066l1.198,0v0.072
	c-1.292,17.319-0.297,22.635,2.655,38.416l0.384,2.057c2.782,14.911,3.715,25.769,0.681,40.424
	c-2.013,9.72-7.322,27.053-20.259,33.934c-5.312,2.824-12.394,4.197-21.648,4.197C253.785,195.108,253.785,195.108,253.784,195.108z
	"/>
<path fill="#4E66B0" d="M235.36,194.03c11.508,0.746,28.479,2.964,40.04-3.182c12.085-6.428,17.797-22.178,20.222-33.885
	c3.062-14.789,2.036-25.835-0.681-40.396c-3.27-17.527-4.386-22.44-3.043-40.403c0.002-0.027,0.003-0.055,0.003-0.083
	c-0.751,0-1.502-0.001-2.253-0.001c-1.29,17.322-0.341,22.778,2.858,39.712c2.715,14.367,3.973,25.016,1.118,39.688
	c-2.194,11.277-7.651,27.319-19.472,33.481c-11.107,5.789-28.42,3.464-39.396,2.774c-0.234-0.015-0.429,0.031-0.632,0.148
	C234.536,192.601,234.948,193.315,235.36,194.03z"/>
<path fill="#4E66B0" d="M248.71,217.341l0.062-0.036c0.115-0.067,0.234-0.112,0.363-0.138c0.681-0.136,1.363-0.266,2.047-0.389
	l0.651-0.116c1.097-0.191,2.198-0.366,3.301-0.529c2.066-0.306,4.268-0.587,6.729-0.86c2.22-0.246,4.439-0.462,6.668-0.667
	c1.511-0.139,3.023-0.272,4.535-0.405l3.045-0.271c2.228-0.2,4.457-0.407,6.682-0.639c2.448-0.255,4.597-0.511,6.569-0.78
	c2.433-0.334,4.607-0.69,6.647-1.088c2.359-0.46,4.464-0.963,6.435-1.537c1.1-0.319,2.17-0.666,3.182-1.033
	c1.087-0.395,2.122-0.817,3.076-1.255c1.025-0.469,2.009-0.98,2.922-1.52c0.978-0.579,1.89-1.197,2.71-1.836
	c0.43-0.334,0.845-0.683,1.245-1.044c0.144-0.129,0.285-0.26,0.424-0.394c0.313-0.299,0.615-0.607,0.907-0.921
	c0.379-0.41,0.742-0.831,1.086-1.263c0.079-0.228,0.216-0.405,0.433-0.554c0.252-0.338,0.507-0.7,0.753-1.065
	c0.662-0.989,1.278-2.063,1.831-3.192c0.53-1.082,1.019-2.246,1.455-3.461c0.407-1.136,0.78-2.354,1.11-3.619
	c0.296-1.138,0.567-2.355,0.806-3.618c0.219-1.164,0.417-2.406,0.586-3.69c0.158-1.203,0.296-2.47,0.41-3.767
	c0.203-2.304,0.337-4.772,0.413-7.546c0.019-0.711,0.034-1.423,0.045-2.134c0.018-1.202,0.025-2.402,0.019-3.603
	c-0.004-0.779-0.014-1.56-0.03-2.338c-0.035-1.669-0.099-3.312-0.19-4.883c-0.143-2.477-0.363-4.896-0.654-7.19
	c-0.308-2.435-0.705-4.798-1.178-7.024c-0.506-2.378-1.114-4.688-1.809-6.865c-0.3-0.944-0.625-1.887-0.963-2.803
	c-0.166-0.446-0.336-0.891-0.511-1.334c-0.631-1.6-1.375-3.324-2.274-5.271c-0.712-1.543-1.453-3.078-2.196-4.612l-0.44-0.907
	c-0.85-1.754-1.692-3.495-2.504-5.261c-0.905-1.966-1.659-3.718-2.306-5.356c-0.361-0.914-0.705-1.832-1.027-2.755
	c-0.423-1.211-0.815-2.458-1.167-3.704c-0.759-2.698-1.318-5.397-1.661-8.025c-0.366-2.805-0.489-5.564-0.368-8.201
	c0.058-1.248,0.174-2.536,0.345-3.829c0.152-1.153,0.347-2.316,0.596-3.556c0.162-0.799,0.338-1.594,0.53-2.388
	c0.161-0.667,0.332-1.332,0.515-1.994L311,76.025v0.072c0,0.111-0.014,0.217-0.044,0.323c-0.207,0.735-0.399,1.473-0.578,2.213
	c-0.184,0.763-0.354,1.529-0.509,2.298c-0.24,1.195-0.427,2.306-0.57,3.396c-0.162,1.221-0.272,2.44-0.327,3.625
	c-0.115,2.496,0.003,5.114,0.35,7.782c0.328,2.512,0.863,5.097,1.592,7.685c0.331,1.175,0.708,2.374,1.124,3.563
	c0.312,0.895,0.644,1.782,0.993,2.665c0.631,1.599,1.369,3.311,2.254,5.234c0.297,0.646,0.599,1.289,0.904,1.932
	c0.467,0.988,0.945,1.974,1.422,2.958l0.219,0.451c0.877,1.809,1.754,3.617,2.595,5.437c0.92,1.991,1.682,3.757,2.329,5.398
	c0.181,0.459,0.356,0.919,0.527,1.381c0.355,0.958,0.691,1.936,1,2.905c0.722,2.267,1.351,4.654,1.869,7.095
	c0.488,2.302,0.896,4.731,1.211,7.222c0.295,2.338,0.521,4.812,0.668,7.352c0.093,1.609,0.158,3.298,0.194,5.022
	c0.016,0.774,0.026,1.55,0.03,2.326c0.006,1.217-0.001,2.434-0.02,3.651c-0.011,0.721-0.026,1.441-0.046,2.162
	c-0.076,2.825-0.214,5.34-0.42,7.69c-0.117,1.333-0.258,2.635-0.421,3.87c-0.177,1.347-0.376,2.596-0.606,3.819
	c-0.248,1.313-0.531,2.585-0.842,3.779c-0.347,1.332-0.741,2.618-1.173,3.822c-0.473,1.31-0.998,2.558-1.562,3.708
	c-0.037,0.076-0.074,0.151-0.111,0.227c2.879-1.944,9.757-6.683,10.883-11.188c0.524-2.093,0.066-3.889-0.418-5.791
	c-0.157-0.619-0.315-1.24-0.439-1.875c-0.564-2.909-0.907-5.843-1.168-8.33c-0.301-2.86-0.561-5.769-0.813-8.583
	c-0.695-7.761-1.413-15.785-3.061-23.605c-1.263-5.992-2.83-10.885-4.931-15.399c-1.041-2.236-2.226-4.443-3.372-6.578
	c-1.368-2.549-2.783-5.185-3.965-7.892c-4.157-9.521-4.458-20.506-0.869-31.77l1.222-0.049l1.225,0.001v0.072
	c0,0.129-0.02,0.251-0.06,0.372c-1.842,5.635-2.645,11.124-2.455,16.779c0.183,5.442,1.574,10.626,4.378,16.313
	c0.856,1.736,1.783,3.471,2.679,5.149c1.735,3.251,3.53,6.612,4.903,10.138c1.869,4.8,3.259,10.038,4.374,16.484
	c1.04,6.002,1.578,12.148,2.098,18.091c0.455,5.196,0.926,10.569,1.729,15.821c0.196,1.281,0.465,2.468,0.726,3.616
	c0.959,4.226,1.787,7.876-2.208,12.588c-3.736,4.405-8.284,7.221-13.1,10.202l-0.362,0.224c-0.421,0.551-0.892,1.106-1.381,1.633
	c-0.483,0.517-0.982,1.008-1.483,1.461c-0.352,0.319-0.715,0.628-1.088,0.928l-0.292,0.23c-0.914,0.711-1.911,1.387-2.964,2.008
	c-0.977,0.576-2.033,1.126-3.139,1.634c-1.026,0.47-2.123,0.917-3.259,1.331c-1.06,0.383-2.181,0.747-3.33,1.081
	c-2.035,0.592-4.208,1.112-6.644,1.587c-2.078,0.405-4.296,0.768-6.781,1.109c-2.006,0.275-4.18,0.534-6.646,0.792
	c-2.236,0.233-4.476,0.442-6.716,0.642l-2.949,0.262c-1.542,0.136-3.083,0.272-4.625,0.414c-2.209,0.203-4.419,0.418-6.624,0.662
	c-2.439,0.27-4.611,0.548-6.64,0.849c-1.083,0.16-2.163,0.332-3.24,0.521l-0.638,0.113c-0.545,0.098-1.088,0.201-1.631,0.307
	l-0.05,0.01L248.71,217.341z"/>
<path fill="#4E66B0" d="M249.963,219.37c0.543-0.106,1.087-0.209,1.632-0.307c0.213-0.039,0.426-0.076,0.639-0.113
	c1.077-0.188,2.158-0.361,3.241-0.521c2.207-0.327,4.423-0.603,6.643-0.849c2.205-0.244,4.415-0.459,6.625-0.662
	c2.524-0.232,5.05-0.449,7.574-0.676c2.24-0.2,4.479-0.409,6.715-0.642c2.22-0.232,4.434-0.488,6.644-0.791
	c2.272-0.312,4.532-0.671,6.777-1.109c2.243-0.438,4.458-0.951,6.638-1.586c1.123-0.326,2.232-0.684,3.325-1.079
	c1.107-0.402,2.192-0.842,3.253-1.328c1.078-0.495,2.125-1.036,3.133-1.631c1.036-0.611,2.024-1.277,2.957-2.003
	c0.098-0.076,0.194-0.152,0.291-0.229c0.372-0.299,0.734-0.607,1.085-0.925c0.516-0.467,1.008-0.954,1.479-1.457
	c0.492-0.53,0.958-1.08,1.396-1.645c4.872-3.017,9.622-5.903,13.445-10.411c5.029-5.931,2.401-10.038,1.466-16.146
	c-1.723-11.262-1.88-22.663-3.827-33.911c-0.976-5.64-2.283-11.11-4.37-16.47c-2.08-5.34-5.063-10.182-7.579-15.281
	c-2.588-5.25-4.186-10.416-4.385-16.342c-0.197-5.837,0.648-11.269,2.458-16.805c0.038-0.114,0.056-0.229,0.056-0.349
	c-0.769-0.001-1.538-0.001-2.307-0.002c-3.299,10.354-3.608,21.472,0.866,31.719c2.171,4.972,5.053,9.561,7.337,14.468
	c2.313,4.969,3.812,10.081,4.936,15.415c2.246,10.659,2.743,21.444,3.875,32.196c0.293,2.79,0.632,5.565,1.167,8.323
	c0.495,2.551,1.559,4.889,0.856,7.697c-1.138,4.551-7.919,9.211-11.143,11.385c0.081-0.157,0.16-0.315,0.237-0.474
	c0.592-1.208,1.106-2.446,1.559-3.7c0.451-1.257,0.837-2.532,1.171-3.816c0.326-1.25,0.603-2.51,0.841-3.774
	c0.239-1.268,0.438-2.54,0.606-3.815c0.17-1.287,0.308-2.576,0.421-3.867c0.225-2.559,0.351-5.121,0.42-7.686
	c0.02-0.721,0.035-1.441,0.046-2.161c0.019-1.217,0.026-2.434,0.02-3.65c-0.004-0.775-0.014-1.551-0.03-2.325
	c-0.035-1.674-0.097-3.347-0.194-5.019c-0.143-2.454-0.359-4.905-0.668-7.347c-0.306-2.416-0.703-4.825-1.21-7.216
	c-0.506-2.383-1.123-4.752-1.867-7.088c-0.31-0.974-0.643-1.941-0.999-2.902c-0.171-0.462-0.347-0.921-0.527-1.38
	c-0.717-1.819-1.502-3.609-2.327-5.394c-0.86-1.861-1.758-3.71-2.655-5.559c-0.53-1.094-1.062-2.188-1.581-3.286
	c-0.305-0.644-0.607-1.287-0.904-1.933c-0.797-1.731-1.56-3.475-2.256-5.238c-0.35-0.884-0.682-1.772-0.994-2.667
	c-0.412-1.181-0.788-2.37-1.125-3.568c-0.713-2.532-1.256-5.104-1.594-7.695c-0.336-2.584-0.47-5.195-0.35-7.795
	c0.056-1.214,0.167-2.423,0.327-3.63c0.15-1.139,0.344-2.273,0.571-3.401c0.155-0.77,0.326-1.537,0.51-2.301
	c0.179-0.74,0.372-1.479,0.579-2.215c0.028-0.1,0.042-0.201,0.042-0.304c-0.765-0.001-1.529-0.002-2.293-0.002
	c-0.183,0.662-0.354,1.326-0.515,1.992c-0.191,0.793-0.368,1.587-0.529,2.385c-0.237,1.179-0.438,2.361-0.596,3.551
	c-0.168,1.27-0.285,2.547-0.344,3.823c-0.126,2.73,0.013,5.473,0.367,8.188c0.352,2.699,0.916,5.376,1.659,8.015
	c0.351,1.241,0.739,2.476,1.166,3.699c0.322,0.923,0.666,1.84,1.026,2.753c0.713,1.804,1.49,3.581,2.305,5.352
	c0.812,1.766,1.654,3.507,2.504,5.26c0.147,0.302,0.293,0.604,0.44,0.907c0.743,1.534,1.484,3.069,2.197,4.613
	c0.805,1.742,1.576,3.498,2.276,5.274c0.175,0.444,0.345,0.89,0.511,1.336c0.344,0.93,0.665,1.864,0.965,2.806
	c0.722,2.265,1.319,4.562,1.81,6.872c0.495,2.329,0.881,4.677,1.179,7.03c0.303,2.392,0.516,4.793,0.654,7.195
	c0.095,1.627,0.156,3.256,0.19,4.886c0.016,0.779,0.026,1.56,0.03,2.339c0.006,1.201-0.001,2.402-0.019,3.604
	c-0.011,0.711-0.026,1.423-0.045,2.135c-0.068,2.518-0.192,5.039-0.413,7.55c-0.11,1.259-0.245,2.516-0.41,3.77
	c-0.163,1.234-0.356,2.468-0.587,3.694c-0.229,1.214-0.495,2.424-0.807,3.623c-0.318,1.219-0.685,2.432-1.112,3.625
	c-0.421,1.175-0.903,2.337-1.458,3.469c-0.537,1.096-1.146,2.17-1.836,3.2c-0.246,0.366-0.502,0.729-0.771,1.084
	c-0.205,0.141-0.333,0.307-0.418,0.54c-0.346,0.434-0.709,0.856-1.09,1.267c-0.293,0.315-0.596,0.624-0.91,0.924
	c-0.14,0.134-0.282,0.266-0.426,0.396c-0.401,0.362-0.818,0.712-1.249,1.047c-0.856,0.667-1.767,1.278-2.718,1.841
	c-0.941,0.556-1.921,1.062-2.928,1.523c-1.004,0.461-2.034,0.877-3.082,1.258c-1.046,0.379-2.11,0.722-3.186,1.034
	c-2.113,0.615-4.268,1.114-6.441,1.538c-2.202,0.43-4.422,0.783-6.651,1.089c-2.184,0.299-4.376,0.552-6.571,0.781
	c-2.225,0.232-4.454,0.439-6.683,0.639c-2.527,0.227-5.054,0.444-7.58,0.676c-2.229,0.205-4.447,0.421-6.667,0.667
	c-2.249,0.249-4.49,0.528-6.726,0.859c-1.103,0.163-2.203,0.338-3.299,0.529c-0.217,0.038-0.435,0.077-0.651,0.116
	c-0.684,0.123-1.366,0.253-2.046,0.389c-0.123,0.024-0.233,0.066-0.341,0.129C249.193,218.034,249.578,218.702,249.963,219.37z"/>
<path fill="#4E66B0" d="M229.685,184.326c-0.394-0.684-0.789-1.367-1.193-2.049l-0.037-0.062l0.063-0.037
	c0.159-0.091,0.317-0.141,0.498-0.155c2.24-0.188,4.481-0.384,6.719-0.595c2.908-0.274,5.464-0.539,7.815-0.808
	c1.424-0.163,2.849-0.333,4.271-0.521c1.393-0.183,2.782-0.378,4.168-0.592c1.556-0.24,2.966-0.481,4.31-0.738
	c1.54-0.293,2.894-0.589,4.139-0.906c0.83-0.21,1.569-0.417,2.26-0.635c0.695-0.218,1.321-0.439,1.916-0.676
	c0.046-0.087,0.14-0.182,0.255-0.264c0.22-0.156,0.424-0.225,0.663-0.225c0.066,0,0.135,0.005,0.208,0.016
	c0.22-0.115,0.477-0.244,0.73-0.377c0.589-0.311,1.156-0.659,1.684-1.033c0.524-0.375,1.03-0.789,1.502-1.233
	c0.245-0.231,0.483-0.469,0.71-0.712c0.455-0.483,0.909-1.024,1.352-1.607c0.464-0.614,0.912-1.267,1.367-1.997
	c0.423-0.681,0.834-1.4,1.223-2.137c0.374-0.708,0.741-1.456,1.091-2.222c0.342-0.745,0.661-1.498,0.967-2.255l0.214-0.54
	c0.498-1.28,0.972-2.626,1.409-4.002c0.483-1.52,0.936-3.122,1.347-4.762c0.394-1.574,0.749-3.185,1.056-4.788
	c0.414-2.16,0.75-4.367,0.999-6.56c0.243-2.14,0.411-4.349,0.499-6.566c0.086-2.205,0.099-4.458,0.037-6.698
	c-0.054-2.118-0.171-4.296-0.358-6.66c-0.16-2.024-0.371-4.189-0.647-6.617c-0.299-2.634-0.636-5.224-1.013-8.093l-0.269-2.017
	c-0.292-2.189-0.583-4.378-0.859-6.569c-0.428-3.392-0.764-6.369-1.028-9.101c-0.23-2.383-0.409-4.572-0.547-6.692
	c-0.147-2.24-0.255-4.506-0.321-6.735l-0.002-0.074L276.956,76l2.32,0.002l0.002,0.07c0.064,2.191,0.171,4.417,0.317,6.614
	c0.138,2.104,0.319,4.332,0.541,6.619c0.261,2.701,0.595,5.655,1.021,9.032c0.272,2.154,0.558,4.307,0.845,6.46l0.28,2.11
	c0.438,3.28,0.752,5.789,1.021,8.135c0.278,2.433,0.492,4.625,0.655,6.701c0.189,2.402,0.31,4.622,0.366,6.785
	c0.064,2.297,0.051,4.604-0.038,6.856c-0.089,2.265-0.262,4.533-0.512,6.741c-0.252,2.231-0.598,4.5-1.026,6.74
	c-0.312,1.636-0.677,3.292-1.084,4.919c-0.417,1.672-0.884,3.322-1.387,4.905c-0.374,1.176-0.75,2.265-1.149,3.331
	c-0.172,0.461-0.351,0.921-0.534,1.378c-0.319,0.792-0.654,1.578-1.011,2.358c-0.369,0.808-0.756,1.596-1.151,2.344
	c-0.45,0.847-0.878,1.594-1.309,2.285c-0.493,0.792-0.981,1.503-1.491,2.175c-0.503,0.664-0.999,1.253-1.514,1.802
	c-0.263,0.279-0.536,0.552-0.818,0.817c-0.559,0.525-1.148,1.009-1.753,1.438c-0.603,0.43-1.259,0.833-1.949,1.199l-0.107,0.011
	c0.085,0.107,0.171,0.213,0.258,0.318c0.454,0.552,0.875,1.002,1.291,1.378c0.215,0.195,0.45,0.386,0.695,0.553
	c0.237,0.163,0.475,0.295,0.708,0.393c0.243,0.102,0.475,0.167,0.709,0.198c0.114,0.016,0.227,0.023,0.34,0.023
	c0.095,0,0.189-0.005,0.284-0.015c0.234-0.024,0.479-0.078,0.727-0.162c0.242-0.081,0.496-0.192,0.754-0.331
	c0.264-0.143,0.519-0.306,0.758-0.478c0.46-0.331,0.934-0.745,1.41-1.231c0.392-0.402,0.786-0.853,1.171-1.34
	c0.369-0.468,0.738-0.977,1.098-1.512c0.667-0.994,1.297-2.068,1.928-3.283c0.484-0.93,0.944-1.899,1.407-2.962
	c0.481-1.108,0.948-2.285,1.387-3.499c0.413-1.142,0.812-2.347,1.187-3.584l0.095-0.315c0.392-1.32,0.756-2.675,1.084-4.029
	c0.565-2.332,1.044-4.75,1.426-7.188c0.376-2.408,0.665-4.875,0.858-7.334c0.193-2.453,0.295-4.923,0.301-7.341
	c0.004-2.058-0.059-4.229-0.189-6.454c-0.111-1.895-0.274-3.903-0.497-6.138c-0.188-1.889-0.417-3.901-0.696-6.151
	c-0.126-1.016-0.256-2.031-0.389-3.046l-0.538-4.05c-0.225-1.677-0.449-3.354-0.665-5.03c-0.307-2.392-0.543-4.381-0.743-6.262
	c-0.242-2.279-0.421-4.316-0.548-6.227c-0.063-0.974-0.117-1.949-0.155-2.923c-0.026-0.663-0.045-1.328-0.058-1.991
	c-0.025-1.264-0.027-2.591-0.005-3.944c0.039-2.418,0.153-4.968,0.348-7.798l2.396-0.065v0.072c-0.197,2.891-0.311,5.425-0.35,7.829
	c-0.021,1.317-0.02,2.616,0.004,3.86c0.012,0.648,0.031,1.297,0.056,1.944c0.037,0.954,0.09,1.906,0.152,2.858
	c0.125,1.875,0.302,3.881,0.541,6.132c0.195,1.837,0.429,3.81,0.737,6.209c0.243,1.891,0.496,3.781,0.75,5.67l0.451,3.404
	c0.133,1.021,0.265,2.042,0.391,3.062c0.285,2.29,0.515,4.321,0.704,6.208c0.225,2.24,0.389,4.279,0.504,6.234
	c0.133,2.271,0.198,4.492,0.193,6.603c-0.006,2.482-0.11,5.013-0.308,7.521c-0.2,2.535-0.496,5.064-0.88,7.518
	c-0.392,2.507-0.885,4.991-1.463,7.382c-0.287,1.186-0.599,2.366-0.928,3.509c-0.094,0.322-0.189,0.645-0.286,0.966
	c-0.382,1.261-0.794,2.508-1.227,3.706c-0.446,1.237-0.932,2.462-1.443,3.639c-0.468,1.074-0.965,2.121-1.478,3.11
	c-0.671,1.292-1.346,2.441-2.063,3.513c-0.407,0.606-0.802,1.15-1.208,1.664c-0.445,0.562-0.882,1.062-1.337,1.527
	c-0.577,0.592-1.141,1.083-1.723,1.501c-0.355,0.254-0.688,0.464-1.02,0.643c-0.381,0.205-0.751,0.366-1.131,0.494
	c-0.417,0.14-0.835,0.232-1.242,0.273c-0.176,0.018-0.354,0.027-0.531,0.027c-0.22,0-0.439-0.014-0.656-0.043
	c-0.435-0.058-0.878-0.18-1.32-0.364c-0.375-0.157-0.743-0.36-1.128-0.621c-0.307-0.209-0.617-0.456-0.947-0.754
	c-0.506-0.456-0.994-0.974-1.535-1.63c-0.229-0.279-0.451-0.56-0.667-0.844c-0.518,0.257-1.155,0.479-1.811,0.684
	c-0.733,0.23-1.515,0.451-2.389,0.672c-1.304,0.331-2.703,0.637-4.276,0.937c-1.375,0.262-2.813,0.508-4.395,0.752
	c-1.404,0.217-2.812,0.414-4.223,0.599c-1.436,0.188-2.874,0.362-4.312,0.527c-2.47,0.283-5.042,0.548-7.863,0.812
	c-2.071,0.196-4.143,0.378-6.218,0.552l-0.045,0.004L229.685,184.326z"/>
<path fill="#4E66B0" d="M229.747,184.29c2.074-0.174,4.146-0.356,6.217-0.552c2.624-0.246,5.244-0.513,7.861-0.812
	c1.438-0.165,2.875-0.339,4.311-0.527c1.41-0.185,2.817-0.382,4.221-0.599c1.47-0.227,2.934-0.474,4.392-0.752
	c1.438-0.274,2.859-0.578,4.272-0.936c0.804-0.204,1.597-0.423,2.385-0.671c0.64-0.2,1.27-0.418,1.89-0.659
	c0.215,0.284,0.436,0.564,0.665,0.842c0.471,0.572,0.964,1.115,1.527,1.623c0.296,0.267,0.604,0.519,0.939,0.748
	c0.35,0.237,0.717,0.447,1.115,0.614c0.41,0.171,0.852,0.299,1.302,0.359c0.386,0.052,0.782,0.055,1.169,0.016
	c0.421-0.043,0.832-0.138,1.226-0.27c0.392-0.131,0.764-0.297,1.12-0.489c0.354-0.191,0.688-0.406,1.012-0.638
	c0.626-0.45,1.189-0.955,1.714-1.493c0.475-0.486,0.916-0.996,1.332-1.522c0.427-0.539,0.826-1.094,1.205-1.659
	c0.76-1.135,1.438-2.31,2.059-3.506c0.53-1.021,1.02-2.058,1.476-3.105c0.521-1.199,1-2.412,1.441-3.635
	c0.443-1.226,0.85-2.46,1.226-3.702c0.097-0.321,0.192-0.643,0.285-0.965c0.335-1.163,0.644-2.332,0.928-3.506
	c0.591-2.441,1.075-4.903,1.462-7.376c0.391-2.494,0.682-5,0.88-7.512c0.197-2.501,0.301-5.008,0.308-7.515
	c0.005-2.2-0.064-4.402-0.193-6.599c-0.122-2.081-0.296-4.156-0.504-6.231c-0.207-2.071-0.446-4.14-0.703-6.207
	c-0.126-1.021-0.258-2.041-0.391-3.062c-0.131-1.002-0.266-2.004-0.398-3.006c-0.271-2.022-0.543-4.045-0.803-6.068
	c-0.265-2.068-0.517-4.139-0.737-6.211c-0.217-2.041-0.405-4.088-0.541-6.135c-0.062-0.953-0.115-1.906-0.152-2.86
	c-0.025-0.648-0.044-1.297-0.056-1.946c-0.025-1.287-0.025-2.575-0.004-3.862c0.042-2.585,0.169-5.171,0.348-7.751
	c0.001-0.026,0.002-0.052,0.002-0.077c-0.751,0-1.502-0.001-2.252-0.002c-0.179,2.596-0.306,5.193-0.348,7.794
	c-0.021,1.313-0.021,2.628,0.005,3.942c0.013,0.663,0.032,1.327,0.058,1.99c0.038,0.974,0.091,1.948,0.155,2.921
	c0.138,2.079,0.328,4.151,0.548,6.224c0.222,2.09,0.475,4.175,0.743,6.26c0.26,2.027,0.534,4.054,0.805,6.08
	c0.133,1,0.266,2,0.397,3c0.133,1.016,0.263,2.031,0.389,3.047c0.255,2.049,0.492,4.101,0.697,6.153
	c0.204,2.044,0.377,4.092,0.497,6.141c0.126,2.151,0.194,4.304,0.189,6.458c-0.006,2.45-0.108,4.902-0.301,7.347
	c-0.193,2.453-0.478,4.902-0.859,7.34c-0.377,2.41-0.85,4.812-1.427,7.194c-0.327,1.351-0.688,2.696-1.085,4.033
	c-0.032,0.105-0.063,0.21-0.095,0.315c-0.364,1.203-0.758,2.401-1.188,3.588c-0.426,1.178-0.887,2.348-1.389,3.503
	c-0.435,0.999-0.902,1.991-1.409,2.966c-0.581,1.119-1.22,2.229-1.932,3.29c-0.346,0.516-0.712,1.024-1.101,1.517
	c-0.366,0.463-0.758,0.917-1.176,1.346c-0.43,0.44-0.906,0.87-1.419,1.239c-0.242,0.174-0.499,0.339-0.766,0.483
	c-0.242,0.13-0.5,0.247-0.766,0.336c-0.238,0.08-0.488,0.139-0.742,0.165c-0.214,0.022-0.428,0.021-0.641-0.008
	c-0.255-0.034-0.496-0.105-0.728-0.203c-0.255-0.107-0.499-0.247-0.721-0.399c-0.248-0.169-0.485-0.362-0.703-0.56
	c-0.469-0.423-0.906-0.908-1.298-1.385c-0.097-0.117-0.193-0.236-0.288-0.355c0.053-0.027,0.106-0.056,0.159-0.083
	c0.678-0.359,1.33-0.758,1.941-1.194c0.619-0.44,1.202-0.922,1.745-1.432c0.281-0.264,0.553-0.536,0.814-0.814
	c0.54-0.575,1.04-1.177,1.51-1.796c0.533-0.703,1.026-1.43,1.487-2.17c0.465-0.747,0.896-1.509,1.306-2.28
	c0.407-0.771,0.789-1.552,1.149-2.34c0.356-0.779,0.691-1.564,1.009-2.355c0.184-0.457,0.362-0.916,0.534-1.377
	c0.413-1.102,0.793-2.211,1.148-3.327c0.515-1.622,0.975-3.257,1.386-4.901c0.408-1.631,0.77-3.27,1.083-4.915
	c0.427-2.234,0.771-4.481,1.025-6.735c0.254-2.239,0.423-4.486,0.512-6.735c0.09-2.282,0.102-4.568,0.038-6.852
	c-0.06-2.263-0.188-4.523-0.366-6.781c-0.176-2.235-0.4-4.468-0.655-6.698c-0.311-2.714-0.66-5.424-1.021-8.134
	c-0.378-2.856-0.765-5.713-1.125-8.571c-0.379-3.008-0.729-6.019-1.021-9.034c-0.213-2.205-0.396-4.412-0.541-6.621
	c-0.146-2.204-0.252-4.41-0.317-6.617c-0.75-0.001-1.5-0.001-2.25-0.002c0,0.012,0,0.022,0,0.034
	c0.066,2.245,0.174,4.49,0.321,6.732c0.146,2.232,0.332,4.463,0.547,6.69c0.294,3.037,0.646,6.068,1.028,9.099
	c0.36,2.863,0.748,5.724,1.127,8.585c0.354,2.696,0.707,5.394,1.014,8.094c0.25,2.204,0.473,4.411,0.647,6.62
	c0.175,2.219,0.301,4.441,0.358,6.664c0.062,2.234,0.051,4.47-0.037,6.703c-0.087,2.194-0.251,4.387-0.499,6.571
	c-0.25,2.197-0.583,4.387-1,6.565c-0.307,1.604-0.659,3.203-1.057,4.792c-0.4,1.598-0.847,3.189-1.348,4.766
	c-0.427,1.346-0.896,2.685-1.411,4.007c-0.071,0.181-0.143,0.36-0.214,0.54c-0.306,0.758-0.626,1.512-0.968,2.258
	c-0.342,0.749-0.706,1.493-1.093,2.226c-0.382,0.724-0.79,1.44-1.226,2.141c-0.425,0.682-0.88,1.354-1.371,2.002
	c-0.421,0.555-0.872,1.098-1.356,1.613c-0.229,0.244-0.468,0.483-0.714,0.715c-0.471,0.442-0.974,0.856-1.51,1.239
	c-0.535,0.38-1.1,0.726-1.691,1.038c-0.254,0.134-0.513,0.263-0.774,0.385c-0.316-0.047-0.558,0.011-0.818,0.196
	c-0.106,0.076-0.195,0.164-0.27,0.272c-0.628,0.25-1.271,0.474-1.921,0.678c-0.745,0.234-1.502,0.443-2.264,0.636
	c-1.366,0.347-2.752,0.642-4.143,0.907c-1.431,0.273-2.87,0.516-4.312,0.738c-1.387,0.214-2.777,0.409-4.17,0.592
	c-1.423,0.187-2.848,0.358-4.272,0.521c-2.604,0.298-5.208,0.562-7.817,0.808c-2.238,0.211-4.479,0.407-6.72,0.595
	c-0.171,0.014-0.32,0.061-0.468,0.146C228.958,182.923,229.353,183.606,229.747,184.29z"/>
<path fill="#4E66B0" d="M371.742,237.312c-9.51-6.019-16.289-13.749-20.149-22.976c-0.503,0.874-1.03,1.736-1.565,2.565
	c-2.182,3.38-4.731,6.546-7.576,9.41c-1.824,1.836-3.815,3.59-5.917,5.212c-0.79,0.609-1.597,1.202-2.399,1.762
	c-1.062,0.743-2.247,1.524-3.728,2.459c-1.034-0.133-2.021-0.262-3.009-0.375l-0.072-0.008l0.009-0.072
	c0.05-0.422,0.222-0.681,0.591-0.894c1.685-0.971,3.312-2.005,4.836-3.072c0.803-0.562,1.58-1.132,2.31-1.696
	c2.022-1.563,3.934-3.247,5.68-5.006c2.723-2.739,5.167-5.773,7.264-9.02c1.995-3.09,3.728-6.453,5.151-9.997
	c0.982-2.444,1.84-5.032,2.55-7.693l-0.042-0.053c-0.313-0.686-0.179-1.126,0.463-1.52c0.104-0.511,0.231-1.066,0.354-1.623
	c0.789-3.603,1.352-7.443,1.672-11.415c0.293-3.678,0.386-7.561,0.275-11.54c-0.087-3.139-0.302-6.403-0.64-9.699l-0.072-0.688
	c-0.046-0.432-0.093-0.863-0.145-1.293c-0.097-0.8-0.206-1.6-0.333-2.397c-0.129-0.79-0.273-1.577-0.434-2.361
	c-0.169-0.823-0.355-1.646-0.557-2.464c-0.38-1.533-0.817-3.104-1.336-4.802c-0.271-0.881-0.549-1.758-0.836-2.634
	c-0.518-1.572-1.061-3.14-1.621-4.701c-1.024-2.856-2.191-5.939-3.568-9.425l-0.905-2.282c-0.797-2.004-1.594-4.008-2.352-6.023
	c-0.498-1.324-0.981-2.655-1.442-3.99c-0.482-1.392-0.931-2.766-1.334-4.084c-0.861-2.81-1.581-5.581-2.139-8.237
	c-0.501-2.39-0.864-4.615-1.108-6.804c-0.122-1.104-0.212-2.188-0.268-3.224c-0.029-0.543-0.05-1.086-0.061-1.63
	c-0.011-0.499-0.014-1-0.009-1.499c0.019-2.139,0.166-4.232,0.291-5.817c0.074-0.929,0.155-1.858,0.237-2.788
	c0.092-1.052,0.185-2.104,0.265-3.157c0.072-0.948,0.135-1.896,0.179-2.843c0.045-1.021,0.065-1.935,0.062-2.794l0-0.072
	l0.072-0.005l2.321,0.001l0,0.071c0.007,0.891-0.014,1.842-0.063,2.909c-0.047,0.974-0.112,1.942-0.187,2.915
	c-0.083,1.086-0.178,2.173-0.273,3.259c-0.079,0.897-0.157,1.795-0.229,2.693c-0.181,2.287-0.269,4.029-0.284,5.648
	c-0.004,0.477-0.001,0.952,0.009,1.428c0.011,0.519,0.03,1.036,0.058,1.553c0.053,0.997,0.139,2.035,0.257,3.086
	c0.234,2.106,0.584,4.258,1.072,6.578c0.542,2.579,1.243,5.279,2.084,8.027c0.396,1.291,0.835,2.638,1.307,4.005
	c0.454,1.314,0.929,2.622,1.419,3.927c0.76,2.019,1.56,4.029,2.358,6.038l0.886,2.233c1.418,3.594,2.561,6.611,3.595,9.495
	c0.61,1.698,1.146,3.255,1.642,4.761c0.293,0.891,0.578,1.785,0.852,2.681c0.545,1.78,0.994,3.393,1.372,4.93
	c0.209,0.849,0.404,1.699,0.579,2.554c0.167,0.818,0.319,1.643,0.45,2.465c0.132,0.827,0.245,1.657,0.345,2.485
	c0.053,0.441,0.103,0.882,0.15,1.322l0.097,0.937c0.33,3.287,0.541,6.533,0.627,9.646c0.113,4.071,0.018,8.04-0.284,11.796
	c-0.327,4.078-0.905,8.027-1.72,11.738c-0.184,0.838-0.382,1.675-0.594,2.509c2.749,5.936,5.173,10.911,8.06,15.746
	c3.428,5.74,6.598,9.906,11.803,12.938l0.062,0.036l-1.162,2.009h-0.02l-0.083,0.025c-9.407-5.476-15.568-18.552-19.65-27.243
	c-0.554,1.792-1.178,3.556-1.857,5.248c-0.71,1.765-1.5,3.503-2.349,5.166c0.058,0.014,0.107,0.105,0.146,0.205
	c3.597,9.474,10.26,17.345,19.803,23.395l-0.541,1.073l-0.597,1.032L371.742,237.312z"/>
<path fill="#4E66B0" d="M371.782,237.252c0.012,0.008,0.025,0.016,0.038,0.023c0.376-0.649,0.751-1.3,1.127-1.949
	c-8.979-5.691-15.984-13.296-19.832-23.43c-0.036-0.095-0.083-0.181-0.142-0.263c0.864-1.692,1.645-3.416,2.346-5.16
	c0.716-1.783,1.351-3.593,1.91-5.42c4.12,8.771,10.252,21.88,19.701,27.38c0.001,0,0.002,0.001,0.003,0.001
	c0.375-0.648,0.751-1.298,1.126-1.947c-5.507-3.207-8.71-7.74-11.829-12.963c-3.045-5.1-5.592-10.42-8.068-15.801
	c0.212-0.834,0.41-1.67,0.594-2.507c0.85-3.873,1.403-7.797,1.718-11.728c0.315-3.922,0.393-7.859,0.284-11.789
	c-0.089-3.22-0.305-6.434-0.627-9.641c-0.032-0.312-0.064-0.624-0.097-0.936c-0.047-0.44-0.096-0.881-0.149-1.321
	c-0.1-0.828-0.213-1.657-0.345-2.483c-0.131-0.822-0.282-1.645-0.449-2.462c-0.175-0.854-0.369-1.704-0.578-2.552
	c-0.407-1.653-0.871-3.292-1.371-4.926c-0.274-0.896-0.558-1.789-0.851-2.68c-0.524-1.594-1.073-3.178-1.641-4.759
	c-1.141-3.182-2.35-6.341-3.594-9.493c-1.088-2.756-2.203-5.505-3.245-8.272c-0.491-1.306-0.966-2.614-1.42-3.929
	c-0.459-1.33-0.897-2.665-1.308-4.007c-0.812-2.653-1.518-5.332-2.086-8.034c-0.458-2.18-0.828-4.379-1.073-6.585
	c-0.115-1.027-0.202-2.058-0.257-3.09c-0.028-0.518-0.047-1.036-0.058-1.556c-0.01-0.477-0.013-0.953-0.009-1.43
	c0.017-1.883,0.135-3.776,0.284-5.654c0.158-1.984,0.351-3.967,0.502-5.951c0.074-0.972,0.139-1.94,0.187-2.913
	c0.045-0.968,0.071-1.936,0.063-2.905c-0.75,0-1.5-0.001-2.25-0.001c0,0.001,0,0.003,0,0.005c0.004,0.933-0.021,1.866-0.062,2.798
	c-0.044,0.948-0.107,1.897-0.179,2.845c-0.152,1.982-0.345,3.963-0.502,5.945c-0.154,1.939-0.274,3.868-0.291,5.812
	c-0.004,0.499-0.002,0.999,0.009,1.497c0.011,0.543,0.032,1.086,0.061,1.628c0.058,1.075,0.149,2.148,0.268,3.22
	c0.254,2.28,0.634,4.544,1.107,6.797c0.582,2.768,1.304,5.512,2.137,8.231c0.418,1.367,0.864,2.727,1.333,4.082
	c0.461,1.334,0.944,2.664,1.442,3.988c1.046,2.779,2.165,5.537,3.257,8.304c1.236,3.13,2.436,6.267,3.569,9.427
	c0.56,1.562,1.104,3.13,1.621,4.703c0.288,0.876,0.565,1.754,0.837,2.635c0.487,1.593,0.938,3.194,1.337,4.806
	c0.202,0.819,0.389,1.642,0.558,2.466c0.161,0.786,0.305,1.574,0.435,2.365c0.127,0.798,0.236,1.598,0.333,2.399
	c0.052,0.431,0.1,0.862,0.146,1.294c0.024,0.229,0.049,0.459,0.072,0.689c0.33,3.228,0.55,6.467,0.64,9.705
	c0.107,3.849,0.031,7.706-0.275,11.547c-0.309,3.828-0.847,7.653-1.673,11.425c-0.123,0.557-0.251,1.113-0.387,1.669
	c-0.611,0.374-0.734,0.776-0.436,1.428c0.016,0.034,0.031,0.067,0.046,0.102c-0.694,2.604-1.539,5.181-2.552,7.702
	c-1.386,3.45-3.098,6.819-5.158,10.009c-2.072,3.208-4.504,6.246-7.273,9.032c-1.766,1.777-3.668,3.451-5.688,5.012
	c-0.754,0.582-1.525,1.147-2.312,1.698c-1.558,1.09-3.175,2.114-4.842,3.075c-0.35,0.201-0.508,0.439-0.556,0.84
	c0.989,0.113,1.977,0.242,2.962,0.385c1.277-0.805,2.519-1.612,3.726-2.457c0.814-0.569,1.613-1.156,2.396-1.76
	c2.1-1.621,4.076-3.36,5.91-5.206c2.879-2.898,5.413-6.062,7.567-9.398c0.571-0.884,1.116-1.781,1.636-2.689
	C355.695,224.042,362.93,231.649,371.782,237.252z"/>
</svg>
