<?xml version="1.0" encoding="utf-8"?>
<!-- Generator: Adobe Illustrator 16.0.4, SVG Export Plug-In . SVG Version: 6.00 Build 0)  -->
<!DOCTYPE svg PUBLIC "-//W3C//DTD SVG 1.1//EN" "http://www.w3.org/Graphics/SVG/1.1/DTD/svg11.dtd">
<svg version="1.1" id="Layer_1" xmlns="http://www.w3.org/2000/svg" xmlns:xlink="http://www.w3.org/1999/xlink" x="0px" y="0px"
	 width="5184px" height="576px" viewBox="0 0 5184 576" enable-background="new 0 0 5184 576" xml:space="preserve">
<path fill="#4E66B0" d="M293.481,452.081c-2.149-8.038-5.021-15.88-7.799-23.464c-2.654-7.247-5.398-14.74-7.448-22.349
	c-1.771-6.575-3.815-16.193-1.127-23.784c2.629-7.419,9.827-12.153,17.215-16.165c3.058-1.66,6.202-3.28,9.242-4.848
	c3.983-2.054,8.103-4.177,12.077-6.414c6.103-3.438,12.466-7.285,20.631-12.476l2.697-1.72
	c12.884-8.221,25.054-15.986,40.197-19.877l0.231,0.294l1.03,1.791l-0.062,0.036c-0.096,0.056-0.195,0.096-0.305,0.124
	c-15.296,3.867-28.994,12.647-42.241,21.139c-3.57,2.288-6.942,4.449-10.357,6.526c-0.074,3.875-7.191,8.254-10.231,10.124
	l-2.022,1.26c-3.791,2.371-7.711,4.822-11.787,6.895l-0.924,0.466c-1.945,0.977-3.957,1.987-5.744,3.37
	c-1.614,1.251-2.651,2.892-3.654,4.479c-0.332,0.524-0.665,1.051-1.019,1.567c-2.021,2.948-4.883,3.812-7.65,4.647
	c-1.963,0.593-3.993,1.205-5.675,2.564c-0.074,0.059-0.148,0.105-0.228,0.145c-1.722,10.019,3.584,24.982,6.435,33.021
	c0.876,2.471,1.773,4.932,2.67,7.393c2.936,8.057,5.972,16.388,8.169,24.883c0.026,0.102,0.038,0.2,0.038,0.3v0.072H293.481z
	 M323.81,353.094c-7.684,4.56-15.63,8.715-23.771,12.923l-1.021,0.525c-6.603,3.394-16.558,8.511-19.551,16.462
	c1.377-0.684,2.841-1.124,4.259-1.551c0.693-0.209,1.387-0.418,2.073-0.654c2.858-0.987,3.579-1.854,5.064-4.28
	c3.083-5.031,5.041-6.205,10.249-8.858C304.784,365.79,320.045,357.084,323.81,353.094z"/>
<path fill="#4E66B0" d="M379.183,321.055c-16.203,4.163-29.237,12.917-42.874,21.588c-6.786,4.314-13.623,8.529-20.634,12.478
	c-7.009,3.945-14.256,7.428-21.32,11.263c-6.437,3.495-14.399,8.273-17.181,16.126c-2.624,7.409-0.742,16.798,1.129,23.741
	c4.194,15.567,11.11,30.142,15.178,45.759c0.762,0,1.525,0,2.287,0c0-0.096-0.012-0.188-0.036-0.282
	c-2.855-11.041-7.043-21.569-10.837-32.269c-3.072-8.662-8.144-23.133-6.399-33.11c0.077-0.038,0.147-0.083,0.214-0.136
	c4.055-3.276,9.864-2.169,13.311-7.197c1.449-2.111,2.54-4.397,4.688-6.062c2.07-1.603,4.383-2.677,6.68-3.844
	c4.604-2.341,8.925-5.113,13.292-7.835c2.479-1.542,10.628-6.292,10.743-10.44c16.25-9.884,33.239-22.774,52.617-27.673
	c0.102-0.026,0.196-0.064,0.287-0.117C379.947,322.379,379.565,321.717,379.183,321.055z M301.144,367.725
	c-5.136,2.616-7.109,3.753-10.22,8.832c-1.523,2.486-2.269,3.331-5.103,4.311c-2.167,0.747-4.409,1.218-6.486,2.283
	c3.076-8.495,13.979-13.74,20.67-17.198c8.152-4.213,16.275-8.455,24.166-13.157C321.052,356.567,305.19,365.664,301.144,367.725z"
	/>
<path fill="#4E66B0" d="M134.821,522.803v-0.072c0-0.196,0.041-0.368,0.128-0.541c1.938-3.825,4.049-7.635,6.091-11.319
	c3.027-5.462,6.158-11.109,8.782-16.917c3.927-8.695,7.83-20.045,3.117-30.724c-0.142-0.161-0.227-0.346-0.262-0.583
	c-4.851-10.375-15.238-17.763-23.096-22.129c-2.578-1.432-5.231-2.829-7.797-4.181c-2.192-1.154-4.384-2.309-6.557-3.497
	c-2.472-1.354-4.937-2.724-7.4-4.092c-2.28-1.267-4.559-2.532-6.844-3.786c-0.449-0.012-0.728-0.171-0.968-0.544
	c-13.35-7.302-29.492-15.451-47.796-20.341c-0.103-0.024-0.199-0.064-0.292-0.121l-0.06-0.037l1.182-2.041
	c18.577,4.941,35.002,13.256,48.63,20.732c9.621,0.529,21.34,7.433,29.897,12.474c1.03,0.606,2.009,1.185,2.93,1.717
	c2.51,1.451,5.867,3.293,9.587,4.661c1.182,0.434,2.4,0.825,3.578,1.203c2.151,0.69,4.376,1.405,6.475,2.41
	c3.278,1.571,5.215,3.592,5.758,6.004c0.693,3.081-0.827,6.868-4.647,11.578c4.803,11.146,1.001,22.621-2.846,31.364
	c-2.707,6.148-6.002,12.092-9.188,17.839c-1.968,3.551-4.003,7.222-5.879,10.902l-0.02,0.04H134.821z M108.752,426.521
	c3.813,2.117,7.756,4.307,11.664,6.407c1.346,0.723,2.7,1.431,4.054,2.138c2.945,1.539,5.99,3.13,8.9,4.864
	c5.479,3.26,15.444,10.222,20.767,20.28c2.962-3.885,4.005-6.581,3.383-8.737c-0.599-2.075-2.777-3.745-6.855-5.257
	c-1.272-0.473-2.584-0.9-3.852-1.314c-1.674-0.545-3.404-1.109-5.069-1.786c-3.235-1.31-6.207-2.958-8.435-4.247
	c-0.728-0.421-1.507-0.877-2.329-1.356c-6.787-3.965-16.013-9.354-22.925-11.379L108.752,426.521z"/>
<path fill="#4E66B0" d="M154.115,445.141c-3.243-1.554-6.707-2.385-10.047-3.611c-3.372-1.24-6.501-2.875-9.599-4.666
	c-8.481-4.911-22.019-13.588-32.826-14.189c-15.573-8.544-31.204-16.099-48.533-20.76c-0.381,0.661-0.764,1.322-1.146,1.98
	c0.086,0.053,0.175,0.09,0.272,0.113c17.079,4.562,32.49,11.965,47.838,20.371c0.228,0.354,0.484,0.5,0.905,0.516
	c0.012,0,0.024,0.004,0.037,0.004c4.755,2.61,9.486,5.271,14.245,7.878c4.76,2.604,9.609,5.043,14.354,7.679
	c8.879,4.934,18.567,12.411,23.132,22.181c0.033,0.222,0.112,0.396,0.257,0.564c4.609,10.444,1.044,21.568-3.117,30.782
	c-4.396,9.729-10.064,18.744-14.874,28.239c-0.083,0.164-0.121,0.325-0.121,0.509c0.795,0,1.591,0,2.387,0
	c4.911-9.64,10.688-18.794,15.065-28.738c4.205-9.557,7.417-20.701,2.855-31.38C160.398,456.204,163.105,449.449,154.115,445.141z
	 M154.125,460.344c-4.494-8.56-12.78-15.584-20.792-20.352c-4.224-2.517-8.628-4.678-12.951-7
	c-4.324-2.324-8.611-4.713-12.902-7.095c7.82,2.108,19.092,8.989,25.864,12.909c2.731,1.581,5.493,3.056,8.426,4.243
	c2.924,1.188,5.967,2.002,8.919,3.1C159.385,449.372,159.489,453.346,154.125,460.344z"/>
<path fill="#4E66B0" d="M165.106,522.805v-0.072c0-0.055,0.003-0.104,0.01-0.153c2.524-20.013,11.571-40.648,19.553-58.855
	l1.697-3.872c3.966-9.049,8.067-18.405,11.118-28.041c2.942-9.282,6.137-22.598-0.051-31.026
	c-5.822-7.932-20.887-10.229-28.981-11.463l-0.243-0.037c-4.112-0.626-8.305-1.168-12.36-1.691
	c-6.412-0.828-13.043-1.685-19.52-2.897c-22.213-4.159-40.68-12.51-58.114-26.281l0.299-0.643l0.85-1.471l0.062,0.035
	c0.051,0.029,0.1,0.062,0.146,0.098c17.476,13.837,36.122,22.155,58.679,26.177c5.923,1.059,11.984,1.841,17.846,2.597
	c4.702,0.606,9.563,1.233,14.326,2c8.043,1.293,23.013,3.698,29.173,12.485c6.35,9.058,3.379,22.305,0.593,31.48
	c-3.041,10.016-7.277,19.692-11.374,29.051l-1.903,4.344c-7.919,18.058-16.895,38.523-19.403,58.174l-0.008,0.063H165.106z"/>
<path fill="#4E66B0" d="M79.526,356.49c-0.043-0.034-0.088-0.064-0.136-0.092c-0.377,0.65-0.754,1.306-1.131,1.959
	c17.646,13.938,36.021,22.137,58.083,26.268c10.571,1.979,21.264,2.972,31.878,4.588c8.051,1.229,23.373,3.493,29.271,11.528
	c6.393,8.708,2.705,22.749,0.062,31.091c-3.257,10.286-7.625,20.061-11.934,29.903c-8.139,18.586-17.814,40.104-20.432,60.854
	c-0.006,0.047-0.009,0.093-0.009,0.144c0.753,0,1.506,0,2.259,0c2.658-20.826,12.638-42.708,20.792-61.352
	c4.346-9.934,8.724-19.802,11.89-30.229c2.693-8.868,5.792-22.325-0.583-31.419c-6.043-8.62-20.514-11.071-29.125-12.455
	c-10.7-1.722-21.497-2.688-32.174-4.597C115.919,378.702,97.356,370.607,79.526,356.49z"/>
<path fill="#4E66B0" d="M99.793,522.799v-0.072c1.208-20.544-3.933-39.99-15.279-57.864c-10.863-17.114-28.117-33.229-43.956-41.056
	l-0.069-0.034l-0.023-0.101l1.126-1.951c16.308,8.004,33.933,24.477,44.995,41.937c11.575,18.267,16.826,38.143,15.604,59.075
	l-0.004,0.068L99.793,522.799z"/>
<path fill="#4E66B0" d="M102.119,522.729c1.246-21.357-4.202-41.058-15.593-59.033c-10.202-16.102-27.482-33.323-44.872-41.938
	c-0.375,0.65-0.751,1.3-1.126,1.951c0.021,0.012,0.042,0.023,0.062,0.034c17.021,8.41,33.999,25.349,43.985,41.081
	c11.183,17.617,16.526,36.896,15.292,57.84c-0.001,0.021-0.002,0.044-0.002,0.063C100.618,522.729,101.368,522.729,102.119,522.729z
	"/>
<path fill="#4E66B0" d="M120.175,522.659c0.733-12.145-0.993-22.767-5.432-33.431c-4.078-9.796-9.734-19.034-17.799-29.075
	c-14.384-17.91-33.524-33.604-52.512-43.057l-0.068-0.034l-0.022-0.1l1.126-1.95c19.471,9.632,38.957,25.646,53.556,43.908
	c8.197,10.254,13.934,19.689,18.054,29.693c4.485,10.89,6.229,21.73,5.488,34.118l-2.393,0.07L120.175,522.659z"/>
<path fill="#4E66B0" d="M122.494,522.729c0.72-12.028-0.869-22.887-5.482-34.087c-4.515-10.961-10.696-20.483-18.044-29.676
	c-14.062-17.59-33.146-33.801-53.438-43.917c-0.375,0.65-0.751,1.3-1.126,1.95c0.02,0.012,0.04,0.022,0.061,0.033
	c19.934,9.924,38.689,25.835,52.536,43.076c7.235,9.008,13.335,18.346,17.809,29.093c4.575,10.99,6.151,21.637,5.437,33.461
	c-0.001,0.021-0.002,0.045-0.002,0.068C120.993,522.729,121.744,522.729,122.494,522.729z"/>
<path fill="#4E66B0" d="M145.779,522.801v-0.072c0-0.121,0.019-0.242,0.056-0.362c2.744-8.646,6.26-17.133,9.661-25.339
	c2.874-6.935,5.845-14.105,8.334-21.335c2.459-7.145,5.488-17.446,3.4-24.392c-1.437-4.779-4.239-6.505-8.295-7.739
	c-2.138-0.653-4.352-1.134-6.493-1.6c-2.038-0.442-4.145-0.9-6.185-1.505c-6.714-1.989-12.638-5.477-18.366-8.85
	c-1.315-0.774-2.632-1.55-3.962-2.311c-7.734-4.425-14.712-8.699-21.332-13.066l-0.282-0.187
	c-14.085-9.297-27.39-18.078-43.926-22.68c-0.1-0.025-0.192-0.063-0.279-0.117l-0.06-0.037l1.179-2.039
	c16.801,4.668,30.264,13.548,44.519,22.948l0.449,0.296c6.353,4.191,13.437,8.518,21.657,13.226c1.086,0.622,2.164,1.251,3.24,1.879
	c6.066,3.539,12.339,7.2,19.518,9.116c1.551,0.413,3.146,0.752,4.688,1.079c2.367,0.502,4.815,1.021,7.166,1.824
	c4.71,1.608,7.663,4.538,9.027,8.958c2.287,7.405-0.63,17.748-3.022,24.884c-2.568,7.656-5.708,15.222-8.744,22.537
	c-3.339,8.045-6.792,16.363-9.496,24.832l-0.016,0.051H145.779z"/>
<path fill="#4E66B0" d="M148.16,522.729c5.164-16.175,12.85-31.298,18.24-47.37c2.236-6.668,5.349-17.304,3.022-24.84
	c-1.417-4.59-4.548-7.397-8.982-8.911c-3.878-1.324-7.917-1.854-11.848-2.902c-8.434-2.251-15.423-6.792-22.775-11.002
	c-7.347-4.208-14.59-8.562-21.661-13.228c-14.217-9.376-27.979-18.521-44.865-23.269c-0.381,0.66-0.762,1.32-1.144,1.979
	c0.083,0.051,0.169,0.086,0.261,0.109c16.659,4.636,30.221,13.63,44.229,22.875c6.966,4.597,14.085,8.921,21.328,13.064
	c7.241,4.142,14.098,8.72,22.313,11.153c4.181,1.24,8.503,1.83,12.678,3.104c4.343,1.322,6.97,3.221,8.343,7.788
	c2.175,7.233-1.229,18.126-3.401,24.436c-5.435,15.787-12.933,30.722-17.994,46.672c-0.035,0.112-0.053,0.226-0.053,0.341
	C146.623,522.729,147.392,522.729,148.16,522.729z"/>
<path fill="#4E66B0" d="M92.094,522.672c1.818-37.089-20.679-73.723-55.981-91.16l-0.069-0.034l-0.026-0.102l1.126-1.951
	c36.176,17.833,59.182,55.342,57.342,93.308c-0.823,0.068-1.572,0.068-2.321,0.072h-0.072L92.094,522.672z"/>
<path fill="#4E66B0" d="M94.415,522.729c1.911-39.445-22.738-76.204-57.208-93.268c-0.375,0.65-0.75,1.301-1.126,1.951
	c0.021,0.012,0.042,0.021,0.064,0.035c33.717,16.654,57.913,52.633,56.021,91.228c-0.001,0.021-0.001,0.037-0.001,0.058
	C92.914,522.729,93.664,522.729,94.415,522.729z"/>
<path fill="#4E66B0" d="M157.237,522.809v-0.072c0-0.092,0.01-0.182,0.031-0.274c1.914-8.177,4.502-16.398,7.913-25.135
	c1.038-2.658,2.145-5.338,3.216-7.93c2.224-5.382,4.523-10.946,6.323-16.615c6.675-21.028,2.277-34.177-15.18-45.384
	c-10.183-6.538-35.977-19.075-46.887-24.028c-18.389-8.347-34.024-14.319-49.204-18.795c-0.106-0.033-0.186-0.067-0.26-0.11
	l-0.062-0.036l1.177-2.042c17.005,4.976,34.581,11.848,55.392,21.594c8.616,4.035,17.568,8.488,26.606,13.235l2.366,1.235
	c8.062,4.201,15.681,8.171,22.167,14.863c-1.291-5.308-0.816-9.702,1.573-14.642c0.402-0.83,0.857-1.641,1.297-2.424
	c2.02-3.597,3.929-6.993-0.041-11.271c-2.897-3.121-7.957-5.513-13.536-6.396c-1.665-0.263-3.391-0.391-5.275-0.391
	c-3.084,0-6.066,0.336-9.223,0.692l-0.704,0.079c-3.541,0.399-7.344,0.77-11.157,0.77c-3.275,0-6.258-0.271-9.118-0.828
	c-6.038-1.175-12.104-3.374-19.09-6.918c-11.845-6.006-22.781-13.545-33.43-23.048l0.563-1.091l0.595-1.031l0.062,0.036
	c0.072,0.042,0.14,0.091,0.2,0.145c10.371,9.277,21.057,16.685,32.667,22.643c6.959,3.564,12.704,5.683,18.626,6.869
	c2.804,0.562,5.734,0.834,8.956,0.834c3.679,0,7.393-0.361,10.857-0.752l0.257-0.029c3.414-0.386,6.639-0.75,9.965-0.75
	c2.407,0,4.596,0.195,6.693,0.599c6.287,1.206,11.773,4.167,14.677,7.922c3.922,5.074,1.836,8.871-0.372,12.891
	c-0.487,0.887-0.99,1.803-1.435,2.744c-2.553,5.403-2.589,10.147-0.123,16.375c0.159,0.401,0.13,0.714-0.1,1.078
	c9.663,13.341,5.595,29.219,0.341,42.981c-1.82,4.767-3.476,8.823-4.938,12.401c-3.841,9.405-6.874,16.834-9.966,29.95l-0.013,0.056
	H157.237z"/>
<path fill="#4E66B0" d="M73.505,367.051c-0.058-0.052-0.12-0.097-0.188-0.136c-0.379,0.657-0.758,1.312-1.137,1.97
	c10.251,9.147,21.133,16.811,33.415,23.037c6.119,3.104,12.275,5.589,19.071,6.912c6.861,1.336,13.456,0.824,20.253,0.058
	c5.082-0.57,10.044-1.198,15.221-0.381c4.649,0.736,10.198,2.777,13.577,6.418c4.869,5.247,1.014,9.108-1.244,13.775
	c-2.421,5.006-2.865,9.466-1.503,14.854c-7.16-7.471-15.885-11.648-24.702-16.278c-8.773-4.607-17.628-9.03-26.603-13.233
	c-18-8.43-36.184-15.966-55.299-21.623c-0.38,0.659-0.76,1.317-1.141,1.979c0.078,0.045,0.158,0.076,0.245,0.104
	c16.946,4.997,33.163,11.514,49.213,18.799c11.027,5.006,36.633,17.444,46.896,24.033c18.311,11.755,21.578,25.403,15.21,45.466
	c-2.667,8.402-6.348,16.372-9.541,24.55c-3.208,8.218-5.897,16.527-7.909,25.125c-0.02,0.085-0.03,0.169-0.03,0.258
	c0.76,0,1.521,0,2.281,0c4.276-18.141,8.331-25.137,14.906-42.36c5.044-13.213,9.403-29.473-0.335-42.994
	c0.218-0.346,0.244-0.634,0.094-1.014c-2.302-5.812-2.629-10.604,0.125-16.433c2.459-5.202,6.569-9.407,1.814-15.56
	c-3.397-4.394-9.527-6.916-14.633-7.896c-5.75-1.104-11.24-0.457-16.894,0.182c-6.659,0.751-13.113,1.263-19.835-0.083
	c-6.651-1.332-12.665-3.812-18.645-6.875C94.188,383.546,83.534,376.022,73.505,367.051z"/>
<path fill="#4E66B0" d="M347.186,452.081v-0.072c0.89-20.085,5.465-39.819,12.884-55.62c4.711-10.028,9.708-17.278,16.2-23.509
	c6.602-6.336,14.244-10.649,24.777-13.986l1.257,2.067l-0.063,0.035c-0.083,0.047-0.163,0.082-0.242,0.107
	c-19.015,5.97-30.575,16.576-39.903,36.607c-7.195,15.453-11.64,34.737-12.515,54.301l-0.003,0.069H347.186z"/>
<path fill="#4E66B0" d="M401.068,358.962c-9.413,2.982-17.493,7.007-24.749,13.97c-7.141,6.853-12.033,14.651-16.185,23.487
	c-7.921,16.872-12.058,37.109-12.876,55.54c0,0.017-0.001,0.033-0.001,0.05c0.75,0,1.5,0,2.251,0
	c0.806-18.018,4.831-37.812,12.521-54.328c8.745-18.779,19.604-30.259,39.946-36.646c0.08-0.025,0.154-0.06,0.229-0.102
	C401.827,360.277,401.448,359.62,401.068,358.962z"/>
<path fill="#4E66B0" d="M262.452,452.077v-0.072c0.545-21.031-5.589-39.262-12.083-58.563l-0.983-2.924
	c-6.296-18.767-13.432-40.038-4.144-61.572c4.494-10.417,11.941-18.073,21.535-22.143c8.768-3.719,20.244-4.59,29.465-5.29
	l1.562-0.119c21.909-1.685,40.227-4.04,59.843-17.455l0.064-0.044l0.112,0.021l1.126,1.948
	c-20.012,13.742-38.702,16.181-59.315,17.788l-2.606,0.197c-8.872,0.664-19.914,1.49-28.205,4.705
	c-9.639,3.734-17.065,11.188-21.475,21.553c-8.811,20.703-1.776,41.593,4.432,60.023l0.684,2.033
	c6.65,19.747,12.932,38.399,12.381,59.844l-0.001,0.07H262.452z"/>
<path fill="#4E66B0" d="M357.761,283.952c-0.022,0.015-0.049,0.03-0.073,0.046c-19.465,13.312-37.53,15.749-59.878,17.468
	c-9.617,0.74-21.753,1.479-31.004,5.403c-10.03,4.254-17.271,12.308-21.498,22.104c-9.193,21.312-2.354,42.146,4.146,61.521
	c6.75,20.122,13.644,39.396,13.07,61.48c0,0.013,0,0.021,0,0.029c0.75,0,1.5,0,2.25,0c0.561-21.855-6.05-41.021-12.768-60.979
	c-6.378-18.949-13.683-39.896-4.724-60.948c4.159-9.773,11.387-17.667,21.516-21.592c9.122-3.537,21.431-4.176,30.831-4.907
	c22.105-1.722,40.103-4.603,59.259-17.679C358.512,285.253,358.136,284.603,357.761,283.952z"/>
<path fill="#4E66B0" d="M305.803,452.081c-1.844-6.098-4.063-12.094-6.209-17.894c-2.931-7.921-5.962-16.112-7.914-24.562
	c-3.64-15.763-2.732-27.87,13.02-39.506c4.526-3.345,9.485-6.063,14.281-8.693c1.642-0.9,3.284-1.801,4.915-2.728
	c6.083-3.456,11.987-7.394,17.696-11.202l1.158-0.772c11.649-7.77,24.319-15.702,39.818-19.843c0.463,0.694,0.845,1.355,1.231,2.016
	l0.036,0.062l-0.061,0.036c-0.089,0.054-0.183,0.092-0.295,0.122c-15.268,4.031-27.705,11.806-39.134,19.424l-1.641,1.095
	c-5.456,3.641-11.098,7.405-16.899,10.731c-1.836,1.055-3.692,2.071-5.548,3.088c-4.482,2.455-9.116,4.994-13.38,8.045
	c-15.596,11.152-16.402,22.998-12.648,38.497c1.951,8.059,4.854,15.91,7.66,23.502c2.183,5.906,4.441,12.015,6.235,18.178
	c0.032,0.107,0.048,0.22,0.048,0.332v0.072H305.803z"/>
<path fill="#4E66B0" d="M382.586,326.951c-14.891,3.979-27.271,11.479-39.797,19.833c-6.199,4.133-12.368,8.291-18.858,11.978
	c-6.475,3.681-13.145,6.95-19.188,11.416c-14.848,10.969-16.944,22.319-12.992,39.432c3.38,14.633,9.853,28.098,14.053,42.399
	c0.767,0,1.531,0,2.297,0c0-0.105-0.015-0.21-0.045-0.312c-4.1-14.083-10.425-27.349-13.896-41.684
	c-4.071-16.809-2.181-27.948,12.676-38.572c6.003-4.295,12.582-7.49,18.934-11.137c6.371-3.652,12.436-7.759,18.536-11.823
	c12.32-8.212,24.496-15.563,39.155-19.434c0.098-0.026,0.188-0.062,0.276-0.114C383.35,328.273,382.968,327.612,382.586,326.951z"/>
<path fill="#4E66B0" d="M315.983,452.081c-1.933-6.469-3.899-12.259-6.08-17.754c-0.261-0.657-0.524-1.312-0.788-1.966
	c-2.106-5.231-4.096-10.174-4.606-15.899c-0.85-9.526,3.539-20.697,13.416-34.153c0.17-0.536,0.362-1.09,0.568-1.64
	c0.206-0.555,0.506-0.791,1.004-0.791c0.088,0,0.183,0.007,0.286,0.021c8.351-10.914,19.354-21.793,29.365-29.073
	c11.598-8.431,23.601-13.647,37.772-16.415l0.05-0.01l1.217,2.113l-0.062,0.036c-0.116,0.067-0.238,0.113-0.373,0.139
	c-14.36,2.75-26.501,8.095-38.209,16.821c-10.122,7.548-21.416,19.013-29.473,29.922c-0.784,2.534-2.396,8.94-0.221,13.223
	c0.812,1.596,1.946,2.405,3.37,2.405c0.538,0,1.118-0.12,1.725-0.356c2.387-0.929,3.847-2.585,5.507-4.652
	c1.605-1.998,3.106-4.122,4.557-6.176c1.117-1.581,2.272-3.216,3.468-4.784c2.804-3.672,5.731-7.184,8.701-10.437
	c13.863-15.188,27.776-24.108,45.114-28.927l0.656,1.028l0.605,1.049l-0.063,0.035c-0.098,0.055-0.19,0.093-0.282,0.116
	c-17.201,4.734-31.003,13.632-44.75,28.847c-2.947,3.265-5.841,6.772-8.6,10.426c-1.052,1.395-2.072,2.848-3.059,4.253
	c-1.559,2.222-3.171,4.52-4.954,6.646c-2.856,3.409-5.938,5.287-8.675,5.287c-1.67,0-3.165-0.694-4.321-2.008
	c-2.01-2.281-2.845-6.253-2.306-10.931c-5.561,8.426-11.54,19.539-9.138,31.226c0.869,4.229,2.483,8.219,4.045,12.076
	c0.517,1.279,1.035,2.559,1.529,3.852c1.878,4.91,3.619,10.159,5.324,16.047c0.031,0.115,0.047,0.227,0.047,0.332v0.072H315.983z"/>
<path fill="#4E66B0" d="M386.934,334.481c-14.088,2.752-26.126,7.958-37.743,16.403c-10.555,7.676-21.495,18.788-29.418,29.086
	c-0.649-0.092-0.984,0.107-1.213,0.724c-0.205,0.549-0.397,1.102-0.577,1.657c-6.481,8.829-14.498,21.816-13.402,34.104
	c0.574,6.444,3.08,12.029,5.389,17.846c2.306,5.812,4.271,11.71,6.013,17.708c0.766,0,1.531,0,2.296,0
	c0-0.104-0.017-0.21-0.044-0.312c-1.569-5.42-3.306-10.771-5.322-16.042c-2.012-5.265-4.424-10.326-5.577-15.938
	c-2.408-11.716,3.437-22.668,9.317-31.534c-1.599,12.572,6.677,17.997,15.138,7.899c2.907-3.469,5.294-7.296,8.01-10.896
	c2.721-3.604,5.576-7.077,8.604-10.431c12.715-14.073,26.125-23.732,44.786-28.869c0.093-0.023,0.18-0.062,0.264-0.108
	c-0.381-0.66-0.763-1.32-1.144-1.98c-18.692,5.194-32.246,14.846-45.08,28.906c-3.058,3.35-5.945,6.827-8.697,10.432
	c-2.749,3.604-5.184,7.424-8.026,10.961c-1.568,1.952-3.05,3.706-5.537,4.675c-2.315,0.902-4.084,0.079-5.185-2.084
	c-1.957-3.852-0.908-9.646,0.227-13.298c7.801-10.562,18.928-22.062,29.488-29.937c11.726-8.74,23.876-14.084,38.238-16.834
	c0.126-0.024,0.24-0.066,0.351-0.131C387.706,335.818,387.32,335.15,386.934,334.481z"/>
<path fill="#4E66B0" d="M279.043,452.082l0-0.071c-0.227-21.018-5.692-40.06-11.008-55.916c-0.649-1.936-1.31-3.868-1.971-5.8
	c-0.876-2.562-1.752-5.122-2.601-7.692c-1.598-4.833-2.993-9.211-3.887-13.851c-0.954-4.96-0.807-9.49,0.462-14.257
	c1.224-4.596,3.21-8.797,6.075-12.845c21.492-30.382,78.193-33.662,101.573-33.662c1.384,0,2.725,0.012,4.013,0.032l1.317,2.214
	l-0.063,0.035c-0.193,0.109-0.382,0.16-0.595,0.16c-1.946-0.036-3.857-0.055-5.767-0.055c-18.52,0-34.993,1.807-50.361,5.522
	c-15.962,3.858-37.281,11.707-48.196,27.184c-2.875,4.074-4.741,8.137-5.874,12.784c-1.088,4.471-1.066,8.76,0.071,13.906
	c1.494,6.758,3.804,13.341,6.039,19.707c0.843,2.402,1.687,4.806,2.49,7.224c5.151,15.505,10.448,34.2,10.675,55.295l0.001,0.073
	l-0.073,0.012H279.043z"/>
<path fill="#4E66B0" d="M371.698,308.093c-29.312-0.473-84.576,3.984-105.526,33.6c-2.813,3.976-4.808,8.104-6.064,12.821
	c-1.283,4.817-1.401,9.337-0.461,14.225c0.912,4.735,2.376,9.279,3.884,13.842c1.49,4.509,3.062,8.989,4.572,13.492
	c6.14,18.314,10.799,36.303,11.011,55.938c0.75,0,1.5,0,2.25,0c0-0.004,0-0.008,0-0.012c-0.208-19.365-4.655-37.166-10.671-55.273
	c-2.971-8.938-6.482-17.668-8.531-26.938c-1.047-4.738-1.233-9.16-0.07-13.938c1.152-4.729,3.085-8.841,5.884-12.809
	c10.8-15.313,31.704-23.216,48.238-27.213c18.625-4.503,37.078-5.822,56.121-5.47c0.215,0.004,0.397-0.045,0.583-0.15
	C372.511,309.5,372.105,308.796,371.698,308.093z"/>
<path fill="#4E66B0" d="M271.292,452.081l0-0.071c-0.108-10.566-2.688-20.447-5.32-29.662c-1.246-4.359-2.586-8.77-3.882-13.035
	c-1.587-5.221-3.228-10.619-4.708-15.97c-2.2-7.947-4.877-18.494-6.068-29.616c-0.929-8.684-1.37-19.903,3.512-29.664
	c9.318-18.62,33.97-24.31,51.701-26.969c10.962-1.644,22.138-3.084,32.945-4.477c8.859-1.142,18.02-2.322,27.013-3.608l0.384,0.575
	l0.894,1.548l-0.062,0.036c-0.136,0.079-0.272,0.126-0.429,0.149c-9.291,1.333-18.753,2.556-27.905,3.737
	c-10.294,1.329-20.938,2.704-31.384,4.243c-17.774,2.624-42.416,8.188-51.162,26.135c-4.593,9.424-4.008,20.609-2.986,29.301
	c1.282,10.882,3.986,21.327,6.199,29.212c1.378,4.909,2.885,9.867,4.343,14.663c1.393,4.581,2.833,9.318,4.159,14.006
	c2.434,8.605,5.04,18.683,5.149,29.383l0.001,0.073l-0.073,0.011H271.292z"/>
<path fill="#4E66B0" d="M366.495,299.08c-19.965,2.855-40.01,5.094-59.958,8.085c-17.013,2.552-42.297,8.245-51.647,26.93
	c-4.646,9.288-4.545,19.904-3.505,29.624c1.082,10.106,3.366,19.853,6.065,29.604c2.691,9.721,5.82,19.309,8.591,29.005
	c2.789,9.763,5.217,19.352,5.322,29.681c0.75,0,1.5,0,2.25,0c0-0.004,0-0.008,0-0.011c-0.104-10.2-2.414-19.703-5.146-29.364
	c-2.712-9.594-5.808-19.068-8.502-28.669c-2.702-9.627-5.027-19.25-6.201-29.223c-1.113-9.458-1.466-20.194,2.992-29.341
	c8.999-18.465,34.76-23.745,51.217-26.175c19.731-2.907,39.549-5.147,59.289-7.98c0.146-0.021,0.275-0.066,0.403-0.141
	C367.274,300.43,366.885,299.755,366.495,299.08z"/>
<path fill="#4E66B0" d="M335.293,452.077v-0.072c0-0.052,0.003-0.107,0.01-0.161c2.819-20.336,9.388-44.041,16.734-60.392
	c5.127-11.412,10.299-19.562,16.769-26.426c7.308-7.754,15.605-12.498,26.904-15.383l1.056,1.725l0.206,0.356l-0.062,0.036
	c-0.096,0.056-0.196,0.097-0.307,0.124c-11.088,2.787-19.194,7.421-26.282,15.024c-6.267,6.722-11.29,14.721-16.286,25.938
	c-7.151,16.054-13.564,39.278-16.338,59.167l-0.009,0.062H335.293z"/>
<path fill="#4E66B0" d="M395.728,349.713c-10.705,2.733-19.192,7.217-26.869,15.363c-7.405,7.855-12.396,16.703-16.755,26.405
	c-7.857,17.486-14.11,41.479-16.729,60.372c-0.007,0.051-0.01,0.103-0.01,0.151c0.753,0,1.507,0,2.261,0
	c2.582-18.51,8.7-42.026,16.344-59.187c4.241-9.521,9.086-18.222,16.299-25.958c7.496-8.042,15.804-12.403,26.317-15.045
	c0.104-0.026,0.197-0.064,0.288-0.117C396.493,351.038,396.111,350.376,395.728,349.713z"/>
</svg>
