<?xml version="1.0" encoding="utf-8"?>
<!-- Generator: Adobe Illustrator 16.0.4, SVG Export Plug-In . SVG Version: 6.00 Build 0)  -->
<!DOCTYPE svg PUBLIC "-//W3C//DTD SVG 1.1//EN" "http://www.w3.org/Graphics/SVG/1.1/DTD/svg11.dtd">
<svg version="1.1" id="Layer_1" xmlns="http://www.w3.org/2000/svg" xmlns:xlink="http://www.w3.org/1999/xlink" x="0px" y="0px"
	 width="492.222px" height="362.575px" viewBox="0 0 492.222 362.575" enable-background="new 0 0 492.222 362.575"
	 xml:space="preserve">
<g id="Outline">
	<g id="Model::Bottom_Half::Sensor_FR1::Solid">
		
			<line fill="none" stroke="#BAAA7C" stroke-linecap="round" stroke-linejoin="round" x1="243.368" y1="153.151" x2="243.388" y2="153.187"/>
		
			<line fill="none" stroke="#BAAA7C" stroke-linecap="round" stroke-linejoin="round" x1="392.074" y1="239.276" x2="392.152" y2="239.142"/>
		
			<line fill="none" stroke="#BAAA7C" stroke-linecap="round" stroke-linejoin="round" x1="392.074" y1="239.276" x2="392.074" y2="239.276"/>
		
			<line fill="none" stroke="#BAAA7C" stroke-linecap="round" stroke-linejoin="round" x1="392.074" y1="239.276" x2="392.152" y2="239.142"/>
		
			<line fill="none" stroke="#BAAA7C" stroke-linecap="round" stroke-linejoin="round" x1="392.307" y1="67.431" x2="392.307" y2="67.431"/>
		
			<line fill="none" stroke="#BAAA7C" stroke-linecap="round" stroke-linejoin="round" x1="243.368" y1="153.151" x2="243.368" y2="153.151"/>
		
			<line fill="none" stroke="#BAAA7C" stroke-linecap="round" stroke-linejoin="round" x1="243.368" y1="153.151" x2="243.388" y2="153.187"/>
		<path fill="none" stroke="#BAAA7C" stroke-linecap="round" stroke-linejoin="round" d="M243.388,153.187
			c0.012,0.007,0.025,0.014,0.037,0.021"/>
		
			<line fill="none" stroke="#BAAA7C" stroke-linecap="round" stroke-linejoin="round" x1="293.013" y1="239.142" x2="293.013" y2="239.142"/>
		
			<line fill="none" stroke="#BAAA7C" stroke-linecap="round" stroke-linejoin="round" x1="243.388" y1="153.187" x2="243.388" y2="153.187"/>
		<path fill="none" stroke="#BAAA7C" stroke-linecap="round" stroke-linejoin="round" d="M243.388,153.187
			c0.012,0.007,0.025,0.014,0.037,0.021"/>
		
			<line fill="none" stroke="#BAAA7C" stroke-linecap="round" stroke-linejoin="round" x1="243.425" y1="153.208" x2="243.425" y2="153.208"/>
		
			<line fill="none" stroke="#BAAA7C" stroke-linecap="round" stroke-linejoin="round" x1="392.152" y1="239.142" x2="392.152" y2="239.142"/>
		
			<line fill="none" stroke="#BAAA7C" stroke-linecap="round" stroke-linejoin="round" x1="441.759" y1="153.354" x2="441.759" y2="153.354"/>
		
			<line fill="none" stroke="#BAAA7C" stroke-linecap="round" stroke-linejoin="round" x1="293.042" y1="67.38" x2="293.042" y2="67.38"/>
		<path fill="#D48ABB" d="M243.368,153.151l49.674-85.771c30.701,17.758,68.547,17.777,99.266,0.05l49.451,85.923
			c-30.656,17.699-49.559,50.39-49.605,85.789l-0.078,0.134l-99.061-0.134c0.008-35.446-18.896-68.205-49.589-85.934"/>
		
			<line fill="none" stroke="#BAAA7C" stroke-linecap="round" stroke-linejoin="round" x1="342.466" y1="239.209" x2="342.466" y2="239.209"/>
		
			<line fill="none" stroke="#BAAA7C" stroke-linecap="round" stroke-linejoin="round" x1="392.152" y1="239.142" x2="392.074" y2="239.276"/>
		
			<line fill="none" stroke="#BAAA7C" stroke-linecap="round" stroke-linejoin="round" x1="417.052" y1="110.426" x2="417.052" y2="110.426"/>
		
			<line fill="none" stroke="#BAAA7C" stroke-linecap="round" stroke-linejoin="round" x1="268.229" y1="110.224" x2="268.229" y2="110.224"/>
		
			<line fill="none" stroke="#BAAA7C" stroke-linecap="round" stroke-linejoin="round" x1="243.388" y1="153.187" x2="243.368" y2="153.151"/>
		<path fill="#4B77BB" d="M210.119,297.431h-99.117c-0.02-35.468-18.971-68.226-49.706-85.925l49.569-85.855v0.001
			c30.68,17.657,68.443,17.631,99.099-0.067h0.155l49.53,85.789c-30.677,17.758-49.55,50.532-49.51,85.979"/>
	</g>
</g>
</svg>
