<?xml version="1.0" encoding="utf-8"?>
<!-- Generator: Adobe Illustrator 16.0.4, SVG Export Plug-In . SVG Version: 6.00 Build 0)  -->
<!DOCTYPE svg PUBLIC "-//W3C//DTD SVG 1.1//EN" "http://www.w3.org/Graphics/SVG/1.1/DTD/svg11.dtd">
<svg version="1.1" id="Layer_1" xmlns="http://www.w3.org/2000/svg" xmlns:xlink="http://www.w3.org/1999/xlink" x="0px" y="0px"
	 width="5184px" height="576px" viewBox="0 0 5184 576" enable-background="new 0 0 5184 576" xml:space="preserve">
<path fill="#A8BF00" d="M365.625,247.874c-30.701-17.758-68.546-17.776-99.265-0.05c-16.484-28.642-32.968-57.282-49.452-85.923
	c30.656-17.699,49.56-50.39,49.605-85.788c0.026-0.045,0.052-0.09,0.078-0.135c33.021,0.045,66.04,0.09,99.062,0.135
	c-0.008,35.446,18.896,68.204,49.589,85.934c0.012,0.008,0.025,0.015,0.037,0.021c0.007,0.012,0.014,0.023,0.02,0.035
	C398.742,190.693,382.184,219.284,365.625,247.874z"/>
<path fill="#A8BF00" d="M89.683,33.095c30.701,17.758,68.546,17.777,99.265,0.05c16.482,28.641,32.968,57.282,49.452,85.923
	c-30.656,17.699-49.56,50.39-49.608,85.788c-0.026,0.045-0.052,0.09-0.078,0.135c-33.02-0.045-66.04-0.09-99.06-0.135
	c0.007-35.446-18.896-68.204-49.589-85.934c-0.012-0.007-0.025-0.015-0.037-0.021c-0.007-0.012-0.016-0.023-0.021-0.035
	C56.567,90.275,73.125,61.686,89.683,33.095z"/>
</svg>
