<?xml version="1.0" encoding="utf-8"?>
<!-- Generator: Adobe Illustrator 16.0.4, SVG Export Plug-In . SVG Version: 6.00 Build 0)  -->
<!DOCTYPE svg PUBLIC "-//W3C//DTD SVG 1.1//EN" "http://www.w3.org/Graphics/SVG/1.1/DTD/svg11.dtd">
<svg version="1.1" id="Layer_1" xmlns="http://www.w3.org/2000/svg" xmlns:xlink="http://www.w3.org/1999/xlink" x="0px" y="0px"
	 width="492.222px" height="362.575px" viewBox="0 0 492.222 362.575" enable-background="new 0 0 492.222 362.575"
	 xml:space="preserve">
<g>
	<path fill="#CC99FF" d="M125.314,246.602c-0.75,0-1.142-0.314-1.227-0.988l-0.016-0.074v-0.062l0.017-0.027l-0.028-0.032
		c-0.008-0.813,0.294-1.219,0.979-1.306l0.072-0.016c0,0,0.196-0.021,0.196-0.021c0.757,0,1.148,0.314,1.233,0.988l0.016,0.071
		l0.021,0.194c0,0.76-0.314,1.151-0.989,1.234l-0.071,0.016l-0.199,0.021H125.314z"/>
	<path fill="#CC99FF" d="M126.477,245.145c-0.061-0.682-0.417-0.997-1.163-0.997l-0.195,0.021l0.001,0.008
		c-0.682,0.062-0.996,0.42-0.988,1.241l0.066,0.032l-0.061,0.01c0,0.003,0.001,0.005,0.001,0.008l0.004,0.067l0.008-0.001
		c0.061,0.682,0.417,0.996,1.163,0.996l0.195-0.021l-0.001-0.009c0.682-0.06,0.997-0.415,0.997-1.162l-0.021-0.194L126.477,245.145z
		"/>
	<path fill="#CC99FF" d="M94.007,230.002c-0.75,0-1.142-0.315-1.225-0.99l-0.016-0.073l-0.005-0.063l0.017-0.026l-0.024-0.028
		c-0.009-0.822,0.298-1.229,0.993-1.311c0,0,0.254-0.034,0.255-0.034c0.757,0,1.148,0.314,1.233,0.988l0.017,0.071l0.02,0.195
		c0,0.762-0.319,1.153-1.002,1.235l-0.058,0.012l-0.2,0.024H94.007z"/>
	<path fill="#CC99FF" d="M95.17,228.543c-0.062-0.681-0.417-0.996-1.163-0.996l-0.119,0.015v-0.001
		c-0.003,0-0.006,0.002-0.009,0.002l-0.066,0.008l0,0.005c-0.682,0.061-0.997,0.419-0.988,1.244l0.065,0.028l-0.059,0.01
		c0,0.001,0,0.001,0,0.002h0l0.006,0.073l0.008-0.001c0.06,0.683,0.417,0.998,1.161,0.998l0.195-0.023l0-0.006
		c0.682-0.062,0.997-0.417,0.997-1.163l-0.02-0.195L95.17,228.543z"/>
	<path fill="#CC99FF" d="M133.289,182.592c-0.812,0-1.209-0.362-1.249-1.14l-0.015-0.114c0-0.822,0.361-1.218,1.139-1.258
		c0,0,0.116-0.015,0.117-0.015c0.819,0,1.215,0.362,1.255,1.138l0.015,0.115c0,0.82-0.361,1.217-1.138,1.258l-0.12,0.015H133.289z"
		/>
	<path fill="#CC99FF" d="M134.48,181.328l-0.015-0.12c-0.038-0.741-0.401-1.071-1.177-1.071l-0.12,0.015
		c-0.741,0.038-1.071,0.401-1.071,1.177l0.015,0.12c0.038,0.74,0.401,1.071,1.177,1.071l0.12-0.015
		C134.15,182.466,134.48,182.104,134.48,181.328z"/>
	<path fill="#CC99FF" d="M169.591,170.522c-0.812,0-1.208-0.362-1.247-1.139l-0.016-0.114c0-0.822,0.361-1.218,1.139-1.258
		c0,0,0.116-0.014,0.117-0.014c0.82,0,1.216,0.362,1.257,1.138l0.014,0.115c0,0.821-0.362,1.217-1.139,1.257l-0.12,0.015H169.591z"
		/>
	<path fill="#CC99FF" d="M170.768,169.139c-0.039-0.741-0.402-1.071-1.178-1.071l-0.12,0.015c-0.741,0.038-1.071,0.401-1.071,1.177
		l0.017,0.12c0.038,0.741,0.4,1.071,1.175,1.071l0.12-0.015c0.741-0.038,1.071-0.401,1.071-1.177L170.768,169.139z"/>
	<path fill="#CC99FF" d="M179.847,238.508c-0.812,0-1.209-0.362-1.249-1.141l-0.014-0.114c0-0.821,0.361-1.219,1.139-1.258
		c0,0,0.114-0.016,0.115-0.016c0.82,0,1.216,0.362,1.257,1.14l0.014,0.116c0,0.819-0.361,1.217-1.138,1.258l-0.12,0.015H179.847z"/>
	<path fill="#CC99FF" d="M179.847,238.436l0.12-0.015c0.741-0.039,1.071-0.401,1.071-1.177l-0.015-0.121
		c-0.039-0.741-0.401-1.072-1.177-1.072l-0.119,0.017c-0.741,0.037-1.071,0.399-1.071,1.177l0.014,0.119
		C178.708,238.105,179.071,238.436,179.847,238.436z"/>
	<path fill="#CC99FF" d="M171.928,177.786c-0.812,0-1.209-0.362-1.25-1.139l-0.014-0.116c0-0.821,0.362-1.218,1.14-1.257
		c0,0,0.115-0.015,0.115-0.015c0.82,0,1.216,0.362,1.256,1.139l0.014,0.115c0,0.821-0.361,1.217-1.138,1.257l-0.12,0.015H171.928z"
		/>
	<path fill="#CC99FF" d="M172.048,177.699c0.741-0.038,1.071-0.401,1.071-1.177l-0.015-0.12c-0.038-0.741-0.401-1.071-1.177-1.071
		l-0.119,0.015c-0.742,0.037-1.072,0.4-1.072,1.177l0.014,0.12c0.039,0.741,0.402,1.071,1.178,1.071L172.048,177.699z"/>
	<path fill="#CC99FF" d="M191.987,196.391c-0.079,0-0.154-0.01-0.229-0.021l-0.107-0.022c-1.583-0.156-2.784-1.483-2.784-3.078
		c0-0.077,0.009-0.154,0.02-0.23c0.178-1.688,1.506-2.891,3.1-2.891c0.078,0,0.154,0.01,0.229,0.021
		c1.69,0.18,2.891,1.507,2.889,3.101c0,0.079-0.01,0.157-0.02,0.235C194.908,195.188,193.581,196.391,191.987,196.391z"/>
	<path fill="#CC99FF" d="M192.302,190.253l-0.031-0.004l-0.065-0.009c-0.073-0.01-0.146-0.02-0.22-0.02
		c-1.557,0-2.854,1.175-3.017,2.732l-0.002,0.023l-0.001,0.001l-0.008,0.071c-0.01,0.073-0.019,0.146-0.019,0.221
		c0,1.558,1.174,2.854,2.731,3.017l0.023,0.003l0.002,0.002l0.072,0.008c0.072,0.01,0.145,0.02,0.22,0.02
		c1.557,0,2.853-1.175,3.015-2.732l0.007-0.072h0l0.003-0.019c0.01-0.074,0.02-0.149,0.02-0.226
		C195.034,191.714,193.86,190.417,192.302,190.253z"/>
	<path fill="#CC99FF" d="M191.986,217.792c-0.047,0-0.092-0.007-0.136-0.013c-1.001-0.113-1.708-0.896-1.709-1.833
		c0-0.048,0.005-0.092,0.011-0.136c0.117-1.005,0.901-1.709,1.835-1.709c0.05,0,0.098,0.007,0.146,0.014
		c0.988,0.104,1.699,0.889,1.699,1.831c0,0.048-0.005,0.093-0.012,0.137C193.713,217.082,192.928,217.792,191.986,217.792z"/>
	<path fill="#CC99FF" d="M191.792,217.699L191.792,217.699h0.001c0.003,0.001,0.006,0.002,0.009,0.002l0.015,0.002l0.043,0.006
		c0.041,0.006,0.083,0.012,0.126,0.012c0.905,0,1.659-0.684,1.754-1.589l0.003-0.027l0.004-0.03
		c0.006-0.041,0.011-0.083,0.011-0.127c0-0.905-0.683-1.659-1.588-1.754l-0.036-0.004l-0.014-0.002
		c-0.044-0.007-0.089-0.013-0.135-0.013c-0.9,0-1.651,0.676-1.753,1.574h0l0,0.005c0,0.003-0.002,0.006-0.002,0.009l-0.002,0.019
		l-0.005,0.037c-0.005,0.042-0.011,0.083-0.011,0.129C190.213,216.848,190.891,217.599,191.792,217.699z"/>
	<path fill="#CC99FF" d="M128.862,217.792c-0.893,0-1.64-0.631-1.802-1.51l-0.004,0.001l-0.015-0.073l0.059-0.135l-0.071,0.011
		c-0.007-0.046-0.012-0.091-0.012-0.139c0-0.893,0.63-1.639,1.509-1.8l0.07-0.016l0.129,0.056l-0.011-0.071
		c0.06-0.01,0.105-0.015,0.147-0.015c0.892,0,1.638,0.63,1.799,1.509l0.004-0.001l0.015,0.073c0.021,0.177,0.025,0.219,0.025,0.264
		c0,0.915-0.663,1.677-1.578,1.811C128.947,217.787,128.906,217.792,128.862,217.792z"/>
	<path fill="#CC99FF" d="M127.088,215.948c0,0.044,0.005,0.086,0.011,0.127l0.001,0.001l0.006,0.056v0.001l0.007,0.07l0.007-0.001
		c0.127,0.869,0.861,1.519,1.742,1.519c0.043,0,0.084-0.006,0.184-0.02l0.072-0.007l0-0.008c0.868-0.127,1.516-0.858,1.516-1.739
		c0-0.044-0.005-0.085-0.018-0.185l-0.007-0.072l-0.007,0.001c-0.127-0.868-0.86-1.517-1.74-1.517c-0.039,0-0.081,0.005-0.136,0.014
		l-0.047,0.005c-0.007,0.001-0.014,0.003-0.021,0.004l-0.051,0.007l0,0.004C127.736,214.334,127.088,215.067,127.088,215.948z"/>
	<path fill="#CC99FF" d="M128.861,196.391c-1.529,0-2.834-1.136-3.064-2.652l-0.019-0.071l-0.02-0.179
		c-0.01-0.07-0.019-0.145-0.019-0.219c0-1.553,1.17-2.874,2.723-3.073l0.173-0.027c0.076-0.011,0.149-0.021,0.227-0.021
		c1.529,0,2.833,1.136,3.062,2.652l0.018,0.071l0.02,0.174c0.01,0.072,0.019,0.147,0.019,0.224c0,1.553-1.17,2.874-2.723,3.073
		C129.014,196.381,128.938,196.391,128.861,196.391z"/>
	<path fill="#CC99FF" d="M131.871,192.88l-0.008,0.001c-0.195-1.521-1.47-2.66-3.001-2.66c-0.075,0-0.146,0.01-0.218,0.02
		l-0.172,0.02l0,0.008c-1.521,0.195-2.66,1.47-2.66,3.002c0,0.071,0.009,0.142,0.019,0.211l0.02,0.179l0.008-0.001
		c0.196,1.521,1.471,2.66,3.003,2.66c0.074,0,0.148-0.01,0.317-0.032l0.072-0.007l0-0.008c1.521-0.195,2.66-1.47,2.66-3.002
		c0-0.073-0.009-0.145-0.019-0.216L131.871,192.88z"/>
	<path fill="#CC99FF" d="M208.396,189.2c-0.202,0-0.41-0.038-0.62-0.113l-0.002,0.004l-0.069-0.023l-0.066-0.029l-0.101-0.124
		c-0.3-0.08-0.572-0.329-0.749-0.634c-0.279-0.483-0.318-1.067-0.106-1.601l0.03-0.066l0.118-0.106
		c0.082-0.299,0.33-0.57,0.635-0.748c0.278-0.159,0.594-0.244,0.913-0.244c0.202,0,0.411,0.038,0.621,0.113l0.001-0.003l0.069,0.021
		l0.067,0.03l0.102,0.125c0.298,0.08,0.57,0.328,0.747,0.633c0.279,0.483,0.318,1.066,0.106,1.598l-0.03,0.067l-0.118,0.106
		c-0.081,0.301-0.33,0.572-0.632,0.748C209.033,189.115,208.716,189.2,208.396,189.2z"/>
	<path fill="#CC99FF" d="M209.975,188.14l0.029-0.065l0.029-0.065l-0.008-0.004c0.202-0.508,0.17-1.063-0.102-1.535
		c-0.176-0.304-0.439-0.535-0.755-0.688l0.005-0.011l-0.066-0.029c0,0-0.001,0-0.001-0.001l-0.064-0.028l-0.003,0.007
		c-0.211-0.083-0.436-0.133-0.66-0.133c-0.307,0-0.609,0.081-0.876,0.234c-0.302,0.176-0.535,0.439-0.69,0.756l-0.011-0.005
		l-0.029,0.065c-0.001,0.003-0.001,0.005-0.002,0.008l-0.025,0.058l0.006,0.003c-0.202,0.51-0.171,1.065,0.102,1.538
		c0.175,0.303,0.439,0.535,0.756,0.689l-0.004,0.01l0.064,0.028c0,0,0,0.001,0.001,0.001l0.065,0.029l0.003-0.007
		c0.21,0.083,0.435,0.133,0.659,0.133c0.308,0,0.612-0.082,0.879-0.236c0.3-0.174,0.533-0.438,0.689-0.756L209.975,188.14z"/>
	<path fill="#CC99FF" d="M211.626,194.691c-0.202,0-0.411-0.038-0.62-0.113l-0.001,0.004l-0.134-0.053l-0.106-0.122
		c-0.298-0.086-0.57-0.334-0.745-0.637c-0.279-0.483-0.318-1.066-0.107-1.598l0.03-0.067l0.119-0.106
		c0.08-0.301,0.329-0.572,0.633-0.748c0.279-0.161,0.595-0.246,0.915-0.246c0.223,0,0.454,0.047,0.685,0.138l0.067,0.03l0.106,0.119
		c0.299,0.081,0.571,0.33,0.747,0.635c0.268,0.463,0.314,1.019,0.131,1.533l0.004,0.002l-0.023,0.069l-0.029,0.066l-0.124,0.101
		c-0.083,0.3-0.332,0.572-0.635,0.748C212.263,194.606,211.947,194.691,211.626,194.691z"/>
	<path fill="#CC99FF" d="M213.204,193.632l0.029-0.065c0.001-0.002,0.001-0.005,0.002-0.007l0.026-0.059l-0.007-0.003
		c0.199-0.503,0.167-1.07-0.102-1.536c-0.174-0.302-0.438-0.535-0.755-0.689l0.005-0.012l-0.066-0.029
		c-0.006-0.003-0.012-0.003-0.018-0.006l-0.048-0.021l-0.002,0.005c-0.21-0.083-0.435-0.133-0.659-0.133
		c-0.307,0-0.611,0.082-0.878,0.236c-0.303,0.175-0.535,0.439-0.689,0.756l-0.01-0.005l-0.029,0.065c0,0.001,0,0.003-0.001,0.004
		l-0.027,0.062l0.006,0.003c-0.201,0.508-0.17,1.062,0.103,1.535c0.174,0.301,0.438,0.533,0.754,0.688l-0.005,0.012l0.066,0.029
		c0.003,0.002,0.008,0.002,0.012,0.004l0.055,0.024l0.002-0.006c0.21,0.083,0.436,0.133,0.66,0.133c0.307,0,0.61-0.081,0.876-0.235
		c0.301-0.175,0.534-0.438,0.69-0.756L213.204,193.632z"/>
	<path fill="#CC99FF" d="M222.301,187.954c-0.312,0-0.583-0.158-0.826-0.483l-0.004,0.003l-0.045-0.06l-0.036-0.058l0.004-0.03
		l-0.036-0.013c-0.416-0.703-0.355-1.208,0.197-1.628l-0.003-0.004l0.074-0.061l0.083-0.043l0.049-0.003l0.016-0.059
		c0.278-0.16,0.521-0.238,0.745-0.238c0.312,0,0.582,0.158,0.825,0.482l0.003-0.002l0.057,0.074l0.043,0.082l0.004,0.051l0.06,0.016
		c0.376,0.654,0.299,1.152-0.246,1.564l0.003,0.004l-0.058,0.05l-0.157,0.111C222.766,187.875,222.522,187.954,222.301,187.954z"/>
	<path fill="#CC99FF" d="M221.494,187.273l-0.041,0.032l-0.007,0.005l0,0.001l0,0c0,0,0,0,0,0.001l0.04,0.063l0.006-0.004
		c0.239,0.342,0.497,0.51,0.808,0.51c0.209,0,0.441-0.075,0.708-0.229l0.094-0.071l0.003-0.002c0,0,0.001-0.001,0.001-0.001
		l0.063-0.04l-0.006-0.009c0.562-0.396,0.657-0.863,0.283-1.513l-0.062,0.036l-0.01-0.133l-0.042-0.063l-0.005,0.004
		c-0.239-0.344-0.498-0.511-0.809-0.511c-0.209,0-0.441,0.074-0.708,0.229l0.036,0.062l-0.132,0.009l-0.065,0.041l0.007,0.01
		c-0.562,0.396-0.656,0.866-0.237,1.576L221.494,187.273z"/>
	<path fill="#CC99FF" d="M214.793,200.184c-0.224,0-0.455-0.047-0.687-0.138l-0.066-0.03l-0.107-0.118
		c-0.301-0.085-0.573-0.333-0.747-0.635c-0.274-0.475-0.314-1.071-0.106-1.598l0.03-0.067l0.118-0.107
		c0.083-0.301,0.331-0.572,0.633-0.746c0.279-0.161,0.595-0.246,0.916-0.246c0.202,0,0.409,0.038,0.618,0.113l0.001-0.004
		l0.069,0.023l0.066,0.029l0.104,0.124c0.301,0.085,0.573,0.333,0.746,0.634c0.268,0.464,0.314,1.019,0.132,1.533l0.003,0.002
		l-0.022,0.071l-0.031,0.069l-0.125,0.097c-0.08,0.302-0.329,0.573-0.631,0.748C215.43,200.099,215.114,200.184,214.793,200.184z"/>
	<path fill="#CC99FF" d="M216.37,199.126l0.029-0.065l0.029-0.065l-0.007-0.003c0.202-0.51,0.17-1.066-0.102-1.538
		c-0.173-0.3-0.437-0.531-0.754-0.688l0.005-0.011l-0.066-0.029c-0.002-0.001-0.004-0.001-0.005-0.002l-0.062-0.027l-0.003,0.007
		c-0.209-0.083-0.434-0.133-0.657-0.133c-0.308,0-0.612,0.082-0.879,0.236c-0.302,0.174-0.533,0.438-0.689,0.754l-0.01-0.005
		l-0.029,0.065c0,0.001,0,0.002-0.001,0.003l-0.028,0.063l0.008,0.004c-0.198,0.503-0.166,1.071,0.102,1.535
		c0.173,0.3,0.437,0.532,0.755,0.689l-0.005,0.011l0.066,0.029c0.002,0.001,0.005,0.001,0.008,0.003l0.058,0.025l0.003-0.006
		c0.21,0.083,0.436,0.133,0.66,0.133c0.307,0,0.61-0.081,0.876-0.235c0.302-0.174,0.534-0.438,0.69-0.755L216.37,199.126z"/>
	<path fill="#CC99FF" d="M225.468,193.449c-0.314,0-0.577-0.153-0.823-0.48l-0.004,0.003l-0.048-0.062l-0.042-0.067l0.007-0.022
		l-0.034-0.013c-0.415-0.703-0.354-1.208,0.2-1.627l-0.004-0.007l0.078-0.061l0.085-0.039l0.053-0.058
		c0.285-0.165,0.528-0.243,0.751-0.243c0.314,0,0.577,0.152,0.823,0.479l0.059,0.076l0.045,0.082l0.004,0.051l0.06,0.016
		c0.376,0.653,0.299,1.152-0.245,1.564l0.003,0.004l-0.058,0.05l-0.058,0.037l-0.089,0.013l-0.018,0.066
		C225.933,193.371,225.689,193.449,225.468,193.449z"/>
	<path fill="#CC99FF" d="M226.551,191.547l-0.011-0.132l0.001-0.001c0-0.001-0.001-0.001-0.001-0.002l0,0l-0.042-0.061l-0.002,0.002
		c-0.24-0.343-0.498-0.51-0.809-0.51c-0.209,0-0.44,0.074-0.708,0.229l-0.094,0.071l-0.002,0.001h0c0,0-0.001,0.001-0.001,0.002
		l-0.064,0.037l0.008,0.011c-0.562,0.396-0.657,0.866-0.239,1.575l0.074-0.002l-0.044,0.036l-0.002,0.001l0.041,0.065l0.006-0.005
		c0.24,0.343,0.497,0.511,0.808,0.511c0.209,0,0.44-0.075,0.708-0.229l-0.036-0.062l0.053-0.004l0.022,0.03l0.057-0.037h0.001
		l0.064-0.041l-0.006-0.009c0.561-0.396,0.657-0.864,0.283-1.513L226.551,191.547z"/>
	<path fill="#CC99FF" d="M205.295,183.705c-0.204,0-0.413-0.039-0.622-0.114l-0.001,0.004l-0.07-0.023l-0.066-0.029l-0.102-0.124
		c-0.3-0.083-0.572-0.331-0.747-0.634c-0.263-0.457-0.311-1.025-0.13-1.534l-0.004-0.001l0.021-0.07l0.029-0.065l0.124-0.104
		c0.084-0.299,0.333-0.571,0.635-0.746c0.277-0.16,0.592-0.244,0.912-0.244c0.203,0,0.411,0.038,0.62,0.112l0.001-0.004l0.071,0.021
		l0.067,0.03l0.101,0.127c0.302,0.082,0.573,0.33,0.747,0.63c0.279,0.485,0.318,1.069,0.106,1.601l-0.031,0.068l-0.119,0.104
		c-0.081,0.302-0.329,0.573-0.631,0.749C205.929,183.62,205.613,183.705,205.295,183.705z"/>
	<path fill="#CC99FF" d="M206.871,182.646l0.029-0.065l0.029-0.065l-0.008-0.004c0.202-0.509,0.17-1.065-0.102-1.539
		c-0.172-0.3-0.436-0.531-0.753-0.688l0.004-0.009l-0.059-0.026c-0.003-0.001-0.005-0.003-0.008-0.005l-0.066-0.029l-0.003,0.008
		c-0.211-0.083-0.436-0.132-0.66-0.132c-0.307,0-0.61,0.081-0.876,0.235c-0.301,0.174-0.533,0.438-0.689,0.754l-0.01-0.004
		l-0.029,0.066l-0.029,0.066l0.008,0.003c-0.199,0.502-0.167,1.071,0.102,1.537c0.174,0.301,0.438,0.533,0.754,0.689l-0.004,0.01
		l0.066,0.029l0.066,0.029l0.003-0.007c0.211,0.084,0.437,0.134,0.661,0.134c0.307,0,0.609-0.082,0.875-0.235
		c0.301-0.175,0.533-0.438,0.69-0.756L206.871,182.646z"/>
	<path fill="#CC99FF" d="M215.969,176.968c-0.314,0-0.578-0.153-0.824-0.481l-0.004,0.003l-0.047-0.062l-0.038-0.061l0.005-0.029
		l-0.036-0.013c-0.414-0.702-0.353-1.206,0.201-1.625l-0.002-0.004l0.072-0.061l0.083-0.043l0.05-0.004l0.016-0.059
		c0.28-0.161,0.523-0.239,0.745-0.239c0.314,0,0.577,0.153,0.822,0.479l0.003-0.002l0.057,0.078l0.043,0.083l0.003,0.05l0.059,0.016
		c0.377,0.653,0.3,1.152-0.244,1.564l0.003,0.004l-0.059,0.051l-0.057,0.036l-0.089,0.013l-0.018,0.067
		C216.434,176.89,216.19,176.968,215.969,176.968z"/>
	<path fill="#CC99FF" d="M215.162,176.287l-0.041,0.033l-0.007,0.004l0,0.001l0,0c0,0,0,0,0,0.001l0.04,0.063l0.006-0.004
		c0.24,0.343,0.498,0.511,0.809,0.511c0.209,0,0.441-0.075,0.708-0.229l-0.036-0.062l0.054-0.004l0.022,0.03l0.056-0.036h0.001
		l0.065-0.041l-0.007-0.009c0.562-0.396,0.657-0.864,0.282-1.513l-0.062,0.036l-0.01-0.132l0.001-0.001
		c-0.002-0.003-0.004-0.005-0.006-0.008L217,174.87l-0.004,0.003c-0.24-0.343-0.497-0.51-0.807-0.51
		c-0.209,0-0.441,0.075-0.709,0.229l0.036,0.062l-0.133,0.01l-0.065,0.042l0.007,0.01c-0.562,0.396-0.656,0.866-0.239,1.572
		L215.162,176.287z"/>
	<path fill="#CC99FF" d="M202.128,178.209c-0.224,0-0.455-0.046-0.686-0.137l-0.065-0.029l-0.11-0.118
		c-0.3-0.084-0.571-0.333-0.746-0.635c-0.279-0.484-0.318-1.067-0.106-1.6l0.029-0.065l0.118-0.109
		c0.083-0.299,0.332-0.571,0.635-0.747c0.277-0.16,0.593-0.245,0.913-0.245c0.203,0,0.411,0.038,0.62,0.112l0.002-0.004l0.069,0.023
		l0.066,0.029l0.103,0.125c0.301,0.084,0.572,0.332,0.746,0.634c0.279,0.483,0.317,1.066,0.106,1.599l-0.029,0.066l-0.118,0.109
		c-0.082,0.299-0.33,0.571-0.634,0.746C202.763,178.125,202.447,178.209,202.128,178.209z"/>
	<path fill="#CC99FF" d="M203.705,177.153l0.029-0.066c0.001-0.001,0.001-0.003,0.001-0.005l0.027-0.062l-0.007-0.003
		c0.199-0.503,0.167-1.071-0.102-1.536c-0.173-0.3-0.437-0.532-0.754-0.689l0.005-0.011l-0.066-0.029c-0.001,0-0.002,0-0.004-0.001
		l-0.063-0.028l-0.003,0.007c-0.21-0.083-0.435-0.132-0.659-0.132c-0.308,0-0.611,0.082-0.877,0.235
		c-0.303,0.175-0.534,0.438-0.689,0.755l-0.011-0.005l-0.029,0.066c-0.001,0.003-0.001,0.006-0.003,0.009l-0.025,0.057l0.006,0.003
		c-0.203,0.509-0.171,1.064,0.102,1.537c0.174,0.302,0.438,0.534,0.754,0.689l-0.004,0.01l0.066,0.029l0.066,0.029l0.003-0.006
		c0.211,0.083,0.436,0.132,0.66,0.132c0.307,0,0.61-0.082,0.877-0.235c0.303-0.175,0.535-0.438,0.689-0.754L203.705,177.153z"/>
	<path fill="#CC99FF" d="M212.802,171.474c-0.316,0-0.579-0.153-0.825-0.482l-0.004,0.002l-0.076-0.109v-0.038l-0.038-0.013
		c-0.416-0.703-0.355-1.208,0.199-1.627l-0.003-0.003l0.073-0.06l0.083-0.043l0.05-0.004l0.016-0.059
		c0.279-0.161,0.523-0.239,0.745-0.239c0.315,0,0.578,0.153,0.824,0.482l0.004-0.003l0.055,0.076l0.043,0.083l0.003,0.05
		l0.059,0.016c0.377,0.654,0.3,1.153-0.244,1.565l0.003,0.004l-0.059,0.049l-0.057,0.037l-0.09,0.014l-0.017,0.065
		C213.268,171.396,213.024,171.474,212.802,171.474z"/>
	<path fill="#CC99FF" d="M211.995,170.793l-0.044,0.036l-0.002,0.002l0,0h0c0,0.001,0.001,0.001,0.002,0.002l0.039,0.062
		l0.005-0.003c0.239,0.343,0.497,0.51,0.808,0.51c0.209,0,0.441-0.075,0.709-0.229l-0.036-0.062l0.053-0.004l0.023,0.032
		l0.057-0.037c0.002-0.001,0.003-0.003,0.005-0.005l0.059-0.037l-0.006-0.008c0.561-0.395,0.656-0.862,0.281-1.512l-0.062,0.036
		l-0.01-0.132l0.001-0.001c-0.002-0.004-0.005-0.006-0.008-0.01l-0.034-0.055l-0.005,0.003c-0.239-0.342-0.496-0.51-0.807-0.51
		c-0.209,0-0.441,0.075-0.709,0.229l0.036,0.062l-0.133,0.01l-0.065,0.042l0.006,0.009c-0.562,0.396-0.656,0.866-0.237,1.575
		L211.995,170.793z"/>
	<path fill="#CC99FF" d="M198.962,172.717c-0.203,0-0.411-0.038-0.621-0.113l-0.001,0.003l-0.07-0.022l-0.067-0.03l-0.1-0.125
		c-0.301-0.082-0.573-0.33-0.748-0.632c-0.279-0.484-0.317-1.066-0.106-1.598l0.029-0.066l0.119-0.109
		c0.083-0.3,0.332-0.571,0.633-0.747c0.278-0.16,0.594-0.245,0.913-0.245c0.225,0,0.456,0.046,0.686,0.138l0.066,0.029l0.108,0.119
		c0.3,0.082,0.572,0.33,0.747,0.632c0.268,0.463,0.314,1.018,0.131,1.532l0.004,0.001l-0.021,0.071l-0.029,0.066l-0.125,0.102
		c-0.082,0.3-0.33,0.572-0.633,0.748C199.598,172.632,199.282,172.717,198.962,172.717z"/>
	<path fill="#CC99FF" d="M197.367,170.09l-0.029,0.066c0,0.001,0,0.002-0.001,0.003l-0.028,0.063l0.007,0.003
		c-0.202,0.508-0.17,1.062,0.102,1.535c0.174,0.301,0.438,0.533,0.755,0.689l-0.005,0.01l0.066,0.029l0.066,0.029l0.003-0.007
		c0.21,0.083,0.436,0.133,0.66,0.133c0.307,0,0.611-0.082,0.877-0.235c0.302-0.175,0.534-0.438,0.689-0.755l0.01,0.004l0.028-0.062
		c0-0.001,0.002-0.002,0.002-0.004l0.029-0.065l-0.008-0.003c0.202-0.509,0.17-1.064-0.102-1.536
		c-0.174-0.302-0.438-0.533-0.754-0.688l0.004-0.01l-0.062-0.028c-0.001,0-0.002-0.002-0.004-0.002l-0.065-0.029l-0.003,0.007
		c-0.21-0.083-0.435-0.133-0.659-0.133c-0.307,0-0.61,0.082-0.877,0.235c-0.301,0.174-0.532,0.438-0.688,0.754L197.367,170.09z"/>
	<path fill="#CC99FF" d="M209.637,165.981c-0.316,0-0.58-0.154-0.825-0.483l-0.003,0.002l-0.08-0.113l0.002-0.032l-0.036-0.013
		c-0.417-0.705-0.356-1.21,0.198-1.629l-0.002-0.003l0.072-0.059l0.082-0.043l0.051-0.004l0.016-0.06
		c0.279-0.161,0.523-0.239,0.745-0.239c0.313,0,0.576,0.152,0.821,0.478l0.004-0.003l0.054,0.077l0.046,0.086l0.003,0.049
		l0.059,0.016c0.377,0.654,0.3,1.153-0.244,1.565l0.003,0.004l-0.058,0.049l-0.157,0.111
		C210.102,165.903,209.858,165.981,209.637,165.981z"/>
	<path fill="#CC99FF" d="M208.829,165.3l-0.046,0.038l0.042,0.064l0.005-0.003c0.239,0.343,0.497,0.511,0.808,0.511
		c0.209,0,0.441-0.075,0.708-0.229l0.094-0.071l0.003-0.002c0,0,0-0.001,0.001-0.001l0.063-0.04l-0.006-0.009
		c0.562-0.395,0.656-0.863,0.282-1.513l-0.062,0.036l-0.01-0.131l0.001-0.001c-0.001-0.002-0.002-0.003-0.004-0.005l-0.038-0.061
		l-0.005,0.004c-0.24-0.342-0.497-0.509-0.807-0.509c-0.209,0-0.441,0.075-0.708,0.229l0.036,0.062l-0.133,0.011l-0.064,0.042
		l0.006,0.008c-0.562,0.395-0.656,0.865-0.236,1.576L208.829,165.3z"/>
	<path fill="#CC99FF" d="M195.795,167.224c-0.224,0-0.454-0.046-0.685-0.137l-0.066-0.029l-0.108-0.119
		c-0.3-0.083-0.571-0.331-0.746-0.634c-0.274-0.476-0.314-1.073-0.106-1.599l0.029-0.065l0.117-0.109
		c0.083-0.299,0.331-0.571,0.635-0.747c0.278-0.16,0.594-0.245,0.913-0.245c0.224,0,0.455,0.046,0.686,0.137l0.065,0.029l0.11,0.118
		c0.3,0.084,0.571,0.333,0.746,0.635c0.279,0.484,0.318,1.066,0.106,1.598l-0.029,0.065l-0.117,0.11
		c-0.084,0.3-0.333,0.572-0.636,0.747C196.43,167.139,196.114,167.224,195.795,167.224z"/>
	<path fill="#CC99FF" d="M197.362,166.162l0.01,0.004l0.029-0.066l0.029-0.066l-0.007-0.003c0.202-0.509,0.17-1.063-0.102-1.536
		c-0.174-0.302-0.438-0.534-0.754-0.689l0.004-0.01l-0.066-0.029l-0.066-0.029l-0.003,0.006c-0.21-0.083-0.436-0.132-0.66-0.132
		c-0.307,0-0.61,0.082-0.877,0.235c-0.302,0.175-0.534,0.438-0.689,0.754l-0.01-0.004l-0.029,0.066c0,0,0,0.001,0,0.001
		l-0.028,0.064l0.007,0.003c-0.199,0.503-0.167,1.071,0.102,1.536c0.174,0.301,0.438,0.533,0.754,0.689L195,166.968l0.066,0.029
		c0.001,0,0.002,0,0.003,0.001l0.063,0.027l0.003-0.006c0.21,0.083,0.436,0.132,0.659,0.132c0.307,0,0.61-0.082,0.877-0.235
		C196.975,166.742,197.207,166.478,197.362,166.162z"/>
	<path fill="#CC99FF" d="M206.47,160.488c-0.333,0-0.609-0.172-0.867-0.541l-0.035-0.054l0.001-0.031l-0.042-0.015
		c-0.415-0.702-0.354-1.207,0.198-1.626l-0.003-0.004l0.058-0.05l0.157-0.111c0.287-0.166,0.53-0.244,0.752-0.244
		c0.315,0,0.578,0.153,0.824,0.482l0.003-0.002l0.064,0.079l0.034,0.08l0.003,0.049l0.059,0.016c0.377,0.654,0.3,1.153-0.244,1.564
		l0.002,0.003l-0.057,0.05l-0.057,0.037l-0.089,0.013l-0.018,0.067C206.936,160.41,206.692,160.488,206.47,160.488z"/>
	<path fill="#CC99FF" d="M205.663,159.807l-0.044,0.037l-0.002,0.001l0,0h0c0,0.001,0.001,0.001,0.002,0.002l0.039,0.062
		l0.005-0.003c0.239,0.343,0.497,0.51,0.808,0.51c0.209,0,0.441-0.075,0.709-0.229l-0.036-0.062l0.053-0.004l0.022,0.031
		l0.057-0.037h0.001l0.064-0.042l-0.006-0.009c0.561-0.395,0.656-0.862,0.281-1.512l-0.062,0.036l-0.01-0.131l0.001,0
		c-0.001-0.001-0.001-0.002-0.002-0.003l-0.04-0.062l-0.005,0.003c-0.239-0.342-0.496-0.51-0.807-0.51
		c-0.209,0-0.441,0.075-0.708,0.229l-0.096,0.073l0,0c-0.001,0.001-0.001,0.001-0.003,0.002l-0.062,0.04l0.006,0.009
		c-0.561,0.396-0.654,0.866-0.236,1.574L205.663,159.807z"/>
	<path fill="#CC99FF" d="M192.629,161.73c-0.203,0-0.412-0.038-0.621-0.112l-0.001,0.003l-0.07-0.022l-0.067-0.03l-0.1-0.125
		c-0.301-0.083-0.573-0.331-0.748-0.632c-0.267-0.465-0.313-1.02-0.13-1.532l-0.003-0.001l0.022-0.071l0.029-0.065l0.124-0.104
		c0.084-0.3,0.332-0.571,0.635-0.747c0.278-0.16,0.594-0.245,0.913-0.245c0.224,0,0.455,0.046,0.686,0.137l0.065,0.029l0.11,0.118
		c0.3,0.084,0.571,0.333,0.746,0.635c0.274,0.476,0.314,1.073,0.106,1.599l-0.029,0.065l-0.117,0.11
		c-0.083,0.298-0.331,0.57-0.635,0.746C193.265,161.646,192.949,161.73,192.629,161.73z"/>
	<path fill="#CC99FF" d="M191.035,159.104l-0.029,0.066l-0.029,0.066l0.007,0.003c-0.203,0.508-0.171,1.063,0.101,1.537
		c0.174,0.3,0.438,0.532,0.755,0.689l-0.005,0.01l0.066,0.029l0.066,0.029l0.003-0.007c0.211,0.083,0.436,0.132,0.66,0.132
		c0.308,0,0.611-0.082,0.877-0.235c0.302-0.175,0.535-0.438,0.689-0.754l0.01,0.004l0.029-0.066c0,0,0-0.001,0-0.001l0.028-0.064
		l-0.007-0.003c0.199-0.503,0.167-1.071-0.102-1.536c-0.174-0.302-0.438-0.534-0.754-0.689l0.004-0.01l-0.066-0.029l-0.066-0.029
		l-0.003,0.006c-0.21-0.083-0.436-0.132-0.66-0.132c-0.307,0-0.61,0.082-0.877,0.235c-0.301,0.174-0.533,0.438-0.689,0.755
		L191.035,159.104z"/>
	<path fill="#CC99FF" d="M203.305,154.994c-0.315,0-0.578-0.153-0.824-0.48l-0.004,0.003l-0.047-0.062l-0.038-0.06l0.005-0.029
		l-0.037-0.013c-0.415-0.702-0.354-1.206,0.2-1.625l-0.003-0.004l0.072-0.061l0.083-0.042l0.05-0.004l0.016-0.06
		c0.279-0.161,0.523-0.239,0.745-0.239c0.315,0,0.578,0.153,0.823,0.482l0.003-0.002l0.054,0.075l0.044,0.083l0.003,0.05
		l0.059,0.016c0.377,0.654,0.3,1.153-0.243,1.564l0.003,0.004l-0.059,0.051l-0.057,0.036l-0.089,0.013l-0.018,0.066
		C203.771,154.917,203.527,154.994,203.305,154.994z"/>
	<path fill="#CC99FF" d="M202.498,154.313l-0.041,0.033l-0.007,0.004l0,0.001l0,0c0,0,0,0,0,0.001l0.04,0.063l0.006-0.004
		c0.24,0.343,0.498,0.51,0.809,0.51c0.209,0,0.441-0.075,0.708-0.229l-0.036-0.062l0.053-0.004l0.022,0.031l0.057-0.037h0
		l0.065-0.041l-0.007-0.009c0.561-0.395,0.656-0.863,0.281-1.513l-0.062,0.036l-0.01-0.132l0,0l0,0
		c-0.001-0.002-0.003-0.004-0.005-0.006l-0.037-0.058l-0.005,0.003c-0.239-0.342-0.496-0.51-0.807-0.51
		c-0.209,0-0.441,0.075-0.709,0.229l0.036,0.062l-0.133,0.01l-0.065,0.041l0.007,0.01c-0.562,0.396-0.655,0.866-0.238,1.572
		L202.498,154.313z"/>
	<path fill="#CC99FF" d="M189.463,156.238c-0.204,0-0.412-0.038-0.621-0.113l-0.001,0.004l-0.07-0.023l-0.066-0.03l-0.103-0.125
		c-0.3-0.083-0.571-0.332-0.746-0.633c-0.278-0.484-0.317-1.066-0.106-1.599l0.028-0.064l0.117-0.111
		c0.085-0.298,0.333-0.569,0.636-0.746c0.278-0.16,0.594-0.245,0.913-0.245c0.202,0,0.41,0.038,0.618,0.112l0.001-0.003l0.071,0.024
		l0.066,0.029l0.103,0.125c0.3,0.083,0.571,0.331,0.746,0.633c0.274,0.475,0.314,1.073,0.106,1.599l-0.029,0.065l-0.117,0.11
		c-0.083,0.299-0.332,0.571-0.635,0.747C190.098,156.153,189.782,156.238,189.463,156.238z"/>
	<path fill="#CC99FF" d="M188.803,156.033c0.21,0.083,0.436,0.133,0.66,0.133c0.307,0,0.61-0.082,0.877-0.235
		c0.302-0.175,0.534-0.438,0.689-0.755l0.01,0.004l0.029-0.066c0,0,0-0.001,0-0.001l0.028-0.064l-0.007-0.003
		c0.199-0.504,0.167-1.072-0.102-1.536c-0.174-0.302-0.438-0.533-0.754-0.688l0.005-0.011l-0.066-0.029
		c-0.002-0.001-0.004-0.001-0.006-0.002l-0.061-0.027l-0.002,0.006c-0.21-0.083-0.436-0.133-0.659-0.133
		c-0.307,0-0.61,0.082-0.877,0.235c-0.302,0.175-0.533,0.439-0.688,0.754l-0.012-0.005l-0.029,0.066
		c-0.001,0.003-0.002,0.007-0.003,0.011l-0.024,0.056l0.006,0.003c-0.199,0.503-0.167,1.07,0.102,1.537
		c0.174,0.3,0.438,0.532,0.754,0.688l-0.005,0.011l0.066,0.029c0.001,0,0.002,0,0.003,0.001l0.063,0.028L188.803,156.033z"/>
	<path fill="#CC99FF" d="M122.441,146.899c-0.15,0-0.319-0.041-0.513-0.125l-0.002,0.005l-0.071-0.028l-0.062-0.034l-0.009-0.026
		l-0.036,0.006c-0.711-0.4-0.912-0.868-0.642-1.507l-0.005-0.002l0.027-0.074l0.081-0.173c0.279-0.483,0.586-0.705,0.972-0.705
		c0.15,0,0.317,0.041,0.51,0.124l0.002-0.005l0.072,0.028l0.173,0.081c0.661,0.381,0.844,0.852,0.578,1.481l0.004,0.002
		l-0.025,0.073l-0.031,0.06l-0.071,0.056l0.018,0.066C123.134,146.678,122.826,146.899,122.441,146.899z"/>
	<path fill="#CC99FF" d="M121.782,146.635l0.062-0.04l-0.016,0.042l-0.007,0.014l0.069,0.038l0.004-0.008
		c0.201,0.094,0.383,0.147,0.548,0.147c0.356,0,0.645-0.21,0.906-0.662l-0.062-0.036l0.044-0.03l0.035,0.016l0.03-0.06l0.001,0
		l0.036-0.068l-0.01-0.004c0.29-0.625,0.138-1.078-0.511-1.453l-0.11-0.047l-0.068-0.037l-0.004,0.009
		c-0.201-0.094-0.382-0.147-0.547-0.147c-0.357,0-0.645,0.21-0.905,0.661l-0.047,0.11l-0.001,0.001h0
		c-0.001,0.001,0,0.002-0.001,0.003l-0.034,0.063l0.01,0.004C120.911,145.777,121.064,146.231,121.782,146.635z"/>
	<path fill="#CC99FF" d="M133.096,153.64c-0.323,0-0.639-0.083-0.915-0.242c-0.463-0.268-0.781-0.726-0.88-1.264l-0.004,0
		l-0.017-0.071l-0.008-0.072l0.058-0.149c-0.08-0.301-0.001-0.661,0.174-0.965c0.28-0.483,0.766-0.808,1.333-0.891l0.072-0.007
		l0.151,0.049l0.051-0.066c0.322,0,0.638,0.083,0.914,0.242c0.456,0.262,0.781,0.73,0.88,1.262l0.004,0l0.017,0.071l0.008,0.073
		l-0.058,0.15c0.079,0.301,0,0.661-0.174,0.964c-0.268,0.462-0.726,0.78-1.263,0.879l0,0.004l-0.071,0.016l-0.07,0.007l-0.152-0.055
		L133.096,153.64z"/>
	<path fill="#CC99FF" d="M131.344,151.979c0,0.002,0,0.004,0,0.006l0.008,0.071l0.009-0.001c0.079,0.536,0.391,1.012,0.856,1.28
		c0.265,0.152,0.568,0.233,0.879,0.233c0.041,0,0.081-0.003,0.121-0.006l0,0.004l0.071-0.007l0.072-0.008l-0.001-0.008
		c0.535-0.079,1.011-0.39,1.28-0.855c0.173-0.301,0.243-0.646,0.22-0.999l0.011-0.001l-0.007-0.072v0l-0.008-0.071l-0.008,0.001
		c-0.08-0.536-0.392-1.012-0.856-1.279c-0.265-0.152-0.568-0.233-0.878-0.233c-0.041,0-0.082,0.003-0.122,0.006l0-0.005
		l-0.072,0.007c-0.004,0-0.009,0.002-0.014,0.003l-0.057,0.006l0,0.007c-0.535,0.079-1.011,0.39-1.281,0.856
		c-0.174,0.302-0.244,0.647-0.22,1l-0.01,0.001L131.344,151.979z"/>
	<path fill="#CC99FF" d="M119.268,152.388c-0.151,0-0.319-0.041-0.514-0.124l-0.002,0.005l-0.071-0.028l-0.064-0.035l-0.008-0.026
		l-0.036,0.007c-0.712-0.401-0.911-0.869-0.64-1.51l0.021-0.068l0.08-0.179c0.279-0.483,0.586-0.704,0.972-0.704
		c0.15,0,0.318,0.04,0.51,0.123l0.001-0.003l0.247,0.107c0.66,0.382,0.843,0.854,0.578,1.481l0.007,0.003l-0.025,0.076l-0.082,0.169
		C119.961,152.167,119.653,152.388,119.268,152.388z"/>
	<path fill="#CC99FF" d="M118.607,152.124l0.063-0.041l-0.014,0.038l-0.011,0.019l0.069,0.038l0.004-0.008
		c0.201,0.093,0.383,0.146,0.549,0.146c0.357,0,0.646-0.21,0.906-0.661l0.045-0.107l0.041-0.07l-0.014-0.006
		c0.288-0.623,0.137-1.076-0.511-1.452l-0.112-0.047l-0.067-0.034l-0.002,0.006c-0.201-0.094-0.383-0.147-0.548-0.147
		c-0.356,0-0.645,0.21-0.906,0.662l-0.08,0.179l0.007,0.003C117.736,151.266,117.89,151.72,118.607,152.124z"/>
	<path fill="#CC99FF" d="M129.92,159.129c-0.323,0-0.639-0.083-0.915-0.242c-0.456-0.264-0.78-0.732-0.879-1.263l-0.004,0
		l-0.015-0.072l-0.007-0.073l0.057-0.149c-0.079-0.301,0-0.66,0.175-0.964c0.263-0.456,0.731-0.78,1.262-0.879l0-0.004l0.071-0.017
		l0.07-0.007l0.152,0.055l0.05-0.065c0.323,0,0.64,0.083,0.916,0.242c0.462,0.268,0.78,0.725,0.879,1.263l0.004,0l0.016,0.071
		l0.008,0.073l-0.058,0.149c0.08,0.3,0.001,0.66-0.174,0.965c-0.268,0.463-0.726,0.78-1.264,0.879l0,0.004l-0.071,0.016l-0.07,0.007
		l-0.152-0.055L129.92,159.129z"/>
	<path fill="#CC99FF" d="M128.17,157.473c0,0.003,0.001,0.005,0.002,0.008l0.007,0.064l0.007-0.001
		c0.079,0.535,0.39,1.011,0.855,1.281c0.265,0.152,0.568,0.233,0.878,0.233c0.041,0,0.081-0.003,0.121-0.006l0,0.004l0.071-0.007
		l0.072-0.008l-0.001-0.008c0.535-0.079,1.011-0.39,1.281-0.855c0.174-0.303,0.244-0.648,0.22-1l0.011-0.001l-0.007-0.072
		c0,0,0,0,0-0.001l-0.008-0.069l-0.008,0.001c-0.079-0.536-0.391-1.011-0.856-1.28c-0.265-0.152-0.569-0.233-0.879-0.233
		c-0.041,0-0.081,0.003-0.121,0.006l0-0.004l-0.072,0.007c0,0,0,0,0,0l-0.071,0.008l0.001,0.008
		c-0.536,0.079-1.011,0.391-1.279,0.855c-0.174,0.303-0.243,0.647-0.22,0.999l-0.012,0.001L128.17,157.473z"/>
	<path fill="#CC99FF" d="M116.093,157.876c-0.151,0-0.319-0.041-0.513-0.125l-0.002,0.004l-0.127-0.058l-0.014-0.03l-0.039,0.008
		c-0.712-0.401-0.913-0.869-0.642-1.51l-0.005-0.002l0.034-0.088l0.052-0.079l0.041-0.027l-0.016-0.059
		c0.276-0.476,0.583-0.697,0.968-0.697c0.151,0,0.319,0.041,0.512,0.124l0.002-0.005l0.244,0.111c0.659,0.38,0.842,0.851,0.577,1.48
		l0.005,0.002l-0.025,0.072l-0.081,0.173C116.785,157.655,116.478,157.876,116.093,157.876z"/>
	<path fill="#CC99FF" d="M115.434,157.613l0.062-0.041l-0.021,0.057l0.067,0.035l0.003-0.006c0.201,0.094,0.383,0.147,0.548,0.147
		c0.356,0,0.644-0.21,0.905-0.662l0.045-0.107l0.002-0.003c0,0,0-0.001,0-0.001l0.036-0.067l-0.011-0.005
		c0.289-0.623,0.137-1.076-0.511-1.45l-0.11-0.047l-0.001,0l0-0.001c-0.003-0.001-0.006-0.002-0.009-0.004l-0.059-0.031
		l-0.003,0.006c-0.201-0.094-0.383-0.147-0.548-0.147c-0.356,0-0.644,0.21-0.905,0.662l0.062,0.036l-0.109,0.073l-0.038,0.069
		l0.012,0.005C114.562,156.754,114.716,157.209,115.434,157.613z"/>
	<path fill="#CC99FF" d="M126.744,164.618c-0.321,0-0.636-0.083-0.911-0.242c-0.477-0.275-0.81-0.774-0.892-1.333l-0.007-0.073
		l0.05-0.151c-0.08-0.304,0-0.664,0.176-0.966c0.265-0.461,0.722-0.778,1.26-0.879l0-0.004l0.071-0.016l0.069-0.007l0.154,0.054
		c0.085-0.015,0.167-0.021,0.248-0.021c0.267,0,0.504,0.078,0.716,0.2c0.456,0.264,0.781,0.732,0.88,1.263l0.004,0l0.017,0.071
		l0.008,0.073l-0.058,0.15c0.08,0.301,0,0.661-0.174,0.964c-0.263,0.456-0.731,0.781-1.262,0.879l0,0.004l-0.071,0.017l-0.069,0.007
		l-0.153-0.054L126.744,164.618z"/>
	<path fill="#CC99FF" d="M124.997,162.962c0,0.003,0.002,0.006,0.002,0.009l0.007,0.062l0.007,0
		c0.079,0.535,0.391,1.011,0.857,1.281c0.264,0.152,0.566,0.232,0.875,0.232c0.042,0,0.083-0.004,0.125-0.006l0,0.003l0.071-0.007
		h0.001l0.071-0.008l-0.001-0.008c0.536-0.079,1.011-0.39,1.279-0.855c0.174-0.302,0.243-0.647,0.22-0.999l0.011-0.001l-0.007-0.072
		l-0.008-0.071l-0.008,0.001c-0.079-0.535-0.391-1.011-0.856-1.28c-0.265-0.153-0.569-0.233-0.88-0.233
		c-0.04,0-0.079,0.003-0.118,0.006l0-0.003l-0.071,0.007h-0.001l-0.072,0.008l0.001,0.008c-0.536,0.081-1.011,0.392-1.278,0.855
		c-0.175,0.3-0.244,0.646-0.22,1l-0.012,0.001L124.997,162.962z"/>
	<path fill="#CC99FF" d="M84.352,212.763c-0.148,0-0.315-0.04-0.509-0.123l-0.002,0.006l-0.075-0.028l-0.065-0.035l-0.008-0.026
		l-0.037,0.007c-0.711-0.401-0.911-0.869-0.64-1.511l0.02-0.068l0.08-0.18c0.279-0.482,0.587-0.704,0.972-0.704
		c0.149,0,0.317,0.041,0.511,0.124l0.002-0.005l0.244,0.109c0.66,0.38,0.843,0.851,0.581,1.481l0.008,0.003l-0.029,0.075
		l-0.119,0.07l0.066,0.027C85.044,212.542,84.737,212.763,84.352,212.763z"/>
	<path fill="#CC99FF" d="M84.818,210.395l-0.109-0.045l-0.003-0.002l0,0c-0.001,0-0.001-0.001-0.002-0.001l-0.064-0.035
		l-0.003,0.008c-0.201-0.094-0.383-0.147-0.547-0.147c-0.356,0-0.645,0.21-0.906,0.661l-0.08,0.18l0.008,0.004
		c-0.29,0.625-0.136,1.079,0.581,1.483l0.062-0.039l-0.019,0.049l-0.004,0.007l0.068,0.037l0.004-0.01
		c0.201,0.093,0.383,0.146,0.548,0.146c0.356,0,0.644-0.21,0.905-0.66l0.03-0.072l0.019-0.037c0.002-0.005,0.002-0.009,0.005-0.014
		l0.032-0.056l-0.011-0.005C85.618,211.222,85.466,210.769,84.818,210.395z"/>
	<path fill="#CC99FF" d="M95.004,219.505c-0.326,0-0.633-0.082-0.913-0.243c-0.456-0.264-0.781-0.732-0.88-1.264L93.207,218
		l-0.016-0.072l-0.007-0.073l0.057-0.149c-0.079-0.302,0-0.661,0.175-0.964c0.265-0.456,0.733-0.781,1.263-0.879l0-0.005
		l0.072-0.016l0.069-0.007l0.152,0.055l0.049-0.066c0.322,0,0.639,0.084,0.916,0.243c0.464,0.269,0.782,0.727,0.88,1.264h0.004
		l0.016,0.071l0.008,0.073l-0.058,0.147c0.08,0.301,0.001,0.661-0.174,0.967c-0.264,0.454-0.732,0.779-1.263,0.879l0,0.005
		l-0.073,0.015l-0.071,0.007l-0.15-0.056L95.004,219.505z"/>
	<path fill="#CC99FF" d="M96.772,217.478c0-0.001,0-0.001,0-0.002l-0.007-0.067l-0.008,0.001c-0.078-0.536-0.391-1.012-0.856-1.281
		c-0.265-0.152-0.569-0.233-0.88-0.233c-0.041,0-0.08,0.004-0.12,0.007l0-0.004l-0.071,0.008l-0.072,0.007l0.001,0.009
		c-0.535,0.078-1.01,0.391-1.279,0.855c-0.174,0.302-0.243,0.646-0.22,0.998l-0.012,0.001l0.007,0.072
		c0,0.003,0.001,0.006,0.002,0.008l0.007,0.063l0.007-0.001c0.079,0.535,0.391,1.012,0.856,1.281
		c0.268,0.154,0.563,0.233,0.877,0.233c0.041,0,0.081-0.004,0.122-0.007l0,0.005l0.072-0.008c0.003,0,0.005-0.001,0.008-0.002
		l0.063-0.006l-0.001-0.008c0.536-0.08,1.012-0.392,1.281-0.855c0.174-0.304,0.244-0.649,0.22-1.001l0.011-0.001L96.772,217.478z"/>
	<path fill="#CC99FF" d="M87.524,207.275c-0.149,0-0.316-0.041-0.51-0.124l-0.003,0.007l-0.091-0.037l-0.072-0.05l-0.018,0.002
		c-0.713-0.399-0.913-0.868-0.64-1.511l-0.005-0.002l0.033-0.089l0.053-0.079l0.039-0.025l-0.016-0.058
		c0.275-0.477,0.582-0.698,0.967-0.698c0.149,0,0.317,0.041,0.511,0.124l0.002-0.006l0.088,0.038l0.079,0.052l0.027,0.041
		l0.059-0.016c0.654,0.378,0.836,0.85,0.569,1.479l0.004,0.002l-0.025,0.071l-0.031,0.06l-0.07,0.056l0.018,0.065
		C88.217,207.053,87.909,207.275,87.524,207.275z"/>
	<path fill="#CC99FF" d="M87.992,204.907l-0.036,0.062l-0.074-0.11l-0.068-0.037l-0.003,0.008c-0.201-0.093-0.383-0.146-0.548-0.146
		c-0.356,0-0.644,0.21-0.905,0.662l0.062,0.036l-0.109,0.071l-0.038,0.069l0.012,0.006c-0.291,0.625-0.136,1.08,0.581,1.482
		l0.062-0.039l-0.016,0.043l-0.007,0.012l0.002,0.001l0,0.001c0.002,0.001,0.004,0.002,0.007,0.003l0.061,0.034l0.004-0.009
		c0.2,0.093,0.382,0.146,0.546,0.146c0.357,0,0.645-0.211,0.907-0.662l-0.062-0.036l0.043-0.029l0.036,0.016l0.031-0.061
		l0.036-0.067l-0.01-0.005C88.793,205.734,88.641,205.282,87.992,204.907z"/>
	<path fill="#CC99FF" d="M98.179,214.016c-0.322,0-0.639-0.084-0.915-0.243c-0.457-0.265-0.782-0.732-0.88-1.263H96.38l-0.016-0.071
		l-0.008-0.073l0.058-0.148c-0.08-0.302-0.001-0.661,0.174-0.965c0.264-0.457,0.733-0.782,1.264-0.88l0-0.005l0.073-0.015
		l0.072-0.008l0.148,0.057c0.087-0.016,0.17-0.022,0.251-0.022c0.267,0,0.502,0.077,0.714,0.199c0.462,0.267,0.78,0.724,0.879,1.262
		h0.004l0.016,0.071l0.008,0.073l-0.058,0.149c0.079,0.302,0,0.66-0.174,0.964c-0.269,0.464-0.727,0.781-1.265,0.879l0,0.005
		l-0.072,0.016l-0.069,0.007l-0.151-0.055L98.179,214.016z"/>
	<path fill="#CC99FF" d="M99.947,211.991l-0.008-0.071l-0.008,0.001c-0.079-0.536-0.391-1.012-0.856-1.279
		c-0.265-0.152-0.569-0.233-0.881-0.233c-0.04,0-0.08,0.004-0.12,0.006l0-0.005l-0.072,0.008c-0.003,0-0.005,0.002-0.008,0.002
		l-0.062,0.006l0.001,0.008c-0.536,0.078-1.012,0.391-1.281,0.856c-0.174,0.302-0.244,0.646-0.22,0.999l-0.011,0.001l0.007,0.072
		v0.001l0.008,0.069l0.008-0.001c0.078,0.535,0.39,1.011,0.856,1.28c0.265,0.152,0.569,0.233,0.879,0.233
		c0.041,0,0.081-0.004,0.122-0.007l0,0.004l0.071-0.008c0,0,0,0,0.001,0l0.07-0.007l-0.001-0.009
		c0.535-0.078,1.011-0.39,1.281-0.855c0.173-0.302,0.242-0.646,0.219-0.998l0.011-0.001L99.947,211.991z"/>
	<path fill="#CC99FF" d="M90.7,201.787c-0.149,0-0.316-0.041-0.511-0.123l-0.002,0.005l-0.072-0.03l-0.039-0.039l-0.017-0.027
		l-0.057,0.011c-0.708-0.399-0.908-0.866-0.638-1.506l-0.008-0.004l0.027-0.075l0.082-0.169c0.279-0.484,0.586-0.706,0.971-0.706
		c0.149,0,0.317,0.041,0.511,0.124l0.002-0.004l0.245,0.108c0.662,0.381,0.844,0.853,0.577,1.483l0.004,0.002l-0.025,0.071
		l-0.08,0.174C91.392,201.565,91.084,201.787,90.7,201.787z"/>
	<path fill="#CC99FF" d="M91.166,199.417l-0.11-0.047l-0.068-0.036l-0.003,0.008c-0.201-0.094-0.383-0.147-0.548-0.147
		c-0.357,0-0.644,0.211-0.905,0.662l-0.045,0.106l-0.041,0.07l0.013,0.006c-0.289,0.624-0.135,1.078,0.579,1.48l0.067-0.04
		l-0.016,0.042l-0.009,0.016l0.002,0.001v0.001c0.002,0.001,0.004,0.002,0.006,0.003l0.06,0.032l0.003-0.007
		c0.202,0.093,0.384,0.146,0.549,0.146c0.356,0,0.644-0.21,0.905-0.661l0.047-0.111l0.036-0.067l-0.01-0.005
		C91.967,200.245,91.815,199.792,91.166,199.417z"/>
	<path fill="#CC99FF" d="M101.352,208.528c-0.322,0-0.638-0.085-0.913-0.244c-0.455-0.263-0.78-0.73-0.879-1.263l-0.004,0.001
		l-0.017-0.071l-0.008-0.073l0.058-0.149c-0.08-0.301,0-0.66,0.174-0.964c0.279-0.481,0.764-0.807,1.333-0.893l0.07-0.008
		l0.154,0.047c0.088-0.016,0.173-0.022,0.254-0.022c0.267,0,0.497,0.077,0.709,0.2c0.457,0.264,0.782,0.732,0.88,1.263l0.004-0.001
		l0.015,0.073l0.007,0.073l-0.057,0.147c0.08,0.301,0,0.661-0.175,0.966c-0.264,0.456-0.732,0.781-1.262,0.879l0,0.004l-0.072,0.016
		l-0.07,0.008l-0.152-0.055L101.352,208.528z"/>
	<path fill="#CC99FF" d="M103.121,206.5c0-0.004-0.002-0.007-0.002-0.01l-0.006-0.06l-0.007,0.001
		c-0.078-0.535-0.39-1.012-0.857-1.281c-0.267-0.155-0.563-0.233-0.879-0.233c-0.04,0-0.08,0.004-0.12,0.006l0-0.004l-0.072,0.008
		c0,0,0,0,0,0l-0.071,0.007l0.001,0.009c-0.542,0.082-1.008,0.387-1.281,0.857c-0.174,0.303-0.243,0.647-0.22,0.998l-0.011,0.001
		l0.007,0.072l0.008,0.071l0.008-0.001c0.079,0.536,0.391,1.012,0.855,1.279c0.264,0.153,0.567,0.234,0.877,0.234
		c0.042,0,0.082-0.004,0.123-0.007l0,0.004l0.071-0.008c0,0,0,0,0.001,0l0.071-0.008l-0.001-0.008
		c0.535-0.078,1.011-0.391,1.279-0.855c0.174-0.303,0.244-0.647,0.22-1l0.012-0.001L103.121,206.5z"/>
	<path fill="#CC99FF" d="M93.873,196.297c-0.15,0-0.317-0.04-0.508-0.122l-0.073-0.027l-0.058-0.029l-0.014-0.027l-0.037,0.007
		c-0.713-0.402-0.915-0.87-0.646-1.511l-0.005-0.003l0.034-0.088l0.051-0.078l0.042-0.028l-0.016-0.059
		c0.275-0.476,0.583-0.697,0.969-0.697c0.149,0,0.317,0.041,0.512,0.124l0.003-0.007l0.089,0.037l0.079,0.055l0.025,0.04
		l0.057-0.016c0.654,0.378,0.836,0.85,0.569,1.479l0.004,0.002l-0.025,0.071l-0.031,0.06l-0.07,0.056l0.018,0.065
		C94.565,196.076,94.258,196.297,93.873,196.297z"/>
	<path fill="#CC99FF" d="M93.277,195.994l-0.021,0.057c0.002,0.001,0.003,0.001,0.005,0.002l0.063,0.031l0.002-0.005
		c0.201,0.094,0.383,0.146,0.547,0.146c0.356,0,0.644-0.21,0.905-0.661l-0.062-0.036l0.043-0.029l0.036,0.016l0.031-0.061
		l0.036-0.067l-0.01-0.005c0.29-0.624,0.138-1.076-0.511-1.451l-0.036,0.062l-0.07-0.11l-0.069-0.04l-0.005,0.011
		c-0.201-0.093-0.383-0.146-0.548-0.146c-0.357,0-0.645,0.21-0.906,0.661l0.062,0.036l-0.11,0.074l0,0h0
		c0,0.001,0,0.002-0.001,0.003l-0.035,0.065l0.011,0.005c-0.287,0.623-0.133,1.078,0.587,1.484L93.277,195.994z"/>
	<path fill="#CC99FF" d="M104.531,203.039c-0.324,0-0.642-0.084-0.917-0.243c-0.456-0.264-0.781-0.731-0.88-1.263l-0.004,0.001
		l-0.017-0.071l-0.008-0.073l0.058-0.149c-0.08-0.304,0-0.663,0.175-0.964c0.277-0.481,0.762-0.807,1.331-0.892l0.07-0.008
		l0.154,0.046c0.086-0.016,0.169-0.022,0.25-0.022c0.267,0,0.503,0.078,0.715,0.2c0.457,0.265,0.782,0.732,0.88,1.263l0.004-0.001
		l0.015,0.073l0.007,0.073l-0.057,0.148c0.08,0.305,0,0.664-0.176,0.965c-0.273,0.475-0.771,0.807-1.329,0.89l-0.071,0.008
		l-0.154-0.046L104.531,203.039z"/>
	<path fill="#CC99FF" d="M106.294,201.013c0-0.003-0.002-0.006-0.002-0.009l-0.007-0.062l-0.007,0.001
		c-0.078-0.535-0.391-1.012-0.857-1.281c-0.264-0.152-0.569-0.233-0.881-0.233c-0.04,0-0.079,0.004-0.119,0.006l0-0.004
		l-0.072,0.008c0,0,0,0,0,0l-0.071,0.007l0.001,0.01c-0.536,0.08-1.012,0.392-1.279,0.856c-0.174,0.3-0.243,0.646-0.22,0.998
		l-0.011,0.001l0.007,0.072l0.008,0.071l0.008-0.001c0.079,0.535,0.391,1.011,0.856,1.279c0.264,0.152,0.569,0.233,0.881,0.233
		c0.039,0,0.078-0.004,0.117-0.006l0,0.004l0.071-0.008c0,0,0.001,0,0.001,0l0.072-0.007l-0.001-0.01
		c0.536-0.079,1.011-0.392,1.278-0.854c0.175-0.3,0.244-0.645,0.22-0.999l0.012-0.001L106.294,201.013z"/>
	<path fill="#CC99FF" d="M97.048,190.809c-0.149,0-0.316-0.041-0.509-0.123l-0.001,0.003l-0.13-0.06l-0.014-0.027l-0.038,0.007
		c-0.714-0.401-0.915-0.87-0.644-1.511l-0.005-0.002l0.034-0.089l0.05-0.077l0.042-0.028l-0.016-0.06
		c0.275-0.475,0.583-0.695,0.968-0.695c0.151,0,0.319,0.041,0.514,0.124l0.001-0.003l0.243,0.105
		c0.662,0.382,0.843,0.854,0.576,1.484l0.005,0.003l-0.024,0.073l-0.032,0.058l-0.071,0.056l0.018,0.064
		C97.74,190.587,97.433,190.809,97.048,190.809z"/>
	<path fill="#CC99FF" d="M96.391,190.546l0.06-0.042l-0.021,0.057c0.002,0.001,0.003,0.001,0.005,0.002l0.063,0.031l0.002-0.005
		c0.201,0.094,0.383,0.147,0.548,0.147c0,0,0,0,0,0c0.356,0,0.644-0.21,0.904-0.661l-0.062-0.036l0.045-0.029l0.035,0.016
		l0.029-0.057l0-0.001l0.038-0.069l-0.012-0.006c0.29-0.625,0.139-1.078-0.51-1.453l-0.112-0.047l-0.067-0.034l-0.003,0.006
		c-0.201-0.093-0.383-0.146-0.548-0.146c-0.357,0-0.645,0.209-0.905,0.659l0.062,0.036l-0.11,0.075l-0.036,0.067l0.011,0.005
		C95.518,189.686,95.671,190.141,96.391,190.546z"/>
	<path fill="#CC99FF" d="M107.7,197.55c-0.322,0-0.638-0.084-0.912-0.243c-0.465-0.269-0.783-0.727-0.881-1.265l-0.004,0.001
		l-0.016-0.071l-0.007-0.073l0.058-0.149c-0.078-0.307,0.001-0.665,0.176-0.964c0.264-0.456,0.732-0.781,1.262-0.879l0-0.005
		l0.073-0.015l0.071-0.007l0.15,0.056l0.05-0.067c0.323,0,0.639,0.084,0.914,0.243c0.462,0.269,0.78,0.726,0.879,1.263l0.004-0.001
		l0.017,0.071l0.008,0.073l-0.058,0.149c0.08,0.302,0,0.662-0.174,0.965c-0.281,0.484-0.767,0.809-1.333,0.892l-0.072,0.008
		l-0.151-0.049L107.7,197.55z"/>
	<path fill="#CC99FF" d="M109.469,195.524l-0.008-0.071l-0.008,0.001c-0.079-0.535-0.391-1.01-0.855-1.279
		c-0.264-0.152-0.567-0.233-0.878-0.233c-0.041,0-0.081,0.004-0.122,0.007l0-0.005l-0.071,0.008c-0.002,0-0.005,0.001-0.008,0.002
		l-0.064,0.006l0.001,0.008c-0.535,0.078-1.011,0.391-1.28,0.855c-0.174,0.298-0.243,0.643-0.221,0.998l-0.011,0.001l0.007,0.072
		l0.007,0.071l0.008-0.001c0.079,0.542,0.384,1.008,0.857,1.281c0.263,0.152,0.565,0.233,0.876,0.233
		c0.041,0,0.082-0.004,0.122-0.007l0,0.005l0.072-0.008c0.003,0,0.005-0.002,0.008-0.002l0.062-0.006l0-0.008
		c0.542-0.079,1.008-0.385,1.281-0.856c0.174-0.302,0.243-0.646,0.22-0.999l0.011-0.001L109.469,195.524z"/>
	<path fill="#CC99FF" d="M100.223,185.321c-0.15,0-0.319-0.041-0.514-0.125l-0.003,0.008l-0.073-0.03l-0.063-0.037l-0.009-0.027
		l-0.038,0.007c-0.708-0.397-0.907-0.863-0.638-1.503l-0.005-0.002l0.028-0.075l0.081-0.174c0.278-0.483,0.585-0.705,0.97-0.705
		c0.15,0,0.318,0.041,0.512,0.124l0.002-0.005l0.246,0.11c0.661,0.381,0.843,0.853,0.577,1.481l0.005,0.003l-0.024,0.073
		l-0.082,0.172C100.915,185.099,100.607,185.321,100.223,185.321z"/>
	<path fill="#CC99FF" d="M99.557,185.053l0.068-0.039l-0.012,0.031l-0.015,0.025l0.069,0.04l0.004-0.01
		c0.202,0.094,0.385,0.147,0.55,0.147c0.356,0,0.644-0.21,0.905-0.661l0.047-0.109l0.038-0.069l-0.012-0.006
		c0.288-0.623,0.136-1.076-0.511-1.45l-0.111-0.047l-0.068-0.036l-0.003,0.007c-0.202-0.094-0.384-0.147-0.549-0.147
		c-0.356,0-0.644,0.21-0.904,0.661l-0.047,0.112l0,0h-0.001c-0.001,0.002-0.001,0.004-0.002,0.006l-0.033,0.062l0.01,0.004
		C98.691,184.198,98.845,184.653,99.557,185.053z"/>
	<path fill="#CC99FF" d="M110.876,192.061c-0.322,0-0.638-0.084-0.915-0.243c-0.464-0.269-0.781-0.726-0.88-1.262h-0.004
		l-0.016-0.071l-0.008-0.073l0.058-0.149c-0.08-0.301,0-0.661,0.174-0.965c0.264-0.456,0.732-0.781,1.264-0.879l0-0.005l0.072-0.016
		l0.07-0.007l0.151,0.055c0.089-0.016,0.174-0.022,0.255-0.022c0.266,0,0.497,0.077,0.708,0.2c0.456,0.262,0.781,0.729,0.88,1.261
		h0.004l0.016,0.072l0.007,0.073l-0.057,0.149c0.079,0.303,0,0.662-0.175,0.965c-0.266,0.463-0.723,0.78-1.261,0.88l0.001,0.004
		l-0.147,0.023l-0.149-0.058L110.876,192.061z"/>
	<path fill="#CC99FF" d="M112.643,190.036c0-0.003-0.001-0.006-0.002-0.008l-0.007-0.063l-0.007,0.001
		c-0.079-0.537-0.392-1.013-0.857-1.279c-0.267-0.155-0.562-0.233-0.879-0.233c-0.04,0-0.08,0.004-0.12,0.006l0-0.004l-0.071,0.008
		l-0.072,0.007l0.001,0.009c-0.535,0.078-1.011,0.39-1.28,0.855c-0.174,0.303-0.243,0.647-0.22,0.999l-0.011,0.001l0.007,0.072
		l0.008,0.071l0.008-0.001c0.079,0.535,0.391,1.01,0.856,1.279c0.265,0.152,0.569,0.233,0.879,0.233
		c0.041,0,0.081-0.004,0.121-0.007l0,0.006l0.072-0.008c0.005-0.001,0.01-0.003,0.015-0.003l0.056-0.006l-0.001-0.007
		c0.536-0.079,1.011-0.391,1.279-0.856c0.174-0.301,0.243-0.646,0.22-0.999l0.012-0.001L112.643,190.036z"/>
	<path fill="#CC99FF" d="M103.397,179.832c-0.15,0-0.318-0.041-0.512-0.124l-0.002,0.005l-0.072-0.029l-0.064-0.034l-0.009-0.026
		l-0.036,0.007c-0.712-0.4-0.912-0.868-0.641-1.509l-0.004-0.002l0.025-0.072l0.081-0.174c0.279-0.483,0.586-0.705,0.971-0.705
		c0.15,0,0.318,0.041,0.511,0.124l0.002-0.004l0.088,0.037l0.078,0.051l0.028,0.041l0.059-0.016c0.653,0.376,0.836,0.847,0.57,1.478
		l0.008,0.003l-0.027,0.075l-0.082,0.169C104.089,179.61,103.782,179.832,103.397,179.832z"/>
	<path fill="#CC99FF" d="M102.737,179.567l0.063-0.041l-0.016,0.041l-0.009,0.016l0.068,0.037l0.003-0.008
		c0.202,0.094,0.384,0.147,0.549,0.147c0.356,0,0.644-0.21,0.905-0.662l0.045-0.107l0.041-0.07l-0.013-0.006
		c0.29-0.625,0.138-1.078-0.511-1.452l-0.036,0.062l-0.074-0.109l-0.068-0.037l-0.003,0.008c-0.201-0.094-0.383-0.147-0.548-0.147
		c-0.357,0-0.644,0.21-0.905,0.662l-0.047,0.11l0,0.001h0c0,0.001,0,0.002-0.001,0.003l-0.034,0.064l0.01,0.004
		C101.866,178.71,102.02,179.164,102.737,179.567z"/>
	<path fill="#CC99FF" d="M114.048,186.573c-0.322,0-0.638-0.085-0.913-0.244c-0.456-0.262-0.781-0.73-0.88-1.261h-0.004
		l-0.016-0.072l-0.007-0.073l0.057-0.149c-0.08-0.302,0-0.661,0.175-0.964c0.264-0.456,0.731-0.78,1.262-0.878l0-0.004l0.071-0.017
		l0.071-0.008l0.152,0.055l0.053-0.066c0.322,0,0.638,0.084,0.911,0.242c0.463,0.268,0.781,0.726,0.88,1.264l0.004-0.001
		l0.015,0.073l0.007,0.073l-0.057,0.148c0.08,0.301,0,0.659-0.175,0.964c-0.274,0.475-0.771,0.807-1.33,0.89l-0.07,0.008
		l-0.155-0.046L114.048,186.573z"/>
	<path fill="#CC99FF" d="M115.817,184.547c0-0.003-0.002-0.006-0.002-0.009l-0.007-0.062l-0.007,0.001
		c-0.079-0.536-0.391-1.013-0.857-1.282c-0.263-0.152-0.566-0.232-0.875-0.232c-0.042,0-0.083,0.004-0.124,0.007l0-0.004
		l-0.07,0.008c-0.001,0-0.002,0-0.003,0l-0.071,0.008l0.001,0.009c-0.535,0.078-1.01,0.39-1.278,0.854
		c-0.174,0.302-0.243,0.646-0.22,0.998l-0.012,0.001l0.007,0.072c0,0.003,0.001,0.006,0.002,0.009l0.007,0.062l0.007-0.001
		c0.079,0.536,0.391,1.012,0.856,1.279c0.264,0.153,0.567,0.234,0.876,0.234c0.041,0,0.082-0.004,0.123-0.007l0,0.004l0.071-0.008
		c0,0,0.001,0,0.002,0l0.071-0.008l-0.001-0.009c0.535-0.079,1.01-0.391,1.278-0.854c0.174-0.303,0.243-0.647,0.22-0.998
		l0.012-0.001L115.817,184.547z"/>
	<path fill="#CC99FF" d="M112.919,163.366c-0.151,0-0.318-0.041-0.512-0.124l-0.002,0.004l-0.072-0.029l-0.062-0.034l-0.009-0.026
		l-0.036,0.007c-0.712-0.401-0.912-0.868-0.642-1.508l-0.005-0.002l0.026-0.074l0.081-0.172c0.279-0.483,0.586-0.705,0.971-0.705
		c0.151,0,0.318,0.041,0.512,0.124l0.002-0.004l0.088,0.037l0.078,0.052l0.027,0.041l0.059-0.016
		c0.653,0.376,0.836,0.847,0.57,1.476l0.004,0.002l-0.025,0.073l-0.032,0.061l-0.071,0.055l0.018,0.066
		C113.61,163.144,113.303,163.366,112.919,163.366z"/>
	<path fill="#CC99FF" d="M112.26,163.102l0.062-0.041l-0.018,0.046l-0.005,0.01l0.068,0.037l0.003-0.008
		c0.201,0.094,0.383,0.147,0.548,0.147c0,0,0,0,0,0c0.356,0,0.644-0.21,0.904-0.662l-0.062-0.036l0.044-0.03l0.035,0.016l0.03-0.06
		l0.001,0l0.036-0.068l-0.01-0.004c0.29-0.625,0.138-1.078-0.511-1.451l-0.036,0.062l-0.074-0.109l-0.068-0.037l-0.003,0.008
		c-0.201-0.094-0.383-0.147-0.548-0.147c-0.356,0-0.644,0.21-0.905,0.662l-0.047,0.11l-0.037,0.068l0.011,0.005
		C111.388,162.244,111.542,162.698,112.26,163.102z"/>
	<path fill="#CC99FF" d="M123.574,170.105c-0.324,0-0.641-0.084-0.917-0.243c-0.456-0.263-0.78-0.731-0.879-1.262l-0.004,0
		l-0.017-0.071l-0.008-0.073l0.058-0.15c-0.08-0.301,0-0.661,0.174-0.964c0.262-0.456,0.73-0.781,1.263-0.879l0-0.004l0.071-0.017
		l0.069-0.007l0.153,0.054c0.086-0.015,0.169-0.022,0.25-0.022c0.268,0,0.503,0.078,0.714,0.2c0.457,0.264,0.782,0.733,0.88,1.264
		l0.004,0l0.016,0.072l0.007,0.072l-0.058,0.149c0.08,0.303,0,0.663-0.176,0.965c-0.273,0.475-0.771,0.808-1.33,0.891l-0.071,0.007
		l-0.154-0.047L123.574,170.105z"/>
	<path fill="#CC99FF" d="M123.467,166.5l-0.071,0.007c0,0,0,0-0.001,0l-0.071,0.008l0.001,0.008c-0.537,0.079-1.013,0.39-1.28,0.855
		c-0.174,0.302-0.243,0.647-0.22,0.999l-0.011,0.001l0.007,0.072l0.008,0.071l0.008-0.001c0.079,0.536,0.391,1.011,0.855,1.279
		c0.265,0.153,0.569,0.233,0.88,0.233c0.04,0,0.08-0.003,0.119-0.006l0,0.004l0.071-0.007c0.003,0,0.005-0.001,0.008-0.002
		l0.063-0.007l0-0.007c0.535-0.079,1.011-0.391,1.278-0.855c0.175-0.3,0.244-0.645,0.221-1l0.011-0.001l-0.007-0.072
		c0,0,0,0,0-0.001l-0.007-0.069l-0.008,0.001c-0.079-0.535-0.391-1.012-0.857-1.281c-0.264-0.153-0.566-0.233-0.875-0.233
		c-0.042,0-0.082,0.004-0.123,0.006L123.467,166.5z"/>
	<path fill="#CC99FF" d="M109.745,168.854c-0.15,0-0.318-0.041-0.513-0.124l-0.002,0.005l-0.072-0.029l-0.063-0.034l-0.01-0.028
		l-0.038,0.007c-0.709-0.4-0.909-0.867-0.64-1.507l-0.008-0.003l0.027-0.075l0.082-0.169c0.28-0.484,0.587-0.706,0.973-0.706
		c0.149,0,0.316,0.04,0.509,0.124l0.07,0.024l0.179,0.081c0.659,0.381,0.842,0.852,0.577,1.48l0.005,0.002l-0.025,0.074l-0.031,0.06
		l-0.071,0.055l0.018,0.066C110.437,168.633,110.13,168.854,109.745,168.854z"/>
	<path fill="#CC99FF" d="M109.083,168.589l0.065-0.041l-0.016,0.041l-0.009,0.017l0.068,0.037l0.003-0.008
		c0.201,0.094,0.384,0.147,0.549,0.147c0.356,0,0.644-0.21,0.905-0.662l-0.062-0.036l0.043-0.03l0.035,0.016l0.03-0.059l0.001-0.001
		l0.036-0.068l-0.011-0.005c0.289-0.624,0.138-1.077-0.511-1.452l-0.179-0.081l-0.002,0.006c-0.201-0.094-0.383-0.147-0.547-0.147
		c-0.357,0-0.646,0.21-0.907,0.662l-0.045,0.106l-0.003,0.005h0c0,0.001,0,0.001-0.001,0.002l-0.037,0.063l0.013,0.006
		C108.214,167.732,108.369,168.186,109.083,168.589z"/>
	<path fill="#CC99FF" d="M120.399,175.594c-0.323,0-0.64-0.083-0.916-0.242c-0.475-0.274-0.807-0.771-0.891-1.331l-0.007-0.072
		l0.048-0.153c-0.079-0.304,0-0.664,0.174-0.965c0.268-0.462,0.726-0.78,1.264-0.879l0-0.004l0.072-0.016l0.07-0.007l0.151,0.055
		l0.05-0.065c0.324,0,0.641,0.084,0.916,0.243c0.456,0.263,0.781,0.731,0.879,1.262l0.004,0l0.016,0.071l0.008,0.073l-0.058,0.15
		c0.079,0.302,0,0.662-0.174,0.964c-0.279,0.483-0.765,0.808-1.332,0.892l-0.072,0.007l-0.153-0.048L120.399,175.594z"/>
	<path fill="#CC99FF" d="M120.663,175.498c0.542-0.08,1.007-0.385,1.28-0.856c0.173-0.301,0.243-0.646,0.22-0.999l0.011-0.001
		l-0.007-0.071l-0.008-0.072l-0.008,0.001c-0.079-0.536-0.39-1.011-0.855-1.279c-0.265-0.153-0.569-0.233-0.88-0.233
		c-0.041,0-0.081,0.003-0.121,0.006l0-0.004l-0.072,0.007c0,0-0.001,0-0.001,0l-0.069,0.007l0.001,0.008
		c-0.536,0.079-1.012,0.391-1.281,0.856c-0.174,0.301-0.242,0.646-0.22,1l-0.01,0.001l0.006,0.065c0,0.002,0,0.004,0,0.006
		l0.007,0.072l0.01-0.001c0.08,0.535,0.391,1.011,0.855,1.279c0.265,0.152,0.569,0.233,0.879,0.233c0.041,0,0.081-0.003,0.121-0.006
		l0,0.005l0.072-0.007c0.003,0,0.006-0.001,0.009-0.002l0.062-0.007L120.663,175.498z"/>
	<path fill="#CC99FF" d="M117.257,181.136c-0.323,0-0.639-0.083-0.915-0.242c-0.506-0.293-0.846-0.819-0.907-1.406
		c-0.041-0.394,0.04-0.779,0.232-1.114c0.293-0.506,0.819-0.845,1.406-0.907c0.066-0.006,0.133-0.01,0.199-0.01
		c0.324,0,0.641,0.084,0.916,0.243c0.505,0.292,0.845,0.817,0.907,1.404c0.042,0.393-0.039,0.778-0.232,1.116
		c-0.293,0.506-0.818,0.845-1.405,0.907C117.392,181.133,117.325,181.136,117.257,181.136z"/>
	<path fill="#CC99FF" d="M118.152,177.762c-0.264-0.153-0.568-0.233-0.879-0.233c-0.064,0-0.128,0.003-0.192,0.01
		c-0.564,0.06-1.069,0.386-1.351,0.872c-0.186,0.322-0.263,0.692-0.223,1.071c0.059,0.564,0.385,1.069,0.872,1.351
		c0.265,0.152,0.568,0.233,0.878,0.233c0.065,0,0.129-0.003,0.193-0.01c0.564-0.06,1.069-0.385,1.35-0.872
		c0.187-0.324,0.264-0.694,0.223-1.072C118.964,178.547,118.638,178.042,118.152,177.762z"/>
	<path fill="#CC99FF" d="M106.604,174.396c-0.151,0-0.319-0.041-0.513-0.124l-0.002,0.004l-0.071-0.027l-0.064-0.035l-0.009-0.027
		l-0.038,0.007c-0.709-0.401-0.909-0.868-0.639-1.508l-0.005-0.002l0.026-0.074l0.081-0.172c0.279-0.483,0.586-0.705,0.971-0.705
		c0.15,0,0.318,0.041,0.512,0.124l0.002-0.005l0.245,0.109c0.66,0.382,0.843,0.853,0.577,1.481l0.007,0.003l-0.027,0.075
		l-0.081,0.17C107.296,174.175,106.989,174.396,106.604,174.396z"/>
	<path fill="#CC99FF" d="M105.943,174.132l0.063-0.039l-0.018,0.048l-0.004,0.008l0.068,0.037l0.004-0.008
		c0.201,0.094,0.383,0.147,0.548,0.147c0.356,0,0.644-0.21,0.905-0.662l0.042-0.1l0.005-0.01c0-0.001,0-0.002,0.001-0.003
		l0.037-0.064l-0.012-0.005c0.289-0.623,0.138-1.076-0.51-1.452l-0.11-0.047l-0.068-0.037l-0.003,0.008
		c-0.201-0.094-0.384-0.147-0.549-0.147c-0.357,0-0.644,0.21-0.905,0.662l-0.047,0.11l-0.037,0.068l0.011,0.005
		C105.074,173.274,105.228,173.728,105.943,174.132z"/>
	<path fill="#CC99FF" d="M219.071,182.463c-0.333,0-0.608-0.172-0.867-0.541l-0.042-0.055l0.002-0.031l-0.037-0.013
		c-0.417-0.705-0.356-1.21,0.199-1.629l-0.003-0.004l0.073-0.058l0.081-0.042l0.052-0.004l0.016-0.06
		c0.279-0.161,0.523-0.239,0.745-0.239c0.314,0,0.577,0.153,0.822,0.48l0.003-0.002l0.159,0.218c0.382,0.661,0.304,1.16-0.241,1.572
		l0.002,0.004l-0.058,0.05l-0.057,0.036l-0.089,0.014l-0.018,0.066C219.537,182.385,219.293,182.463,219.071,182.463z"/>
	<path fill="#CC99FF" d="M218.265,181.782l-0.047,0.039c0.001,0.002,0.002,0.003,0.004,0.005l0.038,0.058l0.003-0.002
		c0.239,0.342,0.497,0.51,0.808,0.51c0.209,0,0.441-0.075,0.709-0.229l-0.036-0.062l0.053-0.004l0.022,0.03l0.057-0.037l0.064-0.041
		l-0.006-0.009c0.563-0.395,0.659-0.863,0.284-1.513l-0.073-0.097l-0.042-0.065l-0.006,0.004c-0.239-0.342-0.496-0.51-0.807-0.51
		c-0.209,0-0.441,0.075-0.709,0.229l0.036,0.062l-0.133,0.011l-0.001,0l0,0c-0.002,0.001-0.002,0.002-0.004,0.003l-0.06,0.038
		l0.006,0.008c-0.562,0.396-0.656,0.866-0.236,1.576L218.265,181.782z"/>
	<path fill="#CC99FF" d="M154.26,278.719c-0.755,0-1.148-0.317-1.232-0.997l-0.023-0.141l0.02-0.027l-0.023-0.026
		c-0.008-0.817,0.296-1.225,0.986-1.312l0.071-0.018c0,0,0.197-0.018,0.197-0.018c0.76,0,1.153,0.315,1.237,0.993l0.016,0.072
		l0.02,0.196c0,0.761-0.317,1.153-0.996,1.238l-0.069,0.016l-0.2,0.022H154.26z"/>
	<path fill="#CC99FF" d="M155.429,277.254c-0.061-0.686-0.418-1.002-1.168-1.002l-0.196,0.018l0.001,0.011
		c-0.685,0.062-1.001,0.421-0.993,1.246l0.068,0.031l-0.054,0.009l-0.008,0.001v0.001h-0.001c0,0.004,0.001,0.006,0.001,0.009
		l0.005,0.064l0.007-0.001c0.06,0.688,0.418,1.006,1.168,1.006l0.196-0.021l-0.001-0.009c0.686-0.062,1.002-0.419,1.002-1.167
		l-0.02-0.196L155.429,277.254z"/>
	<path fill="#CC99FF" d="M154.26,266.83c-0.523,0-1.038-0.242-1.391-0.651l-0.004,0.003l-0.052-0.056l-0.042-0.058l-0.027-0.159
		c-0.218-0.222-0.329-0.573-0.329-0.924c0-0.525,0.243-1.042,0.653-1.394l-0.002-0.003l0.054-0.049l0.056-0.041l0.159-0.03
		c0.226-0.218,0.576-0.329,0.925-0.329c0.549,0,1.086,0.265,1.438,0.708l0.042,0.059l0.036,0.155
		c0.217,0.224,0.328,0.574,0.328,0.924c0,0.535-0.237,1.039-0.652,1.393l0.002,0.003l-0.054,0.049l-0.06,0.043l-0.159,0.026
		C154.96,266.718,154.609,266.83,154.26,266.83z"/>
	<path fill="#CC99FF" d="M155.733,264.003l-0.042-0.058l-0.042-0.059l-0.007,0.005c-0.335-0.424-0.843-0.681-1.381-0.681
		c-0.348,0-0.681,0.113-0.975,0.31l-0.007-0.009l-0.059,0.042c-0.001,0.001-0.002,0.003-0.004,0.004l-0.053,0.039l0.004,0.006
		c-0.424,0.337-0.68,0.846-0.68,1.382c0,0.349,0.112,0.682,0.309,0.975l-0.009,0.007l0.042,0.059l0.042,0.059l0.007-0.006
		c0.337,0.423,0.845,0.68,1.381,0.68c0.349,0,0.681-0.113,0.975-0.31l0.007,0.01l0.058-0.042c0.002-0.001,0.003-0.004,0.005-0.005
		l0.053-0.039l-0.004-0.006c0.43-0.34,0.68-0.836,0.68-1.381c0-0.348-0.112-0.681-0.309-0.975L155.733,264.003z"/>
	<path fill="#CC99FF" d="M147.89,266.881c-0.548,0-1.085-0.265-1.437-0.707l-0.043-0.059l-0.035-0.155
		c-0.219-0.224-0.33-0.575-0.33-0.925c0-0.549,0.264-1.086,0.707-1.437l0.059-0.042l0.157-0.035c0.222-0.22,0.573-0.332,0.922-0.332
		c0.525,0,1.041,0.244,1.393,0.656l0.004-0.003l0.051,0.054l0.044,0.06l0.022,0.157c0.22,0.221,0.331,0.571,0.331,0.922
		c0,0.557-0.258,1.081-0.707,1.438l-0.059,0.042l-0.157,0.035C148.592,266.77,148.241,266.881,147.89,266.881z"/>
	<path fill="#CC99FF" d="M149.362,264.055l-0.04-0.053c-0.001-0.002-0.001-0.004-0.002-0.005l-0.042-0.059l-0.008,0.006
		c-0.337-0.425-0.845-0.683-1.381-0.683c-0.347,0-0.68,0.113-0.974,0.311l-0.006-0.009l-0.059,0.042l-0.058,0.043l0.005,0.007
		c-0.424,0.336-0.68,0.844-0.68,1.38c0,0.349,0.113,0.682,0.31,0.976l-0.009,0.007l0.042,0.058l0.042,0.059l0.007-0.005
		c0.336,0.424,0.844,0.68,1.38,0.68c0.349,0,0.682-0.112,0.975-0.309l0.006,0.009l0.059-0.042l0.058-0.043l-0.005-0.007
		c0.424-0.337,0.68-0.845,0.68-1.382c0-0.348-0.112-0.682-0.309-0.975L149.362,264.055z"/>
	<path fill="#CC99FF" d="M147.888,278.77c-0.753,0-1.146-0.316-1.23-0.993l-0.015-0.075v-0.062l0.016-0.026l-0.028-0.032
		c-0.009-0.818,0.295-1.227,0.984-1.312l0.071-0.017l0.197-0.021c0.761,0,1.154,0.316,1.238,0.994l0.017,0.071l0.02,0.196
		c0,0.763-0.317,1.156-0.998,1.238l-0.068,0.016l-0.201,0.022H147.888z"/>
	<path fill="#CC99FF" d="M149.058,277.305c-0.061-0.686-0.418-1.002-1.168-1.002l-0.196,0.021l0.001,0.009
		c-0.685,0.062-1.001,0.422-0.992,1.248l0.065,0.031l-0.061,0.01c0,0.006,0.002,0.01,0.003,0.016l0.004,0.06l0.007-0.001
		c0.06,0.686,0.417,1.002,1.166,1.002l0.197-0.021l-0.001-0.009c0.687-0.06,1.003-0.416,1.003-1.167l-0.02-0.196L149.058,277.305z"
		/>
	<path fill="#CC99FF" d="M141.549,266.876c-0.557,0-1.081-0.259-1.437-0.708l-0.108-0.137l0.031-0.078
		c-0.22-0.221-0.331-0.571-0.331-0.922c0-0.534,0.237-1.037,0.652-1.393l-0.002-0.003l0.074-0.065l0.084-0.044l0.059-0.043
		l0.055,0.032c0.224-0.219,0.575-0.33,0.923-0.33c0.549,0,1.087,0.266,1.438,0.709l0.041,0.057l0.039,0.156
		c0.217,0.222,0.328,0.572,0.328,0.924c0,0.526-0.243,1.042-0.652,1.393l0.002,0.004l-0.055,0.049l-0.058,0.041l-0.159,0.029
		C142.25,266.765,141.899,266.876,141.549,266.876z"/>
	<path fill="#CC99FF" d="M143.021,264.051l-0.041-0.056c-0.001-0.001-0.001-0.002-0.002-0.003l-0.042-0.058l-0.007,0.005
		c-0.335-0.425-0.843-0.682-1.381-0.682c-0.346,0-0.679,0.112-0.975,0.309l-0.006-0.009l-0.055,0.041c0,0-0.001,0-0.002,0.001
		l-0.059,0.043l0.005,0.007c-0.431,0.342-0.681,0.839-0.681,1.382c0,0.349,0.112,0.682,0.309,0.975l-0.008,0.006l0.038,0.051
		c0.002,0.003,0.002,0.006,0.004,0.008l0.042,0.059l0.008-0.006c0.34,0.43,0.836,0.681,1.38,0.681c0.349,0,0.682-0.113,0.974-0.31
		l0.007,0.01l0.059-0.042c0.004-0.003,0.006-0.006,0.01-0.009l0.048-0.035l-0.004-0.006c0.424-0.336,0.68-0.844,0.68-1.381
		c0-0.349-0.112-0.682-0.309-0.974L143.021,264.051z"/>
	<path fill="#CC99FF" d="M141.549,278.764c-0.754,0-1.147-0.317-1.231-0.995l-0.028-0.146l0.021-0.024l-0.021-0.023
		c-0.008-0.82,0.298-1.228,0.991-1.312l0.065-0.015c0,0,0.197-0.022,0.198-0.022c0.761,0,1.154,0.316,1.238,0.993l0.016,0.072
		l0.02,0.196c0,0.761-0.316,1.153-0.993,1.238l-0.071,0.017l-0.2,0.021H141.549z"/>
	<path fill="#CC99FF" d="M142.718,277.299c-0.061-0.686-0.418-1.002-1.168-1.002l-0.196,0.022l0.001,0.008
		c-0.686,0.061-1.001,0.421-0.993,1.246l0.067,0.032l-0.062,0.01c0,0.003,0.001,0.005,0.001,0.008l0.004,0.066l0.008-0.001
		c0.061,0.686,0.418,1.003,1.167,1.003l0.197-0.021l-0.001-0.009c0.685-0.062,1.001-0.419,1.001-1.168l-0.02-0.196L142.718,277.299z
		"/>
	<path fill="#CC99FF" d="M160.571,266.891c-0.558,0-1.083-0.259-1.438-0.709l-0.042-0.059l-0.036-0.155
		c-0.218-0.223-0.329-0.573-0.329-0.923c0-0.557,0.257-1.081,0.707-1.438l0.058-0.041l0.157-0.036
		c0.223-0.218,0.574-0.329,0.924-0.329c0.535,0,1.039,0.238,1.392,0.654l0.004-0.003l0.052,0.053l0.042,0.058l0.025,0.16
		c0.219,0.222,0.329,0.573,0.329,0.923c0,0.534-0.236,1.037-0.65,1.391l0.002,0.003l-0.056,0.051l-0.059,0.044l-0.16,0.025
		C161.271,266.779,160.92,266.891,160.571,266.891z"/>
	<path fill="#CC99FF" d="M162.043,264.065l-0.034-0.047c-0.003-0.004-0.004-0.009-0.007-0.013l-0.042-0.059l-0.009,0.007
		c-0.335-0.425-0.842-0.681-1.38-0.681c-0.349,0-0.682,0.113-0.974,0.31l-0.008-0.011l-0.059,0.042
		c-0.007,0.005-0.011,0.012-0.018,0.017l-0.04,0.028l0.003,0.005c-0.424,0.337-0.68,0.845-0.68,1.382c0,0.348,0.112,0.68,0.31,0.974
		l-0.009,0.007l0.042,0.058l0.042,0.059l0.007-0.005c0.335,0.425,0.843,0.682,1.382,0.682c0.347,0,0.68-0.113,0.974-0.311
		l0.006,0.009l0.059-0.042l0.058-0.043l-0.005-0.006c0.43-0.34,0.68-0.836,0.68-1.381c0-0.348-0.112-0.681-0.308-0.975
		L162.043,264.065z"/>
	<path fill="#CC99FF" d="M160.57,278.778c-0.754,0-1.147-0.316-1.232-0.994l-0.016-0.074v-0.062l0.016-0.027l-0.027-0.031
		c-0.008-0.817,0.296-1.225,0.985-1.312l0.072-0.016c0,0,0.198-0.021,0.198-0.021c0.763,0,1.156,0.319,1.237,1.004l0.012,0.06
		l0.024,0.196c0,0.763-0.316,1.156-0.996,1.241l-0.071,0.017l-0.198,0.019H160.57z"/>
	<path fill="#CC99FF" d="M161.738,277.315c-0.061-0.686-0.417-1.002-1.166-1.002l-0.197,0.021l0.001,0.008
		c-0.686,0.062-1.002,0.422-0.994,1.247l0.066,0.031l-0.061,0.01c0,0.003,0.001,0.005,0.001,0.008l0.004,0.067l0.008-0.001
		c0.061,0.686,0.418,1.002,1.168,1.002l0.195-0.018l-0.001-0.01c0.687-0.062,1.003-0.419,1.003-1.168l-0.024-0.196L161.738,277.315z
		"/>
	<path fill="#CC99FF" d="M166.911,266.895c-0.536,0-1.04-0.237-1.392-0.652l-0.003,0.003l-0.05-0.056l-0.043-0.061l-0.024-0.157
		c-0.22-0.221-0.331-0.572-0.331-0.923c0-0.534,0.236-1.038,0.652-1.393l-0.002-0.003l0.054-0.049l0.059-0.044l0.159-0.025
		c0.223-0.22,0.574-0.331,0.923-0.331c0.549,0,1.086,0.265,1.436,0.707l0.043,0.06l0.035,0.156c0.22,0.222,0.331,0.572,0.331,0.922
		c0,0.558-0.257,1.082-0.707,1.438l-0.059,0.042l-0.157,0.035C167.613,266.784,167.262,266.895,166.911,266.895z"/>
	<path fill="#CC99FF" d="M168.384,264.069l-0.039-0.053c-0.001-0.002-0.002-0.005-0.003-0.007l-0.042-0.059l-0.008,0.006
		c-0.335-0.424-0.842-0.68-1.379-0.68c-0.348,0-0.681,0.113-0.975,0.31l-0.006-0.009l-0.058,0.042l-0.058,0.043l0.004,0.006
		c-0.429,0.341-0.679,0.836-0.679,1.381c0,0.349,0.112,0.682,0.31,0.976l-0.01,0.007l0.042,0.058
		c0.001,0.002,0.003,0.003,0.005,0.005l0.039,0.054l0.006-0.005c0.338,0.43,0.834,0.68,1.38,0.68c0.349,0,0.682-0.112,0.975-0.309
		l0.006,0.009l0.058-0.042l0.058-0.043l-0.004-0.007c0.43-0.341,0.68-0.838,0.68-1.382c0-0.349-0.112-0.681-0.309-0.975
		L168.384,264.069z"/>
	<path fill="#CC99FF" d="M166.911,278.783c-0.754,0-1.147-0.317-1.232-0.996l-0.017-0.073l-0.004-0.064l0.019-0.026l-0.025-0.029
		c-0.008-0.817,0.296-1.225,0.984-1.312l0.072-0.016c0,0,0.198-0.021,0.198-0.021c0.761,0,1.154,0.316,1.237,0.994l0.017,0.071
		l0.02,0.196c0,0.761-0.316,1.154-0.994,1.239l0,0.004l-0.074,0.014l-0.196,0.019H166.911z"/>
	<path fill="#CC99FF" d="M168.079,277.319c-0.061-0.686-0.418-1.002-1.167-1.002l-0.197,0.021l0.001,0.008
		c-0.685,0.062-1.001,0.422-0.993,1.247l0.066,0.031l-0.06,0.01v0.001l0,0l0.005,0.074l0.009-0.001
		c0.061,0.686,0.418,1.003,1.168,1.003l0.121-0.015l0.076-0.004l-0.001-0.01c0.685-0.062,1.001-0.419,1.001-1.168l-0.02-0.196
		L168.079,277.319z"/>
	<path fill="#CC99FF" d="M173.251,266.901c-0.549,0-1.086-0.266-1.438-0.709l-0.043-0.06l-0.033-0.155
		c-0.22-0.222-0.331-0.572-0.331-0.922c0-0.526,0.243-1.042,0.654-1.394l-0.002-0.003l0.054-0.049l0.058-0.042l0.159-0.027
		c0.222-0.22,0.573-0.331,0.923-0.331c0.549,0,1.086,0.265,1.438,0.708l0.042,0.059l0.036,0.155
		c0.217,0.223,0.328,0.573,0.328,0.924c0,0.558-0.257,1.082-0.707,1.438l-0.059,0.042l-0.157,0.035
		C173.95,266.79,173.599,266.901,173.251,266.901z"/>
	<path fill="#CC99FF" d="M174.725,264.074l-0.042-0.058l-0.042-0.059l-0.007,0.005c-0.336-0.424-0.844-0.681-1.381-0.681
		c-0.349,0-0.683,0.113-0.976,0.31l-0.006-0.009l-0.059,0.042c-0.001,0.001-0.002,0.003-0.004,0.004l-0.053,0.039l0.004,0.006
		c-0.425,0.337-0.681,0.846-0.681,1.382c0,0.348,0.112,0.681,0.309,0.975l-0.008,0.006l0.038,0.051
		c0.002,0.003,0.002,0.006,0.004,0.008l0.042,0.059l0.008-0.006c0.336,0.425,0.844,0.682,1.381,0.682
		c0.346,0,0.679-0.112,0.975-0.309l0.006,0.009l0.058-0.042c0.001,0,0.001-0.001,0.002-0.002l0.056-0.041l-0.004-0.007
		c0.43-0.341,0.68-0.838,0.68-1.382c0-0.349-0.112-0.682-0.309-0.975L174.725,264.074z"/>
	<path fill="#CC99FF" d="M173.251,278.788c-0.754,0-1.147-0.316-1.231-0.993l-0.015-0.074v-0.062l0.016-0.026l-0.028-0.032
		c-0.008-0.823,0.299-1.231,0.994-1.314l0.062-0.014c0,0,0.197-0.022,0.198-0.022c0.761,0,1.154,0.316,1.239,0.994l0.015,0.072
		l0.02,0.195c0,0.765-0.32,1.158-1.005,1.241l-0.058,0.012l-0.201,0.023H173.251z"/>
	<path fill="#CC99FF" d="M174.42,277.325c-0.061-0.687-0.419-1.004-1.168-1.004l-0.196,0.022l0,0.008
		c-0.685,0.061-1,0.421-0.992,1.248l0.065,0.03l-0.06,0.01c0,0.003,0.001,0.005,0.001,0.008l0.005,0.067l0.007-0.001
		c0.061,0.686,0.418,1.002,1.167,1.002l0.119-0.014h0.002c0.001,0,0.001,0,0.002,0l0.073-0.009l0-0.006
		c0.685-0.062,1.001-0.42,1.001-1.168l-0.02-0.195L174.42,277.325z"/>
	<path fill="#CC99FF" d="M179.592,266.905c-0.534,0-1.038-0.237-1.393-0.653l-0.003,0.003l-0.05-0.056l-0.042-0.058l-0.028-0.158
		c-0.218-0.223-0.329-0.573-0.329-0.924c0-0.549,0.264-1.086,0.707-1.438l0.059-0.042l0.156-0.035
		c0.223-0.22,0.574-0.331,0.923-0.331c0.526,0,1.041,0.243,1.392,0.653l0.004-0.003l0.051,0.056l0.044,0.059l0.023,0.158
		c0.22,0.222,0.331,0.572,0.331,0.923c0,0.535-0.237,1.039-0.652,1.394l0.002,0.003l-0.054,0.049l-0.06,0.043l-0.159,0.026
		C180.292,266.793,179.941,266.905,179.592,266.905z"/>
	<path fill="#CC99FF" d="M181.064,264.078l-0.04-0.054c-0.001-0.001-0.001-0.003-0.002-0.004l-0.042-0.059l-0.007,0.006
		c-0.336-0.425-0.844-0.682-1.381-0.682c-0.348,0-0.681,0.113-0.975,0.31l-0.006-0.009l-0.058,0.042l-0.058,0.043l0.005,0.007
		c-0.424,0.336-0.68,0.845-0.68,1.381c0,0.349,0.113,0.682,0.309,0.975l-0.009,0.007l0.042,0.059
		c0.001,0.001,0.002,0.002,0.003,0.004l0.039,0.054l0.006-0.005c0.341,0.43,0.838,0.681,1.381,0.681c0.349,0,0.681-0.113,0.975-0.31
		l0.007,0.01l0.058-0.042c0.002-0.002,0.003-0.004,0.005-0.005l0.053-0.039l-0.004-0.006c0.43-0.341,0.68-0.838,0.68-1.382
		c0-0.349-0.112-0.682-0.309-0.976L181.064,264.078z"/>
	<path fill="#CC99FF" d="M179.591,278.792c-0.754,0-1.147-0.316-1.231-0.994l-0.016-0.074v-0.062l0.017-0.027l-0.028-0.032
		c-0.008-0.817,0.296-1.225,0.986-1.312l0-0.005l0.074-0.015c0,0,0.193-0.018,0.193-0.018c0.762,0,1.155,0.316,1.239,0.995
		l0.017,0.071l0.02,0.195c0,0.76-0.316,1.153-0.993,1.239l-0.072,0.016l-0.2,0.021H179.591z"/>
	<path fill="#CC99FF" d="M180.76,277.329c-0.061-0.686-0.418-1.003-1.168-1.003l-0.12,0.015h0l0,0l0,0l-0.076,0.004l0.001,0.011
		c-0.685,0.062-1.001,0.423-0.993,1.247l0.066,0.032l-0.061,0.01c0,0.003,0.001,0.005,0.001,0.008l0.004,0.067l0.008-0.001
		c0.061,0.686,0.419,1.002,1.167,1.002l0.197-0.021l-0.001-0.008c0.686-0.062,1.002-0.42,1.002-1.169l-0.02-0.195L180.76,277.329z"
		/>
	<path fill="#CC99FF" d="M185.932,266.91c-0.526,0-1.042-0.244-1.393-0.655l-0.004,0.003l-0.051-0.054l-0.045-0.061l-0.02-0.157
		c-0.221-0.221-0.332-0.572-0.332-0.922c0-0.534,0.237-1.038,0.653-1.394l-0.002-0.003l0.054-0.049l0.059-0.043l0.16-0.026
		c0.222-0.22,0.573-0.331,0.922-0.331c0.549,0,1.086,0.265,1.437,0.708l0.042,0.059l0.035,0.155c0.219,0.223,0.33,0.573,0.33,0.924
		c0,0.55-0.264,1.088-0.707,1.438l-0.056,0.04l-0.157,0.039C186.633,266.798,186.282,266.91,185.932,266.91z"/>
	<path fill="#CC99FF" d="M187.404,264.083l-0.042-0.058l-0.042-0.059l-0.007,0.005c-0.335-0.424-0.843-0.681-1.38-0.681
		c-0.349,0-0.681,0.113-0.974,0.31l-0.007-0.01l-0.059,0.042c-0.002,0.001-0.003,0.003-0.005,0.005l-0.053,0.039l0.004,0.006
		c-0.424,0.337-0.68,0.845-0.68,1.382c0,0.348,0.113,0.682,0.309,0.976l-0.009,0.006l0.039,0.053
		c0.001,0.002,0.001,0.004,0.002,0.005l0.042,0.059l0.008-0.006c0.336,0.425,0.844,0.682,1.381,0.682
		c0.349,0,0.682-0.113,0.974-0.31l0.007,0.009l0.059-0.042c0.002-0.001,0.003-0.003,0.005-0.005l0.053-0.038l-0.004-0.007
		c0.424-0.335,0.68-0.843,0.68-1.381c0-0.348-0.112-0.681-0.31-0.975L187.404,264.083z"/>
	<path fill="#CC99FF" d="M185.932,278.796c-0.755,0-1.148-0.316-1.232-0.995l-0.017-0.073l-0.004-0.064l0.019-0.027l-0.025-0.029
		c-0.008-0.821,0.3-1.229,0.997-1.313l0.058-0.012c0,0,0.198-0.022,0.199-0.022c0.761,0,1.154,0.316,1.238,0.994l0.017,0.07
		l0.02,0.195c0,0.762-0.316,1.154-0.994,1.239l-0.071,0.017l-0.2,0.021H185.932z"/>
	<path fill="#CC99FF" d="M187.1,277.333c-0.061-0.686-0.418-1.002-1.167-1.002l-0.121,0.014l0,0c-0.001,0-0.001,0-0.002,0
		l-0.073,0.009l0,0.006c-0.685,0.062-1,0.423-0.992,1.247l0.066,0.032l-0.06,0.01v0.001l0,0l0.005,0.074l0.009-0.001
		c0.061,0.686,0.419,1.002,1.168,1.002l0.196-0.021l-0.001-0.009c0.685-0.062,1.001-0.419,1.001-1.168l-0.02-0.195L187.1,277.333z"
		/>
	<path fill="#CC99FF" d="M192.272,266.914c-0.549,0-1.086-0.265-1.437-0.707l-0.044-0.06l-0.033-0.156
		c-0.218-0.222-0.329-0.572-0.329-0.922c0-0.558,0.258-1.083,0.707-1.439l0.061-0.043l0.155-0.031
		c0.22-0.221,0.571-0.332,0.921-0.332c0.527,0,1.042,0.243,1.393,0.654l0.004-0.003l0.051,0.054l0.045,0.061l0.02,0.157
		c0.221,0.221,0.332,0.571,0.332,0.922c0,0.535-0.237,1.039-0.653,1.394l0.002,0.004l-0.055,0.049l-0.059,0.042l-0.158,0.025
		C192.974,266.801,192.623,266.914,192.272,266.914z"/>
	<path fill="#CC99FF" d="M193.746,264.086l-0.039-0.053c-0.001-0.002-0.001-0.004-0.002-0.005l-0.042-0.059l-0.008,0.006
		c-0.335-0.424-0.843-0.681-1.381-0.681c-0.349,0-0.682,0.112-0.976,0.309l-0.006-0.009l-0.055,0.039
		c-0.001,0.001-0.002,0.001-0.003,0.002l-0.058,0.043l0.005,0.007c-0.43,0.341-0.68,0.838-0.68,1.383
		c0,0.349,0.112,0.681,0.309,0.974l-0.01,0.007l0.042,0.058c0,0.001,0.001,0.001,0.001,0.001l0.042,0.059l0.007-0.005
		c0.335,0.424,0.843,0.68,1.38,0.68c0.35,0,0.683-0.113,0.975-0.311l0.007,0.01l0.059-0.042c0.003-0.002,0.005-0.006,0.008-0.008
		l0.049-0.035l-0.004-0.006c0.424-0.336,0.68-0.844,0.68-1.382c0-0.348-0.112-0.682-0.309-0.976L193.746,264.086z"/>
	<path fill="#CC99FF" d="M192.272,278.801c-0.754,0-1.147-0.316-1.232-0.995l-0.015-0.075v-0.061l0.016-0.027l-0.028-0.031
		c-0.008-0.817,0.296-1.225,0.986-1.312l0.071-0.018c0,0,0.197-0.018,0.197-0.018c0.759,0,1.151,0.315,1.236,0.992l0.017,0.071
		l0.02,0.196c0,0.761-0.316,1.153-0.994,1.238l-0.071,0.017l-0.2,0.021H192.272z"/>
	<path fill="#CC99FF" d="M193.44,277.336c-0.062-0.684-0.419-1-1.167-1l-0.196,0.018l0.001,0.011
		c-0.685,0.062-1.001,0.421-0.993,1.246l0.067,0.031l-0.062,0.01c0,0.003,0.001,0.005,0.001,0.009l0.005,0.065l0.007-0.001
		c0.061,0.687,0.419,1.004,1.168,1.004l0.196-0.021l-0.001-0.009c0.685-0.062,1.001-0.419,1.001-1.168l-0.02-0.196L193.44,277.336z"
		/>
	<path fill="#CC99FF" d="M198.612,266.918c-0.535,0-1.039-0.237-1.393-0.654l-0.003,0.003l-0.051-0.054l-0.042-0.058l-0.027-0.159
		c-0.217-0.223-0.328-0.572-0.328-0.922c0-0.558,0.257-1.082,0.707-1.438l0.061-0.043l0.157-0.032
		c0.221-0.222,0.572-0.334,0.921-0.334c0.557,0,1.081,0.259,1.438,0.709l0.042,0.059l0.035,0.155
		c0.218,0.224,0.329,0.575,0.329,0.925c0,0.533-0.236,1.036-0.651,1.392l0.002,0.003l-0.057,0.05l-0.057,0.041l-0.158,0.029
		C199.312,266.807,198.961,266.918,198.612,266.918z"/>
	<path fill="#CC99FF" d="M200.086,264.092l-0.042-0.058l-0.042-0.059l-0.007,0.005c-0.341-0.431-0.837-0.682-1.381-0.682
		c-0.348,0-0.681,0.113-0.975,0.311l-0.006-0.009l-0.059,0.042l-0.058,0.043l0.004,0.007c-0.424,0.336-0.68,0.844-0.68,1.382
		c0,0.347,0.112,0.68,0.309,0.973l-0.009,0.007l0.041,0.056c0.001,0.001,0.001,0.002,0.002,0.003l0.042,0.059l0.008-0.006
		c0.335,0.425,0.843,0.681,1.38,0.681c0.348,0,0.681-0.113,0.975-0.31l0.007,0.01l0.058-0.042c0.004-0.003,0.007-0.007,0.011-0.011
		l0.045-0.033l-0.004-0.005c0.43-0.341,0.68-0.838,0.68-1.381c0-0.349-0.113-0.682-0.309-0.976L200.086,264.092z"/>
	<path fill="#CC99FF" d="M198.612,278.805c-0.755,0-1.148-0.316-1.232-0.994l-0.016-0.075v-0.062l0.017-0.027l-0.028-0.031
		c-0.008-0.817,0.296-1.226,0.985-1.311l0.072-0.016c0,0,0.198-0.021,0.198-0.021c0.763,0,1.156,0.319,1.237,1.004l0.012,0.06
		l0.024,0.196c0,0.763-0.316,1.156-0.997,1.241l-0.069,0.014l-0.2,0.021H198.612z"/>
	<path fill="#CC99FF" d="M199.78,277.342c-0.061-0.686-0.417-1.002-1.166-1.002l-0.197,0.021l0.001,0.008
		c-0.686,0.061-1.002,0.421-0.994,1.246l0.067,0.032l-0.062,0.01c0,0.003,0.001,0.005,0.001,0.008l0.004,0.066l0.008-0.001
		c0.061,0.686,0.419,1.003,1.168,1.003l0.196-0.021l0-0.007c0.685-0.062,1.002-0.42,1.002-1.168l-0.024-0.196L199.78,277.342z"/>
	<path fill="#CC99FF" d="M135.209,266.873c-0.559,0-1.083-0.259-1.438-0.708l-0.042-0.059l-0.035-0.155
		c-0.219-0.223-0.33-0.573-0.33-0.924c0-0.549,0.264-1.086,0.707-1.438l0.059-0.042l0.157-0.035c0.22-0.219,0.571-0.33,0.922-0.33
		c0.549,0,1.086,0.265,1.438,0.707l0.042,0.059l0.035,0.155c0.218,0.224,0.329,0.574,0.329,0.924c0,0.534-0.236,1.038-0.652,1.394
		l0.002,0.003l-0.054,0.049l-0.059,0.043l-0.159,0.026C135.908,266.761,135.557,266.873,135.209,266.873z"/>
	<path fill="#CC99FF" d="M136.682,264.045l-0.042-0.058l-0.042-0.059l-0.007,0.005c-0.335-0.423-0.843-0.68-1.381-0.68
		c-0.349,0-0.682,0.112-0.975,0.309l-0.006-0.009l-0.059,0.042l-0.058,0.043l0.004,0.007c-0.424,0.336-0.68,0.844-0.68,1.381
		c0,0.348,0.112,0.681,0.31,0.975l-0.009,0.007l0.042,0.058l0.042,0.059l0.007-0.005c0.338,0.43,0.835,0.681,1.381,0.681
		c0.348,0,0.68-0.113,0.974-0.31l0.007,0.01l0.059-0.042c0.002-0.001,0.003-0.003,0.005-0.005l0.053-0.039l-0.004-0.006
		c0.423-0.337,0.679-0.845,0.679-1.382c0-0.348-0.112-0.681-0.309-0.975L136.682,264.045z"/>
	<path fill="#CC99FF" d="M135.209,278.76c-0.755,0-1.148-0.317-1.232-0.995l-0.016-0.074l-0.005-0.065l0.018-0.025l-0.025-0.028
		c-0.008-0.823,0.3-1.231,0.997-1.315l0.058-0.012c0,0,0.198-0.022,0.199-0.022c0.761,0,1.154,0.316,1.238,0.994l0.017,0.071
		l0.02,0.196c0,0.761-0.316,1.154-0.993,1.238l-0.071,0.016l-0.201,0.022H135.209z"/>
	<path fill="#CC99FF" d="M136.377,277.295c-0.061-0.686-0.418-1.002-1.168-1.002l-0.121,0.014l0,0c-0.001,0-0.001,0-0.002,0
		l-0.073,0.009l0,0.006c-0.685,0.062-1,0.423-0.992,1.249l0.067,0.03l-0.061,0.01l0,0.001h0l0.006,0.073l0.008-0.001
		c0.06,0.687,0.418,1.004,1.168,1.004l0.197-0.021l-0.001-0.008c0.685-0.062,1.001-0.419,1.001-1.168l-0.02-0.196L136.377,277.295z"
		/>
	<path fill="#CC99FF" d="M128.868,266.869c-0.55,0-1.087-0.266-1.438-0.709l-0.043-0.06l-0.033-0.154
		c-0.219-0.222-0.33-0.573-0.33-0.924c0-0.549,0.264-1.087,0.707-1.438l0.059-0.042l0.157-0.035c0.221-0.22,0.572-0.331,0.922-0.331
		c0.557,0,1.082,0.258,1.438,0.708l0.043,0.061l0.031,0.155c0.221,0.22,0.332,0.571,0.332,0.922c0,0.557-0.258,1.081-0.708,1.438
		l-0.059,0.042l-0.155,0.034C129.571,266.756,129.219,266.869,128.868,266.869z"/>
	<path fill="#CC99FF" d="M130.342,264.041l-0.041-0.057c0,0-0.001-0.001-0.001-0.001l-0.042-0.059l-0.007,0.005
		c-0.341-0.43-0.838-0.681-1.382-0.681c-0.349,0-0.682,0.113-0.975,0.31l-0.006-0.009l-0.059,0.042l-0.058,0.043l0.005,0.007
		c-0.424,0.336-0.68,0.845-0.68,1.381c0,0.348,0.112,0.682,0.309,0.976l-0.01,0.007l0.042,0.058
		c0.001,0.001,0.002,0.002,0.003,0.003l0.039,0.055l0.007-0.005c0.335,0.425,0.843,0.682,1.381,0.682
		c0.35,0,0.683-0.113,0.976-0.311l0.006,0.009l0.056-0.04c0-0.001,0-0.001,0.001-0.001l0.058-0.043l-0.005-0.007
		c0.425-0.337,0.681-0.845,0.681-1.382c0-0.348-0.112-0.682-0.309-0.976L130.342,264.041z"/>
	<path fill="#CC99FF" d="M128.868,278.755c-0.755,0-1.148-0.317-1.232-0.995l-0.016-0.075v-0.059l0.017-0.03l-0.028-0.032
		c-0.008-0.818,0.296-1.225,0.986-1.311l0-0.004l0.074-0.015c0,0,0.193-0.018,0.194-0.018c0.762,0,1.155,0.316,1.238,0.995
		l0.017,0.07l0.02,0.195c0,0.761-0.316,1.154-0.993,1.24l-0.072,0.016l-0.2,0.021H128.868z"/>
	<path fill="#CC99FF" d="M130.037,277.292c-0.061-0.686-0.418-1.003-1.167-1.003l-0.121,0.015l-0.076,0.004l0.001,0.011
		c-0.685,0.061-1.001,0.42-0.993,1.245l0.069,0.033l-0.054,0.009l-0.009,0.001v0.001h-0.001c0,0.003,0.001,0.005,0.001,0.009
		l0.004,0.064l0.008-0.001c0.061,0.687,0.418,1.004,1.168,1.004l0.197-0.021l-0.001-0.008c0.686-0.062,1.002-0.42,1.002-1.169
		l-0.02-0.195L130.037,277.292z"/>
	<path fill="#CC99FF" d="M122.528,266.864c-0.549,0-1.086-0.265-1.438-0.708l-0.043-0.06l-0.033-0.155
		c-0.22-0.222-0.331-0.572-0.331-0.922c0-0.55,0.264-1.088,0.707-1.438l0.059-0.042l0.157-0.035c0.222-0.22,0.573-0.331,0.922-0.331
		c0.535,0,1.039,0.237,1.393,0.654l0.003-0.003l0.05,0.056l0.044,0.059l0.024,0.157c0.219,0.223,0.331,0.573,0.331,0.924
		c0,0.534-0.237,1.038-0.652,1.393l0.002,0.003l-0.054,0.049l-0.056,0.041l-0.16,0.031
		C123.227,266.752,122.877,266.864,122.528,266.864z"/>
	<path fill="#CC99FF" d="M124,264.037l-0.042-0.058c-0.001-0.001-0.002-0.002-0.003-0.004l-0.039-0.054l-0.006,0.005
		c-0.339-0.431-0.835-0.682-1.381-0.682c-0.349,0-0.682,0.113-0.975,0.31l-0.006-0.009l-0.059,0.042l-0.058,0.043l0.005,0.007
		c-0.424,0.336-0.68,0.845-0.68,1.382c0,0.348,0.112,0.681,0.309,0.975L121.056,266l0.038,0.051
		c0.002,0.003,0.002,0.006,0.004,0.008l0.042,0.059l0.008-0.006c0.335,0.424,0.843,0.681,1.381,0.681
		c0.348,0,0.681-0.113,0.974-0.309l0.007,0.009l0.059-0.042c0.002-0.001,0.003-0.004,0.005-0.005l0.053-0.039l-0.004-0.006
		c0.424-0.336,0.68-0.843,0.68-1.381c0-0.349-0.113-0.682-0.31-0.976L124,264.037z"/>
	<path fill="#CC99FF" d="M122.528,278.75c-0.754,0-1.147-0.316-1.232-0.994l-0.016-0.074v-0.062l0.017-0.027l-0.028-0.032
		c-0.008-0.818,0.297-1.227,0.987-1.312l0-0.004l0.074-0.015c0,0,0.193-0.018,0.194-0.018c0.764,0,1.156,0.319,1.237,1.003
		l0.012,0.06l0.024,0.196c0,0.764-0.317,1.157-0.998,1.241l-0.066,0.014l-0.2,0.023H122.528z"/>
	<path fill="#CC99FF" d="M123.696,277.286c-0.061-0.685-0.418-1.001-1.166-1.001l-0.121,0.015h-0.001l0,0c0,0,0,0,0,0l-0.075,0.004
		l0.001,0.011c-0.686,0.061-1.002,0.421-0.994,1.246l0.066,0.032l-0.061,0.01c0,0.003,0.001,0.005,0.001,0.008l0.004,0.067
		l0.008-0.001c0.061,0.686,0.418,1.002,1.168,1.002l0.196-0.022l-0.001-0.007c0.686-0.062,1.002-0.419,1.002-1.168l-0.024-0.196
		L123.696,277.286z"/>
	<path fill="#CC99FF" d="M234.966,209.927c-0.312,0-0.583-0.159-0.826-0.484l-0.003,0.002l-0.044-0.059l-0.026-0.052v-0.031
		l-0.042-0.015c-0.417-0.705-0.356-1.21,0.198-1.629l-0.002-0.004l0.056-0.05l0.157-0.11c0.287-0.166,0.53-0.244,0.752-0.244
		c0.314,0,0.577,0.152,0.821,0.479l0.003-0.003l0.058,0.079l0.042,0.081l0.004,0.051l0.06,0.016c0.377,0.653,0.3,1.152-0.245,1.565
		l0.003,0.004l-0.058,0.05l-0.057,0.036l-0.09,0.014l-0.017,0.065C235.432,209.849,235.188,209.927,234.966,209.927z"/>
	<path fill="#CC99FF" d="M236.112,207.99l-0.062,0.036l-0.011-0.132h0c0,0,0,0,0-0.001l0,0l-0.041-0.063l-0.005,0.004
		c-0.239-0.343-0.497-0.51-0.807-0.51c-0.209,0-0.441,0.075-0.709,0.229l-0.097,0.072l-0.064,0.041l0.007,0.01
		c-0.562,0.395-0.656,0.865-0.236,1.575l0.072-0.006l-0.046,0.038c0.001,0.002,0.002,0.003,0.003,0.004l0.038,0.06l0.004-0.003
		c0.239,0.343,0.497,0.511,0.808,0.511c0.209,0,0.441-0.075,0.708-0.229l-0.036-0.062l0.052-0.004l0.023,0.031l0.057-0.037h0.001
		l0.064-0.041l-0.006-0.009C236.392,209.107,236.487,208.639,236.112,207.99z"/>
	<path fill="#CC99FF" d="M224.293,216.664c-0.225,0-0.456-0.047-0.688-0.14l-0.065-0.029l-0.11-0.118
		c-0.3-0.081-0.571-0.329-0.747-0.632c-0.274-0.479-0.313-1.077-0.105-1.6l0.03-0.067l0.118-0.106c0.082-0.3,0.33-0.572,0.633-0.748
		c0.276-0.16,0.592-0.245,0.913-0.245c0.203,0,0.411,0.038,0.62,0.113l0.001-0.004l0.07,0.023l0.066,0.029l0.102,0.124
		c0.303,0.084,0.574,0.333,0.748,0.634c0.268,0.464,0.314,1.019,0.132,1.534l0.004,0.002l-0.023,0.069l-0.029,0.066l-0.124,0.101
		c-0.083,0.301-0.332,0.572-0.635,0.748C224.927,216.579,224.611,216.664,224.293,216.664z"/>
	<path fill="#CC99FF" d="M225.817,213.934c-0.173-0.301-0.437-0.532-0.755-0.689l0.004-0.01l-0.066-0.029l-0.066-0.029l-0.003,0.007
		c-0.21-0.083-0.435-0.133-0.659-0.133c-0.308,0-0.611,0.081-0.877,0.235c-0.301,0.175-0.533,0.438-0.689,0.756l-0.01-0.005
		l-0.029,0.065l-0.029,0.065l0.008,0.004c-0.199,0.501-0.167,1.069,0.101,1.537c0.173,0.3,0.437,0.532,0.754,0.688l-0.004,0.009
		l0.056,0.025c0.003,0.001,0.006,0.004,0.01,0.006l0.066,0.029l0.004-0.009c0.211,0.084,0.437,0.134,0.661,0.134
		c0.307,0,0.61-0.082,0.876-0.235c0.301-0.175,0.533-0.438,0.69-0.756l0.011,0.005l0.029-0.065c0.001-0.002,0.001-0.005,0.002-0.007
		l0.026-0.059l-0.007-0.003C226.122,214.96,226.09,214.406,225.817,213.934z"/>
	<path fill="#CC99FF" d="M231.799,204.433c-0.315,0-0.579-0.154-0.825-0.482l-0.004,0.002l-0.045-0.059l-0.036-0.058l0.004-0.031
		l-0.038-0.014c-0.415-0.703-0.354-1.207,0.2-1.626l-0.002-0.004l0.073-0.06l0.082-0.043l0.05-0.003l0.016-0.06
		c0.28-0.161,0.523-0.239,0.745-0.239c0.31,0,0.58,0.158,0.824,0.481l0.003-0.003l0.056,0.076l0.042,0.082l0.004,0.052l0.06,0.016
		c0.377,0.653,0.3,1.151-0.246,1.563l0.002,0.004l-0.058,0.05l-0.057,0.036l-0.09,0.014l-0.017,0.065
		C232.265,204.355,232.021,204.433,231.799,204.433z"/>
	<path fill="#CC99FF" d="M232.884,202.534l-0.01-0.134l-0.041-0.064l-0.005,0.004c-0.24-0.342-0.498-0.51-0.808-0.51
		c-0.209,0-0.441,0.075-0.709,0.229l0.036,0.062l-0.133,0.01l-0.064,0.041l0.006,0.009c-0.563,0.396-0.657,0.865-0.239,1.574
		l0.075-0.003l-0.041,0.033l-0.007,0.005l0,0.001l0,0c0,0,0,0,0,0.001l0.04,0.063l0.006-0.004c0.24,0.342,0.497,0.509,0.808,0.509
		c0.209,0,0.441-0.075,0.709-0.229l-0.036-0.062l0.053-0.004l0.023,0.031l0.057-0.037l0.064-0.041l-0.006-0.009
		c0.563-0.396,0.659-0.863,0.284-1.512L232.884,202.534z"/>
	<path fill="#CC99FF" d="M221.124,211.17c-0.202,0-0.41-0.038-0.619-0.113l-0.001,0.004l-0.07-0.023l-0.066-0.029l-0.102-0.124
		c-0.3-0.083-0.572-0.331-0.747-0.634c-0.267-0.464-0.313-1.02-0.131-1.534l-0.003-0.002l0.022-0.069l0.03-0.065l0.123-0.102
		c0.083-0.3,0.331-0.572,0.635-0.748c0.279-0.16,0.595-0.245,0.914-0.245c0.202,0,0.41,0.038,0.619,0.113l0.001-0.004l0.07,0.023
		l0.066,0.029l0.102,0.124c0.301,0.083,0.573,0.331,0.748,0.634c0.263,0.456,0.311,1.024,0.131,1.533l0.004,0.002l-0.024,0.071
		l-0.03,0.067l-0.124,0.099c-0.083,0.301-0.331,0.572-0.634,0.747C221.759,211.085,221.443,211.17,221.124,211.17z"/>
	<path fill="#CC99FF" d="M222.703,210.112l0.029-0.065c0-0.001,0.001-0.003,0.001-0.004l0.027-0.061l-0.007-0.003
		c0.2-0.503,0.167-1.072-0.102-1.538c-0.173-0.301-0.438-0.533-0.755-0.689l0.004-0.01l-0.066-0.029l-0.066-0.029l-0.003,0.007
		c-0.209-0.083-0.434-0.133-0.658-0.133c-0.308,0-0.611,0.082-0.878,0.235c-0.302,0.175-0.534,0.438-0.69,0.756l-0.011-0.005
		l-0.029,0.065c-0.001,0.002-0.001,0.005-0.002,0.008l-0.025,0.058l0.007,0.003c-0.199,0.503-0.167,1.07,0.102,1.537
		c0.174,0.301,0.438,0.533,0.754,0.689l-0.004,0.01l0.066,0.029l0.066,0.029l0.003-0.007c0.21,0.083,0.435,0.133,0.658,0.133
		c0.308,0,0.611-0.082,0.878-0.236c0.301-0.174,0.534-0.438,0.69-0.755L222.703,210.112z"/>
	<path fill="#CC99FF" d="M228.633,198.941c-0.333,0-0.609-0.172-0.867-0.542l-0.055-0.056l0.007-0.032l-0.026-0.009
		c-0.417-0.706-0.356-1.211,0.198-1.629l-0.002-0.004l0.058-0.05l0.156-0.111c0.287-0.167,0.531-0.245,0.753-0.245
		c0.314,0,0.577,0.153,0.822,0.479l0.003-0.003l0.058,0.079l0.043,0.083l0.004,0.05l0.059,0.016c0.377,0.654,0.3,1.153-0.246,1.564
		l0.003,0.005l-0.076,0.062l-0.086,0.041l-0.053,0.034l-0.007,0.027C229.099,198.863,228.855,198.941,228.633,198.941z"/>
	<path fill="#CC99FF" d="M229.718,197.04l-0.01-0.133l-0.042-0.064l-0.005,0.004c-0.239-0.343-0.497-0.511-0.808-0.511
		c-0.209,0-0.441,0.075-0.709,0.229l-0.097,0.074l-0.064,0.041l0.006,0.009c-0.563,0.395-0.656,0.865-0.236,1.576l0.072-0.006
		l-0.046,0.038c0.001,0.001,0.002,0.002,0.002,0.004l0.04,0.059l0.003-0.002c0.24,0.343,0.498,0.511,0.808,0.511
		c0.209,0,0.441-0.075,0.708-0.229l-0.036-0.062l0.055-0.004l0.021,0.029l0.052-0.034h0.004l0.066-0.041l-0.008-0.011
		c0.563-0.395,0.659-0.863,0.284-1.513L229.718,197.04z"/>
	<path fill="#CC99FF" d="M217.958,205.676c-0.202,0-0.41-0.038-0.62-0.113l-0.001,0.003l-0.069-0.021l-0.064-0.028l-0.106-0.123
		c-0.297-0.083-0.569-0.33-0.746-0.636c-0.279-0.484-0.318-1.066-0.106-1.599l0.03-0.067l0.118-0.106
		c0.082-0.3,0.33-0.571,0.633-0.748c0.278-0.16,0.594-0.245,0.913-0.245c0.225,0,0.456,0.047,0.687,0.14l0.066,0.028l0.108,0.119
		c0.301,0.082,0.573,0.33,0.747,0.632c0.268,0.464,0.314,1.02,0.131,1.534l0.004,0.002l-0.024,0.07l-0.029,0.064l-0.123,0.104
		c-0.085,0.3-0.333,0.571-0.636,0.746C218.593,205.591,218.277,205.676,217.958,205.676z"/>
	<path fill="#CC99FF" d="M219.537,204.619l0.029-0.065c0.001-0.003,0.002-0.007,0.003-0.011l0.025-0.056l-0.007-0.003
		c0.202-0.509,0.17-1.065-0.102-1.537c-0.173-0.301-0.437-0.532-0.754-0.688l0.004-0.009l-0.056-0.024
		c-0.003-0.002-0.006-0.005-0.01-0.007l-0.066-0.029l-0.004,0.009c-0.21-0.084-0.436-0.134-0.66-0.134
		c-0.308,0-0.61,0.082-0.876,0.235c-0.301,0.175-0.533,0.438-0.689,0.756l-0.01-0.005l-0.029,0.065l-0.029,0.065l0.008,0.004
		c-0.202,0.508-0.17,1.064,0.102,1.536c0.176,0.304,0.439,0.535,0.754,0.688l-0.004,0.01l0.062,0.027
		c0.001,0.001,0.002,0.002,0.004,0.003l0.065,0.028l0.003-0.007c0.21,0.083,0.435,0.133,0.659,0.133
		c0.307,0,0.611-0.082,0.878-0.235c0.301-0.174,0.533-0.438,0.689-0.755L219.537,204.619z"/>
	<path fill="#CC99FF" d="M200.138,149.501c-0.312,0-0.583-0.158-0.826-0.483l-0.004,0.002l-0.045-0.059l-0.039-0.062l0.005-0.026
		l-0.034-0.012c-0.415-0.704-0.354-1.208,0.198-1.627l-0.003-0.004l0.074-0.06l0.083-0.042l0.05-0.004l0.016-0.06
		c0.279-0.161,0.523-0.239,0.745-0.239c0.311,0,0.58,0.157,0.823,0.48l0.059,0.075l0.044,0.083l0.003,0.05l0.059,0.016
		c0.377,0.654,0.3,1.153-0.245,1.564l0.003,0.004l-0.057,0.05l-0.057,0.036l-0.089,0.012l-0.018,0.067
		C200.604,149.424,200.36,149.501,200.138,149.501z"/>
	<path fill="#CC99FF" d="M199.33,148.821l-0.042,0.035l-0.005,0.003l0.041,0.065l0.006-0.004c0.24,0.343,0.498,0.51,0.809,0.51
		c0.209,0,0.44-0.075,0.708-0.229l-0.036-0.062l0.055-0.004l0.021,0.03l0.056-0.036h0.001l0.065-0.041l-0.007-0.01
		c0.562-0.395,0.657-0.862,0.282-1.512l-0.062,0.036l-0.01-0.133l0.001,0c-0.001-0.002-0.003-0.004-0.005-0.006l-0.038-0.057
		l-0.004,0.003c-0.239-0.343-0.497-0.51-0.807-0.51c-0.209,0-0.441,0.075-0.709,0.229l0.036,0.062l-0.133,0.01l-0.065,0.041
		l0.007,0.009c-0.562,0.396-0.655,0.866-0.237,1.575L199.33,148.821z"/>
</g>
</svg>
