<?xml version="1.0" encoding="utf-8"?>
<!-- Generator: Adobe Illustrator 16.0.4, SVG Export Plug-In . SVG Version: 6.00 Build 0)  -->
<!DOCTYPE svg PUBLIC "-//W3C//DTD SVG 1.1//EN" "http://www.w3.org/Graphics/SVG/1.1/DTD/svg11.dtd">
<svg version="1.1" id="Layer_1" xmlns="http://www.w3.org/2000/svg" xmlns:xlink="http://www.w3.org/1999/xlink" x="0px" y="0px"
	 width="5184px" height="576px" viewBox="0 0 5184 576" enable-background="new 0 0 5184 576" xml:space="preserve">
<path d="M582.725,294.369c0,0.795,0.328,1.125,1.125,1.126c0.795,0,1.125-0.329,1.125-1.124c0-0.796-0.328-1.126-1.125-1.126
	C583.055,293.244,582.725,293.573,582.725,294.369z"/>
<path d="M583.825,353.934c0,0.795,0.329,1.125,1.124,1.125c0.796,0.001,1.125-0.326,1.126-1.124c0-0.795-0.329-1.125-1.124-1.126
	C584.156,352.81,583.826,353.139,583.825,353.934z"/>
<path d="M571.582,341.002c0,0.795,0.329,1.125,1.124,1.126c0.796,0,1.125-0.329,1.126-1.124c0.001-0.796-0.329-1.125-1.124-1.126
	S571.583,340.206,571.582,341.002z"/>
<path d="M540.873,346.337c0,0.796,0.329,1.126,1.124,1.126c0.795,0.001,1.125-0.328,1.126-1.124c0-0.795-0.329-1.125-1.124-1.126
	C541.204,345.213,540.874,345.542,540.873,346.337z"/>
<path d="M550.028,387.93c0,0.795,0.329,1.125,1.124,1.125s1.125-0.329,1.126-1.125c0-0.795-0.329-1.125-1.124-1.125
	C550.357,386.805,550.028,387.134,550.028,387.93z"/>
<path d="M515.966,378.087c-0.001,0.796,0.329,1.125,1.124,1.126s1.125-0.329,1.126-1.124c0-0.796-0.329-1.125-1.124-1.126
	C516.296,376.962,515.967,377.292,515.966,378.087z"/>
<path d="M522.704,317.716c0,0.795,0.329,1.125,1.124,1.126s1.125-0.329,1.126-1.124c0-0.796-0.329-1.125-1.125-1.126
	C523.034,316.591,522.704,316.92,522.704,317.716z"/>
<path d="M597.221,373.744c0,0.795,0.329,1.125,1.124,1.125c0.796,0.001,1.125-0.328,1.126-1.124
	c0.001-0.795-0.328-1.125-1.124-1.126C597.552,372.619,597.222,372.948,597.221,373.744z"/>
<path d="M691.465,449.992c-0.688-0.398-1.139-0.278-1.537,0.41c-0.397,0.688-0.279,1.139,0.41,1.537
	c0.688,0.396,1.139,0.276,1.537-0.409C692.273,450.842,692.153,450.392,691.465,449.992z"/>
<path d="M682.889,433.238c-0.688-0.399-1.139-0.279-1.537,0.409c-0.397,0.688-0.277,1.139,0.41,1.535
	c0.688,0.399,1.139,0.279,1.537-0.407C683.698,434.087,683.578,433.637,682.889,433.238z"/>
<path d="M563.396,306.967c0,0.795,0.328,1.125,1.125,1.125c0.795,0.001,1.125-0.328,1.125-1.124c0-0.795-0.328-1.125-1.125-1.126
	C563.727,305.843,563.396,306.172,563.396,306.967z"/>
<path d="M544.152,308.446c0,0.796,0.328,1.125,1.123,1.126c0.796,0,1.125-0.329,1.127-1.124c0-0.796-0.329-1.125-1.125-1.126
	C544.482,307.321,544.152,307.651,544.152,308.446z"/>
</svg>
