<?xml version="1.0" encoding="utf-8"?>
<!-- Generator: Adobe Illustrator 16.0.4, SVG Export Plug-In . SVG Version: 6.00 Build 0)  -->
<!DOCTYPE svg PUBLIC "-//W3C//DTD SVG 1.1//EN" "http://www.w3.org/Graphics/SVG/1.1/DTD/svg11.dtd">
<svg version="1.1" id="Fab::Jigs::IR_RX_Alignment" xmlns="http://www.w3.org/2000/svg" xmlns:xlink="http://www.w3.org/1999/xlink"
	 x="0px" y="0px" width="5184px" height="576px" viewBox="0 0 5184 576" enable-background="new 0 0 5184 576" xml:space="preserve"
	>
<path fill="none" stroke="#000000" stroke-linecap="round" stroke-linejoin="round" d="M1702.194,77.158
	c-0.052,0-0.156,0.104-0.156,0c-30.656,17.7-68.419,17.725-99.099,0.067c-8.261,14.309-16.523,28.619-24.784,42.928
	c-4.131,7.155-8.262,14.309-12.393,21.464c-2.065,3.578-4.131,7.155-6.196,10.732c-1.033,1.789-2.065,3.577-3.098,5.366
	c-0.517,0.895-1.033,1.789-1.549,2.683c-0.258,0.447-0.517,0.894-0.774,1.341c-0.129,0.224-0.258,0.447-0.387,0.671
	c-0.129,0.224-0.387,0.349-0.387,0.671c1.366,0.787,2.712,1.605,4.039,2.456c0.664,0.425,1.321,0.858,1.975,1.299
	c0.327,0.221,0.652,0.443,0.976,0.667c0.162,0.112,0.323,0.225,0.484,0.338c0.074,0.052,0.345,0.44,0.483,0.34
	c0.06-0.141,0.555,0,0.638,0c0.212,0,0.425,0,0.637,0c0.425,0,0.851,0,1.275,0c0.85,0,1.7,0,2.551,0c1.7,0,3.4,0,5.101,0
	c3.401,0,6.802,0,10.203,0c6.802,0,13.604,0,20.405,0c13.603,0,27.207,0,40.81,0c0-2.084,0-4.169,0-6.253
	c-1.243,0-2.25-1.008-2.25-2.25s1.007-2.25,2.25-2.25s2.25,1.007,2.25,2.25c2.462,0,4.925,0,7.388,0c1.231,0,2.463,0,3.694,0
	c0.616,0,1.231,0,1.847,0c0.482,0,0.964,0,1.446,0c0.133,0,0.401-0.267,0.401,0c0-2.004,2.423-3.009,3.841-1.591
	s0.414,3.841-1.591,3.842c0,2.084,0,4.169,0,6.254c0,0.18,0.181,0,0.271,0c0.472,0,0.943,0,1.415,0c0.943,0,1.886,0,2.829,0
	c1.886,0,3.772,0,5.659,0c3.392,0,6.783,0,10.174,0c6.782,0,13.565,0,20.348,0c6.783,0,13.565,0,20.349,0c3.391,0,6.783,0,10.174,0
	c1.848,0,3.695,0,5.542,0c0.924,0,1.848,0,2.771,0c0.461,0,0.923,0,1.385,0c0.158,0,0.306,0.161,0.475,0
	c0.282,0.02,0.328-0.234,0.492-0.35c0.164-0.116,0.329-0.232,0.494-0.347c0.33-0.23,0.661-0.459,0.994-0.686
	c0.665-0.453,1.335-0.897,2.011-1.333c1.353-0.874,2.725-1.713,4.118-2.52C1735.214,134.351,1718.704,105.754,1702.194,77.158
	C1702.194,77.158,1702.194,77.158,1702.194,77.158z"/>
</svg>
