<?xml version="1.0" encoding="utf-8"?>
<!-- Generator: Adobe Illustrator 16.0.4, SVG Export Plug-In . SVG Version: 6.00 Build 0)  -->
<!DOCTYPE svg PUBLIC "-//W3C//DTD SVG 1.1//EN" "http://www.w3.org/Graphics/SVG/1.1/DTD/svg11.dtd">
<svg version="1.1" id="Layer_1" xmlns="http://www.w3.org/2000/svg" xmlns:xlink="http://www.w3.org/1999/xlink" x="0px" y="0px"
	 width="690px" height="616px" viewBox="0 0 690 616" enable-background="new 0 0 690 616" xml:space="preserve">
<g id="Model::Top_Half::FR1::Engrave">
	
		<line fill="none" stroke="#67BD45" stroke-width="9" stroke-linecap="round" stroke-linejoin="round" x1="519.506" y1="56.115" x2="339.509" y2="57.134"/>
	<path fill="none" stroke="#67BD45" stroke-width="9" stroke-linecap="round" stroke-linejoin="round" d="M231.51,57.745
		c-16.104,0.091-32.208,0.182-48.312,0.273c32.452,79.077,49.381,163.661,49.865,249.137"/>
	<path fill="none" stroke="#67BD45" stroke-width="9" stroke-linecap="round" stroke-linejoin="round" d="M471.817,305.804
		c-0.412-72.84,31.335-142.151,86.76-189.416c2.794-2.383,5.639-4.702,8.537-6.958"/>
	
		<line fill="none" stroke="#67BD45" stroke-width="9" stroke-linecap="round" stroke-linejoin="round" x1="316.378" y1="307.069" x2="351.198" y2="306.755"/>
	
		<line fill="none" stroke="#67BD45" stroke-width="9" stroke-linecap="round" stroke-linejoin="round" x1="320.894" y1="274.175" x2="354.341" y2="283.861"/>
	
		<line fill="none" stroke="#67BD45" stroke-width="9" stroke-linecap="round" stroke-linejoin="round" x1="334.662" y1="243.944" x2="363.924" y2="262.82"/>
	<path fill="none" stroke="#67BD45" stroke-width="9" stroke-linecap="round" stroke-linejoin="round" d="M375.237,248.979
		c2.425-2.218,4.855-4.5,7.011-6.979c6.015-6.92,9.887-15.386,16.041-21.446c22.826-22.476,77.052-11.85,77.674,38.754"/>
	<path fill="none" stroke="#67BD45" stroke-width="9" stroke-linecap="round" stroke-linejoin="round" d="M316.375,306.684
		c-0.179-31.659,12.753-61.98,35.726-83.765c2.356-2.234,6.104-2.037,8.213,0.433c5.092,5.963,10.184,11.926,15.275,17.889
		c1.938,2.27,1.785,5.654-0.352,7.739c-15.485,15.112-24.163,35.87-24.041,57.507C339.59,306.553,327.982,306.618,316.375,306.684z"
		/>
</g>
</svg>
