<?xml version="1.0" encoding="utf-8"?>
<!-- Generator: Adobe Illustrator 16.0.4, SVG Export Plug-In . SVG Version: 6.00 Build 0)  -->
<!DOCTYPE svg PUBLIC "-//W3C//DTD SVG 1.1//EN" "http://www.w3.org/Graphics/SVG/1.1/DTD/svg11.dtd">
<svg version="1.1" id="Layer_1" xmlns="http://www.w3.org/2000/svg" xmlns:xlink="http://www.w3.org/1999/xlink" x="0px" y="0px"
	 width="690px" height="616px" viewBox="0 0 690 616" enable-background="new 0 0 690 616" xml:space="preserve">
<g id="Model::Top_Half::FR1::Outlines">
	<path fill="#3952A4" d="M183.199,109.43c2.898,2.256,5.743,4.575,8.537,6.958c55.425,47.265,87.172,116.576,86.76,189.416
		c79.586,0.45,159.17,0.901,238.754,1.351c0.484-85.476,17.414-170.06,49.865-249.137c-16.104-0.091-32.208-0.182-48.312-0.273
		c-0.169,29.822-24.481,53.862-54.304,53.694c-29.824-0.169-53.863-24.482-53.694-54.305c-59.999-0.34-119.998-0.679-179.997-1.019
		C230.654,83.35,210.243,106.207,183.199,109.43z"/>
</g>
</svg>
