<?xml version="1.0" encoding="utf-8"?>
<!-- Generator: Adobe Illustrator 16.0.4, SVG Export Plug-In . SVG Version: 6.00 Build 0)  -->
<!DOCTYPE svg PUBLIC "-//W3C//DTD SVG 1.1//EN" "http://www.w3.org/Graphics/SVG/1.1/DTD/svg11.dtd">
<svg version="1.1" id="Layer_1" xmlns="http://www.w3.org/2000/svg" xmlns:xlink="http://www.w3.org/1999/xlink" x="0px" y="0px"
	 width="612px" height="792px" viewBox="0 0 612 792" enable-background="new 0 0 612 792" xml:space="preserve">
<path fill="#0B94B6" stroke="#3F2D7A" stroke-linecap="round" stroke-linejoin="round" d="M240.69,261.249
	c-47.903,27.88-95.806,55.761-143.708,83.642c0.13,37.426,0.261,74.852,0.393,112.275c29.823-0.104,54.084,23.988,54.188,53.812
	c60-0.21,119.999-0.419,180-0.629c-0.067-19.293,10.162-37.154,26.836-46.858c35.927-20.911,81.019,4.913,81.162,46.48
	c12.048-0.042,24.095-0.084,36.143-0.126c-0.299-85.477-17.045-170.098-49.326-249.245
	C364.48,260.816,302.585,261.033,240.69,261.249z"/>
</svg>
