<?xml version="1.0" encoding="utf-8"?>
<!-- Generator: Adobe Illustrator 16.0.4, SVG Export Plug-In . SVG Version: 6.00 Build 0)  -->
<!DOCTYPE svg PUBLIC "-//W3C//DTD SVG 1.1//EN" "http://www.w3.org/Graphics/SVG/1.1/DTD/svg11.dtd">
<svg version="1.1" id="Layer_1" xmlns="http://www.w3.org/2000/svg" xmlns:xlink="http://www.w3.org/1999/xlink" x="0px" y="0px"
	 width="690px" height="616px" viewBox="0 0 690 616" enable-background="new 0 0 690 616" xml:space="preserve">
<g id="Model::Top_Half::FR1::Outlines">
	<path fill="#3952A4" d="M519.506,56.115c-59.999,0.34-119.998,0.679-179.997,1.019c0.169,29.823-23.871,54.136-53.694,54.305
		c-29.823,0.168-54.135-23.872-54.304-53.694c-16.104,0.091-32.208,0.182-48.312,0.273c32.452,79.077,49.381,163.661,49.865,249.137
		c79.585-0.45,159.169-0.901,238.754-1.351c-0.412-72.84,31.335-142.151,86.76-189.416c2.794-2.383,5.639-4.702,8.537-6.958
		C540.071,106.207,519.66,83.35,519.506,56.115z"/>
</g>
<g id="Model::Top_Half::FR1::Engrave">
	
		<line fill="none" stroke="#67BD45" stroke-width="9" stroke-linecap="round" stroke-linejoin="round" x1="519.506" y1="56.115" x2="339.509" y2="57.134"/>
	<path fill="none" stroke="#67BD45" stroke-width="9" stroke-linecap="round" stroke-linejoin="round" d="M231.51,57.745
		c-16.104,0.091-32.208,0.182-48.312,0.273c32.452,79.077,49.381,163.661,49.865,249.137"/>
	<path fill="none" stroke="#67BD45" stroke-width="9" stroke-linecap="round" stroke-linejoin="round" d="M471.817,305.804
		c-0.412-72.84,31.335-142.151,86.76-189.416c2.794-2.383,5.639-4.702,8.537-6.958"/>
	
		<line fill="none" stroke="#67BD45" stroke-width="9" stroke-linecap="round" stroke-linejoin="round" x1="316.378" y1="307.069" x2="351.198" y2="306.755"/>
	
		<line fill="none" stroke="#67BD45" stroke-width="9" stroke-linecap="round" stroke-linejoin="round" x1="320.894" y1="274.175" x2="354.341" y2="283.861"/>
	
		<line fill="none" stroke="#67BD45" stroke-width="9" stroke-linecap="round" stroke-linejoin="round" x1="334.662" y1="243.944" x2="363.924" y2="262.82"/>
	<path fill="none" stroke="#67BD45" stroke-width="9" stroke-linecap="round" stroke-linejoin="round" d="M375.237,248.979
		c2.425-2.218,4.855-4.5,7.011-6.979c6.015-6.92,9.887-15.386,16.041-21.446c22.826-22.476,77.052-11.85,77.674,38.754"/>
	<path fill="none" stroke="#67BD45" stroke-width="9" stroke-linecap="round" stroke-linejoin="round" d="M316.375,306.684
		c-0.179-31.659,12.753-61.98,35.726-83.765c2.356-2.234,6.104-2.037,8.213,0.433c5.092,5.963,10.184,11.926,15.275,17.889
		c1.938,2.27,1.785,5.654-0.352,7.739c-15.485,15.112-24.163,35.87-24.041,57.507C339.59,306.553,327.982,306.618,316.375,306.684z"
		/>
</g>
<g id="Model::Top_Half::FR1::Holes">
	<path fill="#FF00D7" d="M358.391,294.666c0.397,0.708,0.855,0.837,1.563,0.44s0.837-0.855,0.438-1.563
		c-0.396-0.708-0.854-0.837-1.562-0.439C358.122,293.5,357.993,293.958,358.391,294.666z"/>
	<path fill="#FF00D7" d="M350.267,271.678c0.397,0.708,0.855,0.837,1.563,0.44s0.837-0.855,0.438-1.563
		c-0.396-0.708-0.854-0.836-1.562-0.439C349.999,270.513,349.87,270.97,350.267,271.678z"/>
	<path fill="#FF00D7" d="M364.818,274.653c0.396,0.708,0.854,0.837,1.562,0.439c0.708-0.397,0.837-0.854,0.439-1.562
		c-0.397-0.708-0.854-0.836-1.562-0.439C364.549,273.487,364.42,273.945,364.818,274.653z"/>
	<path fill="#FF00D7" d="M363.628,250.302c0.397,0.708,0.855,0.836,1.563,0.439c0.708-0.397,0.837-0.855,0.438-1.563
		c-0.396-0.708-0.854-0.837-1.562-0.438C363.36,249.136,363.231,249.594,363.628,250.302z"/>
	<path fill="#FF00D7" d="M376.714,257.324c0.397,0.708,0.855,0.836,1.563,0.439s0.837-0.855,0.439-1.563
		c-0.396-0.708-0.854-0.836-1.562-0.439C376.446,256.158,376.317,256.616,376.714,257.324z"/>
	<path fill="#FF00D7" d="M446.165,305.95c-0.042-7.456-6.12-13.466-13.576-13.424c-6,0.034-12,0.068-18,0.102
		c-7.456,0.042-13.466,6.121-13.423,13.576C416.165,306.119,431.165,306.035,446.165,305.95z"/>
	<circle fill="#FF00D7" cx="470.694" cy="182.292" r="2.409"/>
	<circle fill="#FF00D7" cx="459.185" cy="155.578" r="2.409"/>
	<circle fill="#FF00D7" cx="445.504" cy="129.909" r="2.41"/>
	<circle fill="#FF00D7" cx="429.743" cy="105.461" r="2.409"/>
	<circle fill="#FF00D7" cx="412.012" cy="82.403" r="2.409"/>
	<circle fill="#FF00D7" cx="422.878" cy="166.942" r="3.402"/>
	<circle fill="#FF00D7" cx="423.038" cy="195.288" r="3.402"/>
	<circle fill="#FF00D7" cx="423.199" cy="223.634" r="3.402"/>
	<circle fill="#FF00D7" cx="423.359" cy="251.98" r="3.401"/>
	<circle fill="#FF00D7" cx="331.572" cy="291.849" r="2.409"/>
	<circle fill="#FF00D7" cx="339.814" cy="263.952" r="2.409"/>
	<circle fill="#FF00D7" cx="355.711" cy="239.591" r="2.409"/>
	<path fill="#FF00D7" d="M343.599,295.989c0.397,0.708,0.854,0.837,1.563,0.44c0.708-0.397,0.837-0.855,0.438-1.563
		c-0.396-0.708-0.854-0.837-1.562-0.44C343.33,294.824,343.201,295.281,343.599,295.989z"/>
</g>
</svg>
