<?xml version="1.0" encoding="utf-8"?>
<!-- Generator: Adobe Illustrator 16.0.4, SVG Export Plug-In . SVG Version: 6.00 Build 0)  -->
<!DOCTYPE svg PUBLIC "-//W3C//DTD SVG 1.1//EN" "http://www.w3.org/Graphics/SVG/1.1/DTD/svg11.dtd">
<svg version="1.1" id="Layer_1" xmlns="http://www.w3.org/2000/svg" xmlns:xlink="http://www.w3.org/1999/xlink" x="0px" y="0px"
	 width="690px" height="616px" viewBox="0 0 690 616" enable-background="new 0 0 690 616" xml:space="preserve">
<g id="Model::Top_Half::FR1::Holes">
	<path fill="#C9DA2B" d="M357.974,315.682c0.397,0.707,0.855,0.836,1.563,0.438s0.837-0.854,0.438-1.563
		c-0.396-0.707-0.854-0.836-1.562-0.438S357.576,314.973,357.974,315.682z"/>
	<path fill="#C9DA2B" d="M344.182,321.191c0.397,0.707,0.855,0.836,1.563,0.438c0.708-0.396,0.837-0.854,0.439-1.562
		c-0.396-0.709-0.854-0.838-1.562-0.44S343.785,320.482,344.182,321.191z"/>
	<path fill="#C9DA2B" d="M351.97,345.167c0.397,0.708,0.855,0.836,1.563,0.44c0.708-0.397,0.837-0.855,0.438-1.563
		c-0.396-0.708-0.854-0.837-1.562-0.44C351.701,344.001,351.573,344.459,351.97,345.167z"/>
	<path fill="#C9DA2B" d="M363.601,335.934c0.397,0.707,0.855,0.836,1.563,0.438s0.837-0.854,0.439-1.562
		c-0.396-0.709-0.854-0.838-1.562-0.44S363.204,335.225,363.601,335.934z"/>
	<path fill="#C9DA2B" d="M366.306,365.902c0.397,0.709,0.855,0.837,1.563,0.439c0.708-0.396,0.837-0.854,0.439-1.562
		c-0.396-0.707-0.854-0.836-1.562-0.439S365.909,365.195,366.306,365.902z"/>
	<path fill="#C9DA2B" d="M374.801,353.721c0.397,0.707,0.854,0.836,1.563,0.439c0.708-0.396,0.837-0.855,0.438-1.562
		c-0.396-0.709-0.854-0.836-1.562-0.439C374.532,352.555,374.403,353.012,374.801,353.721z"/>
	<path fill="#C9DA2B" d="M385.988,381.654c0.396,0.709,0.854,0.838,1.562,0.439c0.708-0.396,0.837-0.855,0.44-1.562
		c-0.397-0.708-0.855-0.837-1.563-0.44C385.719,380.489,385.591,380.947,385.988,381.654z"/>
	<path fill="#C9DA2B" d="M390.631,367.548c0.397,0.708,0.855,0.837,1.563,0.44c0.708-0.397,0.837-0.854,0.439-1.562
		c-0.396-0.708-0.854-0.837-1.562-0.439C390.363,366.383,390.234,366.84,390.631,367.548z"/>
	<path fill="#C9DA2B" d="M409.36,391.102c0.396,0.707,0.854,0.836,1.562,0.439s0.837-0.855,0.44-1.562
		c-0.397-0.709-0.855-0.838-1.563-0.44S408.963,390.393,409.36,391.102z"/>
	<path fill="#C9DA2B" d="M409.762,376.255c0.397,0.708,0.855,0.837,1.563,0.44c0.708-0.397,0.837-0.855,0.439-1.563
		c-0.396-0.708-0.854-0.837-1.562-0.438C409.494,375.089,409.365,375.547,409.762,376.255z"/>
	<path fill="#C9DA2B" d="M434.459,393.447c0.397,0.707,0.855,0.837,1.562,0.439c0.708-0.396,0.837-0.854,0.439-1.562
		c-0.396-0.708-0.854-0.836-1.562-0.44C434.191,392.281,434.062,392.739,434.459,393.447z"/>
	<path fill="#C9DA2B" d="M430.587,379.109c0.397,0.707,0.855,0.836,1.563,0.438s0.837-0.854,0.439-1.563
		c-0.396-0.707-0.854-0.836-1.562-0.438S430.19,378.4,430.587,379.109z"/>
	<path fill="#C9DA2B" d="M459.177,388.496c0.397,0.708,0.855,0.837,1.563,0.439c0.708-0.396,0.837-0.854,0.438-1.562
		c-0.396-0.708-0.854-0.836-1.562-0.439S458.78,387.788,459.177,388.496z"/>
	<path fill="#C9DA2B" d="M451.355,375.871c0.396,0.708,0.854,0.837,1.562,0.439c0.708-0.396,0.837-0.854,0.44-1.562
		c-0.397-0.708-0.855-0.836-1.563-0.439S450.958,375.163,451.355,375.871z"/>
	<circle fill="#C9DA2B" cx="414.543" cy="529.869" r="2.409"/>
	<circle fill="#C9DA2B" cx="432.012" cy="506.611" r="2.409"/>
	<circle fill="#C9DA2B" cx="447.495" cy="481.987" r="2.409"/>
	<circle fill="#C9DA2B" cx="460.885" cy="456.164" r="2.409"/>
	<circle fill="#C9DA2B" cx="472.091" cy="429.322" r="2.41"/>
	<circle fill="#C9DA2B" cx="434.199" cy="406.337" r="2.409"/>
	<circle fill="#C9DA2B" cx="405.294" cy="403.064" r="2.41"/>
	<circle fill="#C9DA2B" cx="378.543" cy="391.639" r="2.409"/>
	<circle fill="#C9DA2B" cx="356.192" cy="373.021" r="2.409"/>
	<circle fill="#C9DA2B" cx="462.828" cy="401.182" r="2.409"/>
	<circle fill="#C9DA2B" cx="340.12" cy="348.775" r="2.41"/>
	<circle fill="#C9DA2B" cx="331.676" cy="320.938" r="2.41"/>
	<path fill="#C9DA2B" d="M401.166,306.204c0.042,7.456,6.12,13.466,13.576,13.423c6-0.034,12-0.068,18-0.102
		c7.456-0.043,13.466-6.121,13.424-13.576C431.165,306.035,416.165,306.119,401.166,306.204z"/>
</g>
</svg>
