<?xml version="1.0" encoding="utf-8"?>
<!-- Generator: Adobe Illustrator 16.0.4, SVG Export Plug-In . SVG Version: 6.00 Build 0)  -->
<!DOCTYPE svg PUBLIC "-//W3C//DTD SVG 1.1//EN" "http://www.w3.org/Graphics/SVG/1.1/DTD/svg11.dtd">
<svg version="1.1" id="Layer_1" xmlns="http://www.w3.org/2000/svg" xmlns:xlink="http://www.w3.org/1999/xlink" x="0px" y="0px"
	 width="690px" height="616px" viewBox="0 0 690 616" enable-background="new 0 0 690 616" xml:space="preserve">
<g id="Model::Top_Half::FR1::Engrave">
	<path fill="none" stroke="#5A4099" stroke-width="9" stroke-linecap="round" stroke-linejoin="round" d="M351.197,306.487
		c0.322,57.045,58.707,95.3,111.137,72.822c2.743-1.176,5.929-0.023,7.285,2.637c3.561,6.984,7.123,13.972,10.684,20.957
		c1.476,2.893,0.224,6.431-2.742,7.753c-35.335,15.753-76.234,12.605-108.742-8.369c-32.5-20.97-52.224-56.925-52.442-95.602
		C327.982,306.618,339.59,306.553,351.197,306.487z"/>
	
		<line fill="none" stroke="#5A4099" stroke-width="9" stroke-linecap="round" stroke-linejoin="round" x1="522.328" y1="554.938" x2="342.331" y2="555.956"/>
	<path fill="none" stroke="#5A4099" stroke-width="9" stroke-linecap="round" stroke-linejoin="round" d="M234.333,556.567
		c-16.104,0.091-32.208,0.182-48.313,0.272c31.556-79.438,47.527-164.209,47.043-249.685"/>
	<path fill="none" stroke="#5A4099" stroke-width="9" stroke-linecap="round" stroke-linejoin="round" d="M471.817,305.804
		c0.434,76.701,36.461,148.852,97.513,195.284"/>
	
		<line fill="none" stroke="#5A4099" stroke-width="9" stroke-linecap="round" stroke-linejoin="round" x1="451.826" y1="418.657" x2="445.47" y2="384.42"/>
	
		<line fill="none" stroke="#5A4099" stroke-width="9" stroke-linecap="round" stroke-linejoin="round" x1="418.648" y1="419.922" x2="422.378" y2="385.3"/>
	
		<line fill="none" stroke="#5A4099" stroke-width="9" stroke-linecap="round" stroke-linejoin="round" x1="386.5" y1="411.618" x2="400.003" y2="379.521"/>
	
		<line fill="none" stroke="#5A4099" stroke-width="9" stroke-linecap="round" stroke-linejoin="round" x1="358.085" y1="394.443" x2="380.227" y2="367.566"/>
	
		<line fill="none" stroke="#5A4099" stroke-width="9" stroke-linecap="round" stroke-linejoin="round" x1="335.79" y1="369.84" x2="364.709" y2="350.443"/>
	
		<line fill="none" stroke="#5A4099" stroke-width="9" stroke-linecap="round" stroke-linejoin="round" x1="321.487" y1="339.876" x2="354.754" y2="329.589"/>
	
		<line fill="none" stroke="#5A4099" stroke-width="9" stroke-linecap="round" stroke-linejoin="round" x1="316.378" y1="307.069" x2="351.198" y2="306.755"/>
	<path fill="none" stroke="#5A4099" stroke-width="9" stroke-linecap="round" stroke-linejoin="round" d="M477.561,410.654
		c1.747-1.232,3.762-2.28,5.857-2.611c5.205-0.822,10.905,2.778,14.425,6.753"/>
	<path fill="none" stroke="#5A4099" stroke-width="9" stroke-linecap="round" stroke-linejoin="round" d="M462.334,379.309
		c3.054-1.371,5.958-3.25,8.267-5.705c4.124-4.383,6.355-10.608,6.884-16.564"/>
</g>
</svg>
