<?xml version="1.0" encoding="utf-8"?>
<!-- Generator: Adobe Illustrator 16.0.4, SVG Export Plug-In . SVG Version: 6.00 Build 0)  -->
<!DOCTYPE svg PUBLIC "-//W3C//DTD SVG 1.1//EN" "http://www.w3.org/Graphics/SVG/1.1/DTD/svg11.dtd">
<svg version="1.1" id="Layer_1" xmlns="http://www.w3.org/2000/svg" xmlns:xlink="http://www.w3.org/1999/xlink" x="0px" y="0px"
	 width="690px" height="616px" viewBox="0 0 690 616" enable-background="new 0 0 690 616" xml:space="preserve">
<g id="Model::Top_Half::FR1::Engrave">
	
		<line fill="none" stroke="#67BD45" stroke-width="9" stroke-linecap="round" stroke-linejoin="round" x1="410.804" y1="57.134" x2="230.807" y2="56.115"/>
	<path fill="none" stroke="#67BD45" stroke-width="9" stroke-linecap="round" stroke-linejoin="round" d="M517.25,307.155
		c0.483-85.476,17.412-170.06,49.864-249.137c-16.104-0.091-32.208-0.182-48.312-0.273"/>
	<path fill="none" stroke="#67BD45" stroke-width="9" stroke-linecap="round" stroke-linejoin="round" d="M183.198,109.43
		c2.898,2.256,5.743,4.575,8.537,6.958c55.425,47.265,87.172,116.576,86.76,189.416"/>
	
		<line fill="none" stroke="#67BD45" stroke-width="9" stroke-linecap="round" stroke-linejoin="round" x1="399.114" y1="306.755" x2="433.935" y2="307.069"/>
	
		<line fill="none" stroke="#67BD45" stroke-width="9" stroke-linecap="round" stroke-linejoin="round" x1="395.972" y1="283.861" x2="429.418" y2="274.175"/>
	
		<line fill="none" stroke="#67BD45" stroke-width="9" stroke-linecap="round" stroke-linejoin="round" x1="386.389" y1="262.82" x2="415.65" y2="243.944"/>
	<path fill="none" stroke="#67BD45" stroke-width="9" stroke-linecap="round" stroke-linejoin="round" d="M274.35,259.308
		c0.622-50.604,54.848-61.23,77.674-38.754c6.154,6.06,10.025,14.526,16.041,21.446c2.156,2.479,4.586,4.761,7.012,6.979"/>
	<path fill="none" stroke="#67BD45" stroke-width="9" stroke-linecap="round" stroke-linejoin="round" d="M399.116,306.487
		c0.122-21.637-8.556-42.396-24.04-57.507c-2.138-2.085-2.291-5.469-0.353-7.739c5.091-5.963,10.183-11.926,15.274-17.889
		c2.109-2.47,5.857-2.667,8.213-0.433c22.974,21.785,35.906,52.106,35.727,83.765C422.33,306.618,410.723,306.553,399.116,306.487z"
		/>
</g>
</svg>
