<?xml version="1.0" encoding="utf-8"?>
<!-- Generator: Adobe Illustrator 16.0.4, SVG Export Plug-In . SVG Version: 6.00 Build 0)  -->
<!DOCTYPE svg PUBLIC "-//W3C//DTD SVG 1.1//EN" "http://www.w3.org/Graphics/SVG/1.1/DTD/svg11.dtd">
<svg version="1.1" id="Layer_1" xmlns="http://www.w3.org/2000/svg" xmlns:xlink="http://www.w3.org/1999/xlink" x="0px" y="0px"
	 width="612px" height="792px" viewBox="0 0 612 792" enable-background="new 0 0 612 792" xml:space="preserve">
<path fill="#74006F" stroke="#3F2D7A" stroke-linecap="round" stroke-linejoin="round" d="M164.848,486.283
	c-0.332-41.568,44.458-67.908,80.624-47.411c16.785,9.513,27.219,27.257,27.373,46.548c59.997-0.479,119.996-0.958,179.993-1.438
	c-0.238-29.823,23.745-54.191,53.568-54.431c-0.299-37.424-0.6-74.849-0.897-112.272c-48.22-27.329-96.438-54.657-144.659-81.985
	c-61.895,0.494-123.787,0.989-185.68,1.483c-31.372,79.512-47.144,164.32-46.462,249.793
	C140.755,486.475,152.801,486.379,164.848,486.283z"/>
</svg>
