<?xml version="1.0" encoding="utf-8"?>
<!-- Generator: Adobe Illustrator 16.0.4, SVG Export Plug-In . SVG Version: 6.00 Build 0)  -->
<!DOCTYPE svg PUBLIC "-//W3C//DTD SVG 1.1//EN" "http://www.w3.org/Graphics/SVG/1.1/DTD/svg11.dtd">
<svg version="1.1" id="Layer_1" xmlns="http://www.w3.org/2000/svg" xmlns:xlink="http://www.w3.org/1999/xlink" x="0px" y="0px"
	 width="690px" height="616px" viewBox="0 0 690 616" enable-background="new 0 0 690 616" xml:space="preserve">
<g id="Model::Top_Half::FR1::Engrave">
	<path fill="none" stroke="#5A4099" stroke-width="9" stroke-linecap="round" stroke-linejoin="round" d="M438.973,306.685
		c-0.218,38.678-19.941,74.633-52.441,95.603c-32.509,20.974-73.407,24.122-108.742,8.369c-2.967-1.322-4.219-4.86-2.742-7.753
		c3.561-6.985,7.123-13.974,10.684-20.957c1.356-2.66,4.542-3.813,7.285-2.638c52.43,22.479,110.814-15.776,111.137-72.821
		C415.76,306.553,427.367,306.618,438.973,306.685z"/>
	
		<line fill="none" stroke="#5A4099" stroke-width="9" stroke-linecap="round" stroke-linejoin="round" x1="413.019" y1="555.956" x2="233.021" y2="554.938"/>
	<path fill="none" stroke="#5A4099" stroke-width="9" stroke-linecap="round" stroke-linejoin="round" d="M522.287,307.154
		c-0.484,85.476,15.486,170.247,47.043,249.685c-16.105-0.09-32.209-0.181-48.313-0.271"/>
	<path fill="none" stroke="#5A4099" stroke-width="9" stroke-linecap="round" stroke-linejoin="round" d="M186.02,501.088
		c61.052-46.432,97.079-118.583,97.513-195.284"/>
	
		<line fill="none" stroke="#5A4099" stroke-width="9" stroke-linecap="round" stroke-linejoin="round" x1="309.88" y1="384.42" x2="303.523" y2="418.657"/>
	
		<line fill="none" stroke="#5A4099" stroke-width="9" stroke-linecap="round" stroke-linejoin="round" x1="332.972" y1="385.3" x2="336.701" y2="419.922"/>
	
		<line fill="none" stroke="#5A4099" stroke-width="9" stroke-linecap="round" stroke-linejoin="round" x1="355.347" y1="379.521" x2="368.85" y2="411.618"/>
	
		<line fill="none" stroke="#5A4099" stroke-width="9" stroke-linecap="round" stroke-linejoin="round" x1="375.123" y1="367.566" x2="397.265" y2="394.443"/>
	
		<line fill="none" stroke="#5A4099" stroke-width="9" stroke-linecap="round" stroke-linejoin="round" x1="390.641" y1="350.443" x2="419.56" y2="369.84"/>
	
		<line fill="none" stroke="#5A4099" stroke-width="9" stroke-linecap="round" stroke-linejoin="round" x1="400.596" y1="329.589" x2="433.863" y2="339.876"/>
	
		<line fill="none" stroke="#5A4099" stroke-width="9" stroke-linecap="round" stroke-linejoin="round" x1="404.151" y1="306.755" x2="438.972" y2="307.069"/>
	<path fill="none" stroke="#5A4099" stroke-width="9" stroke-linecap="round" stroke-linejoin="round" d="M257.507,414.796
		c3.52-3.975,9.22-7.575,14.425-6.753c2.095,0.331,4.11,1.379,5.857,2.611"/>
	<path fill="none" stroke="#5A4099" stroke-width="9" stroke-linecap="round" stroke-linejoin="round" d="M277.864,357.04
		c0.529,5.956,2.761,12.181,6.885,16.563c2.309,2.455,5.213,4.334,8.267,5.705"/>
</g>
</svg>
