<?xml version="1.0" encoding="utf-8"?>
<!-- Generator: Adobe Illustrator 16.0.4, SVG Export Plug-In . SVG Version: 6.00 Build 0)  -->
<!DOCTYPE svg PUBLIC "-//W3C//DTD SVG 1.1//EN" "http://www.w3.org/Graphics/SVG/1.1/DTD/svg11.dtd">
<svg version="1.1" id="Layer_1" xmlns="http://www.w3.org/2000/svg" xmlns:xlink="http://www.w3.org/1999/xlink" x="0px" y="0px"
	 width="690px" height="616px" viewBox="0 0 690 616" enable-background="new 0 0 690 616" xml:space="preserve">
<g id="Model::Top_Half::FR1::Holes">
	<path fill="#FF00D7" d="M443.436,293.104c-0.708-0.398-1.166-0.269-1.562,0.439c-0.398,0.708-0.27,1.166,0.438,1.563
		s1.166,0.268,1.563-0.44S444.144,293.5,443.436,293.104z"/>
	<path fill="#FF00D7" d="M451.56,270.116c-0.708-0.397-1.166-0.269-1.562,0.439c-0.399,0.708-0.271,1.166,0.438,1.563
		s1.166,0.268,1.562-0.44C452.396,270.97,452.267,270.513,451.56,270.116z"/>
	<path fill="#FF00D7" d="M437.009,273.091c-0.708-0.397-1.165-0.269-1.562,0.439c-0.398,0.708-0.27,1.165,0.438,1.562
		c0.708,0.398,1.166,0.269,1.562-0.439C437.846,273.945,437.717,273.487,437.009,273.091z"/>
	<path fill="#FF00D7" d="M438.199,248.74c-0.709-0.399-1.166-0.27-1.562,0.438c-0.398,0.708-0.27,1.166,0.438,1.563
		c0.709,0.397,1.166,0.269,1.563-0.439S438.906,249.136,438.199,248.74z"/>
	<path fill="#FF00D7" d="M425.111,255.761c-0.707-0.397-1.166-0.269-1.562,0.439c-0.397,0.708-0.269,1.166,0.438,1.563
		c0.709,0.397,1.166,0.269,1.563-0.439S425.82,256.158,425.111,255.761z"/>
	<path fill="#FF00D7" d="M401.1,306.204c0.043-7.455-5.967-13.534-13.423-13.576c-6-0.034-12-0.068-18-0.102
		c-7.456-0.042-13.534,5.968-13.576,13.424C371.101,306.035,386.101,306.119,401.1,306.204z"/>
	<circle fill="#FF00D7" cx="331.571" cy="182.292" r="2.409"/>
	<circle fill="#FF00D7" cx="343.081" cy="155.578" r="2.409"/>
	<circle fill="#FF00D7" cx="356.762" cy="129.909" r="2.41"/>
	<circle fill="#FF00D7" cx="372.522" cy="105.461" r="2.409"/>
	<circle fill="#FF00D7" cx="390.254" cy="82.403" r="2.409"/>
	<circle fill="#FF00D7" cx="379.388" cy="166.942" r="3.402"/>
	<circle fill="#FF00D7" cx="379.228" cy="195.288" r="3.402"/>
	<circle fill="#FF00D7" cx="379.067" cy="223.634" r="3.402"/>
	<circle fill="#FF00D7" cx="378.907" cy="251.98" r="3.401"/>
	<circle fill="#FF00D7" cx="470.694" cy="291.849" r="2.409"/>
	<circle fill="#FF00D7" cx="462.452" cy="263.952" r="2.409"/>
	<circle fill="#FF00D7" cx="446.555" cy="239.591" r="2.409"/>
	<path fill="#FF00D7" d="M458.228,294.426c-0.708-0.397-1.166-0.268-1.562,0.44c-0.399,0.708-0.271,1.166,0.438,1.563
		c0.709,0.397,1.166,0.268,1.562-0.44C459.064,295.281,458.936,294.824,458.228,294.426z"/>
</g>
</svg>
