<?xml version="1.0" encoding="utf-8"?>
<!-- Generator: Adobe Illustrator 16.0.4, SVG Export Plug-In . SVG Version: 6.00 Build 0)  -->
<!DOCTYPE svg PUBLIC "-//W3C//DTD SVG 1.1//EN" "http://www.w3.org/Graphics/SVG/1.1/DTD/svg11.dtd">
<svg version="1.1" id="Layer_1" xmlns="http://www.w3.org/2000/svg" xmlns:xlink="http://www.w3.org/1999/xlink" x="0px" y="0px"
	 width="612px" height="792px" viewBox="0 0 612 792" enable-background="new 0 0 612 792" xml:space="preserve">
<path fill="#0B94B6" stroke="#3F2D7A" stroke-linecap="round" stroke-linejoin="round" d="M240.69,261.249
	c-47.903,27.88-95.806,55.761-143.708,83.642c0.13,37.425,0.261,74.851,0.393,112.275c29.823-0.104,54.084,23.988,54.188,53.812
	c60-0.21,119.999-0.419,179.999-0.629c-0.067-19.293,10.162-37.155,26.836-46.859c35.927-20.911,81.019,4.913,81.163,46.481
	c12.047-0.042,24.094-0.084,36.142-0.126c-0.299-85.477-17.045-170.098-49.326-249.245
	C364.48,260.816,302.585,261.033,240.69,261.249z M385.05,364.033c11.967,39.718-10.525,81.617-50.24,93.592
	c-39.727,11.978-81.64-10.522-93.609-50.251c-11.966-39.717,10.526-81.616,50.241-93.59
	C331.167,301.807,373.079,324.306,385.05,364.033z"/>
</svg>
