<?xml version="1.0" encoding="utf-8"?>
<!-- Generator: Adobe Illustrator 16.0.4, SVG Export Plug-In . SVG Version: 6.00 Build 0)  -->
<!DOCTYPE svg PUBLIC "-//W3C//DTD SVG 1.1//EN" "http://www.w3.org/Graphics/SVG/1.1/DTD/svg11.dtd">
<svg version="1.1" id="Layer_1" xmlns="http://www.w3.org/2000/svg" xmlns:xlink="http://www.w3.org/1999/xlink" x="0px" y="0px"
	 width="690px" height="616px" viewBox="0 0 690 616" enable-background="new 0 0 690 616" xml:space="preserve">
<g id="Model::Top_Half::FR1::Outlines">
	<path fill="#3952A4" d="M519.506,56.115c-59.999,0.34-119.998,0.679-179.997,1.019c0.169,29.823-23.871,54.136-53.694,54.305
		c-29.823,0.168-54.135-23.872-54.304-53.694c-16.104,0.091-32.208,0.182-48.312,0.273c32.452,79.077,49.381,163.661,49.865,249.137
		c79.585-0.45,159.169-0.901,238.754-1.351c-0.412-72.84,31.335-142.151,86.76-189.416c2.794-2.383,5.639-4.702,8.537-6.958
		C540.071,106.207,519.66,83.35,519.506,56.115z"/>
</g>
</svg>
