<?xml version="1.0" encoding="utf-8"?>
<!-- Generator: Adobe Illustrator 16.0.4, SVG Export Plug-In . SVG Version: 6.00 Build 0)  -->
<!DOCTYPE svg PUBLIC "-//W3C//DTD SVG 1.1//EN" "http://www.w3.org/Graphics/SVG/1.1/DTD/svg11.dtd">
<svg version="1.1" id="Layer_1" xmlns="http://www.w3.org/2000/svg" xmlns:xlink="http://www.w3.org/1999/xlink" x="0px" y="0px"
	 width="690px" height="616px" viewBox="0 0 690 616" enable-background="new 0 0 690 616" xml:space="preserve">
<g id="Model::Top_Half::FR1::Outlines">
	<path fill="#6895CE" d="M283.532,305.805c79.585,0.45,159.169,0.901,238.755,1.352c-0.484,85.476,15.486,170.247,47.043,249.685
		c-16.105-0.09-32.209-0.181-48.313-0.271c0.169-29.824-23.871-54.138-53.692-54.307c-29.824-0.168-54.137,23.871-54.306,53.694
		c-59.999-0.339-119.998-0.679-179.997-1.02c0.154-27.233-19.997-50.32-47.002-53.85
		C247.07,454.656,283.099,382.505,283.532,305.805z"/>
</g>
<g id="Model::Top_Half::FR1::Engrave">
	<path fill="none" stroke="#5A4099" stroke-width="9" stroke-linecap="round" stroke-linejoin="round" d="M438.973,306.685
		c-0.218,38.678-19.941,74.633-52.441,95.603c-32.509,20.974-73.407,24.122-108.742,8.369c-2.967-1.322-4.219-4.86-2.742-7.753
		c3.561-6.985,7.123-13.974,10.684-20.957c1.356-2.66,4.542-3.813,7.285-2.638c52.43,22.479,110.814-15.776,111.137-72.821
		C415.76,306.553,427.367,306.618,438.973,306.685z"/>
	
		<line fill="none" stroke="#5A4099" stroke-width="9" stroke-linecap="round" stroke-linejoin="round" x1="413.019" y1="555.956" x2="233.021" y2="554.938"/>
	<path fill="none" stroke="#5A4099" stroke-width="9" stroke-linecap="round" stroke-linejoin="round" d="M522.287,307.154
		c-0.484,85.476,15.486,170.247,47.043,249.685c-16.105-0.09-32.209-0.181-48.313-0.271"/>
	<path fill="none" stroke="#5A4099" stroke-width="9" stroke-linecap="round" stroke-linejoin="round" d="M186.02,501.088
		c61.052-46.432,97.079-118.583,97.513-195.284"/>
	
		<line fill="none" stroke="#5A4099" stroke-width="9" stroke-linecap="round" stroke-linejoin="round" x1="309.88" y1="384.42" x2="303.523" y2="418.657"/>
	
		<line fill="none" stroke="#5A4099" stroke-width="9" stroke-linecap="round" stroke-linejoin="round" x1="332.972" y1="385.3" x2="336.701" y2="419.922"/>
	
		<line fill="none" stroke="#5A4099" stroke-width="9" stroke-linecap="round" stroke-linejoin="round" x1="355.347" y1="379.521" x2="368.85" y2="411.618"/>
	
		<line fill="none" stroke="#5A4099" stroke-width="9" stroke-linecap="round" stroke-linejoin="round" x1="375.123" y1="367.566" x2="397.265" y2="394.443"/>
	
		<line fill="none" stroke="#5A4099" stroke-width="9" stroke-linecap="round" stroke-linejoin="round" x1="390.641" y1="350.443" x2="419.56" y2="369.84"/>
	
		<line fill="none" stroke="#5A4099" stroke-width="9" stroke-linecap="round" stroke-linejoin="round" x1="400.596" y1="329.589" x2="433.863" y2="339.876"/>
	
		<line fill="none" stroke="#5A4099" stroke-width="9" stroke-linecap="round" stroke-linejoin="round" x1="404.151" y1="306.755" x2="438.972" y2="307.069"/>
	<path fill="none" stroke="#5A4099" stroke-width="9" stroke-linecap="round" stroke-linejoin="round" d="M257.507,414.796
		c3.52-3.975,9.22-7.575,14.425-6.753c2.095,0.331,4.11,1.379,5.857,2.611"/>
	<path fill="none" stroke="#5A4099" stroke-width="9" stroke-linecap="round" stroke-linejoin="round" d="M277.864,357.04
		c0.529,5.956,2.761,12.181,6.885,16.563c2.309,2.455,5.213,4.334,8.267,5.705"/>
</g>
<g id="Model::Top_Half::FR1::Holes">
	<path fill="#C9DA2B" d="M396.937,314.119c-0.708-0.398-1.166-0.27-1.562,0.438c-0.399,0.709-0.271,1.165,0.438,1.563
		c0.708,0.397,1.166,0.269,1.562-0.438C397.773,314.973,397.645,314.517,396.937,314.119z"/>
	<path fill="#C9DA2B" d="M410.728,319.627c-0.708-0.398-1.166-0.269-1.562,0.44c-0.398,0.708-0.27,1.166,0.438,1.562
		c0.708,0.398,1.166,0.27,1.563-0.438C411.564,320.482,411.436,320.025,410.728,319.627z"/>
	<path fill="#C9DA2B" d="M402.94,343.604c-0.708-0.396-1.166-0.268-1.562,0.44c-0.399,0.708-0.271,1.166,0.438,1.563
		c0.708,0.396,1.166,0.268,1.562-0.44C403.776,344.459,403.648,344.001,402.94,343.604z"/>
	<path fill="#C9DA2B" d="M391.309,334.37c-0.708-0.398-1.166-0.27-1.562,0.439c-0.397,0.708-0.269,1.164,0.439,1.562
		c0.708,0.397,1.166,0.269,1.562-0.438C392.146,335.225,392.017,334.768,391.309,334.37z"/>
	<path fill="#C9DA2B" d="M388.604,364.34c-0.708-0.396-1.166-0.268-1.562,0.439c-0.397,0.708-0.269,1.166,0.439,1.562
		c0.708,0.398,1.166,0.271,1.562-0.438C389.44,365.195,389.312,364.737,388.604,364.34z"/>
	<path fill="#C9DA2B" d="M380.109,352.159c-0.707-0.397-1.166-0.271-1.562,0.438c-0.399,0.707-0.271,1.166,0.438,1.562
		s1.165,0.268,1.562-0.439C380.947,353.012,380.817,352.555,380.109,352.159z"/>
	<path fill="#C9DA2B" d="M368.922,380.091c-0.707-0.396-1.165-0.268-1.562,0.44c-0.396,0.707-0.268,1.166,0.44,1.562
		c0.708,0.399,1.166,0.271,1.562-0.438C369.759,380.947,369.631,380.489,368.922,380.091z"/>
	<path fill="#C9DA2B" d="M364.279,365.987c-0.709-0.398-1.166-0.27-1.562,0.438c-0.398,0.708-0.27,1.165,0.439,1.562
		c0.707,0.396,1.166,0.268,1.562-0.44S364.986,366.383,364.279,365.987z"/>
	<path fill="#C9DA2B" d="M345.551,389.539c-0.708-0.398-1.166-0.27-1.563,0.439c-0.396,0.707-0.268,1.165,0.44,1.562
		c0.708,0.396,1.166,0.268,1.562-0.439C346.387,390.393,346.259,389.937,345.551,389.539z"/>
	<path fill="#C9DA2B" d="M345.147,374.694c-0.708-0.399-1.166-0.271-1.562,0.438c-0.398,0.708-0.27,1.166,0.438,1.563
		c0.708,0.396,1.166,0.268,1.563-0.44C345.984,375.547,345.855,375.089,345.147,374.694z"/>
	<path fill="#C9DA2B" d="M320.451,391.884c-0.708-0.396-1.166-0.268-1.562,0.44c-0.398,0.708-0.269,1.166,0.438,1.562
		c0.707,0.398,1.165,0.269,1.562-0.438C321.287,392.739,321.158,392.281,320.451,391.884z"/>
	<path fill="#C9DA2B" d="M324.322,377.546c-0.708-0.397-1.166-0.269-1.562,0.438c-0.398,0.709-0.27,1.165,0.438,1.562
		c0.708,0.398,1.166,0.27,1.563-0.438C325.159,378.4,325.03,377.944,324.322,377.546z"/>
	<path fill="#C9DA2B" d="M295.733,386.934c-0.708-0.396-1.166-0.269-1.562,0.439c-0.399,0.708-0.271,1.166,0.438,1.562
		c0.708,0.398,1.166,0.27,1.563-0.438C296.569,387.788,296.441,387.331,295.733,386.934z"/>
	<path fill="#C9DA2B" d="M303.556,374.309c-0.708-0.396-1.166-0.269-1.563,0.439c-0.396,0.708-0.268,1.166,0.44,1.562
		c0.708,0.398,1.166,0.27,1.562-0.438C304.392,375.163,304.264,374.706,303.556,374.309z"/>
	<circle fill="#C9DA2B" cx="340.807" cy="529.869" r="2.409"/>
	<circle fill="#C9DA2B" cx="323.337" cy="506.611" r="2.409"/>
	<circle fill="#C9DA2B" cx="307.854" cy="481.987" r="2.409"/>
	<circle fill="#C9DA2B" cx="294.465" cy="456.164" r="2.409"/>
	<circle fill="#C9DA2B" cx="283.259" cy="429.322" r="2.41"/>
	<circle fill="#C9DA2B" cx="321.15" cy="406.337" r="2.409"/>
	<circle fill="#C9DA2B" cx="350.056" cy="403.064" r="2.41"/>
	<circle fill="#C9DA2B" cx="376.807" cy="391.639" r="2.409"/>
	<circle fill="#C9DA2B" cx="399.157" cy="373.021" r="2.409"/>
	<circle fill="#C9DA2B" cx="292.521" cy="401.182" r="2.409"/>
	<circle fill="#C9DA2B" cx="415.23" cy="348.775" r="2.41"/>
	<circle fill="#C9DA2B" cx="423.674" cy="320.938" r="2.41"/>
	<path fill="#C9DA2B" d="M309.184,305.949c-0.042,7.455,5.968,13.533,13.424,13.576c6,0.033,12,0.067,18,0.102
		c7.456,0.043,13.534-5.967,13.576-13.423C339.185,306.119,324.185,306.035,309.184,305.949z"/>
</g>
<g id="Viewport_Boundary">
	
		<rect x="-462.187" y="-392.965" fill="none" stroke="#F3C52C" stroke-linecap="round" stroke-linejoin="round" width="2761.263" height="1769.884"/>
</g>
</svg>
