<?xml version="1.0" encoding="utf-8"?>
<!-- Generator: Adobe Illustrator 16.0.4, SVG Export Plug-In . SVG Version: 6.00 Build 0)  -->
<!DOCTYPE svg PUBLIC "-//W3C//DTD SVG 1.1//EN" "http://www.w3.org/Graphics/SVG/1.1/DTD/svg11.dtd">
<svg version="1.1" id="Layer_1" xmlns="http://www.w3.org/2000/svg" xmlns:xlink="http://www.w3.org/1999/xlink" x="0px" y="0px"
	 width="690px" height="616px" viewBox="0 0 690 616" enable-background="new 0 0 690 616" xml:space="preserve">
<g id="Model::Top_Half::FR1::Outlines">
	<path fill="#6895CE" d="M569.33,501.088c-27.005,3.529-47.156,26.616-47.002,53.85c-59.999,0.34-119.998,0.68-179.997,1.019
		c-0.169-29.823-24.482-53.862-54.305-53.694c-29.822,0.169-53.862,24.482-53.693,54.306c-16.104,0.091-32.208,0.182-48.313,0.272
		c31.556-79.438,47.527-164.209,47.043-249.685c79.585-0.45,159.169-0.901,238.754-1.351
		C472.251,382.505,508.279,454.656,569.33,501.088z"/>
</g>
<g id="Model::Top_Half::FR1::Engrave">
	<path fill="none" stroke="#5A4099" stroke-width="9" stroke-linecap="round" stroke-linejoin="round" d="M351.197,306.487
		c0.322,57.045,58.707,95.3,111.137,72.822c2.743-1.176,5.929-0.023,7.285,2.637c3.561,6.984,7.123,13.972,10.684,20.957
		c1.476,2.893,0.224,6.431-2.742,7.753c-35.335,15.753-76.234,12.605-108.742-8.369c-32.5-20.97-52.224-56.925-52.442-95.602
		C327.982,306.618,339.59,306.553,351.197,306.487z"/>
	
		<line fill="none" stroke="#5A4099" stroke-width="9" stroke-linecap="round" stroke-linejoin="round" x1="522.328" y1="554.938" x2="342.331" y2="555.956"/>
	<path fill="none" stroke="#5A4099" stroke-width="9" stroke-linecap="round" stroke-linejoin="round" d="M234.333,556.567
		c-16.104,0.091-32.208,0.182-48.313,0.272c31.556-79.438,47.527-164.209,47.043-249.685"/>
	<path fill="none" stroke="#5A4099" stroke-width="9" stroke-linecap="round" stroke-linejoin="round" d="M471.817,305.804
		c0.434,76.701,36.461,148.852,97.513,195.284"/>
	
		<line fill="none" stroke="#5A4099" stroke-width="9" stroke-linecap="round" stroke-linejoin="round" x1="451.826" y1="418.657" x2="445.47" y2="384.42"/>
	
		<line fill="none" stroke="#5A4099" stroke-width="9" stroke-linecap="round" stroke-linejoin="round" x1="418.648" y1="419.922" x2="422.378" y2="385.3"/>
	
		<line fill="none" stroke="#5A4099" stroke-width="9" stroke-linecap="round" stroke-linejoin="round" x1="386.5" y1="411.618" x2="400.003" y2="379.521"/>
	
		<line fill="none" stroke="#5A4099" stroke-width="9" stroke-linecap="round" stroke-linejoin="round" x1="358.085" y1="394.443" x2="380.227" y2="367.566"/>
	
		<line fill="none" stroke="#5A4099" stroke-width="9" stroke-linecap="round" stroke-linejoin="round" x1="335.79" y1="369.84" x2="364.709" y2="350.443"/>
	
		<line fill="none" stroke="#5A4099" stroke-width="9" stroke-linecap="round" stroke-linejoin="round" x1="321.487" y1="339.876" x2="354.754" y2="329.589"/>
	
		<line fill="none" stroke="#5A4099" stroke-width="9" stroke-linecap="round" stroke-linejoin="round" x1="316.378" y1="307.069" x2="351.198" y2="306.755"/>
	<path fill="none" stroke="#5A4099" stroke-width="9" stroke-linecap="round" stroke-linejoin="round" d="M477.561,410.654
		c1.747-1.232,3.762-2.28,5.857-2.611c5.205-0.822,10.905,2.778,14.425,6.753"/>
	<path fill="none" stroke="#5A4099" stroke-width="9" stroke-linecap="round" stroke-linejoin="round" d="M462.334,379.309
		c3.054-1.371,5.958-3.25,8.267-5.705c4.124-4.383,6.355-10.608,6.884-16.564"/>
</g>
<g id="Model::Top_Half::FR1::Holes">
	<path fill="#C9DA2B" d="M357.974,315.682c0.397,0.707,0.855,0.836,1.563,0.438s0.837-0.854,0.438-1.563
		c-0.396-0.707-0.854-0.836-1.562-0.438S357.576,314.973,357.974,315.682z"/>
	<path fill="#C9DA2B" d="M344.182,321.191c0.397,0.707,0.855,0.836,1.563,0.438c0.708-0.396,0.837-0.854,0.439-1.562
		c-0.396-0.709-0.854-0.838-1.562-0.44S343.785,320.482,344.182,321.191z"/>
	<path fill="#C9DA2B" d="M351.97,345.167c0.397,0.708,0.855,0.836,1.563,0.44c0.708-0.397,0.837-0.855,0.438-1.563
		c-0.396-0.708-0.854-0.837-1.562-0.44C351.701,344.001,351.573,344.459,351.97,345.167z"/>
	<path fill="#C9DA2B" d="M363.601,335.934c0.397,0.707,0.855,0.836,1.563,0.438s0.837-0.854,0.439-1.562
		c-0.396-0.709-0.854-0.838-1.562-0.44S363.204,335.225,363.601,335.934z"/>
	<path fill="#C9DA2B" d="M366.306,365.902c0.397,0.709,0.855,0.837,1.563,0.439c0.708-0.396,0.837-0.854,0.439-1.562
		c-0.396-0.707-0.854-0.836-1.562-0.439S365.909,365.195,366.306,365.902z"/>
	<path fill="#C9DA2B" d="M374.801,353.721c0.397,0.707,0.854,0.836,1.563,0.439c0.708-0.396,0.837-0.855,0.438-1.562
		c-0.396-0.709-0.854-0.836-1.562-0.439C374.532,352.555,374.403,353.012,374.801,353.721z"/>
	<path fill="#C9DA2B" d="M385.988,381.654c0.396,0.709,0.854,0.838,1.562,0.439c0.708-0.396,0.837-0.855,0.44-1.562
		c-0.397-0.708-0.855-0.837-1.563-0.44C385.719,380.489,385.591,380.947,385.988,381.654z"/>
	<path fill="#C9DA2B" d="M390.631,367.548c0.397,0.708,0.855,0.837,1.563,0.44c0.708-0.397,0.837-0.854,0.439-1.562
		c-0.396-0.708-0.854-0.837-1.562-0.439C390.363,366.383,390.234,366.84,390.631,367.548z"/>
	<path fill="#C9DA2B" d="M409.36,391.102c0.396,0.707,0.854,0.836,1.562,0.439s0.837-0.855,0.44-1.562
		c-0.397-0.709-0.855-0.838-1.563-0.44S408.963,390.393,409.36,391.102z"/>
	<path fill="#C9DA2B" d="M409.762,376.255c0.397,0.708,0.855,0.837,1.563,0.44c0.708-0.397,0.837-0.855,0.439-1.563
		c-0.396-0.708-0.854-0.837-1.562-0.438C409.494,375.089,409.365,375.547,409.762,376.255z"/>
	<path fill="#C9DA2B" d="M434.459,393.447c0.397,0.707,0.855,0.837,1.562,0.439c0.708-0.396,0.837-0.854,0.439-1.562
		c-0.396-0.708-0.854-0.836-1.562-0.44C434.191,392.281,434.062,392.739,434.459,393.447z"/>
	<path fill="#C9DA2B" d="M430.587,379.109c0.397,0.707,0.855,0.836,1.563,0.438s0.837-0.854,0.439-1.563
		c-0.396-0.707-0.854-0.836-1.562-0.438S430.19,378.4,430.587,379.109z"/>
	<path fill="#C9DA2B" d="M459.177,388.496c0.397,0.708,0.855,0.837,1.563,0.439c0.708-0.396,0.837-0.854,0.438-1.562
		c-0.396-0.708-0.854-0.836-1.562-0.439S458.78,387.788,459.177,388.496z"/>
	<path fill="#C9DA2B" d="M451.355,375.871c0.396,0.708,0.854,0.837,1.562,0.439c0.708-0.396,0.837-0.854,0.44-1.562
		c-0.397-0.708-0.855-0.836-1.563-0.439S450.958,375.163,451.355,375.871z"/>
	<circle fill="#C9DA2B" cx="414.543" cy="529.869" r="2.409"/>
	<circle fill="#C9DA2B" cx="432.012" cy="506.611" r="2.409"/>
	<circle fill="#C9DA2B" cx="447.495" cy="481.987" r="2.409"/>
	<circle fill="#C9DA2B" cx="460.885" cy="456.164" r="2.409"/>
	<circle fill="#C9DA2B" cx="472.091" cy="429.322" r="2.41"/>
	<circle fill="#C9DA2B" cx="434.199" cy="406.337" r="2.409"/>
	<circle fill="#C9DA2B" cx="405.294" cy="403.064" r="2.41"/>
	<circle fill="#C9DA2B" cx="378.543" cy="391.639" r="2.409"/>
	<circle fill="#C9DA2B" cx="356.192" cy="373.021" r="2.409"/>
	<circle fill="#C9DA2B" cx="462.828" cy="401.182" r="2.409"/>
	<circle fill="#C9DA2B" cx="340.12" cy="348.775" r="2.41"/>
	<circle fill="#C9DA2B" cx="331.676" cy="320.938" r="2.41"/>
	<path fill="#C9DA2B" d="M401.166,306.204c0.042,7.456,6.12,13.466,13.576,13.423c6-0.034,12-0.068,18-0.102
		c7.456-0.043,13.466-6.121,13.424-13.576C431.165,306.035,416.165,306.119,401.166,306.204z"/>
</g>
<g id="Viewport_Boundary">
	
		<rect x="-462.187" y="-392.965" fill="none" stroke="#F3C52C" stroke-linecap="round" stroke-linejoin="round" width="2761.263" height="1769.884"/>
</g>
</svg>
